G04 #@! TF.GenerationSoftware,KiCad,Pcbnew,5.1.5+dfsg1-2build2*
G04 #@! TF.CreationDate,2022-03-18T16:26:14+00:00*
G04 #@! TF.ProjectId,pico41,7069636f-3431-42e6-9b69-6361645f7063,rev?*
G04 #@! TF.SameCoordinates,Original*
G04 #@! TF.FileFunction,Copper,L2,Bot*
G04 #@! TF.FilePolarity,Positive*
%FSLAX46Y46*%
G04 Gerber Fmt 4.6, Leading zero omitted, Abs format (unit mm)*
G04 Created by KiCad (PCBNEW 5.1.5+dfsg1-2build2) date 2022-03-18 16:26:14*
%MOMM*%
%LPD*%
G04 APERTURE LIST*
%ADD10O,1.700000X1.700000*%
%ADD11R,1.700000X1.700000*%
%ADD12C,0.800000*%
%ADD13C,0.250000*%
%ADD14C,0.254000*%
G04 APERTURE END LIST*
D10*
X68140000Y-32200000D03*
D11*
X65600000Y-32200000D03*
D10*
X63060000Y-32200000D03*
X74490000Y15830000D03*
X74490000Y13290000D03*
D11*
X74490000Y10750000D03*
D10*
X74490000Y8210000D03*
X74490000Y5670000D03*
X74490000Y3130000D03*
X74490000Y590000D03*
D11*
X74490000Y-1950000D03*
D10*
X74490000Y-4490000D03*
X74490000Y-7030000D03*
X74490000Y-9570000D03*
X74490000Y-12110000D03*
D11*
X74490000Y-14650000D03*
D10*
X74490000Y-17190000D03*
X74490000Y-19730000D03*
X74490000Y-22270000D03*
X74490000Y-24810000D03*
D11*
X74490000Y-27350000D03*
D10*
X74490000Y-29890000D03*
X74490000Y-32430000D03*
X56710000Y-32430000D03*
X56710000Y-29890000D03*
D11*
X56710000Y-27350000D03*
D10*
X56710000Y-24810000D03*
X56710000Y-22270000D03*
X56710000Y-19730000D03*
X56710000Y-17190000D03*
D11*
X56710000Y-14650000D03*
D10*
X56710000Y-12110000D03*
X56710000Y-9570000D03*
X56710000Y-7030000D03*
X56710000Y-4490000D03*
D11*
X56710000Y-1950000D03*
D10*
X56710000Y590000D03*
X56710000Y3130000D03*
X56710000Y5670000D03*
X56710000Y8210000D03*
D11*
X56710000Y10750000D03*
D10*
X56710000Y13290000D03*
X56710000Y15830000D03*
X83820000Y-26924000D03*
X83820000Y-29464000D03*
D11*
X83820000Y-32004000D03*
D10*
X38858000Y-14848000D03*
X36318000Y-14848000D03*
X33778000Y-14848000D03*
D11*
X31238000Y-14848000D03*
D10*
X1000000Y-25320000D03*
X3540000Y-25320000D03*
X1000000Y-22780000D03*
X3540000Y-22780000D03*
X1000000Y-20240000D03*
X3540000Y-20240000D03*
X1000000Y-17700000D03*
X3540000Y-17700000D03*
X1000000Y-15160000D03*
X3540000Y-15160000D03*
X1000000Y-12620000D03*
X3540000Y-12620000D03*
X1000000Y-10080000D03*
X3540000Y-10080000D03*
X1000000Y-7540000D03*
X3540000Y-7540000D03*
X1000000Y-5000000D03*
X3540000Y-5000000D03*
X1000000Y-2460000D03*
X3540000Y-2460000D03*
X1000000Y80000D03*
X3540000Y80000D03*
X1000000Y2620000D03*
X3540000Y2620000D03*
X1000000Y5160000D03*
X3540000Y5160000D03*
X1000000Y7700000D03*
X3540000Y7700000D03*
X1000000Y10240000D03*
X3540000Y10240000D03*
X1000000Y12780000D03*
D11*
X3540000Y12780000D03*
D12*
X17272000Y-1778000D03*
X17255000Y13445000D03*
X31496000Y11430000D03*
X31496000Y6096000D03*
X31496000Y4064000D03*
X31496000Y1270000D03*
X31496000Y-1270000D03*
X31496000Y-6604000D03*
X17272000Y-26416000D03*
X4572000Y-24130000D03*
X23114000Y-25560010D03*
X23077000Y-23114000D03*
X-1270000Y10160000D03*
X-1270000Y-23876000D03*
X23883224Y-23705613D03*
X23174847Y-20005153D03*
X-545000Y-23043949D03*
X-762000Y-27940000D03*
X28739000Y-27940000D03*
X28702000Y-20574000D03*
X10433373Y-21783651D03*
X10160000Y-15203000D03*
X5334000Y-15748000D03*
X5334000Y-21590000D03*
X-254000Y-21590000D03*
X15486892Y-24493963D03*
X15494000Y-28702000D03*
X10414000Y-28702000D03*
X6350000Y-20828000D03*
X6350000Y-18495010D03*
X6350000Y-11430000D03*
X20828000Y-6858000D03*
X19995949Y-13161299D03*
X5588000Y-12700000D03*
X5334000Y-3556000D03*
X22098000Y-4064000D03*
X22144701Y-15310051D03*
X-508000Y-16510000D03*
X21336000Y-5588000D03*
X21590000Y-14478000D03*
X5080000Y-14732000D03*
X-508000Y11176000D03*
X16547000Y9652000D03*
X16764000Y-6604000D03*
X7837000Y-5334000D03*
X7874000Y0D03*
X5842000Y-2540000D03*
X5334000Y3810000D03*
X11684000Y-7034990D03*
X12409000Y2540000D03*
X12954000Y8382000D03*
X12700000Y5334000D03*
X6387000Y-1524000D03*
X5588000Y12700000D03*
X5588000Y8890000D03*
X6858000Y13462000D03*
X6858000Y7620000D03*
X65532000Y-27178000D03*
X46228000Y10160000D03*
X45974000Y14986000D03*
X38354000Y7874000D03*
X38608000Y2794000D03*
X44958000Y6096000D03*
X44958000Y508000D03*
X44958000Y-2794000D03*
X-762000Y12954000D03*
X-762000Y17780000D03*
X11176000Y17780000D03*
X10922000Y6096000D03*
X10922000Y4064000D03*
X9525000Y-9475000D03*
X9525000Y-10745000D03*
X36322000Y-24130000D03*
X36338000Y-21698000D03*
X37846000Y-4572000D03*
X24384000Y-25908000D03*
X24384000Y-28956000D03*
X20828000Y-28956000D03*
X19303263Y-24110010D03*
X6858000Y-25654000D03*
X6858000Y-29972000D03*
X80518000Y-14478000D03*
X79674000Y-27350000D03*
X38838000Y-20498000D03*
X36322000Y-25400000D03*
X40640000Y-22747990D03*
X40894000Y-13970000D03*
X39116000Y-25654000D03*
X33020000Y-19304000D03*
X31496000Y-10922000D03*
X30734000Y-22860000D03*
X67818000Y-26162000D03*
X42164000Y-22098000D03*
X41910000Y-24197990D03*
X34290000Y-23114000D03*
X34050500Y-20348000D03*
X34290000Y-27686000D03*
X42164000Y-27686000D03*
X35052000Y-13716000D03*
X25654000Y-13716000D03*
X25654000Y-15494000D03*
X25908000Y-32258000D03*
X8890000Y-32258000D03*
X9025000Y-15955010D03*
X7874000Y14986000D03*
X7874000Y7366000D03*
X7112000Y6350000D03*
X6858000Y-8128000D03*
X17997000Y9398000D03*
X18034000Y-8583242D03*
X19846999Y3048000D03*
X19304000Y-11176000D03*
X18722000Y6858000D03*
X18839419Y-9175952D03*
X21844000Y-2286000D03*
X21336000Y5588000D03*
X20574000Y-254000D03*
X20574000Y7874000D03*
X16764000Y-4826000D03*
X16510000Y3810000D03*
X48514000Y-22098000D03*
X48514000Y-16002000D03*
X16764000Y-18288000D03*
X16764000Y-23622000D03*
X7366000Y-12446000D03*
X7366000Y-22098000D03*
X11176000Y-9906000D03*
X10922000Y-19812000D03*
X11938000Y-8128000D03*
X11901000Y-17272000D03*
X25654000Y-30615000D03*
X24130000Y-18034000D03*
X29464000Y-19049990D03*
X29464000Y-33274000D03*
X27940000Y-32258000D03*
X28194000Y-22860000D03*
X18288000Y-29972000D03*
X18288000Y-21590000D03*
X22352000Y-26670000D03*
X22606000Y-18034000D03*
X42926000Y-20828000D03*
X43180000Y-12954000D03*
X20828000Y-13716000D03*
X19050000Y-16490010D03*
X11684000Y10922000D03*
X11684000Y-4572000D03*
D13*
X17272000Y13428000D02*
X17255000Y13445000D01*
X17272000Y-1778000D02*
X17272000Y13428000D01*
X31496000Y11430000D02*
X31496000Y6096000D01*
X31496000Y4064000D02*
X31496000Y6096000D01*
X31496000Y1270000D02*
X31496000Y4064000D01*
X31496000Y-1270000D02*
X31496000Y1270000D01*
X31496000Y-6604000D02*
X31496000Y-1270000D01*
X17489001Y-17939999D02*
X17489001Y-26198999D01*
X17272000Y-7169002D02*
X17272000Y-17722998D01*
X17489001Y-6952001D02*
X17272000Y-7169002D01*
X17489001Y-26198999D02*
X17272000Y-26416000D01*
X17272000Y-17722998D02*
X17489001Y-17939999D01*
X17489001Y-2560686D02*
X17489001Y-6952001D01*
X17272000Y-2343685D02*
X17489001Y-2560686D01*
X17272000Y-1778000D02*
X17272000Y-2343685D01*
X1849999Y-21930001D02*
X1000000Y-22780000D01*
X2175001Y-21604999D02*
X1849999Y-21930001D01*
X2175001Y8074003D02*
X2175001Y-21604999D01*
X3540000Y9439002D02*
X2175001Y8074003D01*
X3540000Y10240000D02*
X3540000Y9439002D01*
X2350000Y-24130000D02*
X1000000Y-22780000D01*
X4572000Y-24130000D02*
X2350000Y-24130000D01*
X23114000Y-23151000D02*
X23077000Y-23114000D01*
X23114000Y-25560010D02*
X23114000Y-23151000D01*
X-1270000Y10160000D02*
X-1270000Y-23876000D01*
X23883224Y-20713530D02*
X23174847Y-20005153D01*
X23883224Y-23705613D02*
X23883224Y-20713530D01*
X-545000Y-27723000D02*
X-762000Y-27940000D01*
X-545000Y-23043949D02*
X-545000Y-27723000D01*
X28919001Y-20791001D02*
X28702000Y-20574000D01*
X28919001Y-27194314D02*
X28919001Y-20791001D01*
X28739000Y-27374315D02*
X28919001Y-27194314D01*
X28739000Y-27940000D02*
X28739000Y-27374315D01*
X10033374Y-15329626D02*
X10160000Y-15203000D01*
X10033374Y-21383652D02*
X10033374Y-15329626D01*
X10433373Y-21783651D02*
X10033374Y-21383652D01*
X5334000Y-15748000D02*
X5334000Y-21590000D01*
X-254000Y-18954000D02*
X1000000Y-17700000D01*
X-254000Y-21590000D02*
X-254000Y-18954000D01*
X15486892Y-28694892D02*
X15494000Y-28702000D01*
X15486892Y-24493963D02*
X15486892Y-28694892D01*
X10414000Y-21803024D02*
X10433373Y-21783651D01*
X10414000Y-28702000D02*
X10414000Y-21803024D01*
X4715001Y-21135997D02*
X4715001Y-18875001D01*
X4715001Y-18875001D02*
X4389999Y-18549999D01*
X4608999Y-21241999D02*
X4715001Y-21135997D01*
X4608999Y-21938001D02*
X4608999Y-21241999D01*
X4985999Y-22315001D02*
X4608999Y-21938001D01*
X4389999Y-18549999D02*
X3540000Y-17700000D01*
X6350000Y-21647002D02*
X5682001Y-22315001D01*
X5682001Y-22315001D02*
X4985999Y-22315001D01*
X6350000Y-20828000D02*
X6350000Y-21647002D01*
X6350000Y-18495010D02*
X6350000Y-11430000D01*
X20828000Y-12329248D02*
X19995949Y-13161299D01*
X20828000Y-6858000D02*
X20828000Y-12329248D01*
X5588000Y-3810000D02*
X5334000Y-3556000D01*
X5588000Y-12700000D02*
X5588000Y-3810000D01*
X22497999Y-14956753D02*
X22144701Y-15310051D01*
X22497999Y-4463999D02*
X22497999Y-14956753D01*
X22098000Y-4064000D02*
X22497999Y-4463999D01*
X-508000Y-11588000D02*
X1000000Y-10080000D01*
X-508000Y-16510000D02*
X-508000Y-11588000D01*
X21735999Y-14332001D02*
X21590000Y-14478000D01*
X21735999Y-5987999D02*
X21735999Y-14332001D01*
X21336000Y-5588000D02*
X21735999Y-5987999D01*
X4715001Y-11255001D02*
X4389999Y-10929999D01*
X4715001Y-13801316D02*
X4715001Y-11255001D01*
X4389999Y-10929999D02*
X3540000Y-10080000D01*
X5080000Y-14166315D02*
X4715001Y-13801316D01*
X5080000Y-14732000D02*
X5080000Y-14166315D01*
X-508000Y-6032000D02*
X1000000Y-7540000D01*
X-508000Y11176000D02*
X-508000Y-6032000D01*
X15784999Y-5624999D02*
X16764000Y-6604000D01*
X15784999Y8889999D02*
X15784999Y-5624999D01*
X16547000Y9652000D02*
X15784999Y8889999D01*
X7837000Y-37000D02*
X7874000Y0D01*
X7837000Y-5334000D02*
X7837000Y-37000D01*
X5334000Y-2032000D02*
X5334000Y3810000D01*
X5842000Y-2540000D02*
X5334000Y-2032000D01*
X12409000Y-6309990D02*
X12409000Y2540000D01*
X11684000Y-7034990D02*
X12409000Y-6309990D01*
X12954000Y5588000D02*
X12700000Y5334000D01*
X12954000Y8382000D02*
X12954000Y5588000D01*
X6387000Y-1524000D02*
X6387000Y4535000D01*
X5762000Y5160000D02*
X3540000Y5160000D01*
X6387000Y4535000D02*
X5762000Y5160000D01*
X5588000Y12700000D02*
X5588000Y8890000D01*
X6858000Y13462000D02*
X6858000Y7620000D01*
X65532000Y-32132000D02*
X65600000Y-32200000D01*
X65532000Y-27178000D02*
X65532000Y-32132000D01*
X46228000Y14732000D02*
X45974000Y14986000D01*
X46228000Y10160000D02*
X46228000Y14732000D01*
X38354000Y3048000D02*
X38608000Y2794000D01*
X38354000Y7874000D02*
X38354000Y3048000D01*
X46228000Y7366000D02*
X46228000Y10160000D01*
X44958000Y6096000D02*
X46228000Y7366000D01*
X44958000Y6096000D02*
X44958000Y508000D01*
X44958000Y-2794000D02*
X44958000Y508000D01*
X-762000Y12954000D02*
X-762000Y17780000D01*
X10776001Y6241999D02*
X10922000Y6096000D01*
X10776001Y17380001D02*
X10776001Y6241999D01*
X11176000Y17780000D02*
X10776001Y17380001D01*
X10922000Y6096000D02*
X10922000Y4064000D01*
X10922000Y-8078000D02*
X9525000Y-9475000D01*
X10922000Y4064000D02*
X10922000Y-8078000D01*
X9525000Y-9475000D02*
X9525000Y-10745000D01*
X36322000Y-21714000D02*
X36338000Y-21698000D01*
X36322000Y-24130000D02*
X36322000Y-21714000D01*
X37493001Y-4924999D02*
X37846000Y-4572000D01*
X37493001Y-20542999D02*
X37493001Y-4924999D01*
X36338000Y-21698000D02*
X37493001Y-20542999D01*
X24384000Y-25908000D02*
X24384000Y-28956000D01*
X20828000Y-25634747D02*
X19303263Y-24110010D01*
X20828000Y-28956000D02*
X20828000Y-25634747D01*
X6858000Y-25654000D02*
X6858000Y-29972000D01*
X79674000Y-15322000D02*
X79674000Y-27350000D01*
X80518000Y-14478000D02*
X79674000Y-15322000D01*
X56710000Y-14650000D02*
X59436000Y-11924000D01*
X59436000Y-11924000D02*
X59436000Y-3048000D01*
X58338000Y-1950000D02*
X56710000Y-1950000D01*
X59436000Y-3048000D02*
X58338000Y-1950000D01*
X74490000Y-14650000D02*
X73070000Y-14650000D01*
X73070000Y-14650000D02*
X71882000Y-13462000D01*
X71882000Y-13462000D02*
X71882000Y-2794000D01*
X72726000Y-1950000D02*
X74490000Y-1950000D01*
X71882000Y-2794000D02*
X72726000Y-1950000D01*
X74490000Y10750000D02*
X74662000Y10922000D01*
X74662000Y10922000D02*
X76962000Y10922000D01*
X76962000Y10922000D02*
X79502000Y8382000D01*
X79502000Y8382000D02*
X79502000Y-762000D01*
X78314000Y-1950000D02*
X74490000Y-1950000D01*
X79502000Y-762000D02*
X78314000Y-1950000D01*
X56710000Y10750000D02*
X58846000Y10750000D01*
X58846000Y10750000D02*
X59436000Y10160000D01*
X59436000Y10160000D02*
X59436000Y-1270000D01*
X58756000Y-1950000D02*
X56710000Y-1950000D01*
X59436000Y-1270000D02*
X58756000Y-1950000D01*
X7257999Y-25254001D02*
X6858000Y-25654000D01*
X8091001Y-24420999D02*
X7257999Y-25254001D01*
X8091001Y-12178999D02*
X8091001Y-24420999D01*
X9525000Y-10745000D02*
X8091001Y-12178999D01*
X38858000Y-20478000D02*
X38838000Y-20498000D01*
X38858000Y-14848000D02*
X38858000Y-20478000D01*
X38838000Y-22884000D02*
X38838000Y-20498000D01*
X36322000Y-25400000D02*
X38838000Y-22884000D01*
X40640000Y-14224000D02*
X40894000Y-13970000D01*
X40640000Y-22747990D02*
X40640000Y-14224000D01*
X40640000Y-24130000D02*
X40640000Y-22747990D01*
X39116000Y-25654000D02*
X40640000Y-24130000D01*
X33778000Y-18546000D02*
X33778000Y-14848000D01*
X33020000Y-19304000D02*
X33778000Y-18546000D01*
X31496000Y-14590000D02*
X31238000Y-14848000D01*
X31496000Y-10922000D02*
X31496000Y-14590000D01*
X31238000Y-22356000D02*
X31238000Y-14848000D01*
X30734000Y-22860000D02*
X31238000Y-22356000D01*
X67818000Y-31878000D02*
X68140000Y-32200000D01*
X67818000Y-26162000D02*
X67818000Y-31878000D01*
X42164000Y-23943990D02*
X41910000Y-24197990D01*
X42164000Y-22098000D02*
X42164000Y-23943990D01*
X34290000Y-20587500D02*
X34050500Y-20348000D01*
X34290000Y-23114000D02*
X34290000Y-20587500D01*
X34290000Y-23114000D02*
X34290000Y-27686000D01*
X42164000Y-24451990D02*
X41910000Y-24197990D01*
X42164000Y-27686000D02*
X42164000Y-24451990D01*
X35052000Y-19859000D02*
X35052000Y-13716000D01*
X34563000Y-20348000D02*
X35052000Y-19859000D01*
X34050500Y-20348000D02*
X34563000Y-20348000D01*
X25654000Y-13716000D02*
X25654000Y-15494000D01*
X26379001Y-31786999D02*
X25908000Y-32258000D01*
X26379001Y-16219001D02*
X26379001Y-31786999D01*
X25654000Y-15494000D02*
X26379001Y-16219001D01*
X8890000Y-16090010D02*
X9025000Y-15955010D01*
X8890000Y-32258000D02*
X8890000Y-16090010D01*
X7874000Y14986000D02*
X7874000Y7366000D01*
X7112000Y-7874000D02*
X6858000Y-8128000D01*
X7112000Y6350000D02*
X7112000Y-7874000D01*
X17997000Y-8546242D02*
X18034000Y-8583242D01*
X17997000Y9398000D02*
X17997000Y-8546242D01*
X19846999Y-10633001D02*
X19304000Y-11176000D01*
X19846999Y3048000D02*
X19846999Y-10633001D01*
X19121999Y-8893372D02*
X18839419Y-9175952D01*
X19121999Y6458001D02*
X19121999Y-8893372D01*
X18722000Y6858000D02*
X19121999Y6458001D01*
X21336000Y-1778000D02*
X21336000Y5588000D01*
X21844000Y-2286000D02*
X21336000Y-1778000D01*
X20574000Y-254000D02*
X20574000Y7874000D01*
X16364001Y3664001D02*
X16510000Y3810000D01*
X16364001Y-4426001D02*
X16364001Y3664001D01*
X16764000Y-4826000D02*
X16364001Y-4426001D01*
X48514000Y-22098000D02*
X48514000Y-16002000D01*
X16764000Y-18288000D02*
X16764000Y-23622000D01*
X7366000Y-12446000D02*
X7366000Y-22098000D01*
X11176000Y-19558000D02*
X10922000Y-19812000D01*
X11176000Y-9906000D02*
X11176000Y-19558000D01*
X11938000Y-17235000D02*
X11901000Y-17272000D01*
X11938000Y-8128000D02*
X11938000Y-17235000D01*
X25654000Y-19558000D02*
X24130000Y-18034000D01*
X25654000Y-30615000D02*
X25654000Y-19558000D01*
X29464000Y-19049990D02*
X29464000Y-33274000D01*
X27940000Y-23114000D02*
X28194000Y-22860000D01*
X27940000Y-32258000D02*
X27940000Y-23114000D01*
X18288000Y-29972000D02*
X18288000Y-21590000D01*
X22352000Y-18288000D02*
X22606000Y-18034000D01*
X22352000Y-26670000D02*
X22352000Y-18288000D01*
X42926000Y-13208000D02*
X43180000Y-12954000D01*
X42926000Y-20828000D02*
X42926000Y-13208000D01*
X19050000Y-15494000D02*
X19050000Y-16490010D01*
X20828000Y-13716000D02*
X19050000Y-15494000D01*
X11684000Y10922000D02*
X11684000Y-4572000D01*
D14*
G36*
X89002001Y-34901821D02*
G01*
X-1626000Y-35152175D01*
X-1626000Y-28509883D01*
X-1565937Y-28599774D01*
X-1421774Y-28743937D01*
X-1252256Y-28857205D01*
X-1063898Y-28935226D01*
X-863939Y-28975000D01*
X-660061Y-28975000D01*
X-460102Y-28935226D01*
X-271744Y-28857205D01*
X-102226Y-28743937D01*
X41937Y-28599774D01*
X155205Y-28430256D01*
X233226Y-28241898D01*
X273000Y-28041939D01*
X273000Y-27838061D01*
X233226Y-27638102D01*
X215000Y-27594101D01*
X215000Y-26581474D01*
X296589Y-26635990D01*
X566842Y-26747932D01*
X853740Y-26805000D01*
X1146260Y-26805000D01*
X1433158Y-26747932D01*
X1703411Y-26635990D01*
X1946632Y-26473475D01*
X2153475Y-26266632D01*
X2270000Y-26092240D01*
X2386525Y-26266632D01*
X2593368Y-26473475D01*
X2836589Y-26635990D01*
X3106842Y-26747932D01*
X3393740Y-26805000D01*
X3686260Y-26805000D01*
X3973158Y-26747932D01*
X4243411Y-26635990D01*
X4486632Y-26473475D01*
X4693475Y-26266632D01*
X4855990Y-26023411D01*
X4967932Y-25753158D01*
X5025000Y-25466260D01*
X5025000Y-25173740D01*
X5004582Y-25071094D01*
X5062256Y-25047205D01*
X5231774Y-24933937D01*
X5375937Y-24789774D01*
X5489205Y-24620256D01*
X5567226Y-24431898D01*
X5607000Y-24231939D01*
X5607000Y-24028061D01*
X5567226Y-23828102D01*
X5489205Y-23639744D01*
X5375937Y-23470226D01*
X5231774Y-23326063D01*
X5062256Y-23212795D01*
X4975179Y-23176726D01*
X4994855Y-23077806D01*
X5023332Y-23075001D01*
X5644679Y-23075001D01*
X5682001Y-23078677D01*
X5719323Y-23075001D01*
X5719334Y-23075001D01*
X5830987Y-23064004D01*
X5974248Y-23020547D01*
X6106277Y-22949975D01*
X6222002Y-22855002D01*
X6245804Y-22825999D01*
X6462715Y-22609089D01*
X6562063Y-22757774D01*
X6706226Y-22901937D01*
X6875744Y-23015205D01*
X7064102Y-23093226D01*
X7264061Y-23133000D01*
X7467939Y-23133000D01*
X7667898Y-23093226D01*
X7856256Y-23015205D01*
X8025774Y-22901937D01*
X8130001Y-22797710D01*
X8130000Y-31554289D01*
X8086063Y-31598226D01*
X7972795Y-31767744D01*
X7894774Y-31956102D01*
X7855000Y-32156061D01*
X7855000Y-32359939D01*
X7894774Y-32559898D01*
X7972795Y-32748256D01*
X8086063Y-32917774D01*
X8230226Y-33061937D01*
X8399744Y-33175205D01*
X8588102Y-33253226D01*
X8788061Y-33293000D01*
X8991939Y-33293000D01*
X9191898Y-33253226D01*
X9380256Y-33175205D01*
X9549774Y-33061937D01*
X9693937Y-32917774D01*
X9807205Y-32748256D01*
X9885226Y-32559898D01*
X9925000Y-32359939D01*
X9925000Y-32156061D01*
X9885226Y-31956102D01*
X9807205Y-31767744D01*
X9693937Y-31598226D01*
X9650000Y-31554289D01*
X9650000Y-29401711D01*
X9754226Y-29505937D01*
X9923744Y-29619205D01*
X10112102Y-29697226D01*
X10312061Y-29737000D01*
X10515939Y-29737000D01*
X10715898Y-29697226D01*
X10904256Y-29619205D01*
X11073774Y-29505937D01*
X11217937Y-29361774D01*
X11331205Y-29192256D01*
X11409226Y-29003898D01*
X11449000Y-28803939D01*
X11449000Y-28600061D01*
X11409226Y-28400102D01*
X11331205Y-28211744D01*
X11217937Y-28042226D01*
X11174000Y-27998289D01*
X11174000Y-24392024D01*
X14451892Y-24392024D01*
X14451892Y-24595902D01*
X14491666Y-24795861D01*
X14569687Y-24984219D01*
X14682955Y-25153737D01*
X14726892Y-25197674D01*
X14726893Y-28005396D01*
X14690063Y-28042226D01*
X14576795Y-28211744D01*
X14498774Y-28400102D01*
X14459000Y-28600061D01*
X14459000Y-28803939D01*
X14498774Y-29003898D01*
X14576795Y-29192256D01*
X14690063Y-29361774D01*
X14834226Y-29505937D01*
X15003744Y-29619205D01*
X15192102Y-29697226D01*
X15392061Y-29737000D01*
X15595939Y-29737000D01*
X15795898Y-29697226D01*
X15984256Y-29619205D01*
X16153774Y-29505937D01*
X16297937Y-29361774D01*
X16411205Y-29192256D01*
X16489226Y-29003898D01*
X16529000Y-28803939D01*
X16529000Y-28600061D01*
X16489226Y-28400102D01*
X16411205Y-28211744D01*
X16297937Y-28042226D01*
X16246892Y-27991181D01*
X16246892Y-26567670D01*
X16276774Y-26717898D01*
X16354795Y-26906256D01*
X16468063Y-27075774D01*
X16612226Y-27219937D01*
X16781744Y-27333205D01*
X16970102Y-27411226D01*
X17170061Y-27451000D01*
X17373939Y-27451000D01*
X17528000Y-27420356D01*
X17528000Y-29268289D01*
X17484063Y-29312226D01*
X17370795Y-29481744D01*
X17292774Y-29670102D01*
X17253000Y-29870061D01*
X17253000Y-30073939D01*
X17292774Y-30273898D01*
X17370795Y-30462256D01*
X17484063Y-30631774D01*
X17628226Y-30775937D01*
X17797744Y-30889205D01*
X17986102Y-30967226D01*
X18186061Y-31007000D01*
X18389939Y-31007000D01*
X18589898Y-30967226D01*
X18778256Y-30889205D01*
X18947774Y-30775937D01*
X19091937Y-30631774D01*
X19205205Y-30462256D01*
X19283226Y-30273898D01*
X19323000Y-30073939D01*
X19323000Y-29870061D01*
X19283226Y-29670102D01*
X19205205Y-29481744D01*
X19091937Y-29312226D01*
X19048000Y-29268289D01*
X19048000Y-26568061D01*
X21317000Y-26568061D01*
X21317000Y-26771939D01*
X21356774Y-26971898D01*
X21434795Y-27160256D01*
X21548063Y-27329774D01*
X21692226Y-27473937D01*
X21861744Y-27587205D01*
X22050102Y-27665226D01*
X22250061Y-27705000D01*
X22453939Y-27705000D01*
X22653898Y-27665226D01*
X22842256Y-27587205D01*
X23011774Y-27473937D01*
X23155937Y-27329774D01*
X23269205Y-27160256D01*
X23347226Y-26971898D01*
X23387000Y-26771939D01*
X23387000Y-26568061D01*
X23385646Y-26561253D01*
X23415898Y-26555236D01*
X23604256Y-26477215D01*
X23773774Y-26363947D01*
X23917937Y-26219784D01*
X24031205Y-26050266D01*
X24109226Y-25861908D01*
X24149000Y-25661949D01*
X24149000Y-25458071D01*
X24109226Y-25258112D01*
X24031205Y-25069754D01*
X23917937Y-24900236D01*
X23874000Y-24856299D01*
X23874000Y-24740613D01*
X23985163Y-24740613D01*
X24185122Y-24700839D01*
X24373480Y-24622818D01*
X24542998Y-24509550D01*
X24687161Y-24365387D01*
X24800429Y-24195869D01*
X24878450Y-24007511D01*
X24894001Y-23929332D01*
X24894000Y-29911289D01*
X24850063Y-29955226D01*
X24736795Y-30124744D01*
X24658774Y-30313102D01*
X24619000Y-30513061D01*
X24619000Y-30716939D01*
X24658774Y-30916898D01*
X24736795Y-31105256D01*
X24850063Y-31274774D01*
X24994226Y-31418937D01*
X25163744Y-31532205D01*
X25168227Y-31534062D01*
X25104063Y-31598226D01*
X24990795Y-31767744D01*
X24912774Y-31956102D01*
X24873000Y-32156061D01*
X24873000Y-32359939D01*
X24912774Y-32559898D01*
X24990795Y-32748256D01*
X25104063Y-32917774D01*
X25248226Y-33061937D01*
X25417744Y-33175205D01*
X25606102Y-33253226D01*
X25806061Y-33293000D01*
X26009939Y-33293000D01*
X26209898Y-33253226D01*
X26398256Y-33175205D01*
X26567774Y-33061937D01*
X26711937Y-32917774D01*
X26825205Y-32748256D01*
X26903226Y-32559898D01*
X26924000Y-32455459D01*
X26944774Y-32559898D01*
X27022795Y-32748256D01*
X27136063Y-32917774D01*
X27280226Y-33061937D01*
X27449744Y-33175205D01*
X27638102Y-33253226D01*
X27838061Y-33293000D01*
X28041939Y-33293000D01*
X28241898Y-33253226D01*
X28429000Y-33175725D01*
X28429000Y-33375939D01*
X28468774Y-33575898D01*
X28546795Y-33764256D01*
X28660063Y-33933774D01*
X28804226Y-34077937D01*
X28973744Y-34191205D01*
X29162102Y-34269226D01*
X29362061Y-34309000D01*
X29565939Y-34309000D01*
X29765898Y-34269226D01*
X29954256Y-34191205D01*
X30123774Y-34077937D01*
X30267937Y-33933774D01*
X30381205Y-33764256D01*
X30459226Y-33575898D01*
X30499000Y-33375939D01*
X30499000Y-33172061D01*
X30459226Y-32972102D01*
X30381205Y-32783744D01*
X30267937Y-32614226D01*
X30224000Y-32570289D01*
X30224000Y-23764013D01*
X30243744Y-23777205D01*
X30432102Y-23855226D01*
X30632061Y-23895000D01*
X30835939Y-23895000D01*
X31035898Y-23855226D01*
X31224256Y-23777205D01*
X31393774Y-23663937D01*
X31537937Y-23519774D01*
X31651205Y-23350256D01*
X31729226Y-23161898D01*
X31769000Y-22961939D01*
X31769000Y-22903388D01*
X31778001Y-22896001D01*
X31872974Y-22780276D01*
X31943546Y-22648247D01*
X31987003Y-22504986D01*
X31998000Y-22393333D01*
X31998000Y-22393325D01*
X32001676Y-22356000D01*
X31998000Y-22318675D01*
X31998000Y-19471295D01*
X32024774Y-19605898D01*
X32102795Y-19794256D01*
X32216063Y-19963774D01*
X32360226Y-20107937D01*
X32529744Y-20221205D01*
X32718102Y-20299226D01*
X32918061Y-20339000D01*
X33015500Y-20339000D01*
X33015500Y-20449939D01*
X33055274Y-20649898D01*
X33133295Y-20838256D01*
X33246563Y-21007774D01*
X33390726Y-21151937D01*
X33530001Y-21244997D01*
X33530000Y-22410289D01*
X33486063Y-22454226D01*
X33372795Y-22623744D01*
X33294774Y-22812102D01*
X33255000Y-23012061D01*
X33255000Y-23215939D01*
X33294774Y-23415898D01*
X33372795Y-23604256D01*
X33486063Y-23773774D01*
X33530000Y-23817711D01*
X33530001Y-26982288D01*
X33486063Y-27026226D01*
X33372795Y-27195744D01*
X33294774Y-27384102D01*
X33255000Y-27584061D01*
X33255000Y-27787939D01*
X33294774Y-27987898D01*
X33372795Y-28176256D01*
X33486063Y-28345774D01*
X33630226Y-28489937D01*
X33799744Y-28603205D01*
X33988102Y-28681226D01*
X34188061Y-28721000D01*
X34391939Y-28721000D01*
X34591898Y-28681226D01*
X34780256Y-28603205D01*
X34949774Y-28489937D01*
X35093937Y-28345774D01*
X35207205Y-28176256D01*
X35285226Y-27987898D01*
X35325000Y-27787939D01*
X35325000Y-27584061D01*
X35285226Y-27384102D01*
X35207205Y-27195744D01*
X35093937Y-27026226D01*
X35050000Y-26982289D01*
X35050000Y-23817711D01*
X35093937Y-23773774D01*
X35207205Y-23604256D01*
X35285226Y-23415898D01*
X35325000Y-23215939D01*
X35325000Y-23012061D01*
X35285226Y-22812102D01*
X35207205Y-22623744D01*
X35093937Y-22454226D01*
X35050000Y-22410289D01*
X35050000Y-20931498D01*
X35103001Y-20888001D01*
X35126803Y-20858998D01*
X35563003Y-20422798D01*
X35592001Y-20399001D01*
X35686974Y-20283276D01*
X35757546Y-20151247D01*
X35801003Y-20007986D01*
X35812000Y-19896333D01*
X35812000Y-19896324D01*
X35815676Y-19859001D01*
X35812000Y-19821678D01*
X35812000Y-16245760D01*
X35884842Y-16275932D01*
X36171740Y-16333000D01*
X36464260Y-16333000D01*
X36751158Y-16275932D01*
X37021411Y-16163990D01*
X37264632Y-16001475D01*
X37471475Y-15794632D01*
X37588000Y-15620240D01*
X37704525Y-15794632D01*
X37911368Y-16001475D01*
X38098000Y-16126179D01*
X38098001Y-19774288D01*
X38034063Y-19838226D01*
X37920795Y-20007744D01*
X37842774Y-20196102D01*
X37803000Y-20396061D01*
X37803000Y-20599939D01*
X37842774Y-20799898D01*
X37920795Y-20988256D01*
X38034063Y-21157774D01*
X38078001Y-21201712D01*
X38078000Y-22569198D01*
X36282199Y-24365000D01*
X36220061Y-24365000D01*
X36020102Y-24404774D01*
X35831744Y-24482795D01*
X35662226Y-24596063D01*
X35518063Y-24740226D01*
X35404795Y-24909744D01*
X35326774Y-25098102D01*
X35287000Y-25298061D01*
X35287000Y-25501939D01*
X35326774Y-25701898D01*
X35404795Y-25890256D01*
X35518063Y-26059774D01*
X35662226Y-26203937D01*
X35831744Y-26317205D01*
X36020102Y-26395226D01*
X36220061Y-26435000D01*
X36423939Y-26435000D01*
X36623898Y-26395226D01*
X36812256Y-26317205D01*
X36981774Y-26203937D01*
X37125937Y-26059774D01*
X37239205Y-25890256D01*
X37317226Y-25701898D01*
X37357000Y-25501939D01*
X37357000Y-25439801D01*
X39349004Y-23447798D01*
X39378001Y-23424001D01*
X39472974Y-23308276D01*
X39543546Y-23176247D01*
X39587003Y-23032986D01*
X39598000Y-22921333D01*
X39598000Y-22921324D01*
X39601676Y-22884001D01*
X39598000Y-22846678D01*
X39598000Y-21201711D01*
X39641937Y-21157774D01*
X39755205Y-20988256D01*
X39833226Y-20799898D01*
X39873000Y-20599939D01*
X39873000Y-20396061D01*
X39833226Y-20196102D01*
X39755205Y-20007744D01*
X39641937Y-19838226D01*
X39618000Y-19814289D01*
X39618000Y-16126178D01*
X39804632Y-16001475D01*
X39880001Y-15926106D01*
X39880000Y-22044279D01*
X39836063Y-22088216D01*
X39722795Y-22257734D01*
X39644774Y-22446092D01*
X39605000Y-22646051D01*
X39605000Y-22849929D01*
X39644774Y-23049888D01*
X39722795Y-23238246D01*
X39836063Y-23407764D01*
X39880000Y-23451701D01*
X39880000Y-23815197D01*
X39076198Y-24619000D01*
X39014061Y-24619000D01*
X38814102Y-24658774D01*
X38625744Y-24736795D01*
X38456226Y-24850063D01*
X38312063Y-24994226D01*
X38198795Y-25163744D01*
X38120774Y-25352102D01*
X38081000Y-25552061D01*
X38081000Y-25755939D01*
X38120774Y-25955898D01*
X38198795Y-26144256D01*
X38312063Y-26313774D01*
X38456226Y-26457937D01*
X38625744Y-26571205D01*
X38814102Y-26649226D01*
X39014061Y-26689000D01*
X39217939Y-26689000D01*
X39417898Y-26649226D01*
X39606256Y-26571205D01*
X39775774Y-26457937D01*
X39919937Y-26313774D01*
X40033205Y-26144256D01*
X40111226Y-25955898D01*
X40151000Y-25755939D01*
X40151000Y-25693802D01*
X41058389Y-24786414D01*
X41106063Y-24857764D01*
X41250226Y-25001927D01*
X41404001Y-25104676D01*
X41404000Y-26982289D01*
X41360063Y-27026226D01*
X41246795Y-27195744D01*
X41168774Y-27384102D01*
X41129000Y-27584061D01*
X41129000Y-27787939D01*
X41168774Y-27987898D01*
X41246795Y-28176256D01*
X41360063Y-28345774D01*
X41504226Y-28489937D01*
X41673744Y-28603205D01*
X41862102Y-28681226D01*
X42062061Y-28721000D01*
X42265939Y-28721000D01*
X42465898Y-28681226D01*
X42654256Y-28603205D01*
X42823774Y-28489937D01*
X42967937Y-28345774D01*
X43065339Y-28200000D01*
X55221928Y-28200000D01*
X55234188Y-28324482D01*
X55270498Y-28444180D01*
X55329463Y-28554494D01*
X55408815Y-28651185D01*
X55505506Y-28730537D01*
X55615820Y-28789502D01*
X55688380Y-28811513D01*
X55556525Y-28943368D01*
X55394010Y-29186589D01*
X55282068Y-29456842D01*
X55225000Y-29743740D01*
X55225000Y-30036260D01*
X55282068Y-30323158D01*
X55394010Y-30593411D01*
X55556525Y-30836632D01*
X55763368Y-31043475D01*
X55937760Y-31160000D01*
X55763368Y-31276525D01*
X55556525Y-31483368D01*
X55394010Y-31726589D01*
X55282068Y-31996842D01*
X55225000Y-32283740D01*
X55225000Y-32576260D01*
X55282068Y-32863158D01*
X55394010Y-33133411D01*
X55556525Y-33376632D01*
X55763368Y-33583475D01*
X56006589Y-33745990D01*
X56276842Y-33857932D01*
X56563740Y-33915000D01*
X56856260Y-33915000D01*
X57143158Y-33857932D01*
X57413411Y-33745990D01*
X57656632Y-33583475D01*
X57863475Y-33376632D01*
X58025990Y-33133411D01*
X58137932Y-32863158D01*
X58195000Y-32576260D01*
X58195000Y-32283740D01*
X58149250Y-32053740D01*
X61575000Y-32053740D01*
X61575000Y-32346260D01*
X61632068Y-32633158D01*
X61744010Y-32903411D01*
X61906525Y-33146632D01*
X62113368Y-33353475D01*
X62356589Y-33515990D01*
X62626842Y-33627932D01*
X62913740Y-33685000D01*
X63206260Y-33685000D01*
X63493158Y-33627932D01*
X63763411Y-33515990D01*
X64006632Y-33353475D01*
X64138487Y-33221620D01*
X64160498Y-33294180D01*
X64219463Y-33404494D01*
X64298815Y-33501185D01*
X64395506Y-33580537D01*
X64505820Y-33639502D01*
X64625518Y-33675812D01*
X64750000Y-33688072D01*
X65314250Y-33685000D01*
X65473000Y-33526250D01*
X65473000Y-32327000D01*
X65453000Y-32327000D01*
X65453000Y-32073000D01*
X65473000Y-32073000D01*
X65473000Y-30873750D01*
X65727000Y-30873750D01*
X65727000Y-32073000D01*
X65747000Y-32073000D01*
X65747000Y-32327000D01*
X65727000Y-32327000D01*
X65727000Y-33526250D01*
X65885750Y-33685000D01*
X66450000Y-33688072D01*
X66574482Y-33675812D01*
X66694180Y-33639502D01*
X66804494Y-33580537D01*
X66901185Y-33501185D01*
X66980537Y-33404494D01*
X67039502Y-33294180D01*
X67061513Y-33221620D01*
X67193368Y-33353475D01*
X67436589Y-33515990D01*
X67706842Y-33627932D01*
X67993740Y-33685000D01*
X68286260Y-33685000D01*
X68573158Y-33627932D01*
X68843411Y-33515990D01*
X69086632Y-33353475D01*
X69293475Y-33146632D01*
X69455990Y-32903411D01*
X69567932Y-32633158D01*
X69625000Y-32346260D01*
X69625000Y-32053740D01*
X69567932Y-31766842D01*
X69455990Y-31496589D01*
X69293475Y-31253368D01*
X69086632Y-31046525D01*
X68843411Y-30884010D01*
X68578000Y-30774074D01*
X68578000Y-28200000D01*
X73001928Y-28200000D01*
X73014188Y-28324482D01*
X73050498Y-28444180D01*
X73109463Y-28554494D01*
X73188815Y-28651185D01*
X73285506Y-28730537D01*
X73395820Y-28789502D01*
X73468380Y-28811513D01*
X73336525Y-28943368D01*
X73174010Y-29186589D01*
X73062068Y-29456842D01*
X73005000Y-29743740D01*
X73005000Y-30036260D01*
X73062068Y-30323158D01*
X73174010Y-30593411D01*
X73336525Y-30836632D01*
X73543368Y-31043475D01*
X73717760Y-31160000D01*
X73543368Y-31276525D01*
X73336525Y-31483368D01*
X73174010Y-31726589D01*
X73062068Y-31996842D01*
X73005000Y-32283740D01*
X73005000Y-32576260D01*
X73062068Y-32863158D01*
X73174010Y-33133411D01*
X73336525Y-33376632D01*
X73543368Y-33583475D01*
X73786589Y-33745990D01*
X74056842Y-33857932D01*
X74343740Y-33915000D01*
X74636260Y-33915000D01*
X74923158Y-33857932D01*
X75193411Y-33745990D01*
X75436632Y-33583475D01*
X75643475Y-33376632D01*
X75805990Y-33133411D01*
X75917932Y-32863158D01*
X75975000Y-32576260D01*
X75975000Y-32283740D01*
X75917932Y-31996842D01*
X75805990Y-31726589D01*
X75643475Y-31483368D01*
X75436632Y-31276525D01*
X75262240Y-31160000D01*
X75271219Y-31154000D01*
X82331928Y-31154000D01*
X82331928Y-32854000D01*
X82344188Y-32978482D01*
X82380498Y-33098180D01*
X82439463Y-33208494D01*
X82518815Y-33305185D01*
X82615506Y-33384537D01*
X82725820Y-33443502D01*
X82845518Y-33479812D01*
X82970000Y-33492072D01*
X84670000Y-33492072D01*
X84794482Y-33479812D01*
X84914180Y-33443502D01*
X85024494Y-33384537D01*
X85121185Y-33305185D01*
X85200537Y-33208494D01*
X85259502Y-33098180D01*
X85295812Y-32978482D01*
X85308072Y-32854000D01*
X85308072Y-31154000D01*
X85295812Y-31029518D01*
X85259502Y-30909820D01*
X85200537Y-30799506D01*
X85121185Y-30702815D01*
X85024494Y-30623463D01*
X84914180Y-30564498D01*
X84833534Y-30540034D01*
X84917588Y-30464269D01*
X85091641Y-30230920D01*
X85216825Y-29968099D01*
X85261476Y-29820890D01*
X85140155Y-29591000D01*
X83947000Y-29591000D01*
X83947000Y-29611000D01*
X83693000Y-29611000D01*
X83693000Y-29591000D01*
X82499845Y-29591000D01*
X82378524Y-29820890D01*
X82423175Y-29968099D01*
X82548359Y-30230920D01*
X82722412Y-30464269D01*
X82806466Y-30540034D01*
X82725820Y-30564498D01*
X82615506Y-30623463D01*
X82518815Y-30702815D01*
X82439463Y-30799506D01*
X82380498Y-30909820D01*
X82344188Y-31029518D01*
X82331928Y-31154000D01*
X75271219Y-31154000D01*
X75436632Y-31043475D01*
X75643475Y-30836632D01*
X75805990Y-30593411D01*
X75917932Y-30323158D01*
X75975000Y-30036260D01*
X75975000Y-29743740D01*
X75917932Y-29456842D01*
X75805990Y-29186589D01*
X75643475Y-28943368D01*
X75511620Y-28811513D01*
X75584180Y-28789502D01*
X75694494Y-28730537D01*
X75791185Y-28651185D01*
X75870537Y-28554494D01*
X75929502Y-28444180D01*
X75965812Y-28324482D01*
X75978072Y-28200000D01*
X75975000Y-27635750D01*
X75816250Y-27477000D01*
X74617000Y-27477000D01*
X74617000Y-27497000D01*
X74363000Y-27497000D01*
X74363000Y-27477000D01*
X73163750Y-27477000D01*
X73005000Y-27635750D01*
X73001928Y-28200000D01*
X68578000Y-28200000D01*
X68578000Y-26865711D01*
X68621937Y-26821774D01*
X68735205Y-26652256D01*
X68813226Y-26463898D01*
X68853000Y-26263939D01*
X68853000Y-26060061D01*
X68813226Y-25860102D01*
X68735205Y-25671744D01*
X68621937Y-25502226D01*
X68477774Y-25358063D01*
X68308256Y-25244795D01*
X68119898Y-25166774D01*
X67919939Y-25127000D01*
X67716061Y-25127000D01*
X67516102Y-25166774D01*
X67327744Y-25244795D01*
X67158226Y-25358063D01*
X67014063Y-25502226D01*
X66900795Y-25671744D01*
X66822774Y-25860102D01*
X66783000Y-26060061D01*
X66783000Y-26263939D01*
X66822774Y-26463898D01*
X66900795Y-26652256D01*
X67014063Y-26821774D01*
X67058000Y-26865711D01*
X67058001Y-31166803D01*
X67039502Y-31105820D01*
X66980537Y-30995506D01*
X66901185Y-30898815D01*
X66804494Y-30819463D01*
X66694180Y-30760498D01*
X66574482Y-30724188D01*
X66450000Y-30711928D01*
X65885750Y-30715000D01*
X65727000Y-30873750D01*
X65473000Y-30873750D01*
X65314250Y-30715000D01*
X64750000Y-30711928D01*
X64625518Y-30724188D01*
X64505820Y-30760498D01*
X64395506Y-30819463D01*
X64298815Y-30898815D01*
X64219463Y-30995506D01*
X64160498Y-31105820D01*
X64138487Y-31178380D01*
X64006632Y-31046525D01*
X63763411Y-30884010D01*
X63493158Y-30772068D01*
X63206260Y-30715000D01*
X62913740Y-30715000D01*
X62626842Y-30772068D01*
X62356589Y-30884010D01*
X62113368Y-31046525D01*
X61906525Y-31253368D01*
X61744010Y-31496589D01*
X61632068Y-31766842D01*
X61575000Y-32053740D01*
X58149250Y-32053740D01*
X58137932Y-31996842D01*
X58025990Y-31726589D01*
X57863475Y-31483368D01*
X57656632Y-31276525D01*
X57482240Y-31160000D01*
X57656632Y-31043475D01*
X57863475Y-30836632D01*
X58025990Y-30593411D01*
X58137932Y-30323158D01*
X58195000Y-30036260D01*
X58195000Y-29743740D01*
X58137932Y-29456842D01*
X58025990Y-29186589D01*
X57863475Y-28943368D01*
X57731620Y-28811513D01*
X57804180Y-28789502D01*
X57914494Y-28730537D01*
X58011185Y-28651185D01*
X58090537Y-28554494D01*
X58149502Y-28444180D01*
X58185812Y-28324482D01*
X58198072Y-28200000D01*
X58195000Y-27635750D01*
X58036250Y-27477000D01*
X56837000Y-27477000D01*
X56837000Y-27497000D01*
X56583000Y-27497000D01*
X56583000Y-27477000D01*
X55383750Y-27477000D01*
X55225000Y-27635750D01*
X55221928Y-28200000D01*
X43065339Y-28200000D01*
X43081205Y-28176256D01*
X43159226Y-27987898D01*
X43199000Y-27787939D01*
X43199000Y-27584061D01*
X43159226Y-27384102D01*
X43081205Y-27195744D01*
X42967937Y-27026226D01*
X42924000Y-26982289D01*
X42924000Y-24489312D01*
X42927676Y-24451989D01*
X42924000Y-24414666D01*
X42924000Y-24414657D01*
X42923397Y-24408535D01*
X42945000Y-24299929D01*
X42945000Y-24096051D01*
X42923397Y-23987445D01*
X42924000Y-23981323D01*
X42924000Y-23981314D01*
X42927676Y-23943991D01*
X42924000Y-23906668D01*
X42924000Y-22801711D01*
X42967937Y-22757774D01*
X43081205Y-22588256D01*
X43159226Y-22399898D01*
X43199000Y-22199939D01*
X43199000Y-21996061D01*
X43167030Y-21835333D01*
X43227898Y-21823226D01*
X43416256Y-21745205D01*
X43585774Y-21631937D01*
X43729937Y-21487774D01*
X43843205Y-21318256D01*
X43921226Y-21129898D01*
X43961000Y-20929939D01*
X43961000Y-20726061D01*
X43921226Y-20526102D01*
X43843205Y-20337744D01*
X43729937Y-20168226D01*
X43686000Y-20124289D01*
X43686000Y-15900061D01*
X47479000Y-15900061D01*
X47479000Y-16103939D01*
X47518774Y-16303898D01*
X47596795Y-16492256D01*
X47710063Y-16661774D01*
X47754001Y-16705712D01*
X47754000Y-21394289D01*
X47710063Y-21438226D01*
X47596795Y-21607744D01*
X47518774Y-21796102D01*
X47479000Y-21996061D01*
X47479000Y-22199939D01*
X47518774Y-22399898D01*
X47596795Y-22588256D01*
X47710063Y-22757774D01*
X47854226Y-22901937D01*
X48023744Y-23015205D01*
X48212102Y-23093226D01*
X48412061Y-23133000D01*
X48615939Y-23133000D01*
X48815898Y-23093226D01*
X49004256Y-23015205D01*
X49173774Y-22901937D01*
X49317937Y-22757774D01*
X49431205Y-22588256D01*
X49509226Y-22399898D01*
X49549000Y-22199939D01*
X49549000Y-21996061D01*
X49509226Y-21796102D01*
X49431205Y-21607744D01*
X49317937Y-21438226D01*
X49274000Y-21394289D01*
X49274000Y-16705711D01*
X49317937Y-16661774D01*
X49431205Y-16492256D01*
X49509226Y-16303898D01*
X49549000Y-16103939D01*
X49549000Y-15900061D01*
X49509226Y-15700102D01*
X49431205Y-15511744D01*
X49423358Y-15500000D01*
X55221928Y-15500000D01*
X55234188Y-15624482D01*
X55270498Y-15744180D01*
X55329463Y-15854494D01*
X55408815Y-15951185D01*
X55505506Y-16030537D01*
X55615820Y-16089502D01*
X55688380Y-16111513D01*
X55556525Y-16243368D01*
X55394010Y-16486589D01*
X55282068Y-16756842D01*
X55225000Y-17043740D01*
X55225000Y-17336260D01*
X55282068Y-17623158D01*
X55394010Y-17893411D01*
X55556525Y-18136632D01*
X55763368Y-18343475D01*
X55937760Y-18460000D01*
X55763368Y-18576525D01*
X55556525Y-18783368D01*
X55394010Y-19026589D01*
X55282068Y-19296842D01*
X55225000Y-19583740D01*
X55225000Y-19876260D01*
X55282068Y-20163158D01*
X55394010Y-20433411D01*
X55556525Y-20676632D01*
X55763368Y-20883475D01*
X55937760Y-21000000D01*
X55763368Y-21116525D01*
X55556525Y-21323368D01*
X55394010Y-21566589D01*
X55282068Y-21836842D01*
X55225000Y-22123740D01*
X55225000Y-22416260D01*
X55282068Y-22703158D01*
X55394010Y-22973411D01*
X55556525Y-23216632D01*
X55763368Y-23423475D01*
X55937760Y-23540000D01*
X55763368Y-23656525D01*
X55556525Y-23863368D01*
X55394010Y-24106589D01*
X55282068Y-24376842D01*
X55225000Y-24663740D01*
X55225000Y-24956260D01*
X55282068Y-25243158D01*
X55394010Y-25513411D01*
X55556525Y-25756632D01*
X55688380Y-25888487D01*
X55615820Y-25910498D01*
X55505506Y-25969463D01*
X55408815Y-26048815D01*
X55329463Y-26145506D01*
X55270498Y-26255820D01*
X55234188Y-26375518D01*
X55221928Y-26500000D01*
X55225000Y-27064250D01*
X55383750Y-27223000D01*
X56583000Y-27223000D01*
X56583000Y-27203000D01*
X56837000Y-27203000D01*
X56837000Y-27223000D01*
X58036250Y-27223000D01*
X58195000Y-27064250D01*
X58198072Y-26500000D01*
X58185812Y-26375518D01*
X58149502Y-26255820D01*
X58090537Y-26145506D01*
X58011185Y-26048815D01*
X57914494Y-25969463D01*
X57804180Y-25910498D01*
X57731620Y-25888487D01*
X57863475Y-25756632D01*
X58025990Y-25513411D01*
X58137932Y-25243158D01*
X58195000Y-24956260D01*
X58195000Y-24663740D01*
X58137932Y-24376842D01*
X58025990Y-24106589D01*
X57863475Y-23863368D01*
X57656632Y-23656525D01*
X57482240Y-23540000D01*
X57656632Y-23423475D01*
X57863475Y-23216632D01*
X58025990Y-22973411D01*
X58137932Y-22703158D01*
X58195000Y-22416260D01*
X58195000Y-22123740D01*
X58137932Y-21836842D01*
X58025990Y-21566589D01*
X57863475Y-21323368D01*
X57656632Y-21116525D01*
X57482240Y-21000000D01*
X57656632Y-20883475D01*
X57863475Y-20676632D01*
X58025990Y-20433411D01*
X58137932Y-20163158D01*
X58195000Y-19876260D01*
X58195000Y-19583740D01*
X58137932Y-19296842D01*
X58025990Y-19026589D01*
X57863475Y-18783368D01*
X57656632Y-18576525D01*
X57482240Y-18460000D01*
X57656632Y-18343475D01*
X57863475Y-18136632D01*
X58025990Y-17893411D01*
X58137932Y-17623158D01*
X58195000Y-17336260D01*
X58195000Y-17043740D01*
X58137932Y-16756842D01*
X58025990Y-16486589D01*
X57863475Y-16243368D01*
X57731620Y-16111513D01*
X57804180Y-16089502D01*
X57914494Y-16030537D01*
X58011185Y-15951185D01*
X58090537Y-15854494D01*
X58149502Y-15744180D01*
X58185812Y-15624482D01*
X58198072Y-15500000D01*
X73001928Y-15500000D01*
X73014188Y-15624482D01*
X73050498Y-15744180D01*
X73109463Y-15854494D01*
X73188815Y-15951185D01*
X73285506Y-16030537D01*
X73395820Y-16089502D01*
X73468380Y-16111513D01*
X73336525Y-16243368D01*
X73174010Y-16486589D01*
X73062068Y-16756842D01*
X73005000Y-17043740D01*
X73005000Y-17336260D01*
X73062068Y-17623158D01*
X73174010Y-17893411D01*
X73336525Y-18136632D01*
X73543368Y-18343475D01*
X73717760Y-18460000D01*
X73543368Y-18576525D01*
X73336525Y-18783368D01*
X73174010Y-19026589D01*
X73062068Y-19296842D01*
X73005000Y-19583740D01*
X73005000Y-19876260D01*
X73062068Y-20163158D01*
X73174010Y-20433411D01*
X73336525Y-20676632D01*
X73543368Y-20883475D01*
X73717760Y-21000000D01*
X73543368Y-21116525D01*
X73336525Y-21323368D01*
X73174010Y-21566589D01*
X73062068Y-21836842D01*
X73005000Y-22123740D01*
X73005000Y-22416260D01*
X73062068Y-22703158D01*
X73174010Y-22973411D01*
X73336525Y-23216632D01*
X73543368Y-23423475D01*
X73717760Y-23540000D01*
X73543368Y-23656525D01*
X73336525Y-23863368D01*
X73174010Y-24106589D01*
X73062068Y-24376842D01*
X73005000Y-24663740D01*
X73005000Y-24956260D01*
X73062068Y-25243158D01*
X73174010Y-25513411D01*
X73336525Y-25756632D01*
X73468380Y-25888487D01*
X73395820Y-25910498D01*
X73285506Y-25969463D01*
X73188815Y-26048815D01*
X73109463Y-26145506D01*
X73050498Y-26255820D01*
X73014188Y-26375518D01*
X73001928Y-26500000D01*
X73005000Y-27064250D01*
X73163750Y-27223000D01*
X74363000Y-27223000D01*
X74363000Y-27203000D01*
X74617000Y-27203000D01*
X74617000Y-27223000D01*
X75816250Y-27223000D01*
X75975000Y-27064250D01*
X75976559Y-26777740D01*
X82335000Y-26777740D01*
X82335000Y-27070260D01*
X82392068Y-27357158D01*
X82504010Y-27627411D01*
X82666525Y-27870632D01*
X82873368Y-28077475D01*
X83055534Y-28199195D01*
X82938645Y-28268822D01*
X82722412Y-28463731D01*
X82548359Y-28697080D01*
X82423175Y-28959901D01*
X82378524Y-29107110D01*
X82499845Y-29337000D01*
X83693000Y-29337000D01*
X83693000Y-29317000D01*
X83947000Y-29317000D01*
X83947000Y-29337000D01*
X85140155Y-29337000D01*
X85261476Y-29107110D01*
X85216825Y-28959901D01*
X85091641Y-28697080D01*
X84917588Y-28463731D01*
X84701355Y-28268822D01*
X84584466Y-28199195D01*
X84766632Y-28077475D01*
X84973475Y-27870632D01*
X85135990Y-27627411D01*
X85247932Y-27357158D01*
X85305000Y-27070260D01*
X85305000Y-26777740D01*
X85247932Y-26490842D01*
X85135990Y-26220589D01*
X84973475Y-25977368D01*
X84766632Y-25770525D01*
X84523411Y-25608010D01*
X84253158Y-25496068D01*
X83966260Y-25439000D01*
X83673740Y-25439000D01*
X83386842Y-25496068D01*
X83116589Y-25608010D01*
X82873368Y-25770525D01*
X82666525Y-25977368D01*
X82504010Y-26220589D01*
X82392068Y-26490842D01*
X82335000Y-26777740D01*
X75976559Y-26777740D01*
X75978072Y-26500000D01*
X75965812Y-26375518D01*
X75929502Y-26255820D01*
X75870537Y-26145506D01*
X75791185Y-26048815D01*
X75694494Y-25969463D01*
X75584180Y-25910498D01*
X75511620Y-25888487D01*
X75643475Y-25756632D01*
X75805990Y-25513411D01*
X75917932Y-25243158D01*
X75975000Y-24956260D01*
X75975000Y-24663740D01*
X75917932Y-24376842D01*
X75805990Y-24106589D01*
X75643475Y-23863368D01*
X75436632Y-23656525D01*
X75262240Y-23540000D01*
X75436632Y-23423475D01*
X75643475Y-23216632D01*
X75805990Y-22973411D01*
X75917932Y-22703158D01*
X75975000Y-22416260D01*
X75975000Y-22123740D01*
X75917932Y-21836842D01*
X75805990Y-21566589D01*
X75643475Y-21323368D01*
X75436632Y-21116525D01*
X75262240Y-21000000D01*
X75436632Y-20883475D01*
X75643475Y-20676632D01*
X75805990Y-20433411D01*
X75917932Y-20163158D01*
X75975000Y-19876260D01*
X75975000Y-19583740D01*
X75917932Y-19296842D01*
X75805990Y-19026589D01*
X75643475Y-18783368D01*
X75436632Y-18576525D01*
X75262240Y-18460000D01*
X75436632Y-18343475D01*
X75643475Y-18136632D01*
X75805990Y-17893411D01*
X75917932Y-17623158D01*
X75975000Y-17336260D01*
X75975000Y-17043740D01*
X75917932Y-16756842D01*
X75805990Y-16486589D01*
X75643475Y-16243368D01*
X75511620Y-16111513D01*
X75584180Y-16089502D01*
X75694494Y-16030537D01*
X75791185Y-15951185D01*
X75870537Y-15854494D01*
X75929502Y-15744180D01*
X75965812Y-15624482D01*
X75978072Y-15500000D01*
X75975000Y-14935750D01*
X75816250Y-14777000D01*
X74617000Y-14777000D01*
X74617000Y-14797000D01*
X74363000Y-14797000D01*
X74363000Y-14777000D01*
X73163750Y-14777000D01*
X73005000Y-14935750D01*
X73001928Y-15500000D01*
X58198072Y-15500000D01*
X58195000Y-14935750D01*
X58036250Y-14777000D01*
X56837000Y-14777000D01*
X56837000Y-14797000D01*
X56583000Y-14797000D01*
X56583000Y-14777000D01*
X55383750Y-14777000D01*
X55225000Y-14935750D01*
X55221928Y-15500000D01*
X49423358Y-15500000D01*
X49317937Y-15342226D01*
X49173774Y-15198063D01*
X49004256Y-15084795D01*
X48815898Y-15006774D01*
X48615939Y-14967000D01*
X48412061Y-14967000D01*
X48212102Y-15006774D01*
X48023744Y-15084795D01*
X47854226Y-15198063D01*
X47710063Y-15342226D01*
X47596795Y-15511744D01*
X47518774Y-15700102D01*
X47479000Y-15900061D01*
X43686000Y-15900061D01*
X43686000Y-13860685D01*
X43839774Y-13757937D01*
X43983937Y-13613774D01*
X44097205Y-13444256D01*
X44175226Y-13255898D01*
X44215000Y-13055939D01*
X44215000Y-12852061D01*
X44175226Y-12652102D01*
X44097205Y-12463744D01*
X43983937Y-12294226D01*
X43839774Y-12150063D01*
X43670256Y-12036795D01*
X43481898Y-11958774D01*
X43281939Y-11919000D01*
X43078061Y-11919000D01*
X42878102Y-11958774D01*
X42689744Y-12036795D01*
X42520226Y-12150063D01*
X42376063Y-12294226D01*
X42262795Y-12463744D01*
X42184774Y-12652102D01*
X42145000Y-12852061D01*
X42145000Y-13055939D01*
X42166604Y-13164549D01*
X42166427Y-13166342D01*
X42162324Y-13208000D01*
X42166001Y-13245332D01*
X42166000Y-20124289D01*
X42122063Y-20168226D01*
X42008795Y-20337744D01*
X41930774Y-20526102D01*
X41891000Y-20726061D01*
X41891000Y-20929939D01*
X41922970Y-21090667D01*
X41862102Y-21102774D01*
X41673744Y-21180795D01*
X41504226Y-21294063D01*
X41400000Y-21398289D01*
X41400000Y-14876685D01*
X41553774Y-14773937D01*
X41697937Y-14629774D01*
X41811205Y-14460256D01*
X41889226Y-14271898D01*
X41929000Y-14071939D01*
X41929000Y-13868061D01*
X41889226Y-13668102D01*
X41811205Y-13479744D01*
X41697937Y-13310226D01*
X41553774Y-13166063D01*
X41384256Y-13052795D01*
X41195898Y-12974774D01*
X40995939Y-12935000D01*
X40792061Y-12935000D01*
X40592102Y-12974774D01*
X40403744Y-13052795D01*
X40234226Y-13166063D01*
X40090063Y-13310226D01*
X39976795Y-13479744D01*
X39898774Y-13668102D01*
X39878771Y-13768664D01*
X39804632Y-13694525D01*
X39561411Y-13532010D01*
X39291158Y-13420068D01*
X39004260Y-13363000D01*
X38711740Y-13363000D01*
X38424842Y-13420068D01*
X38154589Y-13532010D01*
X37911368Y-13694525D01*
X37704525Y-13901368D01*
X37588000Y-14075760D01*
X37471475Y-13901368D01*
X37264632Y-13694525D01*
X37021411Y-13532010D01*
X36751158Y-13420068D01*
X36464260Y-13363000D01*
X36171740Y-13363000D01*
X36037148Y-13389772D01*
X35969205Y-13225744D01*
X35855937Y-13056226D01*
X35711774Y-12912063D01*
X35542256Y-12798795D01*
X35353898Y-12720774D01*
X35153939Y-12681000D01*
X34950061Y-12681000D01*
X34750102Y-12720774D01*
X34561744Y-12798795D01*
X34392226Y-12912063D01*
X34248063Y-13056226D01*
X34134795Y-13225744D01*
X34066243Y-13391242D01*
X33924260Y-13363000D01*
X33631740Y-13363000D01*
X33344842Y-13420068D01*
X33074589Y-13532010D01*
X32831368Y-13694525D01*
X32699513Y-13826380D01*
X32677502Y-13753820D01*
X32618537Y-13643506D01*
X32539185Y-13546815D01*
X32442494Y-13467463D01*
X32332180Y-13408498D01*
X32256000Y-13385389D01*
X32256000Y-11625711D01*
X32299937Y-11581774D01*
X32413205Y-11412256D01*
X32491226Y-11223898D01*
X32531000Y-11023939D01*
X32531000Y-10820061D01*
X32491226Y-10620102D01*
X32413205Y-10431744D01*
X32299937Y-10262226D01*
X32155774Y-10118063D01*
X31986256Y-10004795D01*
X31797898Y-9926774D01*
X31597939Y-9887000D01*
X31394061Y-9887000D01*
X31194102Y-9926774D01*
X31005744Y-10004795D01*
X30836226Y-10118063D01*
X30692063Y-10262226D01*
X30578795Y-10431744D01*
X30500774Y-10620102D01*
X30461000Y-10820061D01*
X30461000Y-11023939D01*
X30500774Y-11223898D01*
X30578795Y-11412256D01*
X30692063Y-11581774D01*
X30736000Y-11625711D01*
X30736001Y-13359928D01*
X30388000Y-13359928D01*
X30263518Y-13372188D01*
X30143820Y-13408498D01*
X30033506Y-13467463D01*
X29936815Y-13546815D01*
X29857463Y-13643506D01*
X29798498Y-13753820D01*
X29762188Y-13873518D01*
X29749928Y-13998000D01*
X29749928Y-15698000D01*
X29762188Y-15822482D01*
X29798498Y-15942180D01*
X29857463Y-16052494D01*
X29936815Y-16149185D01*
X30033506Y-16228537D01*
X30143820Y-16287502D01*
X30263518Y-16323812D01*
X30388000Y-16336072D01*
X30478001Y-16336072D01*
X30478000Y-18842478D01*
X30459226Y-18748092D01*
X30381205Y-18559734D01*
X30267937Y-18390216D01*
X30123774Y-18246053D01*
X29954256Y-18132785D01*
X29765898Y-18054764D01*
X29565939Y-18014990D01*
X29362061Y-18014990D01*
X29162102Y-18054764D01*
X28973744Y-18132785D01*
X28804226Y-18246053D01*
X28660063Y-18390216D01*
X28546795Y-18559734D01*
X28468774Y-18748092D01*
X28429000Y-18948051D01*
X28429000Y-19151929D01*
X28468774Y-19351888D01*
X28546795Y-19540246D01*
X28552309Y-19548498D01*
X28400102Y-19578774D01*
X28211744Y-19656795D01*
X28042226Y-19770063D01*
X27898063Y-19914226D01*
X27784795Y-20083744D01*
X27706774Y-20272102D01*
X27667000Y-20472061D01*
X27667000Y-20675939D01*
X27706774Y-20875898D01*
X27784795Y-21064256D01*
X27898063Y-21233774D01*
X28042226Y-21377937D01*
X28159002Y-21455964D01*
X28159002Y-21825000D01*
X28092061Y-21825000D01*
X27892102Y-21864774D01*
X27703744Y-21942795D01*
X27534226Y-22056063D01*
X27390063Y-22200226D01*
X27276795Y-22369744D01*
X27198774Y-22558102D01*
X27159000Y-22758061D01*
X27159000Y-22961939D01*
X27180604Y-23070549D01*
X27180436Y-23072246D01*
X27176324Y-23114000D01*
X27180001Y-23151332D01*
X27180000Y-31554289D01*
X27139001Y-31595288D01*
X27139001Y-16256323D01*
X27142677Y-16219000D01*
X27139001Y-16181677D01*
X27139001Y-16181668D01*
X27128004Y-16070015D01*
X27084547Y-15926754D01*
X27013975Y-15794725D01*
X26919002Y-15679000D01*
X26890005Y-15655203D01*
X26689000Y-15454198D01*
X26689000Y-15392061D01*
X26649226Y-15192102D01*
X26571205Y-15003744D01*
X26457937Y-14834226D01*
X26414000Y-14790289D01*
X26414000Y-14419711D01*
X26457937Y-14375774D01*
X26571205Y-14206256D01*
X26649226Y-14017898D01*
X26689000Y-13817939D01*
X26689000Y-13614061D01*
X26649226Y-13414102D01*
X26571205Y-13225744D01*
X26457937Y-13056226D01*
X26313774Y-12912063D01*
X26144256Y-12798795D01*
X25955898Y-12720774D01*
X25755939Y-12681000D01*
X25552061Y-12681000D01*
X25352102Y-12720774D01*
X25163744Y-12798795D01*
X24994226Y-12912063D01*
X24850063Y-13056226D01*
X24736795Y-13225744D01*
X24658774Y-13414102D01*
X24619000Y-13614061D01*
X24619000Y-13817939D01*
X24658774Y-14017898D01*
X24736795Y-14206256D01*
X24850063Y-14375774D01*
X24894000Y-14419711D01*
X24894001Y-14790288D01*
X24850063Y-14834226D01*
X24736795Y-15003744D01*
X24658774Y-15192102D01*
X24619000Y-15392061D01*
X24619000Y-15595939D01*
X24658774Y-15795898D01*
X24736795Y-15984256D01*
X24850063Y-16153774D01*
X24994226Y-16297937D01*
X25163744Y-16411205D01*
X25352102Y-16489226D01*
X25552061Y-16529000D01*
X25614198Y-16529000D01*
X25619001Y-16533803D01*
X25619001Y-18448199D01*
X25165000Y-17994198D01*
X25165000Y-17932061D01*
X25125226Y-17732102D01*
X25047205Y-17543744D01*
X24933937Y-17374226D01*
X24789774Y-17230063D01*
X24620256Y-17116795D01*
X24431898Y-17038774D01*
X24231939Y-16999000D01*
X24028061Y-16999000D01*
X23828102Y-17038774D01*
X23639744Y-17116795D01*
X23470226Y-17230063D01*
X23368000Y-17332289D01*
X23265774Y-17230063D01*
X23096256Y-17116795D01*
X22907898Y-17038774D01*
X22707939Y-16999000D01*
X22504061Y-16999000D01*
X22304102Y-17038774D01*
X22115744Y-17116795D01*
X21946226Y-17230063D01*
X21802063Y-17374226D01*
X21688795Y-17543744D01*
X21610774Y-17732102D01*
X21571000Y-17932061D01*
X21571000Y-18135939D01*
X21592604Y-18244549D01*
X21588324Y-18288000D01*
X21592001Y-18325332D01*
X21592000Y-25966289D01*
X21548063Y-26010226D01*
X21434795Y-26179744D01*
X21356774Y-26368102D01*
X21317000Y-26568061D01*
X19048000Y-26568061D01*
X19048000Y-22293711D01*
X19091937Y-22249774D01*
X19205205Y-22080256D01*
X19283226Y-21891898D01*
X19323000Y-21691939D01*
X19323000Y-21488061D01*
X19283226Y-21288102D01*
X19205205Y-21099744D01*
X19091937Y-20930226D01*
X18947774Y-20786063D01*
X18778256Y-20672795D01*
X18589898Y-20594774D01*
X18389939Y-20555000D01*
X18249001Y-20555000D01*
X18249001Y-17977324D01*
X18252677Y-17939999D01*
X18249001Y-17902674D01*
X18249001Y-17902666D01*
X18238004Y-17791013D01*
X18194547Y-17647752D01*
X18123975Y-17515723D01*
X18032000Y-17403651D01*
X18032000Y-16677414D01*
X18054774Y-16791908D01*
X18132795Y-16980266D01*
X18246063Y-17149784D01*
X18390226Y-17293947D01*
X18559744Y-17407215D01*
X18748102Y-17485236D01*
X18948061Y-17525010D01*
X19151939Y-17525010D01*
X19351898Y-17485236D01*
X19540256Y-17407215D01*
X19709774Y-17293947D01*
X19853937Y-17149784D01*
X19967205Y-16980266D01*
X20045226Y-16791908D01*
X20085000Y-16591949D01*
X20085000Y-16388071D01*
X20045226Y-16188112D01*
X19967205Y-15999754D01*
X19853937Y-15830236D01*
X19821251Y-15797550D01*
X20666278Y-14952523D01*
X20672795Y-14968256D01*
X20786063Y-15137774D01*
X20930226Y-15281937D01*
X21099744Y-15395205D01*
X21109701Y-15399329D01*
X21109701Y-15411990D01*
X21149475Y-15611949D01*
X21227496Y-15800307D01*
X21340764Y-15969825D01*
X21484927Y-16113988D01*
X21654445Y-16227256D01*
X21842803Y-16305277D01*
X22042762Y-16345051D01*
X22246640Y-16345051D01*
X22446599Y-16305277D01*
X22634957Y-16227256D01*
X22804475Y-16113988D01*
X22948638Y-15969825D01*
X23061906Y-15800307D01*
X23139927Y-15611949D01*
X23179701Y-15411990D01*
X23179701Y-15293608D01*
X23203545Y-15249000D01*
X23247002Y-15105739D01*
X23257999Y-14994086D01*
X23257999Y-14994076D01*
X23261675Y-14956753D01*
X23257999Y-14919430D01*
X23257999Y-4501321D01*
X23261675Y-4463998D01*
X23257999Y-4426676D01*
X23257999Y-4426666D01*
X23247002Y-4315013D01*
X23203545Y-4171752D01*
X23133000Y-4039774D01*
X23133000Y-3962061D01*
X23093226Y-3762102D01*
X23015205Y-3573744D01*
X22901937Y-3404226D01*
X22757774Y-3260063D01*
X22588256Y-3146795D01*
X22483574Y-3103434D01*
X22503774Y-3089937D01*
X22647937Y-2945774D01*
X22761205Y-2776256D01*
X22839226Y-2587898D01*
X22879000Y-2387939D01*
X22879000Y-2184061D01*
X22839226Y-1984102D01*
X22761205Y-1795744D01*
X22647937Y-1626226D01*
X22503774Y-1482063D01*
X22334256Y-1368795D01*
X22145898Y-1290774D01*
X22096000Y-1280849D01*
X22096000Y4884289D01*
X22139937Y4928226D01*
X22253205Y5097744D01*
X22331226Y5286102D01*
X22371000Y5486061D01*
X22371000Y5689939D01*
X22331226Y5889898D01*
X22253205Y6078256D01*
X22139937Y6247774D01*
X21995774Y6391937D01*
X21826256Y6505205D01*
X21637898Y6583226D01*
X21437939Y6623000D01*
X21334000Y6623000D01*
X21334000Y7170289D01*
X21377937Y7214226D01*
X21491205Y7383744D01*
X21569226Y7572102D01*
X21609000Y7772061D01*
X21609000Y7975939D01*
X21569226Y8175898D01*
X21491205Y8364256D01*
X21377937Y8533774D01*
X21233774Y8677937D01*
X21064256Y8791205D01*
X20875898Y8869226D01*
X20675939Y8909000D01*
X20472061Y8909000D01*
X20272102Y8869226D01*
X20083744Y8791205D01*
X19914226Y8677937D01*
X19770063Y8533774D01*
X19656795Y8364256D01*
X19578774Y8175898D01*
X19539000Y7975939D01*
X19539000Y7772061D01*
X19578774Y7572102D01*
X19656795Y7383744D01*
X19770063Y7214226D01*
X19814001Y7170288D01*
X19814001Y6775587D01*
X19757000Y6882226D01*
X19757000Y6959939D01*
X19717226Y7159898D01*
X19639205Y7348256D01*
X19525937Y7517774D01*
X19381774Y7661937D01*
X19212256Y7775205D01*
X19023898Y7853226D01*
X18823939Y7893000D01*
X18757000Y7893000D01*
X18757000Y8694289D01*
X18800937Y8738226D01*
X18914205Y8907744D01*
X18992226Y9096102D01*
X19032000Y9296061D01*
X19032000Y9499939D01*
X18992226Y9699898D01*
X18914205Y9888256D01*
X18800937Y10057774D01*
X18656774Y10201937D01*
X18487256Y10315205D01*
X18298898Y10393226D01*
X18098939Y10433000D01*
X18032000Y10433000D01*
X18032000Y11531939D01*
X30461000Y11531939D01*
X30461000Y11328061D01*
X30500774Y11128102D01*
X30578795Y10939744D01*
X30692063Y10770226D01*
X30736000Y10726289D01*
X30736001Y6799712D01*
X30692063Y6755774D01*
X30578795Y6586256D01*
X30500774Y6397898D01*
X30461000Y6197939D01*
X30461000Y5994061D01*
X30500774Y5794102D01*
X30578795Y5605744D01*
X30692063Y5436226D01*
X30736001Y5392288D01*
X30736000Y4767711D01*
X30692063Y4723774D01*
X30578795Y4554256D01*
X30500774Y4365898D01*
X30461000Y4165939D01*
X30461000Y3962061D01*
X30500774Y3762102D01*
X30578795Y3573744D01*
X30692063Y3404226D01*
X30736001Y3360288D01*
X30736000Y1973711D01*
X30692063Y1929774D01*
X30578795Y1760256D01*
X30500774Y1571898D01*
X30461000Y1371939D01*
X30461000Y1168061D01*
X30500774Y968102D01*
X30578795Y779744D01*
X30692063Y610226D01*
X30736001Y566288D01*
X30736000Y-566289D01*
X30692063Y-610226D01*
X30578795Y-779744D01*
X30500774Y-968102D01*
X30461000Y-1168061D01*
X30461000Y-1371939D01*
X30500774Y-1571898D01*
X30578795Y-1760256D01*
X30692063Y-1929774D01*
X30736001Y-1973712D01*
X30736000Y-5900289D01*
X30692063Y-5944226D01*
X30578795Y-6113744D01*
X30500774Y-6302102D01*
X30461000Y-6502061D01*
X30461000Y-6705939D01*
X30500774Y-6905898D01*
X30578795Y-7094256D01*
X30692063Y-7263774D01*
X30836226Y-7407937D01*
X31005744Y-7521205D01*
X31194102Y-7599226D01*
X31394061Y-7639000D01*
X31597939Y-7639000D01*
X31797898Y-7599226D01*
X31986256Y-7521205D01*
X32155774Y-7407937D01*
X32299937Y-7263774D01*
X32413205Y-7094256D01*
X32491226Y-6905898D01*
X32531000Y-6705939D01*
X32531000Y-6502061D01*
X32491226Y-6302102D01*
X32413205Y-6113744D01*
X32299937Y-5944226D01*
X32256000Y-5900289D01*
X32256000Y-2800000D01*
X55221928Y-2800000D01*
X55234188Y-2924482D01*
X55270498Y-3044180D01*
X55329463Y-3154494D01*
X55408815Y-3251185D01*
X55505506Y-3330537D01*
X55615820Y-3389502D01*
X55688380Y-3411513D01*
X55556525Y-3543368D01*
X55394010Y-3786589D01*
X55282068Y-4056842D01*
X55225000Y-4343740D01*
X55225000Y-4636260D01*
X55282068Y-4923158D01*
X55394010Y-5193411D01*
X55556525Y-5436632D01*
X55763368Y-5643475D01*
X55937760Y-5760000D01*
X55763368Y-5876525D01*
X55556525Y-6083368D01*
X55394010Y-6326589D01*
X55282068Y-6596842D01*
X55225000Y-6883740D01*
X55225000Y-7176260D01*
X55282068Y-7463158D01*
X55394010Y-7733411D01*
X55556525Y-7976632D01*
X55763368Y-8183475D01*
X55937760Y-8300000D01*
X55763368Y-8416525D01*
X55556525Y-8623368D01*
X55394010Y-8866589D01*
X55282068Y-9136842D01*
X55225000Y-9423740D01*
X55225000Y-9716260D01*
X55282068Y-10003158D01*
X55394010Y-10273411D01*
X55556525Y-10516632D01*
X55763368Y-10723475D01*
X55937760Y-10840000D01*
X55763368Y-10956525D01*
X55556525Y-11163368D01*
X55394010Y-11406589D01*
X55282068Y-11676842D01*
X55225000Y-11963740D01*
X55225000Y-12256260D01*
X55282068Y-12543158D01*
X55394010Y-12813411D01*
X55556525Y-13056632D01*
X55688380Y-13188487D01*
X55615820Y-13210498D01*
X55505506Y-13269463D01*
X55408815Y-13348815D01*
X55329463Y-13445506D01*
X55270498Y-13555820D01*
X55234188Y-13675518D01*
X55221928Y-13800000D01*
X55225000Y-14364250D01*
X55383750Y-14523000D01*
X56583000Y-14523000D01*
X56583000Y-14503000D01*
X56837000Y-14503000D01*
X56837000Y-14523000D01*
X58036250Y-14523000D01*
X58195000Y-14364250D01*
X58198072Y-13800000D01*
X58185812Y-13675518D01*
X58149502Y-13555820D01*
X58090537Y-13445506D01*
X58011185Y-13348815D01*
X57914494Y-13269463D01*
X57804180Y-13210498D01*
X57731620Y-13188487D01*
X57863475Y-13056632D01*
X58025990Y-12813411D01*
X58137932Y-12543158D01*
X58195000Y-12256260D01*
X58195000Y-11963740D01*
X58137932Y-11676842D01*
X58025990Y-11406589D01*
X57863475Y-11163368D01*
X57656632Y-10956525D01*
X57482240Y-10840000D01*
X57656632Y-10723475D01*
X57863475Y-10516632D01*
X58025990Y-10273411D01*
X58137932Y-10003158D01*
X58195000Y-9716260D01*
X58195000Y-9423740D01*
X58137932Y-9136842D01*
X58025990Y-8866589D01*
X57863475Y-8623368D01*
X57656632Y-8416525D01*
X57482240Y-8300000D01*
X57656632Y-8183475D01*
X57863475Y-7976632D01*
X58025990Y-7733411D01*
X58137932Y-7463158D01*
X58195000Y-7176260D01*
X58195000Y-6883740D01*
X58137932Y-6596842D01*
X58025990Y-6326589D01*
X57863475Y-6083368D01*
X57656632Y-5876525D01*
X57482240Y-5760000D01*
X57656632Y-5643475D01*
X57863475Y-5436632D01*
X58025990Y-5193411D01*
X58137932Y-4923158D01*
X58195000Y-4636260D01*
X58195000Y-4343740D01*
X58137932Y-4056842D01*
X58025990Y-3786589D01*
X57863475Y-3543368D01*
X57731620Y-3411513D01*
X57804180Y-3389502D01*
X57914494Y-3330537D01*
X58011185Y-3251185D01*
X58090537Y-3154494D01*
X58149502Y-3044180D01*
X58185812Y-2924482D01*
X58198072Y-2800000D01*
X73001928Y-2800000D01*
X73014188Y-2924482D01*
X73050498Y-3044180D01*
X73109463Y-3154494D01*
X73188815Y-3251185D01*
X73285506Y-3330537D01*
X73395820Y-3389502D01*
X73468380Y-3411513D01*
X73336525Y-3543368D01*
X73174010Y-3786589D01*
X73062068Y-4056842D01*
X73005000Y-4343740D01*
X73005000Y-4636260D01*
X73062068Y-4923158D01*
X73174010Y-5193411D01*
X73336525Y-5436632D01*
X73543368Y-5643475D01*
X73717760Y-5760000D01*
X73543368Y-5876525D01*
X73336525Y-6083368D01*
X73174010Y-6326589D01*
X73062068Y-6596842D01*
X73005000Y-6883740D01*
X73005000Y-7176260D01*
X73062068Y-7463158D01*
X73174010Y-7733411D01*
X73336525Y-7976632D01*
X73543368Y-8183475D01*
X73717760Y-8300000D01*
X73543368Y-8416525D01*
X73336525Y-8623368D01*
X73174010Y-8866589D01*
X73062068Y-9136842D01*
X73005000Y-9423740D01*
X73005000Y-9716260D01*
X73062068Y-10003158D01*
X73174010Y-10273411D01*
X73336525Y-10516632D01*
X73543368Y-10723475D01*
X73717760Y-10840000D01*
X73543368Y-10956525D01*
X73336525Y-11163368D01*
X73174010Y-11406589D01*
X73062068Y-11676842D01*
X73005000Y-11963740D01*
X73005000Y-12256260D01*
X73062068Y-12543158D01*
X73174010Y-12813411D01*
X73336525Y-13056632D01*
X73468380Y-13188487D01*
X73395820Y-13210498D01*
X73285506Y-13269463D01*
X73188815Y-13348815D01*
X73109463Y-13445506D01*
X73050498Y-13555820D01*
X73014188Y-13675518D01*
X73001928Y-13800000D01*
X73005000Y-14364250D01*
X73163750Y-14523000D01*
X74363000Y-14523000D01*
X74363000Y-14503000D01*
X74617000Y-14503000D01*
X74617000Y-14523000D01*
X75816250Y-14523000D01*
X75975000Y-14364250D01*
X75978072Y-13800000D01*
X75965812Y-13675518D01*
X75929502Y-13555820D01*
X75870537Y-13445506D01*
X75791185Y-13348815D01*
X75694494Y-13269463D01*
X75584180Y-13210498D01*
X75511620Y-13188487D01*
X75643475Y-13056632D01*
X75805990Y-12813411D01*
X75917932Y-12543158D01*
X75975000Y-12256260D01*
X75975000Y-11963740D01*
X75917932Y-11676842D01*
X75805990Y-11406589D01*
X75643475Y-11163368D01*
X75436632Y-10956525D01*
X75262240Y-10840000D01*
X75436632Y-10723475D01*
X75643475Y-10516632D01*
X75805990Y-10273411D01*
X75917932Y-10003158D01*
X75975000Y-9716260D01*
X75975000Y-9423740D01*
X75917932Y-9136842D01*
X75805990Y-8866589D01*
X75643475Y-8623368D01*
X75436632Y-8416525D01*
X75262240Y-8300000D01*
X75436632Y-8183475D01*
X75643475Y-7976632D01*
X75805990Y-7733411D01*
X75917932Y-7463158D01*
X75975000Y-7176260D01*
X75975000Y-6883740D01*
X75917932Y-6596842D01*
X75805990Y-6326589D01*
X75643475Y-6083368D01*
X75436632Y-5876525D01*
X75262240Y-5760000D01*
X75436632Y-5643475D01*
X75643475Y-5436632D01*
X75805990Y-5193411D01*
X75917932Y-4923158D01*
X75975000Y-4636260D01*
X75975000Y-4343740D01*
X75917932Y-4056842D01*
X75805990Y-3786589D01*
X75643475Y-3543368D01*
X75511620Y-3411513D01*
X75584180Y-3389502D01*
X75694494Y-3330537D01*
X75791185Y-3251185D01*
X75870537Y-3154494D01*
X75929502Y-3044180D01*
X75965812Y-2924482D01*
X75978072Y-2800000D01*
X75975000Y-2235750D01*
X75816250Y-2077000D01*
X74617000Y-2077000D01*
X74617000Y-2097000D01*
X74363000Y-2097000D01*
X74363000Y-2077000D01*
X73163750Y-2077000D01*
X73005000Y-2235750D01*
X73001928Y-2800000D01*
X58198072Y-2800000D01*
X58195000Y-2235750D01*
X58036250Y-2077000D01*
X56837000Y-2077000D01*
X56837000Y-2097000D01*
X56583000Y-2097000D01*
X56583000Y-2077000D01*
X55383750Y-2077000D01*
X55225000Y-2235750D01*
X55221928Y-2800000D01*
X32256000Y-2800000D01*
X32256000Y-1973711D01*
X32299937Y-1929774D01*
X32413205Y-1760256D01*
X32491226Y-1571898D01*
X32531000Y-1371939D01*
X32531000Y-1168061D01*
X32491226Y-968102D01*
X32413205Y-779744D01*
X32299937Y-610226D01*
X32256000Y-566289D01*
X32256000Y566289D01*
X32299937Y610226D01*
X32413205Y779744D01*
X32491226Y968102D01*
X32531000Y1168061D01*
X32531000Y1371939D01*
X32491226Y1571898D01*
X32413205Y1760256D01*
X32299937Y1929774D01*
X32256000Y1973711D01*
X32256000Y3360289D01*
X32299937Y3404226D01*
X32413205Y3573744D01*
X32491226Y3762102D01*
X32531000Y3962061D01*
X32531000Y4165939D01*
X32491226Y4365898D01*
X32413205Y4554256D01*
X32299937Y4723774D01*
X32256000Y4767711D01*
X32256000Y5392289D01*
X32299937Y5436226D01*
X32413205Y5605744D01*
X32491226Y5794102D01*
X32531000Y5994061D01*
X32531000Y6197939D01*
X32491226Y6397898D01*
X32413205Y6586256D01*
X32299937Y6755774D01*
X32256000Y6799711D01*
X32256000Y9900000D01*
X55221928Y9900000D01*
X55234188Y9775518D01*
X55270498Y9655820D01*
X55329463Y9545506D01*
X55408815Y9448815D01*
X55505506Y9369463D01*
X55615820Y9310498D01*
X55688380Y9288487D01*
X55556525Y9156632D01*
X55394010Y8913411D01*
X55282068Y8643158D01*
X55225000Y8356260D01*
X55225000Y8063740D01*
X55282068Y7776842D01*
X55394010Y7506589D01*
X55556525Y7263368D01*
X55763368Y7056525D01*
X55937760Y6940000D01*
X55763368Y6823475D01*
X55556525Y6616632D01*
X55394010Y6373411D01*
X55282068Y6103158D01*
X55225000Y5816260D01*
X55225000Y5523740D01*
X55282068Y5236842D01*
X55394010Y4966589D01*
X55556525Y4723368D01*
X55763368Y4516525D01*
X55937760Y4400000D01*
X55763368Y4283475D01*
X55556525Y4076632D01*
X55394010Y3833411D01*
X55282068Y3563158D01*
X55225000Y3276260D01*
X55225000Y2983740D01*
X55282068Y2696842D01*
X55394010Y2426589D01*
X55556525Y2183368D01*
X55763368Y1976525D01*
X55937760Y1860000D01*
X55763368Y1743475D01*
X55556525Y1536632D01*
X55394010Y1293411D01*
X55282068Y1023158D01*
X55225000Y736260D01*
X55225000Y443740D01*
X55282068Y156842D01*
X55394010Y-113411D01*
X55556525Y-356632D01*
X55688380Y-488487D01*
X55615820Y-510498D01*
X55505506Y-569463D01*
X55408815Y-648815D01*
X55329463Y-745506D01*
X55270498Y-855820D01*
X55234188Y-975518D01*
X55221928Y-1100000D01*
X55225000Y-1664250D01*
X55383750Y-1823000D01*
X56583000Y-1823000D01*
X56583000Y-1803000D01*
X56837000Y-1803000D01*
X56837000Y-1823000D01*
X58036250Y-1823000D01*
X58195000Y-1664250D01*
X58198072Y-1100000D01*
X58185812Y-975518D01*
X58149502Y-855820D01*
X58090537Y-745506D01*
X58011185Y-648815D01*
X57914494Y-569463D01*
X57804180Y-510498D01*
X57731620Y-488487D01*
X57863475Y-356632D01*
X58025990Y-113411D01*
X58137932Y156842D01*
X58195000Y443740D01*
X58195000Y736260D01*
X58137932Y1023158D01*
X58025990Y1293411D01*
X57863475Y1536632D01*
X57656632Y1743475D01*
X57482240Y1860000D01*
X57656632Y1976525D01*
X57863475Y2183368D01*
X58025990Y2426589D01*
X58137932Y2696842D01*
X58195000Y2983740D01*
X58195000Y3276260D01*
X58137932Y3563158D01*
X58025990Y3833411D01*
X57863475Y4076632D01*
X57656632Y4283475D01*
X57482240Y4400000D01*
X57656632Y4516525D01*
X57863475Y4723368D01*
X58025990Y4966589D01*
X58137932Y5236842D01*
X58195000Y5523740D01*
X58195000Y5816260D01*
X58137932Y6103158D01*
X58025990Y6373411D01*
X57863475Y6616632D01*
X57656632Y6823475D01*
X57482240Y6940000D01*
X57656632Y7056525D01*
X57863475Y7263368D01*
X58025990Y7506589D01*
X58137932Y7776842D01*
X58195000Y8063740D01*
X58195000Y8356260D01*
X58137932Y8643158D01*
X58025990Y8913411D01*
X57863475Y9156632D01*
X57731620Y9288487D01*
X57804180Y9310498D01*
X57914494Y9369463D01*
X58011185Y9448815D01*
X58090537Y9545506D01*
X58149502Y9655820D01*
X58185812Y9775518D01*
X58198072Y9900000D01*
X73001928Y9900000D01*
X73014188Y9775518D01*
X73050498Y9655820D01*
X73109463Y9545506D01*
X73188815Y9448815D01*
X73285506Y9369463D01*
X73395820Y9310498D01*
X73468380Y9288487D01*
X73336525Y9156632D01*
X73174010Y8913411D01*
X73062068Y8643158D01*
X73005000Y8356260D01*
X73005000Y8063740D01*
X73062068Y7776842D01*
X73174010Y7506589D01*
X73336525Y7263368D01*
X73543368Y7056525D01*
X73717760Y6940000D01*
X73543368Y6823475D01*
X73336525Y6616632D01*
X73174010Y6373411D01*
X73062068Y6103158D01*
X73005000Y5816260D01*
X73005000Y5523740D01*
X73062068Y5236842D01*
X73174010Y4966589D01*
X73336525Y4723368D01*
X73543368Y4516525D01*
X73717760Y4400000D01*
X73543368Y4283475D01*
X73336525Y4076632D01*
X73174010Y3833411D01*
X73062068Y3563158D01*
X73005000Y3276260D01*
X73005000Y2983740D01*
X73062068Y2696842D01*
X73174010Y2426589D01*
X73336525Y2183368D01*
X73543368Y1976525D01*
X73717760Y1860000D01*
X73543368Y1743475D01*
X73336525Y1536632D01*
X73174010Y1293411D01*
X73062068Y1023158D01*
X73005000Y736260D01*
X73005000Y443740D01*
X73062068Y156842D01*
X73174010Y-113411D01*
X73336525Y-356632D01*
X73468380Y-488487D01*
X73395820Y-510498D01*
X73285506Y-569463D01*
X73188815Y-648815D01*
X73109463Y-745506D01*
X73050498Y-855820D01*
X73014188Y-975518D01*
X73001928Y-1100000D01*
X73005000Y-1664250D01*
X73163750Y-1823000D01*
X74363000Y-1823000D01*
X74363000Y-1803000D01*
X74617000Y-1803000D01*
X74617000Y-1823000D01*
X75816250Y-1823000D01*
X75975000Y-1664250D01*
X75978072Y-1100000D01*
X75965812Y-975518D01*
X75929502Y-855820D01*
X75870537Y-745506D01*
X75791185Y-648815D01*
X75694494Y-569463D01*
X75584180Y-510498D01*
X75511620Y-488487D01*
X75643475Y-356632D01*
X75805990Y-113411D01*
X75917932Y156842D01*
X75975000Y443740D01*
X75975000Y736260D01*
X75917932Y1023158D01*
X75805990Y1293411D01*
X75643475Y1536632D01*
X75436632Y1743475D01*
X75262240Y1860000D01*
X75436632Y1976525D01*
X75643475Y2183368D01*
X75805990Y2426589D01*
X75917932Y2696842D01*
X75975000Y2983740D01*
X75975000Y3276260D01*
X75917932Y3563158D01*
X75805990Y3833411D01*
X75643475Y4076632D01*
X75436632Y4283475D01*
X75262240Y4400000D01*
X75436632Y4516525D01*
X75643475Y4723368D01*
X75805990Y4966589D01*
X75917932Y5236842D01*
X75975000Y5523740D01*
X75975000Y5816260D01*
X75917932Y6103158D01*
X75805990Y6373411D01*
X75643475Y6616632D01*
X75436632Y6823475D01*
X75262240Y6940000D01*
X75436632Y7056525D01*
X75643475Y7263368D01*
X75805990Y7506589D01*
X75917932Y7776842D01*
X75975000Y8063740D01*
X75975000Y8356260D01*
X75917932Y8643158D01*
X75805990Y8913411D01*
X75643475Y9156632D01*
X75511620Y9288487D01*
X75584180Y9310498D01*
X75694494Y9369463D01*
X75791185Y9448815D01*
X75870537Y9545506D01*
X75929502Y9655820D01*
X75965812Y9775518D01*
X75978072Y9900000D01*
X75975000Y10464250D01*
X75816250Y10623000D01*
X74617000Y10623000D01*
X74617000Y10603000D01*
X74363000Y10603000D01*
X74363000Y10623000D01*
X73163750Y10623000D01*
X73005000Y10464250D01*
X73001928Y9900000D01*
X58198072Y9900000D01*
X58195000Y10464250D01*
X58036250Y10623000D01*
X56837000Y10623000D01*
X56837000Y10603000D01*
X56583000Y10603000D01*
X56583000Y10623000D01*
X55383750Y10623000D01*
X55225000Y10464250D01*
X55221928Y9900000D01*
X32256000Y9900000D01*
X32256000Y10726289D01*
X32299937Y10770226D01*
X32413205Y10939744D01*
X32491226Y11128102D01*
X32531000Y11328061D01*
X32531000Y11531939D01*
X32517462Y11600000D01*
X55221928Y11600000D01*
X55225000Y11035750D01*
X55383750Y10877000D01*
X56583000Y10877000D01*
X56583000Y10897000D01*
X56837000Y10897000D01*
X56837000Y10877000D01*
X58036250Y10877000D01*
X58195000Y11035750D01*
X58198072Y11600000D01*
X58185812Y11724482D01*
X58149502Y11844180D01*
X58090537Y11954494D01*
X58011185Y12051185D01*
X57914494Y12130537D01*
X57804180Y12189502D01*
X57731620Y12211513D01*
X57863475Y12343368D01*
X58025990Y12586589D01*
X58117042Y12806411D01*
X61790000Y12806411D01*
X61790000Y12533589D01*
X61843225Y12266011D01*
X61947629Y12013957D01*
X62099201Y11787114D01*
X62292114Y11594201D01*
X62518957Y11442629D01*
X62771011Y11338225D01*
X63038589Y11285000D01*
X63311411Y11285000D01*
X63578989Y11338225D01*
X63831043Y11442629D01*
X64057886Y11594201D01*
X64250799Y11787114D01*
X64402371Y12013957D01*
X64506775Y12266011D01*
X64560000Y12533589D01*
X64560000Y12806411D01*
X66640000Y12806411D01*
X66640000Y12533589D01*
X66693225Y12266011D01*
X66797629Y12013957D01*
X66949201Y11787114D01*
X67142114Y11594201D01*
X67368957Y11442629D01*
X67621011Y11338225D01*
X67888589Y11285000D01*
X68161411Y11285000D01*
X68428989Y11338225D01*
X68681043Y11442629D01*
X68907886Y11594201D01*
X68913685Y11600000D01*
X73001928Y11600000D01*
X73005000Y11035750D01*
X73163750Y10877000D01*
X74363000Y10877000D01*
X74363000Y10897000D01*
X74617000Y10897000D01*
X74617000Y10877000D01*
X75816250Y10877000D01*
X75975000Y11035750D01*
X75978072Y11600000D01*
X75965812Y11724482D01*
X75929502Y11844180D01*
X75870537Y11954494D01*
X75791185Y12051185D01*
X75694494Y12130537D01*
X75584180Y12189502D01*
X75511620Y12211513D01*
X75643475Y12343368D01*
X75805990Y12586589D01*
X75917932Y12856842D01*
X75975000Y13143740D01*
X75975000Y13436260D01*
X75917932Y13723158D01*
X75805990Y13993411D01*
X75643475Y14236632D01*
X75436632Y14443475D01*
X75262240Y14560000D01*
X75436632Y14676525D01*
X75643475Y14883368D01*
X75805990Y15126589D01*
X75917932Y15396842D01*
X75975000Y15683740D01*
X75975000Y15976260D01*
X75917932Y16263158D01*
X75805990Y16533411D01*
X75643475Y16776632D01*
X75436632Y16983475D01*
X75193411Y17145990D01*
X74923158Y17257932D01*
X74636260Y17315000D01*
X74343740Y17315000D01*
X74056842Y17257932D01*
X73786589Y17145990D01*
X73543368Y16983475D01*
X73336525Y16776632D01*
X73174010Y16533411D01*
X73062068Y16263158D01*
X73005000Y15976260D01*
X73005000Y15683740D01*
X73062068Y15396842D01*
X73174010Y15126589D01*
X73336525Y14883368D01*
X73543368Y14676525D01*
X73717760Y14560000D01*
X73543368Y14443475D01*
X73336525Y14236632D01*
X73174010Y13993411D01*
X73062068Y13723158D01*
X73005000Y13436260D01*
X73005000Y13143740D01*
X73062068Y12856842D01*
X73174010Y12586589D01*
X73336525Y12343368D01*
X73468380Y12211513D01*
X73395820Y12189502D01*
X73285506Y12130537D01*
X73188815Y12051185D01*
X73109463Y11954494D01*
X73050498Y11844180D01*
X73014188Y11724482D01*
X73001928Y11600000D01*
X68913685Y11600000D01*
X69100799Y11787114D01*
X69252371Y12013957D01*
X69356775Y12266011D01*
X69410000Y12533589D01*
X69410000Y12806411D01*
X69356775Y13073989D01*
X69252371Y13326043D01*
X69100799Y13552886D01*
X68907886Y13745799D01*
X68681043Y13897371D01*
X68428989Y14001775D01*
X68161411Y14055000D01*
X67888589Y14055000D01*
X67621011Y14001775D01*
X67368957Y13897371D01*
X67142114Y13745799D01*
X66949201Y13552886D01*
X66797629Y13326043D01*
X66693225Y13073989D01*
X66640000Y12806411D01*
X64560000Y12806411D01*
X64506775Y13073989D01*
X64402371Y13326043D01*
X64250799Y13552886D01*
X64057886Y13745799D01*
X63831043Y13897371D01*
X63578989Y14001775D01*
X63311411Y14055000D01*
X63038589Y14055000D01*
X62771011Y14001775D01*
X62518957Y13897371D01*
X62292114Y13745799D01*
X62099201Y13552886D01*
X61947629Y13326043D01*
X61843225Y13073989D01*
X61790000Y12806411D01*
X58117042Y12806411D01*
X58137932Y12856842D01*
X58195000Y13143740D01*
X58195000Y13436260D01*
X58137932Y13723158D01*
X58025990Y13993411D01*
X57863475Y14236632D01*
X57656632Y14443475D01*
X57482240Y14560000D01*
X57656632Y14676525D01*
X57863475Y14883368D01*
X58025990Y15126589D01*
X58137932Y15396842D01*
X58195000Y15683740D01*
X58195000Y15851184D01*
X61340000Y15851184D01*
X61340000Y15548816D01*
X61398989Y15252257D01*
X61514701Y14972905D01*
X61682688Y14721495D01*
X61896495Y14507688D01*
X62147905Y14339701D01*
X62427257Y14223989D01*
X62723816Y14165000D01*
X63026184Y14165000D01*
X63322743Y14223989D01*
X63602095Y14339701D01*
X63853505Y14507688D01*
X64067312Y14721495D01*
X64235299Y14972905D01*
X64351011Y15252257D01*
X64410000Y15548816D01*
X64410000Y15851184D01*
X66790000Y15851184D01*
X66790000Y15548816D01*
X66848989Y15252257D01*
X66964701Y14972905D01*
X67132688Y14721495D01*
X67346495Y14507688D01*
X67597905Y14339701D01*
X67877257Y14223989D01*
X68173816Y14165000D01*
X68476184Y14165000D01*
X68772743Y14223989D01*
X69052095Y14339701D01*
X69303505Y14507688D01*
X69517312Y14721495D01*
X69685299Y14972905D01*
X69801011Y15252257D01*
X69860000Y15548816D01*
X69860000Y15851184D01*
X69801011Y16147743D01*
X69685299Y16427095D01*
X69517312Y16678505D01*
X69303505Y16892312D01*
X69052095Y17060299D01*
X68772743Y17176011D01*
X68476184Y17235000D01*
X68173816Y17235000D01*
X67877257Y17176011D01*
X67597905Y17060299D01*
X67346495Y16892312D01*
X67132688Y16678505D01*
X66964701Y16427095D01*
X66848989Y16147743D01*
X66790000Y15851184D01*
X64410000Y15851184D01*
X64351011Y16147743D01*
X64235299Y16427095D01*
X64067312Y16678505D01*
X63853505Y16892312D01*
X63602095Y17060299D01*
X63322743Y17176011D01*
X63026184Y17235000D01*
X62723816Y17235000D01*
X62427257Y17176011D01*
X62147905Y17060299D01*
X61896495Y16892312D01*
X61682688Y16678505D01*
X61514701Y16427095D01*
X61398989Y16147743D01*
X61340000Y15851184D01*
X58195000Y15851184D01*
X58195000Y15976260D01*
X58137932Y16263158D01*
X58025990Y16533411D01*
X57863475Y16776632D01*
X57656632Y16983475D01*
X57413411Y17145990D01*
X57143158Y17257932D01*
X56856260Y17315000D01*
X56563740Y17315000D01*
X56276842Y17257932D01*
X56006589Y17145990D01*
X55763368Y16983475D01*
X55556525Y16776632D01*
X55394010Y16533411D01*
X55282068Y16263158D01*
X55225000Y15976260D01*
X55225000Y15683740D01*
X55282068Y15396842D01*
X55394010Y15126589D01*
X55556525Y14883368D01*
X55763368Y14676525D01*
X55937760Y14560000D01*
X55763368Y14443475D01*
X55556525Y14236632D01*
X55394010Y13993411D01*
X55282068Y13723158D01*
X55225000Y13436260D01*
X55225000Y13143740D01*
X55282068Y12856842D01*
X55394010Y12586589D01*
X55556525Y12343368D01*
X55688380Y12211513D01*
X55615820Y12189502D01*
X55505506Y12130537D01*
X55408815Y12051185D01*
X55329463Y11954494D01*
X55270498Y11844180D01*
X55234188Y11724482D01*
X55221928Y11600000D01*
X32517462Y11600000D01*
X32491226Y11731898D01*
X32413205Y11920256D01*
X32299937Y12089774D01*
X32155774Y12233937D01*
X31986256Y12347205D01*
X31797898Y12425226D01*
X31597939Y12465000D01*
X31394061Y12465000D01*
X31194102Y12425226D01*
X31005744Y12347205D01*
X30836226Y12233937D01*
X30692063Y12089774D01*
X30578795Y11920256D01*
X30500774Y11731898D01*
X30461000Y11531939D01*
X18032000Y11531939D01*
X18032000Y12758289D01*
X18058937Y12785226D01*
X18172205Y12954744D01*
X18250226Y13143102D01*
X18290000Y13343061D01*
X18290000Y13546939D01*
X18250226Y13746898D01*
X18172205Y13935256D01*
X18058937Y14104774D01*
X17914774Y14248937D01*
X17745256Y14362205D01*
X17556898Y14440226D01*
X17356939Y14480000D01*
X17153061Y14480000D01*
X16953102Y14440226D01*
X16764744Y14362205D01*
X16595226Y14248937D01*
X16451063Y14104774D01*
X16337795Y13935256D01*
X16259774Y13746898D01*
X16220000Y13546939D01*
X16220000Y13343061D01*
X16259774Y13143102D01*
X16337795Y12954744D01*
X16451063Y12785226D01*
X16512001Y12724288D01*
X16512001Y10687000D01*
X16445061Y10687000D01*
X16245102Y10647226D01*
X16056744Y10569205D01*
X15887226Y10455937D01*
X15743063Y10311774D01*
X15629795Y10142256D01*
X15551774Y9953898D01*
X15512000Y9753939D01*
X15512000Y9691801D01*
X15274001Y9453802D01*
X15244998Y9430000D01*
X15204175Y9380256D01*
X15150025Y9314275D01*
X15137058Y9290015D01*
X15079453Y9182245D01*
X15035996Y9038984D01*
X15024999Y8927331D01*
X15024999Y8927321D01*
X15021323Y8889999D01*
X15024999Y8852677D01*
X15025000Y-5587667D01*
X15021323Y-5624999D01*
X15025000Y-5662332D01*
X15035997Y-5773985D01*
X15049179Y-5817441D01*
X15079453Y-5917245D01*
X15150025Y-6049275D01*
X15221200Y-6136001D01*
X15244999Y-6165000D01*
X15273997Y-6188798D01*
X15729000Y-6643802D01*
X15729000Y-6705939D01*
X15768774Y-6905898D01*
X15846795Y-7094256D01*
X15960063Y-7263774D01*
X16104226Y-7407937D01*
X16273744Y-7521205D01*
X16462102Y-7599226D01*
X16512000Y-7609151D01*
X16512001Y-17282849D01*
X16462102Y-17292774D01*
X16273744Y-17370795D01*
X16104226Y-17484063D01*
X15960063Y-17628226D01*
X15846795Y-17797744D01*
X15768774Y-17986102D01*
X15729000Y-18186061D01*
X15729000Y-18389939D01*
X15768774Y-18589898D01*
X15846795Y-18778256D01*
X15960063Y-18947774D01*
X16004000Y-18991711D01*
X16004001Y-22918288D01*
X15960063Y-22962226D01*
X15846795Y-23131744D01*
X15768774Y-23320102D01*
X15735356Y-23488108D01*
X15588831Y-23458963D01*
X15384953Y-23458963D01*
X15184994Y-23498737D01*
X14996636Y-23576758D01*
X14827118Y-23690026D01*
X14682955Y-23834189D01*
X14569687Y-24003707D01*
X14491666Y-24192065D01*
X14451892Y-24392024D01*
X11174000Y-24392024D01*
X11174000Y-22506735D01*
X11237310Y-22443425D01*
X11350578Y-22273907D01*
X11428599Y-22085549D01*
X11468373Y-21885590D01*
X11468373Y-21681712D01*
X11428599Y-21481753D01*
X11350578Y-21293395D01*
X11237310Y-21123877D01*
X11093147Y-20979714D01*
X10923629Y-20866446D01*
X10876683Y-20847000D01*
X11023939Y-20847000D01*
X11223898Y-20807226D01*
X11412256Y-20729205D01*
X11581774Y-20615937D01*
X11725937Y-20471774D01*
X11839205Y-20302256D01*
X11917226Y-20113898D01*
X11957000Y-19913939D01*
X11957000Y-19710061D01*
X11935397Y-19601455D01*
X11936000Y-19595333D01*
X11936000Y-19595324D01*
X11939676Y-19558001D01*
X11936000Y-19520678D01*
X11936000Y-18307000D01*
X12002939Y-18307000D01*
X12202898Y-18267226D01*
X12391256Y-18189205D01*
X12560774Y-18075937D01*
X12704937Y-17931774D01*
X12818205Y-17762256D01*
X12896226Y-17573898D01*
X12936000Y-17373939D01*
X12936000Y-17170061D01*
X12896226Y-16970102D01*
X12818205Y-16781744D01*
X12704937Y-16612226D01*
X12698000Y-16605289D01*
X12698000Y-8831711D01*
X12741937Y-8787774D01*
X12855205Y-8618256D01*
X12933226Y-8429898D01*
X12973000Y-8229939D01*
X12973000Y-8026061D01*
X12933226Y-7826102D01*
X12855205Y-7637744D01*
X12741937Y-7468226D01*
X12659126Y-7385415D01*
X12679226Y-7336888D01*
X12719000Y-7136929D01*
X12719000Y-7074792D01*
X12920004Y-6873788D01*
X12949001Y-6849991D01*
X13043974Y-6734266D01*
X13114546Y-6602237D01*
X13158003Y-6458976D01*
X13169000Y-6347323D01*
X13169000Y-6347313D01*
X13172676Y-6309990D01*
X13169000Y-6272667D01*
X13169000Y1836289D01*
X13212937Y1880226D01*
X13326205Y2049744D01*
X13404226Y2238102D01*
X13444000Y2438061D01*
X13444000Y2641939D01*
X13404226Y2841898D01*
X13326205Y3030256D01*
X13212937Y3199774D01*
X13068774Y3343937D01*
X12899256Y3457205D01*
X12710898Y3535226D01*
X12510939Y3575000D01*
X12444000Y3575000D01*
X12444000Y4329644D01*
X12598061Y4299000D01*
X12801939Y4299000D01*
X13001898Y4338774D01*
X13190256Y4416795D01*
X13359774Y4530063D01*
X13503937Y4674226D01*
X13617205Y4843744D01*
X13695226Y5032102D01*
X13735000Y5232061D01*
X13735000Y5435939D01*
X13713397Y5544545D01*
X13714000Y5550667D01*
X13714000Y5550676D01*
X13717676Y5587999D01*
X13714000Y5625322D01*
X13714000Y7678289D01*
X13757937Y7722226D01*
X13871205Y7891744D01*
X13949226Y8080102D01*
X13989000Y8280061D01*
X13989000Y8483939D01*
X13949226Y8683898D01*
X13871205Y8872256D01*
X13757937Y9041774D01*
X13613774Y9185937D01*
X13444256Y9299205D01*
X13255898Y9377226D01*
X13055939Y9417000D01*
X12852061Y9417000D01*
X12652102Y9377226D01*
X12463744Y9299205D01*
X12444000Y9286013D01*
X12444000Y10218289D01*
X12487937Y10262226D01*
X12601205Y10431744D01*
X12679226Y10620102D01*
X12719000Y10820061D01*
X12719000Y11023939D01*
X12679226Y11223898D01*
X12601205Y11412256D01*
X12487937Y11581774D01*
X12343774Y11725937D01*
X12174256Y11839205D01*
X11985898Y11917226D01*
X11785939Y11957000D01*
X11582061Y11957000D01*
X11382102Y11917226D01*
X11193744Y11839205D01*
X11024226Y11725937D01*
X10880063Y11581774D01*
X10766795Y11412256D01*
X10688774Y11223898D01*
X10649000Y11023939D01*
X10649000Y10820061D01*
X10688774Y10620102D01*
X10766795Y10431744D01*
X10880063Y10262226D01*
X10924000Y10218289D01*
X10924001Y-3868288D01*
X10880063Y-3912226D01*
X10766795Y-4081744D01*
X10688774Y-4270102D01*
X10649000Y-4470061D01*
X10649000Y-4673939D01*
X10688774Y-4873898D01*
X10766795Y-5062256D01*
X10880063Y-5231774D01*
X11024226Y-5375937D01*
X11193744Y-5489205D01*
X11382102Y-5567226D01*
X11582061Y-5607000D01*
X11649000Y-5607000D01*
X11649000Y-5995188D01*
X11644198Y-5999990D01*
X11582061Y-5999990D01*
X11382102Y-6039764D01*
X11193744Y-6117785D01*
X11024226Y-6231053D01*
X10880063Y-6375216D01*
X10766795Y-6544734D01*
X10688774Y-6733092D01*
X10649000Y-6933051D01*
X10649000Y-7136929D01*
X10688774Y-7336888D01*
X10766795Y-7525246D01*
X10880063Y-7694764D01*
X10962874Y-7777575D01*
X10942774Y-7826102D01*
X10903000Y-8026061D01*
X10903000Y-8229939D01*
X10942774Y-8429898D01*
X11020795Y-8618256D01*
X11134063Y-8787774D01*
X11178000Y-8831711D01*
X11178000Y-8871000D01*
X11074061Y-8871000D01*
X10874102Y-8910774D01*
X10685744Y-8988795D01*
X10516226Y-9102063D01*
X10372063Y-9246226D01*
X10258795Y-9415744D01*
X10180774Y-9604102D01*
X10141000Y-9804061D01*
X10141000Y-10007939D01*
X10180774Y-10207898D01*
X10258795Y-10396256D01*
X10372063Y-10565774D01*
X10416000Y-10609711D01*
X10416000Y-14198644D01*
X10261939Y-14168000D01*
X10058061Y-14168000D01*
X9858102Y-14207774D01*
X9669744Y-14285795D01*
X9500226Y-14399063D01*
X9356063Y-14543226D01*
X9242795Y-14712744D01*
X9164774Y-14901102D01*
X9159716Y-14926530D01*
X9126939Y-14920010D01*
X8923061Y-14920010D01*
X8723102Y-14959784D01*
X8534744Y-15037805D01*
X8365226Y-15151073D01*
X8221063Y-15295236D01*
X8126000Y-15437508D01*
X8126000Y-13149711D01*
X8169937Y-13105774D01*
X8283205Y-12936256D01*
X8361226Y-12747898D01*
X8401000Y-12547939D01*
X8401000Y-12344061D01*
X8361226Y-12144102D01*
X8283205Y-11955744D01*
X8169937Y-11786226D01*
X8025774Y-11642063D01*
X7856256Y-11528795D01*
X7667898Y-11450774D01*
X7467939Y-11411000D01*
X7385000Y-11411000D01*
X7385000Y-11328061D01*
X7345226Y-11128102D01*
X7267205Y-10939744D01*
X7153937Y-10770226D01*
X7009774Y-10626063D01*
X6840256Y-10512795D01*
X6651898Y-10434774D01*
X6451939Y-10395000D01*
X6348000Y-10395000D01*
X6348000Y-9032013D01*
X6367744Y-9045205D01*
X6556102Y-9123226D01*
X6756061Y-9163000D01*
X6959939Y-9163000D01*
X7159898Y-9123226D01*
X7348256Y-9045205D01*
X7517774Y-8931937D01*
X7661937Y-8787774D01*
X7775205Y-8618256D01*
X7853226Y-8429898D01*
X7893000Y-8229939D01*
X7893000Y-8026061D01*
X7871397Y-7917455D01*
X7872000Y-7911333D01*
X7872000Y-7911324D01*
X7875676Y-7874001D01*
X7872000Y-7836678D01*
X7872000Y-6369000D01*
X7938939Y-6369000D01*
X8138898Y-6329226D01*
X8327256Y-6251205D01*
X8496774Y-6137937D01*
X8640937Y-5993774D01*
X8754205Y-5824256D01*
X8832226Y-5635898D01*
X8872000Y-5435939D01*
X8872000Y-5232061D01*
X8832226Y-5032102D01*
X8754205Y-4843744D01*
X8640937Y-4674226D01*
X8597000Y-4630289D01*
X8597000Y-740711D01*
X8677937Y-659774D01*
X8791205Y-490256D01*
X8869226Y-301898D01*
X8909000Y-101939D01*
X8909000Y101939D01*
X8869226Y301898D01*
X8791205Y490256D01*
X8677937Y659774D01*
X8533774Y803937D01*
X8364256Y917205D01*
X8175898Y995226D01*
X7975939Y1035000D01*
X7872000Y1035000D01*
X7872000Y5646289D01*
X7915937Y5690226D01*
X8029205Y5859744D01*
X8107226Y6048102D01*
X8147000Y6248061D01*
X8147000Y6365026D01*
X8175898Y6370774D01*
X8364256Y6448795D01*
X8533774Y6562063D01*
X8677937Y6706226D01*
X8791205Y6875744D01*
X8869226Y7064102D01*
X8909000Y7264061D01*
X8909000Y7467939D01*
X8869226Y7667898D01*
X8791205Y7856256D01*
X8677937Y8025774D01*
X8634000Y8069711D01*
X8634000Y14282289D01*
X8677937Y14326226D01*
X8791205Y14495744D01*
X8869226Y14684102D01*
X8909000Y14884061D01*
X8909000Y15087939D01*
X8869226Y15287898D01*
X8791205Y15476256D01*
X8677937Y15645774D01*
X8533774Y15789937D01*
X8364256Y15903205D01*
X8175898Y15981226D01*
X7975939Y16021000D01*
X7772061Y16021000D01*
X7572102Y15981226D01*
X7383744Y15903205D01*
X7214226Y15789937D01*
X7070063Y15645774D01*
X6956795Y15476256D01*
X6878774Y15287898D01*
X6839000Y15087939D01*
X6839000Y14884061D01*
X6878774Y14684102D01*
X6956275Y14497000D01*
X6756061Y14497000D01*
X6556102Y14457226D01*
X6367744Y14379205D01*
X6198226Y14265937D01*
X6054063Y14121774D01*
X5940795Y13952256D01*
X5862774Y13763898D01*
X5850667Y13703030D01*
X5689939Y13735000D01*
X5486061Y13735000D01*
X5286102Y13695226D01*
X5097744Y13617205D01*
X5028072Y13570652D01*
X5028072Y13630000D01*
X5015812Y13754482D01*
X4979502Y13874180D01*
X4920537Y13984494D01*
X4841185Y14081185D01*
X4744494Y14160537D01*
X4634180Y14219502D01*
X4514482Y14255812D01*
X4390000Y14268072D01*
X2690000Y14268072D01*
X2565518Y14255812D01*
X2445820Y14219502D01*
X2335506Y14160537D01*
X2238815Y14081185D01*
X2159463Y13984494D01*
X2100498Y13874180D01*
X2077502Y13798374D01*
X1881355Y13975178D01*
X1631252Y14124157D01*
X1356891Y14221481D01*
X1127000Y14100814D01*
X1127000Y12907000D01*
X1147000Y12907000D01*
X1147000Y12653000D01*
X1127000Y12653000D01*
X1127000Y12633000D01*
X873000Y12633000D01*
X873000Y12653000D01*
X-320155Y12653000D01*
X-441476Y12423110D01*
X-396825Y12275901D01*
X-361710Y12202178D01*
X-406061Y12211000D01*
X-609939Y12211000D01*
X-809898Y12171226D01*
X-998256Y12093205D01*
X-1167774Y11979937D01*
X-1311937Y11835774D01*
X-1425205Y11666256D01*
X-1503226Y11477898D01*
X-1543000Y11277939D01*
X-1543000Y11160974D01*
X-1571898Y11155226D01*
X-1626000Y11132816D01*
X-1626000Y13136890D01*
X-441476Y13136890D01*
X-320155Y12907000D01*
X873000Y12907000D01*
X873000Y14100814D01*
X643109Y14221481D01*
X368748Y14124157D01*
X118645Y13975178D01*
X-97588Y13780269D01*
X-271641Y13546920D01*
X-396825Y13284099D01*
X-441476Y13136890D01*
X-1626000Y13136890D01*
X-1626000Y19660000D01*
X89002000Y19660000D01*
X89002001Y-34901821D01*
G37*
X89002001Y-34901821D02*
X-1626000Y-35152175D01*
X-1626000Y-28509883D01*
X-1565937Y-28599774D01*
X-1421774Y-28743937D01*
X-1252256Y-28857205D01*
X-1063898Y-28935226D01*
X-863939Y-28975000D01*
X-660061Y-28975000D01*
X-460102Y-28935226D01*
X-271744Y-28857205D01*
X-102226Y-28743937D01*
X41937Y-28599774D01*
X155205Y-28430256D01*
X233226Y-28241898D01*
X273000Y-28041939D01*
X273000Y-27838061D01*
X233226Y-27638102D01*
X215000Y-27594101D01*
X215000Y-26581474D01*
X296589Y-26635990D01*
X566842Y-26747932D01*
X853740Y-26805000D01*
X1146260Y-26805000D01*
X1433158Y-26747932D01*
X1703411Y-26635990D01*
X1946632Y-26473475D01*
X2153475Y-26266632D01*
X2270000Y-26092240D01*
X2386525Y-26266632D01*
X2593368Y-26473475D01*
X2836589Y-26635990D01*
X3106842Y-26747932D01*
X3393740Y-26805000D01*
X3686260Y-26805000D01*
X3973158Y-26747932D01*
X4243411Y-26635990D01*
X4486632Y-26473475D01*
X4693475Y-26266632D01*
X4855990Y-26023411D01*
X4967932Y-25753158D01*
X5025000Y-25466260D01*
X5025000Y-25173740D01*
X5004582Y-25071094D01*
X5062256Y-25047205D01*
X5231774Y-24933937D01*
X5375937Y-24789774D01*
X5489205Y-24620256D01*
X5567226Y-24431898D01*
X5607000Y-24231939D01*
X5607000Y-24028061D01*
X5567226Y-23828102D01*
X5489205Y-23639744D01*
X5375937Y-23470226D01*
X5231774Y-23326063D01*
X5062256Y-23212795D01*
X4975179Y-23176726D01*
X4994855Y-23077806D01*
X5023332Y-23075001D01*
X5644679Y-23075001D01*
X5682001Y-23078677D01*
X5719323Y-23075001D01*
X5719334Y-23075001D01*
X5830987Y-23064004D01*
X5974248Y-23020547D01*
X6106277Y-22949975D01*
X6222002Y-22855002D01*
X6245804Y-22825999D01*
X6462715Y-22609089D01*
X6562063Y-22757774D01*
X6706226Y-22901937D01*
X6875744Y-23015205D01*
X7064102Y-23093226D01*
X7264061Y-23133000D01*
X7467939Y-23133000D01*
X7667898Y-23093226D01*
X7856256Y-23015205D01*
X8025774Y-22901937D01*
X8130001Y-22797710D01*
X8130000Y-31554289D01*
X8086063Y-31598226D01*
X7972795Y-31767744D01*
X7894774Y-31956102D01*
X7855000Y-32156061D01*
X7855000Y-32359939D01*
X7894774Y-32559898D01*
X7972795Y-32748256D01*
X8086063Y-32917774D01*
X8230226Y-33061937D01*
X8399744Y-33175205D01*
X8588102Y-33253226D01*
X8788061Y-33293000D01*
X8991939Y-33293000D01*
X9191898Y-33253226D01*
X9380256Y-33175205D01*
X9549774Y-33061937D01*
X9693937Y-32917774D01*
X9807205Y-32748256D01*
X9885226Y-32559898D01*
X9925000Y-32359939D01*
X9925000Y-32156061D01*
X9885226Y-31956102D01*
X9807205Y-31767744D01*
X9693937Y-31598226D01*
X9650000Y-31554289D01*
X9650000Y-29401711D01*
X9754226Y-29505937D01*
X9923744Y-29619205D01*
X10112102Y-29697226D01*
X10312061Y-29737000D01*
X10515939Y-29737000D01*
X10715898Y-29697226D01*
X10904256Y-29619205D01*
X11073774Y-29505937D01*
X11217937Y-29361774D01*
X11331205Y-29192256D01*
X11409226Y-29003898D01*
X11449000Y-28803939D01*
X11449000Y-28600061D01*
X11409226Y-28400102D01*
X11331205Y-28211744D01*
X11217937Y-28042226D01*
X11174000Y-27998289D01*
X11174000Y-24392024D01*
X14451892Y-24392024D01*
X14451892Y-24595902D01*
X14491666Y-24795861D01*
X14569687Y-24984219D01*
X14682955Y-25153737D01*
X14726892Y-25197674D01*
X14726893Y-28005396D01*
X14690063Y-28042226D01*
X14576795Y-28211744D01*
X14498774Y-28400102D01*
X14459000Y-28600061D01*
X14459000Y-28803939D01*
X14498774Y-29003898D01*
X14576795Y-29192256D01*
X14690063Y-29361774D01*
X14834226Y-29505937D01*
X15003744Y-29619205D01*
X15192102Y-29697226D01*
X15392061Y-29737000D01*
X15595939Y-29737000D01*
X15795898Y-29697226D01*
X15984256Y-29619205D01*
X16153774Y-29505937D01*
X16297937Y-29361774D01*
X16411205Y-29192256D01*
X16489226Y-29003898D01*
X16529000Y-28803939D01*
X16529000Y-28600061D01*
X16489226Y-28400102D01*
X16411205Y-28211744D01*
X16297937Y-28042226D01*
X16246892Y-27991181D01*
X16246892Y-26567670D01*
X16276774Y-26717898D01*
X16354795Y-26906256D01*
X16468063Y-27075774D01*
X16612226Y-27219937D01*
X16781744Y-27333205D01*
X16970102Y-27411226D01*
X17170061Y-27451000D01*
X17373939Y-27451000D01*
X17528000Y-27420356D01*
X17528000Y-29268289D01*
X17484063Y-29312226D01*
X17370795Y-29481744D01*
X17292774Y-29670102D01*
X17253000Y-29870061D01*
X17253000Y-30073939D01*
X17292774Y-30273898D01*
X17370795Y-30462256D01*
X17484063Y-30631774D01*
X17628226Y-30775937D01*
X17797744Y-30889205D01*
X17986102Y-30967226D01*
X18186061Y-31007000D01*
X18389939Y-31007000D01*
X18589898Y-30967226D01*
X18778256Y-30889205D01*
X18947774Y-30775937D01*
X19091937Y-30631774D01*
X19205205Y-30462256D01*
X19283226Y-30273898D01*
X19323000Y-30073939D01*
X19323000Y-29870061D01*
X19283226Y-29670102D01*
X19205205Y-29481744D01*
X19091937Y-29312226D01*
X19048000Y-29268289D01*
X19048000Y-26568061D01*
X21317000Y-26568061D01*
X21317000Y-26771939D01*
X21356774Y-26971898D01*
X21434795Y-27160256D01*
X21548063Y-27329774D01*
X21692226Y-27473937D01*
X21861744Y-27587205D01*
X22050102Y-27665226D01*
X22250061Y-27705000D01*
X22453939Y-27705000D01*
X22653898Y-27665226D01*
X22842256Y-27587205D01*
X23011774Y-27473937D01*
X23155937Y-27329774D01*
X23269205Y-27160256D01*
X23347226Y-26971898D01*
X23387000Y-26771939D01*
X23387000Y-26568061D01*
X23385646Y-26561253D01*
X23415898Y-26555236D01*
X23604256Y-26477215D01*
X23773774Y-26363947D01*
X23917937Y-26219784D01*
X24031205Y-26050266D01*
X24109226Y-25861908D01*
X24149000Y-25661949D01*
X24149000Y-25458071D01*
X24109226Y-25258112D01*
X24031205Y-25069754D01*
X23917937Y-24900236D01*
X23874000Y-24856299D01*
X23874000Y-24740613D01*
X23985163Y-24740613D01*
X24185122Y-24700839D01*
X24373480Y-24622818D01*
X24542998Y-24509550D01*
X24687161Y-24365387D01*
X24800429Y-24195869D01*
X24878450Y-24007511D01*
X24894001Y-23929332D01*
X24894000Y-29911289D01*
X24850063Y-29955226D01*
X24736795Y-30124744D01*
X24658774Y-30313102D01*
X24619000Y-30513061D01*
X24619000Y-30716939D01*
X24658774Y-30916898D01*
X24736795Y-31105256D01*
X24850063Y-31274774D01*
X24994226Y-31418937D01*
X25163744Y-31532205D01*
X25168227Y-31534062D01*
X25104063Y-31598226D01*
X24990795Y-31767744D01*
X24912774Y-31956102D01*
X24873000Y-32156061D01*
X24873000Y-32359939D01*
X24912774Y-32559898D01*
X24990795Y-32748256D01*
X25104063Y-32917774D01*
X25248226Y-33061937D01*
X25417744Y-33175205D01*
X25606102Y-33253226D01*
X25806061Y-33293000D01*
X26009939Y-33293000D01*
X26209898Y-33253226D01*
X26398256Y-33175205D01*
X26567774Y-33061937D01*
X26711937Y-32917774D01*
X26825205Y-32748256D01*
X26903226Y-32559898D01*
X26924000Y-32455459D01*
X26944774Y-32559898D01*
X27022795Y-32748256D01*
X27136063Y-32917774D01*
X27280226Y-33061937D01*
X27449744Y-33175205D01*
X27638102Y-33253226D01*
X27838061Y-33293000D01*
X28041939Y-33293000D01*
X28241898Y-33253226D01*
X28429000Y-33175725D01*
X28429000Y-33375939D01*
X28468774Y-33575898D01*
X28546795Y-33764256D01*
X28660063Y-33933774D01*
X28804226Y-34077937D01*
X28973744Y-34191205D01*
X29162102Y-34269226D01*
X29362061Y-34309000D01*
X29565939Y-34309000D01*
X29765898Y-34269226D01*
X29954256Y-34191205D01*
X30123774Y-34077937D01*
X30267937Y-33933774D01*
X30381205Y-33764256D01*
X30459226Y-33575898D01*
X30499000Y-33375939D01*
X30499000Y-33172061D01*
X30459226Y-32972102D01*
X30381205Y-32783744D01*
X30267937Y-32614226D01*
X30224000Y-32570289D01*
X30224000Y-23764013D01*
X30243744Y-23777205D01*
X30432102Y-23855226D01*
X30632061Y-23895000D01*
X30835939Y-23895000D01*
X31035898Y-23855226D01*
X31224256Y-23777205D01*
X31393774Y-23663937D01*
X31537937Y-23519774D01*
X31651205Y-23350256D01*
X31729226Y-23161898D01*
X31769000Y-22961939D01*
X31769000Y-22903388D01*
X31778001Y-22896001D01*
X31872974Y-22780276D01*
X31943546Y-22648247D01*
X31987003Y-22504986D01*
X31998000Y-22393333D01*
X31998000Y-22393325D01*
X32001676Y-22356000D01*
X31998000Y-22318675D01*
X31998000Y-19471295D01*
X32024774Y-19605898D01*
X32102795Y-19794256D01*
X32216063Y-19963774D01*
X32360226Y-20107937D01*
X32529744Y-20221205D01*
X32718102Y-20299226D01*
X32918061Y-20339000D01*
X33015500Y-20339000D01*
X33015500Y-20449939D01*
X33055274Y-20649898D01*
X33133295Y-20838256D01*
X33246563Y-21007774D01*
X33390726Y-21151937D01*
X33530001Y-21244997D01*
X33530000Y-22410289D01*
X33486063Y-22454226D01*
X33372795Y-22623744D01*
X33294774Y-22812102D01*
X33255000Y-23012061D01*
X33255000Y-23215939D01*
X33294774Y-23415898D01*
X33372795Y-23604256D01*
X33486063Y-23773774D01*
X33530000Y-23817711D01*
X33530001Y-26982288D01*
X33486063Y-27026226D01*
X33372795Y-27195744D01*
X33294774Y-27384102D01*
X33255000Y-27584061D01*
X33255000Y-27787939D01*
X33294774Y-27987898D01*
X33372795Y-28176256D01*
X33486063Y-28345774D01*
X33630226Y-28489937D01*
X33799744Y-28603205D01*
X33988102Y-28681226D01*
X34188061Y-28721000D01*
X34391939Y-28721000D01*
X34591898Y-28681226D01*
X34780256Y-28603205D01*
X34949774Y-28489937D01*
X35093937Y-28345774D01*
X35207205Y-28176256D01*
X35285226Y-27987898D01*
X35325000Y-27787939D01*
X35325000Y-27584061D01*
X35285226Y-27384102D01*
X35207205Y-27195744D01*
X35093937Y-27026226D01*
X35050000Y-26982289D01*
X35050000Y-23817711D01*
X35093937Y-23773774D01*
X35207205Y-23604256D01*
X35285226Y-23415898D01*
X35325000Y-23215939D01*
X35325000Y-23012061D01*
X35285226Y-22812102D01*
X35207205Y-22623744D01*
X35093937Y-22454226D01*
X35050000Y-22410289D01*
X35050000Y-20931498D01*
X35103001Y-20888001D01*
X35126803Y-20858998D01*
X35563003Y-20422798D01*
X35592001Y-20399001D01*
X35686974Y-20283276D01*
X35757546Y-20151247D01*
X35801003Y-20007986D01*
X35812000Y-19896333D01*
X35812000Y-19896324D01*
X35815676Y-19859001D01*
X35812000Y-19821678D01*
X35812000Y-16245760D01*
X35884842Y-16275932D01*
X36171740Y-16333000D01*
X36464260Y-16333000D01*
X36751158Y-16275932D01*
X37021411Y-16163990D01*
X37264632Y-16001475D01*
X37471475Y-15794632D01*
X37588000Y-15620240D01*
X37704525Y-15794632D01*
X37911368Y-16001475D01*
X38098000Y-16126179D01*
X38098001Y-19774288D01*
X38034063Y-19838226D01*
X37920795Y-20007744D01*
X37842774Y-20196102D01*
X37803000Y-20396061D01*
X37803000Y-20599939D01*
X37842774Y-20799898D01*
X37920795Y-20988256D01*
X38034063Y-21157774D01*
X38078001Y-21201712D01*
X38078000Y-22569198D01*
X36282199Y-24365000D01*
X36220061Y-24365000D01*
X36020102Y-24404774D01*
X35831744Y-24482795D01*
X35662226Y-24596063D01*
X35518063Y-24740226D01*
X35404795Y-24909744D01*
X35326774Y-25098102D01*
X35287000Y-25298061D01*
X35287000Y-25501939D01*
X35326774Y-25701898D01*
X35404795Y-25890256D01*
X35518063Y-26059774D01*
X35662226Y-26203937D01*
X35831744Y-26317205D01*
X36020102Y-26395226D01*
X36220061Y-26435000D01*
X36423939Y-26435000D01*
X36623898Y-26395226D01*
X36812256Y-26317205D01*
X36981774Y-26203937D01*
X37125937Y-26059774D01*
X37239205Y-25890256D01*
X37317226Y-25701898D01*
X37357000Y-25501939D01*
X37357000Y-25439801D01*
X39349004Y-23447798D01*
X39378001Y-23424001D01*
X39472974Y-23308276D01*
X39543546Y-23176247D01*
X39587003Y-23032986D01*
X39598000Y-22921333D01*
X39598000Y-22921324D01*
X39601676Y-22884001D01*
X39598000Y-22846678D01*
X39598000Y-21201711D01*
X39641937Y-21157774D01*
X39755205Y-20988256D01*
X39833226Y-20799898D01*
X39873000Y-20599939D01*
X39873000Y-20396061D01*
X39833226Y-20196102D01*
X39755205Y-20007744D01*
X39641937Y-19838226D01*
X39618000Y-19814289D01*
X39618000Y-16126178D01*
X39804632Y-16001475D01*
X39880001Y-15926106D01*
X39880000Y-22044279D01*
X39836063Y-22088216D01*
X39722795Y-22257734D01*
X39644774Y-22446092D01*
X39605000Y-22646051D01*
X39605000Y-22849929D01*
X39644774Y-23049888D01*
X39722795Y-23238246D01*
X39836063Y-23407764D01*
X39880000Y-23451701D01*
X39880000Y-23815197D01*
X39076198Y-24619000D01*
X39014061Y-24619000D01*
X38814102Y-24658774D01*
X38625744Y-24736795D01*
X38456226Y-24850063D01*
X38312063Y-24994226D01*
X38198795Y-25163744D01*
X38120774Y-25352102D01*
X38081000Y-25552061D01*
X38081000Y-25755939D01*
X38120774Y-25955898D01*
X38198795Y-26144256D01*
X38312063Y-26313774D01*
X38456226Y-26457937D01*
X38625744Y-26571205D01*
X38814102Y-26649226D01*
X39014061Y-26689000D01*
X39217939Y-26689000D01*
X39417898Y-26649226D01*
X39606256Y-26571205D01*
X39775774Y-26457937D01*
X39919937Y-26313774D01*
X40033205Y-26144256D01*
X40111226Y-25955898D01*
X40151000Y-25755939D01*
X40151000Y-25693802D01*
X41058389Y-24786414D01*
X41106063Y-24857764D01*
X41250226Y-25001927D01*
X41404001Y-25104676D01*
X41404000Y-26982289D01*
X41360063Y-27026226D01*
X41246795Y-27195744D01*
X41168774Y-27384102D01*
X41129000Y-27584061D01*
X41129000Y-27787939D01*
X41168774Y-27987898D01*
X41246795Y-28176256D01*
X41360063Y-28345774D01*
X41504226Y-28489937D01*
X41673744Y-28603205D01*
X41862102Y-28681226D01*
X42062061Y-28721000D01*
X42265939Y-28721000D01*
X42465898Y-28681226D01*
X42654256Y-28603205D01*
X42823774Y-28489937D01*
X42967937Y-28345774D01*
X43065339Y-28200000D01*
X55221928Y-28200000D01*
X55234188Y-28324482D01*
X55270498Y-28444180D01*
X55329463Y-28554494D01*
X55408815Y-28651185D01*
X55505506Y-28730537D01*
X55615820Y-28789502D01*
X55688380Y-28811513D01*
X55556525Y-28943368D01*
X55394010Y-29186589D01*
X55282068Y-29456842D01*
X55225000Y-29743740D01*
X55225000Y-30036260D01*
X55282068Y-30323158D01*
X55394010Y-30593411D01*
X55556525Y-30836632D01*
X55763368Y-31043475D01*
X55937760Y-31160000D01*
X55763368Y-31276525D01*
X55556525Y-31483368D01*
X55394010Y-31726589D01*
X55282068Y-31996842D01*
X55225000Y-32283740D01*
X55225000Y-32576260D01*
X55282068Y-32863158D01*
X55394010Y-33133411D01*
X55556525Y-33376632D01*
X55763368Y-33583475D01*
X56006589Y-33745990D01*
X56276842Y-33857932D01*
X56563740Y-33915000D01*
X56856260Y-33915000D01*
X57143158Y-33857932D01*
X57413411Y-33745990D01*
X57656632Y-33583475D01*
X57863475Y-33376632D01*
X58025990Y-33133411D01*
X58137932Y-32863158D01*
X58195000Y-32576260D01*
X58195000Y-32283740D01*
X58149250Y-32053740D01*
X61575000Y-32053740D01*
X61575000Y-32346260D01*
X61632068Y-32633158D01*
X61744010Y-32903411D01*
X61906525Y-33146632D01*
X62113368Y-33353475D01*
X62356589Y-33515990D01*
X62626842Y-33627932D01*
X62913740Y-33685000D01*
X63206260Y-33685000D01*
X63493158Y-33627932D01*
X63763411Y-33515990D01*
X64006632Y-33353475D01*
X64138487Y-33221620D01*
X64160498Y-33294180D01*
X64219463Y-33404494D01*
X64298815Y-33501185D01*
X64395506Y-33580537D01*
X64505820Y-33639502D01*
X64625518Y-33675812D01*
X64750000Y-33688072D01*
X65314250Y-33685000D01*
X65473000Y-33526250D01*
X65473000Y-32327000D01*
X65453000Y-32327000D01*
X65453000Y-32073000D01*
X65473000Y-32073000D01*
X65473000Y-30873750D01*
X65727000Y-30873750D01*
X65727000Y-32073000D01*
X65747000Y-32073000D01*
X65747000Y-32327000D01*
X65727000Y-32327000D01*
X65727000Y-33526250D01*
X65885750Y-33685000D01*
X66450000Y-33688072D01*
X66574482Y-33675812D01*
X66694180Y-33639502D01*
X66804494Y-33580537D01*
X66901185Y-33501185D01*
X66980537Y-33404494D01*
X67039502Y-33294180D01*
X67061513Y-33221620D01*
X67193368Y-33353475D01*
X67436589Y-33515990D01*
X67706842Y-33627932D01*
X67993740Y-33685000D01*
X68286260Y-33685000D01*
X68573158Y-33627932D01*
X68843411Y-33515990D01*
X69086632Y-33353475D01*
X69293475Y-33146632D01*
X69455990Y-32903411D01*
X69567932Y-32633158D01*
X69625000Y-32346260D01*
X69625000Y-32053740D01*
X69567932Y-31766842D01*
X69455990Y-31496589D01*
X69293475Y-31253368D01*
X69086632Y-31046525D01*
X68843411Y-30884010D01*
X68578000Y-30774074D01*
X68578000Y-28200000D01*
X73001928Y-28200000D01*
X73014188Y-28324482D01*
X73050498Y-28444180D01*
X73109463Y-28554494D01*
X73188815Y-28651185D01*
X73285506Y-28730537D01*
X73395820Y-28789502D01*
X73468380Y-28811513D01*
X73336525Y-28943368D01*
X73174010Y-29186589D01*
X73062068Y-29456842D01*
X73005000Y-29743740D01*
X73005000Y-30036260D01*
X73062068Y-30323158D01*
X73174010Y-30593411D01*
X73336525Y-30836632D01*
X73543368Y-31043475D01*
X73717760Y-31160000D01*
X73543368Y-31276525D01*
X73336525Y-31483368D01*
X73174010Y-31726589D01*
X73062068Y-31996842D01*
X73005000Y-32283740D01*
X73005000Y-32576260D01*
X73062068Y-32863158D01*
X73174010Y-33133411D01*
X73336525Y-33376632D01*
X73543368Y-33583475D01*
X73786589Y-33745990D01*
X74056842Y-33857932D01*
X74343740Y-33915000D01*
X74636260Y-33915000D01*
X74923158Y-33857932D01*
X75193411Y-33745990D01*
X75436632Y-33583475D01*
X75643475Y-33376632D01*
X75805990Y-33133411D01*
X75917932Y-32863158D01*
X75975000Y-32576260D01*
X75975000Y-32283740D01*
X75917932Y-31996842D01*
X75805990Y-31726589D01*
X75643475Y-31483368D01*
X75436632Y-31276525D01*
X75262240Y-31160000D01*
X75271219Y-31154000D01*
X82331928Y-31154000D01*
X82331928Y-32854000D01*
X82344188Y-32978482D01*
X82380498Y-33098180D01*
X82439463Y-33208494D01*
X82518815Y-33305185D01*
X82615506Y-33384537D01*
X82725820Y-33443502D01*
X82845518Y-33479812D01*
X82970000Y-33492072D01*
X84670000Y-33492072D01*
X84794482Y-33479812D01*
X84914180Y-33443502D01*
X85024494Y-33384537D01*
X85121185Y-33305185D01*
X85200537Y-33208494D01*
X85259502Y-33098180D01*
X85295812Y-32978482D01*
X85308072Y-32854000D01*
X85308072Y-31154000D01*
X85295812Y-31029518D01*
X85259502Y-30909820D01*
X85200537Y-30799506D01*
X85121185Y-30702815D01*
X85024494Y-30623463D01*
X84914180Y-30564498D01*
X84833534Y-30540034D01*
X84917588Y-30464269D01*
X85091641Y-30230920D01*
X85216825Y-29968099D01*
X85261476Y-29820890D01*
X85140155Y-29591000D01*
X83947000Y-29591000D01*
X83947000Y-29611000D01*
X83693000Y-29611000D01*
X83693000Y-29591000D01*
X82499845Y-29591000D01*
X82378524Y-29820890D01*
X82423175Y-29968099D01*
X82548359Y-30230920D01*
X82722412Y-30464269D01*
X82806466Y-30540034D01*
X82725820Y-30564498D01*
X82615506Y-30623463D01*
X82518815Y-30702815D01*
X82439463Y-30799506D01*
X82380498Y-30909820D01*
X82344188Y-31029518D01*
X82331928Y-31154000D01*
X75271219Y-31154000D01*
X75436632Y-31043475D01*
X75643475Y-30836632D01*
X75805990Y-30593411D01*
X75917932Y-30323158D01*
X75975000Y-30036260D01*
X75975000Y-29743740D01*
X75917932Y-29456842D01*
X75805990Y-29186589D01*
X75643475Y-28943368D01*
X75511620Y-28811513D01*
X75584180Y-28789502D01*
X75694494Y-28730537D01*
X75791185Y-28651185D01*
X75870537Y-28554494D01*
X75929502Y-28444180D01*
X75965812Y-28324482D01*
X75978072Y-28200000D01*
X75975000Y-27635750D01*
X75816250Y-27477000D01*
X74617000Y-27477000D01*
X74617000Y-27497000D01*
X74363000Y-27497000D01*
X74363000Y-27477000D01*
X73163750Y-27477000D01*
X73005000Y-27635750D01*
X73001928Y-28200000D01*
X68578000Y-28200000D01*
X68578000Y-26865711D01*
X68621937Y-26821774D01*
X68735205Y-26652256D01*
X68813226Y-26463898D01*
X68853000Y-26263939D01*
X68853000Y-26060061D01*
X68813226Y-25860102D01*
X68735205Y-25671744D01*
X68621937Y-25502226D01*
X68477774Y-25358063D01*
X68308256Y-25244795D01*
X68119898Y-25166774D01*
X67919939Y-25127000D01*
X67716061Y-25127000D01*
X67516102Y-25166774D01*
X67327744Y-25244795D01*
X67158226Y-25358063D01*
X67014063Y-25502226D01*
X66900795Y-25671744D01*
X66822774Y-25860102D01*
X66783000Y-26060061D01*
X66783000Y-26263939D01*
X66822774Y-26463898D01*
X66900795Y-26652256D01*
X67014063Y-26821774D01*
X67058000Y-26865711D01*
X67058001Y-31166803D01*
X67039502Y-31105820D01*
X66980537Y-30995506D01*
X66901185Y-30898815D01*
X66804494Y-30819463D01*
X66694180Y-30760498D01*
X66574482Y-30724188D01*
X66450000Y-30711928D01*
X65885750Y-30715000D01*
X65727000Y-30873750D01*
X65473000Y-30873750D01*
X65314250Y-30715000D01*
X64750000Y-30711928D01*
X64625518Y-30724188D01*
X64505820Y-30760498D01*
X64395506Y-30819463D01*
X64298815Y-30898815D01*
X64219463Y-30995506D01*
X64160498Y-31105820D01*
X64138487Y-31178380D01*
X64006632Y-31046525D01*
X63763411Y-30884010D01*
X63493158Y-30772068D01*
X63206260Y-30715000D01*
X62913740Y-30715000D01*
X62626842Y-30772068D01*
X62356589Y-30884010D01*
X62113368Y-31046525D01*
X61906525Y-31253368D01*
X61744010Y-31496589D01*
X61632068Y-31766842D01*
X61575000Y-32053740D01*
X58149250Y-32053740D01*
X58137932Y-31996842D01*
X58025990Y-31726589D01*
X57863475Y-31483368D01*
X57656632Y-31276525D01*
X57482240Y-31160000D01*
X57656632Y-31043475D01*
X57863475Y-30836632D01*
X58025990Y-30593411D01*
X58137932Y-30323158D01*
X58195000Y-30036260D01*
X58195000Y-29743740D01*
X58137932Y-29456842D01*
X58025990Y-29186589D01*
X57863475Y-28943368D01*
X57731620Y-28811513D01*
X57804180Y-28789502D01*
X57914494Y-28730537D01*
X58011185Y-28651185D01*
X58090537Y-28554494D01*
X58149502Y-28444180D01*
X58185812Y-28324482D01*
X58198072Y-28200000D01*
X58195000Y-27635750D01*
X58036250Y-27477000D01*
X56837000Y-27477000D01*
X56837000Y-27497000D01*
X56583000Y-27497000D01*
X56583000Y-27477000D01*
X55383750Y-27477000D01*
X55225000Y-27635750D01*
X55221928Y-28200000D01*
X43065339Y-28200000D01*
X43081205Y-28176256D01*
X43159226Y-27987898D01*
X43199000Y-27787939D01*
X43199000Y-27584061D01*
X43159226Y-27384102D01*
X43081205Y-27195744D01*
X42967937Y-27026226D01*
X42924000Y-26982289D01*
X42924000Y-24489312D01*
X42927676Y-24451989D01*
X42924000Y-24414666D01*
X42924000Y-24414657D01*
X42923397Y-24408535D01*
X42945000Y-24299929D01*
X42945000Y-24096051D01*
X42923397Y-23987445D01*
X42924000Y-23981323D01*
X42924000Y-23981314D01*
X42927676Y-23943991D01*
X42924000Y-23906668D01*
X42924000Y-22801711D01*
X42967937Y-22757774D01*
X43081205Y-22588256D01*
X43159226Y-22399898D01*
X43199000Y-22199939D01*
X43199000Y-21996061D01*
X43167030Y-21835333D01*
X43227898Y-21823226D01*
X43416256Y-21745205D01*
X43585774Y-21631937D01*
X43729937Y-21487774D01*
X43843205Y-21318256D01*
X43921226Y-21129898D01*
X43961000Y-20929939D01*
X43961000Y-20726061D01*
X43921226Y-20526102D01*
X43843205Y-20337744D01*
X43729937Y-20168226D01*
X43686000Y-20124289D01*
X43686000Y-15900061D01*
X47479000Y-15900061D01*
X47479000Y-16103939D01*
X47518774Y-16303898D01*
X47596795Y-16492256D01*
X47710063Y-16661774D01*
X47754001Y-16705712D01*
X47754000Y-21394289D01*
X47710063Y-21438226D01*
X47596795Y-21607744D01*
X47518774Y-21796102D01*
X47479000Y-21996061D01*
X47479000Y-22199939D01*
X47518774Y-22399898D01*
X47596795Y-22588256D01*
X47710063Y-22757774D01*
X47854226Y-22901937D01*
X48023744Y-23015205D01*
X48212102Y-23093226D01*
X48412061Y-23133000D01*
X48615939Y-23133000D01*
X48815898Y-23093226D01*
X49004256Y-23015205D01*
X49173774Y-22901937D01*
X49317937Y-22757774D01*
X49431205Y-22588256D01*
X49509226Y-22399898D01*
X49549000Y-22199939D01*
X49549000Y-21996061D01*
X49509226Y-21796102D01*
X49431205Y-21607744D01*
X49317937Y-21438226D01*
X49274000Y-21394289D01*
X49274000Y-16705711D01*
X49317937Y-16661774D01*
X49431205Y-16492256D01*
X49509226Y-16303898D01*
X49549000Y-16103939D01*
X49549000Y-15900061D01*
X49509226Y-15700102D01*
X49431205Y-15511744D01*
X49423358Y-15500000D01*
X55221928Y-15500000D01*
X55234188Y-15624482D01*
X55270498Y-15744180D01*
X55329463Y-15854494D01*
X55408815Y-15951185D01*
X55505506Y-16030537D01*
X55615820Y-16089502D01*
X55688380Y-16111513D01*
X55556525Y-16243368D01*
X55394010Y-16486589D01*
X55282068Y-16756842D01*
X55225000Y-17043740D01*
X55225000Y-17336260D01*
X55282068Y-17623158D01*
X55394010Y-17893411D01*
X55556525Y-18136632D01*
X55763368Y-18343475D01*
X55937760Y-18460000D01*
X55763368Y-18576525D01*
X55556525Y-18783368D01*
X55394010Y-19026589D01*
X55282068Y-19296842D01*
X55225000Y-19583740D01*
X55225000Y-19876260D01*
X55282068Y-20163158D01*
X55394010Y-20433411D01*
X55556525Y-20676632D01*
X55763368Y-20883475D01*
X55937760Y-21000000D01*
X55763368Y-21116525D01*
X55556525Y-21323368D01*
X55394010Y-21566589D01*
X55282068Y-21836842D01*
X55225000Y-22123740D01*
X55225000Y-22416260D01*
X55282068Y-22703158D01*
X55394010Y-22973411D01*
X55556525Y-23216632D01*
X55763368Y-23423475D01*
X55937760Y-23540000D01*
X55763368Y-23656525D01*
X55556525Y-23863368D01*
X55394010Y-24106589D01*
X55282068Y-24376842D01*
X55225000Y-24663740D01*
X55225000Y-24956260D01*
X55282068Y-25243158D01*
X55394010Y-25513411D01*
X55556525Y-25756632D01*
X55688380Y-25888487D01*
X55615820Y-25910498D01*
X55505506Y-25969463D01*
X55408815Y-26048815D01*
X55329463Y-26145506D01*
X55270498Y-26255820D01*
X55234188Y-26375518D01*
X55221928Y-26500000D01*
X55225000Y-27064250D01*
X55383750Y-27223000D01*
X56583000Y-27223000D01*
X56583000Y-27203000D01*
X56837000Y-27203000D01*
X56837000Y-27223000D01*
X58036250Y-27223000D01*
X58195000Y-27064250D01*
X58198072Y-26500000D01*
X58185812Y-26375518D01*
X58149502Y-26255820D01*
X58090537Y-26145506D01*
X58011185Y-26048815D01*
X57914494Y-25969463D01*
X57804180Y-25910498D01*
X57731620Y-25888487D01*
X57863475Y-25756632D01*
X58025990Y-25513411D01*
X58137932Y-25243158D01*
X58195000Y-24956260D01*
X58195000Y-24663740D01*
X58137932Y-24376842D01*
X58025990Y-24106589D01*
X57863475Y-23863368D01*
X57656632Y-23656525D01*
X57482240Y-23540000D01*
X57656632Y-23423475D01*
X57863475Y-23216632D01*
X58025990Y-22973411D01*
X58137932Y-22703158D01*
X58195000Y-22416260D01*
X58195000Y-22123740D01*
X58137932Y-21836842D01*
X58025990Y-21566589D01*
X57863475Y-21323368D01*
X57656632Y-21116525D01*
X57482240Y-21000000D01*
X57656632Y-20883475D01*
X57863475Y-20676632D01*
X58025990Y-20433411D01*
X58137932Y-20163158D01*
X58195000Y-19876260D01*
X58195000Y-19583740D01*
X58137932Y-19296842D01*
X58025990Y-19026589D01*
X57863475Y-18783368D01*
X57656632Y-18576525D01*
X57482240Y-18460000D01*
X57656632Y-18343475D01*
X57863475Y-18136632D01*
X58025990Y-17893411D01*
X58137932Y-17623158D01*
X58195000Y-17336260D01*
X58195000Y-17043740D01*
X58137932Y-16756842D01*
X58025990Y-16486589D01*
X57863475Y-16243368D01*
X57731620Y-16111513D01*
X57804180Y-16089502D01*
X57914494Y-16030537D01*
X58011185Y-15951185D01*
X58090537Y-15854494D01*
X58149502Y-15744180D01*
X58185812Y-15624482D01*
X58198072Y-15500000D01*
X73001928Y-15500000D01*
X73014188Y-15624482D01*
X73050498Y-15744180D01*
X73109463Y-15854494D01*
X73188815Y-15951185D01*
X73285506Y-16030537D01*
X73395820Y-16089502D01*
X73468380Y-16111513D01*
X73336525Y-16243368D01*
X73174010Y-16486589D01*
X73062068Y-16756842D01*
X73005000Y-17043740D01*
X73005000Y-17336260D01*
X73062068Y-17623158D01*
X73174010Y-17893411D01*
X73336525Y-18136632D01*
X73543368Y-18343475D01*
X73717760Y-18460000D01*
X73543368Y-18576525D01*
X73336525Y-18783368D01*
X73174010Y-19026589D01*
X73062068Y-19296842D01*
X73005000Y-19583740D01*
X73005000Y-19876260D01*
X73062068Y-20163158D01*
X73174010Y-20433411D01*
X73336525Y-20676632D01*
X73543368Y-20883475D01*
X73717760Y-21000000D01*
X73543368Y-21116525D01*
X73336525Y-21323368D01*
X73174010Y-21566589D01*
X73062068Y-21836842D01*
X73005000Y-22123740D01*
X73005000Y-22416260D01*
X73062068Y-22703158D01*
X73174010Y-22973411D01*
X73336525Y-23216632D01*
X73543368Y-23423475D01*
X73717760Y-23540000D01*
X73543368Y-23656525D01*
X73336525Y-23863368D01*
X73174010Y-24106589D01*
X73062068Y-24376842D01*
X73005000Y-24663740D01*
X73005000Y-24956260D01*
X73062068Y-25243158D01*
X73174010Y-25513411D01*
X73336525Y-25756632D01*
X73468380Y-25888487D01*
X73395820Y-25910498D01*
X73285506Y-25969463D01*
X73188815Y-26048815D01*
X73109463Y-26145506D01*
X73050498Y-26255820D01*
X73014188Y-26375518D01*
X73001928Y-26500000D01*
X73005000Y-27064250D01*
X73163750Y-27223000D01*
X74363000Y-27223000D01*
X74363000Y-27203000D01*
X74617000Y-27203000D01*
X74617000Y-27223000D01*
X75816250Y-27223000D01*
X75975000Y-27064250D01*
X75976559Y-26777740D01*
X82335000Y-26777740D01*
X82335000Y-27070260D01*
X82392068Y-27357158D01*
X82504010Y-27627411D01*
X82666525Y-27870632D01*
X82873368Y-28077475D01*
X83055534Y-28199195D01*
X82938645Y-28268822D01*
X82722412Y-28463731D01*
X82548359Y-28697080D01*
X82423175Y-28959901D01*
X82378524Y-29107110D01*
X82499845Y-29337000D01*
X83693000Y-29337000D01*
X83693000Y-29317000D01*
X83947000Y-29317000D01*
X83947000Y-29337000D01*
X85140155Y-29337000D01*
X85261476Y-29107110D01*
X85216825Y-28959901D01*
X85091641Y-28697080D01*
X84917588Y-28463731D01*
X84701355Y-28268822D01*
X84584466Y-28199195D01*
X84766632Y-28077475D01*
X84973475Y-27870632D01*
X85135990Y-27627411D01*
X85247932Y-27357158D01*
X85305000Y-27070260D01*
X85305000Y-26777740D01*
X85247932Y-26490842D01*
X85135990Y-26220589D01*
X84973475Y-25977368D01*
X84766632Y-25770525D01*
X84523411Y-25608010D01*
X84253158Y-25496068D01*
X83966260Y-25439000D01*
X83673740Y-25439000D01*
X83386842Y-25496068D01*
X83116589Y-25608010D01*
X82873368Y-25770525D01*
X82666525Y-25977368D01*
X82504010Y-26220589D01*
X82392068Y-26490842D01*
X82335000Y-26777740D01*
X75976559Y-26777740D01*
X75978072Y-26500000D01*
X75965812Y-26375518D01*
X75929502Y-26255820D01*
X75870537Y-26145506D01*
X75791185Y-26048815D01*
X75694494Y-25969463D01*
X75584180Y-25910498D01*
X75511620Y-25888487D01*
X75643475Y-25756632D01*
X75805990Y-25513411D01*
X75917932Y-25243158D01*
X75975000Y-24956260D01*
X75975000Y-24663740D01*
X75917932Y-24376842D01*
X75805990Y-24106589D01*
X75643475Y-23863368D01*
X75436632Y-23656525D01*
X75262240Y-23540000D01*
X75436632Y-23423475D01*
X75643475Y-23216632D01*
X75805990Y-22973411D01*
X75917932Y-22703158D01*
X75975000Y-22416260D01*
X75975000Y-22123740D01*
X75917932Y-21836842D01*
X75805990Y-21566589D01*
X75643475Y-21323368D01*
X75436632Y-21116525D01*
X75262240Y-21000000D01*
X75436632Y-20883475D01*
X75643475Y-20676632D01*
X75805990Y-20433411D01*
X75917932Y-20163158D01*
X75975000Y-19876260D01*
X75975000Y-19583740D01*
X75917932Y-19296842D01*
X75805990Y-19026589D01*
X75643475Y-18783368D01*
X75436632Y-18576525D01*
X75262240Y-18460000D01*
X75436632Y-18343475D01*
X75643475Y-18136632D01*
X75805990Y-17893411D01*
X75917932Y-17623158D01*
X75975000Y-17336260D01*
X75975000Y-17043740D01*
X75917932Y-16756842D01*
X75805990Y-16486589D01*
X75643475Y-16243368D01*
X75511620Y-16111513D01*
X75584180Y-16089502D01*
X75694494Y-16030537D01*
X75791185Y-15951185D01*
X75870537Y-15854494D01*
X75929502Y-15744180D01*
X75965812Y-15624482D01*
X75978072Y-15500000D01*
X75975000Y-14935750D01*
X75816250Y-14777000D01*
X74617000Y-14777000D01*
X74617000Y-14797000D01*
X74363000Y-14797000D01*
X74363000Y-14777000D01*
X73163750Y-14777000D01*
X73005000Y-14935750D01*
X73001928Y-15500000D01*
X58198072Y-15500000D01*
X58195000Y-14935750D01*
X58036250Y-14777000D01*
X56837000Y-14777000D01*
X56837000Y-14797000D01*
X56583000Y-14797000D01*
X56583000Y-14777000D01*
X55383750Y-14777000D01*
X55225000Y-14935750D01*
X55221928Y-15500000D01*
X49423358Y-15500000D01*
X49317937Y-15342226D01*
X49173774Y-15198063D01*
X49004256Y-15084795D01*
X48815898Y-15006774D01*
X48615939Y-14967000D01*
X48412061Y-14967000D01*
X48212102Y-15006774D01*
X48023744Y-15084795D01*
X47854226Y-15198063D01*
X47710063Y-15342226D01*
X47596795Y-15511744D01*
X47518774Y-15700102D01*
X47479000Y-15900061D01*
X43686000Y-15900061D01*
X43686000Y-13860685D01*
X43839774Y-13757937D01*
X43983937Y-13613774D01*
X44097205Y-13444256D01*
X44175226Y-13255898D01*
X44215000Y-13055939D01*
X44215000Y-12852061D01*
X44175226Y-12652102D01*
X44097205Y-12463744D01*
X43983937Y-12294226D01*
X43839774Y-12150063D01*
X43670256Y-12036795D01*
X43481898Y-11958774D01*
X43281939Y-11919000D01*
X43078061Y-11919000D01*
X42878102Y-11958774D01*
X42689744Y-12036795D01*
X42520226Y-12150063D01*
X42376063Y-12294226D01*
X42262795Y-12463744D01*
X42184774Y-12652102D01*
X42145000Y-12852061D01*
X42145000Y-13055939D01*
X42166604Y-13164549D01*
X42166427Y-13166342D01*
X42162324Y-13208000D01*
X42166001Y-13245332D01*
X42166000Y-20124289D01*
X42122063Y-20168226D01*
X42008795Y-20337744D01*
X41930774Y-20526102D01*
X41891000Y-20726061D01*
X41891000Y-20929939D01*
X41922970Y-21090667D01*
X41862102Y-21102774D01*
X41673744Y-21180795D01*
X41504226Y-21294063D01*
X41400000Y-21398289D01*
X41400000Y-14876685D01*
X41553774Y-14773937D01*
X41697937Y-14629774D01*
X41811205Y-14460256D01*
X41889226Y-14271898D01*
X41929000Y-14071939D01*
X41929000Y-13868061D01*
X41889226Y-13668102D01*
X41811205Y-13479744D01*
X41697937Y-13310226D01*
X41553774Y-13166063D01*
X41384256Y-13052795D01*
X41195898Y-12974774D01*
X40995939Y-12935000D01*
X40792061Y-12935000D01*
X40592102Y-12974774D01*
X40403744Y-13052795D01*
X40234226Y-13166063D01*
X40090063Y-13310226D01*
X39976795Y-13479744D01*
X39898774Y-13668102D01*
X39878771Y-13768664D01*
X39804632Y-13694525D01*
X39561411Y-13532010D01*
X39291158Y-13420068D01*
X39004260Y-13363000D01*
X38711740Y-13363000D01*
X38424842Y-13420068D01*
X38154589Y-13532010D01*
X37911368Y-13694525D01*
X37704525Y-13901368D01*
X37588000Y-14075760D01*
X37471475Y-13901368D01*
X37264632Y-13694525D01*
X37021411Y-13532010D01*
X36751158Y-13420068D01*
X36464260Y-13363000D01*
X36171740Y-13363000D01*
X36037148Y-13389772D01*
X35969205Y-13225744D01*
X35855937Y-13056226D01*
X35711774Y-12912063D01*
X35542256Y-12798795D01*
X35353898Y-12720774D01*
X35153939Y-12681000D01*
X34950061Y-12681000D01*
X34750102Y-12720774D01*
X34561744Y-12798795D01*
X34392226Y-12912063D01*
X34248063Y-13056226D01*
X34134795Y-13225744D01*
X34066243Y-13391242D01*
X33924260Y-13363000D01*
X33631740Y-13363000D01*
X33344842Y-13420068D01*
X33074589Y-13532010D01*
X32831368Y-13694525D01*
X32699513Y-13826380D01*
X32677502Y-13753820D01*
X32618537Y-13643506D01*
X32539185Y-13546815D01*
X32442494Y-13467463D01*
X32332180Y-13408498D01*
X32256000Y-13385389D01*
X32256000Y-11625711D01*
X32299937Y-11581774D01*
X32413205Y-11412256D01*
X32491226Y-11223898D01*
X32531000Y-11023939D01*
X32531000Y-10820061D01*
X32491226Y-10620102D01*
X32413205Y-10431744D01*
X32299937Y-10262226D01*
X32155774Y-10118063D01*
X31986256Y-10004795D01*
X31797898Y-9926774D01*
X31597939Y-9887000D01*
X31394061Y-9887000D01*
X31194102Y-9926774D01*
X31005744Y-10004795D01*
X30836226Y-10118063D01*
X30692063Y-10262226D01*
X30578795Y-10431744D01*
X30500774Y-10620102D01*
X30461000Y-10820061D01*
X30461000Y-11023939D01*
X30500774Y-11223898D01*
X30578795Y-11412256D01*
X30692063Y-11581774D01*
X30736000Y-11625711D01*
X30736001Y-13359928D01*
X30388000Y-13359928D01*
X30263518Y-13372188D01*
X30143820Y-13408498D01*
X30033506Y-13467463D01*
X29936815Y-13546815D01*
X29857463Y-13643506D01*
X29798498Y-13753820D01*
X29762188Y-13873518D01*
X29749928Y-13998000D01*
X29749928Y-15698000D01*
X29762188Y-15822482D01*
X29798498Y-15942180D01*
X29857463Y-16052494D01*
X29936815Y-16149185D01*
X30033506Y-16228537D01*
X30143820Y-16287502D01*
X30263518Y-16323812D01*
X30388000Y-16336072D01*
X30478001Y-16336072D01*
X30478000Y-18842478D01*
X30459226Y-18748092D01*
X30381205Y-18559734D01*
X30267937Y-18390216D01*
X30123774Y-18246053D01*
X29954256Y-18132785D01*
X29765898Y-18054764D01*
X29565939Y-18014990D01*
X29362061Y-18014990D01*
X29162102Y-18054764D01*
X28973744Y-18132785D01*
X28804226Y-18246053D01*
X28660063Y-18390216D01*
X28546795Y-18559734D01*
X28468774Y-18748092D01*
X28429000Y-18948051D01*
X28429000Y-19151929D01*
X28468774Y-19351888D01*
X28546795Y-19540246D01*
X28552309Y-19548498D01*
X28400102Y-19578774D01*
X28211744Y-19656795D01*
X28042226Y-19770063D01*
X27898063Y-19914226D01*
X27784795Y-20083744D01*
X27706774Y-20272102D01*
X27667000Y-20472061D01*
X27667000Y-20675939D01*
X27706774Y-20875898D01*
X27784795Y-21064256D01*
X27898063Y-21233774D01*
X28042226Y-21377937D01*
X28159002Y-21455964D01*
X28159002Y-21825000D01*
X28092061Y-21825000D01*
X27892102Y-21864774D01*
X27703744Y-21942795D01*
X27534226Y-22056063D01*
X27390063Y-22200226D01*
X27276795Y-22369744D01*
X27198774Y-22558102D01*
X27159000Y-22758061D01*
X27159000Y-22961939D01*
X27180604Y-23070549D01*
X27180436Y-23072246D01*
X27176324Y-23114000D01*
X27180001Y-23151332D01*
X27180000Y-31554289D01*
X27139001Y-31595288D01*
X27139001Y-16256323D01*
X27142677Y-16219000D01*
X27139001Y-16181677D01*
X27139001Y-16181668D01*
X27128004Y-16070015D01*
X27084547Y-15926754D01*
X27013975Y-15794725D01*
X26919002Y-15679000D01*
X26890005Y-15655203D01*
X26689000Y-15454198D01*
X26689000Y-15392061D01*
X26649226Y-15192102D01*
X26571205Y-15003744D01*
X26457937Y-14834226D01*
X26414000Y-14790289D01*
X26414000Y-14419711D01*
X26457937Y-14375774D01*
X26571205Y-14206256D01*
X26649226Y-14017898D01*
X26689000Y-13817939D01*
X26689000Y-13614061D01*
X26649226Y-13414102D01*
X26571205Y-13225744D01*
X26457937Y-13056226D01*
X26313774Y-12912063D01*
X26144256Y-12798795D01*
X25955898Y-12720774D01*
X25755939Y-12681000D01*
X25552061Y-12681000D01*
X25352102Y-12720774D01*
X25163744Y-12798795D01*
X24994226Y-12912063D01*
X24850063Y-13056226D01*
X24736795Y-13225744D01*
X24658774Y-13414102D01*
X24619000Y-13614061D01*
X24619000Y-13817939D01*
X24658774Y-14017898D01*
X24736795Y-14206256D01*
X24850063Y-14375774D01*
X24894000Y-14419711D01*
X24894001Y-14790288D01*
X24850063Y-14834226D01*
X24736795Y-15003744D01*
X24658774Y-15192102D01*
X24619000Y-15392061D01*
X24619000Y-15595939D01*
X24658774Y-15795898D01*
X24736795Y-15984256D01*
X24850063Y-16153774D01*
X24994226Y-16297937D01*
X25163744Y-16411205D01*
X25352102Y-16489226D01*
X25552061Y-16529000D01*
X25614198Y-16529000D01*
X25619001Y-16533803D01*
X25619001Y-18448199D01*
X25165000Y-17994198D01*
X25165000Y-17932061D01*
X25125226Y-17732102D01*
X25047205Y-17543744D01*
X24933937Y-17374226D01*
X24789774Y-17230063D01*
X24620256Y-17116795D01*
X24431898Y-17038774D01*
X24231939Y-16999000D01*
X24028061Y-16999000D01*
X23828102Y-17038774D01*
X23639744Y-17116795D01*
X23470226Y-17230063D01*
X23368000Y-17332289D01*
X23265774Y-17230063D01*
X23096256Y-17116795D01*
X22907898Y-17038774D01*
X22707939Y-16999000D01*
X22504061Y-16999000D01*
X22304102Y-17038774D01*
X22115744Y-17116795D01*
X21946226Y-17230063D01*
X21802063Y-17374226D01*
X21688795Y-17543744D01*
X21610774Y-17732102D01*
X21571000Y-17932061D01*
X21571000Y-18135939D01*
X21592604Y-18244549D01*
X21588324Y-18288000D01*
X21592001Y-18325332D01*
X21592000Y-25966289D01*
X21548063Y-26010226D01*
X21434795Y-26179744D01*
X21356774Y-26368102D01*
X21317000Y-26568061D01*
X19048000Y-26568061D01*
X19048000Y-22293711D01*
X19091937Y-22249774D01*
X19205205Y-22080256D01*
X19283226Y-21891898D01*
X19323000Y-21691939D01*
X19323000Y-21488061D01*
X19283226Y-21288102D01*
X19205205Y-21099744D01*
X19091937Y-20930226D01*
X18947774Y-20786063D01*
X18778256Y-20672795D01*
X18589898Y-20594774D01*
X18389939Y-20555000D01*
X18249001Y-20555000D01*
X18249001Y-17977324D01*
X18252677Y-17939999D01*
X18249001Y-17902674D01*
X18249001Y-17902666D01*
X18238004Y-17791013D01*
X18194547Y-17647752D01*
X18123975Y-17515723D01*
X18032000Y-17403651D01*
X18032000Y-16677414D01*
X18054774Y-16791908D01*
X18132795Y-16980266D01*
X18246063Y-17149784D01*
X18390226Y-17293947D01*
X18559744Y-17407215D01*
X18748102Y-17485236D01*
X18948061Y-17525010D01*
X19151939Y-17525010D01*
X19351898Y-17485236D01*
X19540256Y-17407215D01*
X19709774Y-17293947D01*
X19853937Y-17149784D01*
X19967205Y-16980266D01*
X20045226Y-16791908D01*
X20085000Y-16591949D01*
X20085000Y-16388071D01*
X20045226Y-16188112D01*
X19967205Y-15999754D01*
X19853937Y-15830236D01*
X19821251Y-15797550D01*
X20666278Y-14952523D01*
X20672795Y-14968256D01*
X20786063Y-15137774D01*
X20930226Y-15281937D01*
X21099744Y-15395205D01*
X21109701Y-15399329D01*
X21109701Y-15411990D01*
X21149475Y-15611949D01*
X21227496Y-15800307D01*
X21340764Y-15969825D01*
X21484927Y-16113988D01*
X21654445Y-16227256D01*
X21842803Y-16305277D01*
X22042762Y-16345051D01*
X22246640Y-16345051D01*
X22446599Y-16305277D01*
X22634957Y-16227256D01*
X22804475Y-16113988D01*
X22948638Y-15969825D01*
X23061906Y-15800307D01*
X23139927Y-15611949D01*
X23179701Y-15411990D01*
X23179701Y-15293608D01*
X23203545Y-15249000D01*
X23247002Y-15105739D01*
X23257999Y-14994086D01*
X23257999Y-14994076D01*
X23261675Y-14956753D01*
X23257999Y-14919430D01*
X23257999Y-4501321D01*
X23261675Y-4463998D01*
X23257999Y-4426676D01*
X23257999Y-4426666D01*
X23247002Y-4315013D01*
X23203545Y-4171752D01*
X23133000Y-4039774D01*
X23133000Y-3962061D01*
X23093226Y-3762102D01*
X23015205Y-3573744D01*
X22901937Y-3404226D01*
X22757774Y-3260063D01*
X22588256Y-3146795D01*
X22483574Y-3103434D01*
X22503774Y-3089937D01*
X22647937Y-2945774D01*
X22761205Y-2776256D01*
X22839226Y-2587898D01*
X22879000Y-2387939D01*
X22879000Y-2184061D01*
X22839226Y-1984102D01*
X22761205Y-1795744D01*
X22647937Y-1626226D01*
X22503774Y-1482063D01*
X22334256Y-1368795D01*
X22145898Y-1290774D01*
X22096000Y-1280849D01*
X22096000Y4884289D01*
X22139937Y4928226D01*
X22253205Y5097744D01*
X22331226Y5286102D01*
X22371000Y5486061D01*
X22371000Y5689939D01*
X22331226Y5889898D01*
X22253205Y6078256D01*
X22139937Y6247774D01*
X21995774Y6391937D01*
X21826256Y6505205D01*
X21637898Y6583226D01*
X21437939Y6623000D01*
X21334000Y6623000D01*
X21334000Y7170289D01*
X21377937Y7214226D01*
X21491205Y7383744D01*
X21569226Y7572102D01*
X21609000Y7772061D01*
X21609000Y7975939D01*
X21569226Y8175898D01*
X21491205Y8364256D01*
X21377937Y8533774D01*
X21233774Y8677937D01*
X21064256Y8791205D01*
X20875898Y8869226D01*
X20675939Y8909000D01*
X20472061Y8909000D01*
X20272102Y8869226D01*
X20083744Y8791205D01*
X19914226Y8677937D01*
X19770063Y8533774D01*
X19656795Y8364256D01*
X19578774Y8175898D01*
X19539000Y7975939D01*
X19539000Y7772061D01*
X19578774Y7572102D01*
X19656795Y7383744D01*
X19770063Y7214226D01*
X19814001Y7170288D01*
X19814001Y6775587D01*
X19757000Y6882226D01*
X19757000Y6959939D01*
X19717226Y7159898D01*
X19639205Y7348256D01*
X19525937Y7517774D01*
X19381774Y7661937D01*
X19212256Y7775205D01*
X19023898Y7853226D01*
X18823939Y7893000D01*
X18757000Y7893000D01*
X18757000Y8694289D01*
X18800937Y8738226D01*
X18914205Y8907744D01*
X18992226Y9096102D01*
X19032000Y9296061D01*
X19032000Y9499939D01*
X18992226Y9699898D01*
X18914205Y9888256D01*
X18800937Y10057774D01*
X18656774Y10201937D01*
X18487256Y10315205D01*
X18298898Y10393226D01*
X18098939Y10433000D01*
X18032000Y10433000D01*
X18032000Y11531939D01*
X30461000Y11531939D01*
X30461000Y11328061D01*
X30500774Y11128102D01*
X30578795Y10939744D01*
X30692063Y10770226D01*
X30736000Y10726289D01*
X30736001Y6799712D01*
X30692063Y6755774D01*
X30578795Y6586256D01*
X30500774Y6397898D01*
X30461000Y6197939D01*
X30461000Y5994061D01*
X30500774Y5794102D01*
X30578795Y5605744D01*
X30692063Y5436226D01*
X30736001Y5392288D01*
X30736000Y4767711D01*
X30692063Y4723774D01*
X30578795Y4554256D01*
X30500774Y4365898D01*
X30461000Y4165939D01*
X30461000Y3962061D01*
X30500774Y3762102D01*
X30578795Y3573744D01*
X30692063Y3404226D01*
X30736001Y3360288D01*
X30736000Y1973711D01*
X30692063Y1929774D01*
X30578795Y1760256D01*
X30500774Y1571898D01*
X30461000Y1371939D01*
X30461000Y1168061D01*
X30500774Y968102D01*
X30578795Y779744D01*
X30692063Y610226D01*
X30736001Y566288D01*
X30736000Y-566289D01*
X30692063Y-610226D01*
X30578795Y-779744D01*
X30500774Y-968102D01*
X30461000Y-1168061D01*
X30461000Y-1371939D01*
X30500774Y-1571898D01*
X30578795Y-1760256D01*
X30692063Y-1929774D01*
X30736001Y-1973712D01*
X30736000Y-5900289D01*
X30692063Y-5944226D01*
X30578795Y-6113744D01*
X30500774Y-6302102D01*
X30461000Y-6502061D01*
X30461000Y-6705939D01*
X30500774Y-6905898D01*
X30578795Y-7094256D01*
X30692063Y-7263774D01*
X30836226Y-7407937D01*
X31005744Y-7521205D01*
X31194102Y-7599226D01*
X31394061Y-7639000D01*
X31597939Y-7639000D01*
X31797898Y-7599226D01*
X31986256Y-7521205D01*
X32155774Y-7407937D01*
X32299937Y-7263774D01*
X32413205Y-7094256D01*
X32491226Y-6905898D01*
X32531000Y-6705939D01*
X32531000Y-6502061D01*
X32491226Y-6302102D01*
X32413205Y-6113744D01*
X32299937Y-5944226D01*
X32256000Y-5900289D01*
X32256000Y-2800000D01*
X55221928Y-2800000D01*
X55234188Y-2924482D01*
X55270498Y-3044180D01*
X55329463Y-3154494D01*
X55408815Y-3251185D01*
X55505506Y-3330537D01*
X55615820Y-3389502D01*
X55688380Y-3411513D01*
X55556525Y-3543368D01*
X55394010Y-3786589D01*
X55282068Y-4056842D01*
X55225000Y-4343740D01*
X55225000Y-4636260D01*
X55282068Y-4923158D01*
X55394010Y-5193411D01*
X55556525Y-5436632D01*
X55763368Y-5643475D01*
X55937760Y-5760000D01*
X55763368Y-5876525D01*
X55556525Y-6083368D01*
X55394010Y-6326589D01*
X55282068Y-6596842D01*
X55225000Y-6883740D01*
X55225000Y-7176260D01*
X55282068Y-7463158D01*
X55394010Y-7733411D01*
X55556525Y-7976632D01*
X55763368Y-8183475D01*
X55937760Y-8300000D01*
X55763368Y-8416525D01*
X55556525Y-8623368D01*
X55394010Y-8866589D01*
X55282068Y-9136842D01*
X55225000Y-9423740D01*
X55225000Y-9716260D01*
X55282068Y-10003158D01*
X55394010Y-10273411D01*
X55556525Y-10516632D01*
X55763368Y-10723475D01*
X55937760Y-10840000D01*
X55763368Y-10956525D01*
X55556525Y-11163368D01*
X55394010Y-11406589D01*
X55282068Y-11676842D01*
X55225000Y-11963740D01*
X55225000Y-12256260D01*
X55282068Y-12543158D01*
X55394010Y-12813411D01*
X55556525Y-13056632D01*
X55688380Y-13188487D01*
X55615820Y-13210498D01*
X55505506Y-13269463D01*
X55408815Y-13348815D01*
X55329463Y-13445506D01*
X55270498Y-13555820D01*
X55234188Y-13675518D01*
X55221928Y-13800000D01*
X55225000Y-14364250D01*
X55383750Y-14523000D01*
X56583000Y-14523000D01*
X56583000Y-14503000D01*
X56837000Y-14503000D01*
X56837000Y-14523000D01*
X58036250Y-14523000D01*
X58195000Y-14364250D01*
X58198072Y-13800000D01*
X58185812Y-13675518D01*
X58149502Y-13555820D01*
X58090537Y-13445506D01*
X58011185Y-13348815D01*
X57914494Y-13269463D01*
X57804180Y-13210498D01*
X57731620Y-13188487D01*
X57863475Y-13056632D01*
X58025990Y-12813411D01*
X58137932Y-12543158D01*
X58195000Y-12256260D01*
X58195000Y-11963740D01*
X58137932Y-11676842D01*
X58025990Y-11406589D01*
X57863475Y-11163368D01*
X57656632Y-10956525D01*
X57482240Y-10840000D01*
X57656632Y-10723475D01*
X57863475Y-10516632D01*
X58025990Y-10273411D01*
X58137932Y-10003158D01*
X58195000Y-9716260D01*
X58195000Y-9423740D01*
X58137932Y-9136842D01*
X58025990Y-8866589D01*
X57863475Y-8623368D01*
X57656632Y-8416525D01*
X57482240Y-8300000D01*
X57656632Y-8183475D01*
X57863475Y-7976632D01*
X58025990Y-7733411D01*
X58137932Y-7463158D01*
X58195000Y-7176260D01*
X58195000Y-6883740D01*
X58137932Y-6596842D01*
X58025990Y-6326589D01*
X57863475Y-6083368D01*
X57656632Y-5876525D01*
X57482240Y-5760000D01*
X57656632Y-5643475D01*
X57863475Y-5436632D01*
X58025990Y-5193411D01*
X58137932Y-4923158D01*
X58195000Y-4636260D01*
X58195000Y-4343740D01*
X58137932Y-4056842D01*
X58025990Y-3786589D01*
X57863475Y-3543368D01*
X57731620Y-3411513D01*
X57804180Y-3389502D01*
X57914494Y-3330537D01*
X58011185Y-3251185D01*
X58090537Y-3154494D01*
X58149502Y-3044180D01*
X58185812Y-2924482D01*
X58198072Y-2800000D01*
X73001928Y-2800000D01*
X73014188Y-2924482D01*
X73050498Y-3044180D01*
X73109463Y-3154494D01*
X73188815Y-3251185D01*
X73285506Y-3330537D01*
X73395820Y-3389502D01*
X73468380Y-3411513D01*
X73336525Y-3543368D01*
X73174010Y-3786589D01*
X73062068Y-4056842D01*
X73005000Y-4343740D01*
X73005000Y-4636260D01*
X73062068Y-4923158D01*
X73174010Y-5193411D01*
X73336525Y-5436632D01*
X73543368Y-5643475D01*
X73717760Y-5760000D01*
X73543368Y-5876525D01*
X73336525Y-6083368D01*
X73174010Y-6326589D01*
X73062068Y-6596842D01*
X73005000Y-6883740D01*
X73005000Y-7176260D01*
X73062068Y-7463158D01*
X73174010Y-7733411D01*
X73336525Y-7976632D01*
X73543368Y-8183475D01*
X73717760Y-8300000D01*
X73543368Y-8416525D01*
X73336525Y-8623368D01*
X73174010Y-8866589D01*
X73062068Y-9136842D01*
X73005000Y-9423740D01*
X73005000Y-9716260D01*
X73062068Y-10003158D01*
X73174010Y-10273411D01*
X73336525Y-10516632D01*
X73543368Y-10723475D01*
X73717760Y-10840000D01*
X73543368Y-10956525D01*
X73336525Y-11163368D01*
X73174010Y-11406589D01*
X73062068Y-11676842D01*
X73005000Y-11963740D01*
X73005000Y-12256260D01*
X73062068Y-12543158D01*
X73174010Y-12813411D01*
X73336525Y-13056632D01*
X73468380Y-13188487D01*
X73395820Y-13210498D01*
X73285506Y-13269463D01*
X73188815Y-13348815D01*
X73109463Y-13445506D01*
X73050498Y-13555820D01*
X73014188Y-13675518D01*
X73001928Y-13800000D01*
X73005000Y-14364250D01*
X73163750Y-14523000D01*
X74363000Y-14523000D01*
X74363000Y-14503000D01*
X74617000Y-14503000D01*
X74617000Y-14523000D01*
X75816250Y-14523000D01*
X75975000Y-14364250D01*
X75978072Y-13800000D01*
X75965812Y-13675518D01*
X75929502Y-13555820D01*
X75870537Y-13445506D01*
X75791185Y-13348815D01*
X75694494Y-13269463D01*
X75584180Y-13210498D01*
X75511620Y-13188487D01*
X75643475Y-13056632D01*
X75805990Y-12813411D01*
X75917932Y-12543158D01*
X75975000Y-12256260D01*
X75975000Y-11963740D01*
X75917932Y-11676842D01*
X75805990Y-11406589D01*
X75643475Y-11163368D01*
X75436632Y-10956525D01*
X75262240Y-10840000D01*
X75436632Y-10723475D01*
X75643475Y-10516632D01*
X75805990Y-10273411D01*
X75917932Y-10003158D01*
X75975000Y-9716260D01*
X75975000Y-9423740D01*
X75917932Y-9136842D01*
X75805990Y-8866589D01*
X75643475Y-8623368D01*
X75436632Y-8416525D01*
X75262240Y-8300000D01*
X75436632Y-8183475D01*
X75643475Y-7976632D01*
X75805990Y-7733411D01*
X75917932Y-7463158D01*
X75975000Y-7176260D01*
X75975000Y-6883740D01*
X75917932Y-6596842D01*
X75805990Y-6326589D01*
X75643475Y-6083368D01*
X75436632Y-5876525D01*
X75262240Y-5760000D01*
X75436632Y-5643475D01*
X75643475Y-5436632D01*
X75805990Y-5193411D01*
X75917932Y-4923158D01*
X75975000Y-4636260D01*
X75975000Y-4343740D01*
X75917932Y-4056842D01*
X75805990Y-3786589D01*
X75643475Y-3543368D01*
X75511620Y-3411513D01*
X75584180Y-3389502D01*
X75694494Y-3330537D01*
X75791185Y-3251185D01*
X75870537Y-3154494D01*
X75929502Y-3044180D01*
X75965812Y-2924482D01*
X75978072Y-2800000D01*
X75975000Y-2235750D01*
X75816250Y-2077000D01*
X74617000Y-2077000D01*
X74617000Y-2097000D01*
X74363000Y-2097000D01*
X74363000Y-2077000D01*
X73163750Y-2077000D01*
X73005000Y-2235750D01*
X73001928Y-2800000D01*
X58198072Y-2800000D01*
X58195000Y-2235750D01*
X58036250Y-2077000D01*
X56837000Y-2077000D01*
X56837000Y-2097000D01*
X56583000Y-2097000D01*
X56583000Y-2077000D01*
X55383750Y-2077000D01*
X55225000Y-2235750D01*
X55221928Y-2800000D01*
X32256000Y-2800000D01*
X32256000Y-1973711D01*
X32299937Y-1929774D01*
X32413205Y-1760256D01*
X32491226Y-1571898D01*
X32531000Y-1371939D01*
X32531000Y-1168061D01*
X32491226Y-968102D01*
X32413205Y-779744D01*
X32299937Y-610226D01*
X32256000Y-566289D01*
X32256000Y566289D01*
X32299937Y610226D01*
X32413205Y779744D01*
X32491226Y968102D01*
X32531000Y1168061D01*
X32531000Y1371939D01*
X32491226Y1571898D01*
X32413205Y1760256D01*
X32299937Y1929774D01*
X32256000Y1973711D01*
X32256000Y3360289D01*
X32299937Y3404226D01*
X32413205Y3573744D01*
X32491226Y3762102D01*
X32531000Y3962061D01*
X32531000Y4165939D01*
X32491226Y4365898D01*
X32413205Y4554256D01*
X32299937Y4723774D01*
X32256000Y4767711D01*
X32256000Y5392289D01*
X32299937Y5436226D01*
X32413205Y5605744D01*
X32491226Y5794102D01*
X32531000Y5994061D01*
X32531000Y6197939D01*
X32491226Y6397898D01*
X32413205Y6586256D01*
X32299937Y6755774D01*
X32256000Y6799711D01*
X32256000Y9900000D01*
X55221928Y9900000D01*
X55234188Y9775518D01*
X55270498Y9655820D01*
X55329463Y9545506D01*
X55408815Y9448815D01*
X55505506Y9369463D01*
X55615820Y9310498D01*
X55688380Y9288487D01*
X55556525Y9156632D01*
X55394010Y8913411D01*
X55282068Y8643158D01*
X55225000Y8356260D01*
X55225000Y8063740D01*
X55282068Y7776842D01*
X55394010Y7506589D01*
X55556525Y7263368D01*
X55763368Y7056525D01*
X55937760Y6940000D01*
X55763368Y6823475D01*
X55556525Y6616632D01*
X55394010Y6373411D01*
X55282068Y6103158D01*
X55225000Y5816260D01*
X55225000Y5523740D01*
X55282068Y5236842D01*
X55394010Y4966589D01*
X55556525Y4723368D01*
X55763368Y4516525D01*
X55937760Y4400000D01*
X55763368Y4283475D01*
X55556525Y4076632D01*
X55394010Y3833411D01*
X55282068Y3563158D01*
X55225000Y3276260D01*
X55225000Y2983740D01*
X55282068Y2696842D01*
X55394010Y2426589D01*
X55556525Y2183368D01*
X55763368Y1976525D01*
X55937760Y1860000D01*
X55763368Y1743475D01*
X55556525Y1536632D01*
X55394010Y1293411D01*
X55282068Y1023158D01*
X55225000Y736260D01*
X55225000Y443740D01*
X55282068Y156842D01*
X55394010Y-113411D01*
X55556525Y-356632D01*
X55688380Y-488487D01*
X55615820Y-510498D01*
X55505506Y-569463D01*
X55408815Y-648815D01*
X55329463Y-745506D01*
X55270498Y-855820D01*
X55234188Y-975518D01*
X55221928Y-1100000D01*
X55225000Y-1664250D01*
X55383750Y-1823000D01*
X56583000Y-1823000D01*
X56583000Y-1803000D01*
X56837000Y-1803000D01*
X56837000Y-1823000D01*
X58036250Y-1823000D01*
X58195000Y-1664250D01*
X58198072Y-1100000D01*
X58185812Y-975518D01*
X58149502Y-855820D01*
X58090537Y-745506D01*
X58011185Y-648815D01*
X57914494Y-569463D01*
X57804180Y-510498D01*
X57731620Y-488487D01*
X57863475Y-356632D01*
X58025990Y-113411D01*
X58137932Y156842D01*
X58195000Y443740D01*
X58195000Y736260D01*
X58137932Y1023158D01*
X58025990Y1293411D01*
X57863475Y1536632D01*
X57656632Y1743475D01*
X57482240Y1860000D01*
X57656632Y1976525D01*
X57863475Y2183368D01*
X58025990Y2426589D01*
X58137932Y2696842D01*
X58195000Y2983740D01*
X58195000Y3276260D01*
X58137932Y3563158D01*
X58025990Y3833411D01*
X57863475Y4076632D01*
X57656632Y4283475D01*
X57482240Y4400000D01*
X57656632Y4516525D01*
X57863475Y4723368D01*
X58025990Y4966589D01*
X58137932Y5236842D01*
X58195000Y5523740D01*
X58195000Y5816260D01*
X58137932Y6103158D01*
X58025990Y6373411D01*
X57863475Y6616632D01*
X57656632Y6823475D01*
X57482240Y6940000D01*
X57656632Y7056525D01*
X57863475Y7263368D01*
X58025990Y7506589D01*
X58137932Y7776842D01*
X58195000Y8063740D01*
X58195000Y8356260D01*
X58137932Y8643158D01*
X58025990Y8913411D01*
X57863475Y9156632D01*
X57731620Y9288487D01*
X57804180Y9310498D01*
X57914494Y9369463D01*
X58011185Y9448815D01*
X58090537Y9545506D01*
X58149502Y9655820D01*
X58185812Y9775518D01*
X58198072Y9900000D01*
X73001928Y9900000D01*
X73014188Y9775518D01*
X73050498Y9655820D01*
X73109463Y9545506D01*
X73188815Y9448815D01*
X73285506Y9369463D01*
X73395820Y9310498D01*
X73468380Y9288487D01*
X73336525Y9156632D01*
X73174010Y8913411D01*
X73062068Y8643158D01*
X73005000Y8356260D01*
X73005000Y8063740D01*
X73062068Y7776842D01*
X73174010Y7506589D01*
X73336525Y7263368D01*
X73543368Y7056525D01*
X73717760Y6940000D01*
X73543368Y6823475D01*
X73336525Y6616632D01*
X73174010Y6373411D01*
X73062068Y6103158D01*
X73005000Y5816260D01*
X73005000Y5523740D01*
X73062068Y5236842D01*
X73174010Y4966589D01*
X73336525Y4723368D01*
X73543368Y4516525D01*
X73717760Y4400000D01*
X73543368Y4283475D01*
X73336525Y4076632D01*
X73174010Y3833411D01*
X73062068Y3563158D01*
X73005000Y3276260D01*
X73005000Y2983740D01*
X73062068Y2696842D01*
X73174010Y2426589D01*
X73336525Y2183368D01*
X73543368Y1976525D01*
X73717760Y1860000D01*
X73543368Y1743475D01*
X73336525Y1536632D01*
X73174010Y1293411D01*
X73062068Y1023158D01*
X73005000Y736260D01*
X73005000Y443740D01*
X73062068Y156842D01*
X73174010Y-113411D01*
X73336525Y-356632D01*
X73468380Y-488487D01*
X73395820Y-510498D01*
X73285506Y-569463D01*
X73188815Y-648815D01*
X73109463Y-745506D01*
X73050498Y-855820D01*
X73014188Y-975518D01*
X73001928Y-1100000D01*
X73005000Y-1664250D01*
X73163750Y-1823000D01*
X74363000Y-1823000D01*
X74363000Y-1803000D01*
X74617000Y-1803000D01*
X74617000Y-1823000D01*
X75816250Y-1823000D01*
X75975000Y-1664250D01*
X75978072Y-1100000D01*
X75965812Y-975518D01*
X75929502Y-855820D01*
X75870537Y-745506D01*
X75791185Y-648815D01*
X75694494Y-569463D01*
X75584180Y-510498D01*
X75511620Y-488487D01*
X75643475Y-356632D01*
X75805990Y-113411D01*
X75917932Y156842D01*
X75975000Y443740D01*
X75975000Y736260D01*
X75917932Y1023158D01*
X75805990Y1293411D01*
X75643475Y1536632D01*
X75436632Y1743475D01*
X75262240Y1860000D01*
X75436632Y1976525D01*
X75643475Y2183368D01*
X75805990Y2426589D01*
X75917932Y2696842D01*
X75975000Y2983740D01*
X75975000Y3276260D01*
X75917932Y3563158D01*
X75805990Y3833411D01*
X75643475Y4076632D01*
X75436632Y4283475D01*
X75262240Y4400000D01*
X75436632Y4516525D01*
X75643475Y4723368D01*
X75805990Y4966589D01*
X75917932Y5236842D01*
X75975000Y5523740D01*
X75975000Y5816260D01*
X75917932Y6103158D01*
X75805990Y6373411D01*
X75643475Y6616632D01*
X75436632Y6823475D01*
X75262240Y6940000D01*
X75436632Y7056525D01*
X75643475Y7263368D01*
X75805990Y7506589D01*
X75917932Y7776842D01*
X75975000Y8063740D01*
X75975000Y8356260D01*
X75917932Y8643158D01*
X75805990Y8913411D01*
X75643475Y9156632D01*
X75511620Y9288487D01*
X75584180Y9310498D01*
X75694494Y9369463D01*
X75791185Y9448815D01*
X75870537Y9545506D01*
X75929502Y9655820D01*
X75965812Y9775518D01*
X75978072Y9900000D01*
X75975000Y10464250D01*
X75816250Y10623000D01*
X74617000Y10623000D01*
X74617000Y10603000D01*
X74363000Y10603000D01*
X74363000Y10623000D01*
X73163750Y10623000D01*
X73005000Y10464250D01*
X73001928Y9900000D01*
X58198072Y9900000D01*
X58195000Y10464250D01*
X58036250Y10623000D01*
X56837000Y10623000D01*
X56837000Y10603000D01*
X56583000Y10603000D01*
X56583000Y10623000D01*
X55383750Y10623000D01*
X55225000Y10464250D01*
X55221928Y9900000D01*
X32256000Y9900000D01*
X32256000Y10726289D01*
X32299937Y10770226D01*
X32413205Y10939744D01*
X32491226Y11128102D01*
X32531000Y11328061D01*
X32531000Y11531939D01*
X32517462Y11600000D01*
X55221928Y11600000D01*
X55225000Y11035750D01*
X55383750Y10877000D01*
X56583000Y10877000D01*
X56583000Y10897000D01*
X56837000Y10897000D01*
X56837000Y10877000D01*
X58036250Y10877000D01*
X58195000Y11035750D01*
X58198072Y11600000D01*
X58185812Y11724482D01*
X58149502Y11844180D01*
X58090537Y11954494D01*
X58011185Y12051185D01*
X57914494Y12130537D01*
X57804180Y12189502D01*
X57731620Y12211513D01*
X57863475Y12343368D01*
X58025990Y12586589D01*
X58117042Y12806411D01*
X61790000Y12806411D01*
X61790000Y12533589D01*
X61843225Y12266011D01*
X61947629Y12013957D01*
X62099201Y11787114D01*
X62292114Y11594201D01*
X62518957Y11442629D01*
X62771011Y11338225D01*
X63038589Y11285000D01*
X63311411Y11285000D01*
X63578989Y11338225D01*
X63831043Y11442629D01*
X64057886Y11594201D01*
X64250799Y11787114D01*
X64402371Y12013957D01*
X64506775Y12266011D01*
X64560000Y12533589D01*
X64560000Y12806411D01*
X66640000Y12806411D01*
X66640000Y12533589D01*
X66693225Y12266011D01*
X66797629Y12013957D01*
X66949201Y11787114D01*
X67142114Y11594201D01*
X67368957Y11442629D01*
X67621011Y11338225D01*
X67888589Y11285000D01*
X68161411Y11285000D01*
X68428989Y11338225D01*
X68681043Y11442629D01*
X68907886Y11594201D01*
X68913685Y11600000D01*
X73001928Y11600000D01*
X73005000Y11035750D01*
X73163750Y10877000D01*
X74363000Y10877000D01*
X74363000Y10897000D01*
X74617000Y10897000D01*
X74617000Y10877000D01*
X75816250Y10877000D01*
X75975000Y11035750D01*
X75978072Y11600000D01*
X75965812Y11724482D01*
X75929502Y11844180D01*
X75870537Y11954494D01*
X75791185Y12051185D01*
X75694494Y12130537D01*
X75584180Y12189502D01*
X75511620Y12211513D01*
X75643475Y12343368D01*
X75805990Y12586589D01*
X75917932Y12856842D01*
X75975000Y13143740D01*
X75975000Y13436260D01*
X75917932Y13723158D01*
X75805990Y13993411D01*
X75643475Y14236632D01*
X75436632Y14443475D01*
X75262240Y14560000D01*
X75436632Y14676525D01*
X75643475Y14883368D01*
X75805990Y15126589D01*
X75917932Y15396842D01*
X75975000Y15683740D01*
X75975000Y15976260D01*
X75917932Y16263158D01*
X75805990Y16533411D01*
X75643475Y16776632D01*
X75436632Y16983475D01*
X75193411Y17145990D01*
X74923158Y17257932D01*
X74636260Y17315000D01*
X74343740Y17315000D01*
X74056842Y17257932D01*
X73786589Y17145990D01*
X73543368Y16983475D01*
X73336525Y16776632D01*
X73174010Y16533411D01*
X73062068Y16263158D01*
X73005000Y15976260D01*
X73005000Y15683740D01*
X73062068Y15396842D01*
X73174010Y15126589D01*
X73336525Y14883368D01*
X73543368Y14676525D01*
X73717760Y14560000D01*
X73543368Y14443475D01*
X73336525Y14236632D01*
X73174010Y13993411D01*
X73062068Y13723158D01*
X73005000Y13436260D01*
X73005000Y13143740D01*
X73062068Y12856842D01*
X73174010Y12586589D01*
X73336525Y12343368D01*
X73468380Y12211513D01*
X73395820Y12189502D01*
X73285506Y12130537D01*
X73188815Y12051185D01*
X73109463Y11954494D01*
X73050498Y11844180D01*
X73014188Y11724482D01*
X73001928Y11600000D01*
X68913685Y11600000D01*
X69100799Y11787114D01*
X69252371Y12013957D01*
X69356775Y12266011D01*
X69410000Y12533589D01*
X69410000Y12806411D01*
X69356775Y13073989D01*
X69252371Y13326043D01*
X69100799Y13552886D01*
X68907886Y13745799D01*
X68681043Y13897371D01*
X68428989Y14001775D01*
X68161411Y14055000D01*
X67888589Y14055000D01*
X67621011Y14001775D01*
X67368957Y13897371D01*
X67142114Y13745799D01*
X66949201Y13552886D01*
X66797629Y13326043D01*
X66693225Y13073989D01*
X66640000Y12806411D01*
X64560000Y12806411D01*
X64506775Y13073989D01*
X64402371Y13326043D01*
X64250799Y13552886D01*
X64057886Y13745799D01*
X63831043Y13897371D01*
X63578989Y14001775D01*
X63311411Y14055000D01*
X63038589Y14055000D01*
X62771011Y14001775D01*
X62518957Y13897371D01*
X62292114Y13745799D01*
X62099201Y13552886D01*
X61947629Y13326043D01*
X61843225Y13073989D01*
X61790000Y12806411D01*
X58117042Y12806411D01*
X58137932Y12856842D01*
X58195000Y13143740D01*
X58195000Y13436260D01*
X58137932Y13723158D01*
X58025990Y13993411D01*
X57863475Y14236632D01*
X57656632Y14443475D01*
X57482240Y14560000D01*
X57656632Y14676525D01*
X57863475Y14883368D01*
X58025990Y15126589D01*
X58137932Y15396842D01*
X58195000Y15683740D01*
X58195000Y15851184D01*
X61340000Y15851184D01*
X61340000Y15548816D01*
X61398989Y15252257D01*
X61514701Y14972905D01*
X61682688Y14721495D01*
X61896495Y14507688D01*
X62147905Y14339701D01*
X62427257Y14223989D01*
X62723816Y14165000D01*
X63026184Y14165000D01*
X63322743Y14223989D01*
X63602095Y14339701D01*
X63853505Y14507688D01*
X64067312Y14721495D01*
X64235299Y14972905D01*
X64351011Y15252257D01*
X64410000Y15548816D01*
X64410000Y15851184D01*
X66790000Y15851184D01*
X66790000Y15548816D01*
X66848989Y15252257D01*
X66964701Y14972905D01*
X67132688Y14721495D01*
X67346495Y14507688D01*
X67597905Y14339701D01*
X67877257Y14223989D01*
X68173816Y14165000D01*
X68476184Y14165000D01*
X68772743Y14223989D01*
X69052095Y14339701D01*
X69303505Y14507688D01*
X69517312Y14721495D01*
X69685299Y14972905D01*
X69801011Y15252257D01*
X69860000Y15548816D01*
X69860000Y15851184D01*
X69801011Y16147743D01*
X69685299Y16427095D01*
X69517312Y16678505D01*
X69303505Y16892312D01*
X69052095Y17060299D01*
X68772743Y17176011D01*
X68476184Y17235000D01*
X68173816Y17235000D01*
X67877257Y17176011D01*
X67597905Y17060299D01*
X67346495Y16892312D01*
X67132688Y16678505D01*
X66964701Y16427095D01*
X66848989Y16147743D01*
X66790000Y15851184D01*
X64410000Y15851184D01*
X64351011Y16147743D01*
X64235299Y16427095D01*
X64067312Y16678505D01*
X63853505Y16892312D01*
X63602095Y17060299D01*
X63322743Y17176011D01*
X63026184Y17235000D01*
X62723816Y17235000D01*
X62427257Y17176011D01*
X62147905Y17060299D01*
X61896495Y16892312D01*
X61682688Y16678505D01*
X61514701Y16427095D01*
X61398989Y16147743D01*
X61340000Y15851184D01*
X58195000Y15851184D01*
X58195000Y15976260D01*
X58137932Y16263158D01*
X58025990Y16533411D01*
X57863475Y16776632D01*
X57656632Y16983475D01*
X57413411Y17145990D01*
X57143158Y17257932D01*
X56856260Y17315000D01*
X56563740Y17315000D01*
X56276842Y17257932D01*
X56006589Y17145990D01*
X55763368Y16983475D01*
X55556525Y16776632D01*
X55394010Y16533411D01*
X55282068Y16263158D01*
X55225000Y15976260D01*
X55225000Y15683740D01*
X55282068Y15396842D01*
X55394010Y15126589D01*
X55556525Y14883368D01*
X55763368Y14676525D01*
X55937760Y14560000D01*
X55763368Y14443475D01*
X55556525Y14236632D01*
X55394010Y13993411D01*
X55282068Y13723158D01*
X55225000Y13436260D01*
X55225000Y13143740D01*
X55282068Y12856842D01*
X55394010Y12586589D01*
X55556525Y12343368D01*
X55688380Y12211513D01*
X55615820Y12189502D01*
X55505506Y12130537D01*
X55408815Y12051185D01*
X55329463Y11954494D01*
X55270498Y11844180D01*
X55234188Y11724482D01*
X55221928Y11600000D01*
X32517462Y11600000D01*
X32491226Y11731898D01*
X32413205Y11920256D01*
X32299937Y12089774D01*
X32155774Y12233937D01*
X31986256Y12347205D01*
X31797898Y12425226D01*
X31597939Y12465000D01*
X31394061Y12465000D01*
X31194102Y12425226D01*
X31005744Y12347205D01*
X30836226Y12233937D01*
X30692063Y12089774D01*
X30578795Y11920256D01*
X30500774Y11731898D01*
X30461000Y11531939D01*
X18032000Y11531939D01*
X18032000Y12758289D01*
X18058937Y12785226D01*
X18172205Y12954744D01*
X18250226Y13143102D01*
X18290000Y13343061D01*
X18290000Y13546939D01*
X18250226Y13746898D01*
X18172205Y13935256D01*
X18058937Y14104774D01*
X17914774Y14248937D01*
X17745256Y14362205D01*
X17556898Y14440226D01*
X17356939Y14480000D01*
X17153061Y14480000D01*
X16953102Y14440226D01*
X16764744Y14362205D01*
X16595226Y14248937D01*
X16451063Y14104774D01*
X16337795Y13935256D01*
X16259774Y13746898D01*
X16220000Y13546939D01*
X16220000Y13343061D01*
X16259774Y13143102D01*
X16337795Y12954744D01*
X16451063Y12785226D01*
X16512001Y12724288D01*
X16512001Y10687000D01*
X16445061Y10687000D01*
X16245102Y10647226D01*
X16056744Y10569205D01*
X15887226Y10455937D01*
X15743063Y10311774D01*
X15629795Y10142256D01*
X15551774Y9953898D01*
X15512000Y9753939D01*
X15512000Y9691801D01*
X15274001Y9453802D01*
X15244998Y9430000D01*
X15204175Y9380256D01*
X15150025Y9314275D01*
X15137058Y9290015D01*
X15079453Y9182245D01*
X15035996Y9038984D01*
X15024999Y8927331D01*
X15024999Y8927321D01*
X15021323Y8889999D01*
X15024999Y8852677D01*
X15025000Y-5587667D01*
X15021323Y-5624999D01*
X15025000Y-5662332D01*
X15035997Y-5773985D01*
X15049179Y-5817441D01*
X15079453Y-5917245D01*
X15150025Y-6049275D01*
X15221200Y-6136001D01*
X15244999Y-6165000D01*
X15273997Y-6188798D01*
X15729000Y-6643802D01*
X15729000Y-6705939D01*
X15768774Y-6905898D01*
X15846795Y-7094256D01*
X15960063Y-7263774D01*
X16104226Y-7407937D01*
X16273744Y-7521205D01*
X16462102Y-7599226D01*
X16512000Y-7609151D01*
X16512001Y-17282849D01*
X16462102Y-17292774D01*
X16273744Y-17370795D01*
X16104226Y-17484063D01*
X15960063Y-17628226D01*
X15846795Y-17797744D01*
X15768774Y-17986102D01*
X15729000Y-18186061D01*
X15729000Y-18389939D01*
X15768774Y-18589898D01*
X15846795Y-18778256D01*
X15960063Y-18947774D01*
X16004000Y-18991711D01*
X16004001Y-22918288D01*
X15960063Y-22962226D01*
X15846795Y-23131744D01*
X15768774Y-23320102D01*
X15735356Y-23488108D01*
X15588831Y-23458963D01*
X15384953Y-23458963D01*
X15184994Y-23498737D01*
X14996636Y-23576758D01*
X14827118Y-23690026D01*
X14682955Y-23834189D01*
X14569687Y-24003707D01*
X14491666Y-24192065D01*
X14451892Y-24392024D01*
X11174000Y-24392024D01*
X11174000Y-22506735D01*
X11237310Y-22443425D01*
X11350578Y-22273907D01*
X11428599Y-22085549D01*
X11468373Y-21885590D01*
X11468373Y-21681712D01*
X11428599Y-21481753D01*
X11350578Y-21293395D01*
X11237310Y-21123877D01*
X11093147Y-20979714D01*
X10923629Y-20866446D01*
X10876683Y-20847000D01*
X11023939Y-20847000D01*
X11223898Y-20807226D01*
X11412256Y-20729205D01*
X11581774Y-20615937D01*
X11725937Y-20471774D01*
X11839205Y-20302256D01*
X11917226Y-20113898D01*
X11957000Y-19913939D01*
X11957000Y-19710061D01*
X11935397Y-19601455D01*
X11936000Y-19595333D01*
X11936000Y-19595324D01*
X11939676Y-19558001D01*
X11936000Y-19520678D01*
X11936000Y-18307000D01*
X12002939Y-18307000D01*
X12202898Y-18267226D01*
X12391256Y-18189205D01*
X12560774Y-18075937D01*
X12704937Y-17931774D01*
X12818205Y-17762256D01*
X12896226Y-17573898D01*
X12936000Y-17373939D01*
X12936000Y-17170061D01*
X12896226Y-16970102D01*
X12818205Y-16781744D01*
X12704937Y-16612226D01*
X12698000Y-16605289D01*
X12698000Y-8831711D01*
X12741937Y-8787774D01*
X12855205Y-8618256D01*
X12933226Y-8429898D01*
X12973000Y-8229939D01*
X12973000Y-8026061D01*
X12933226Y-7826102D01*
X12855205Y-7637744D01*
X12741937Y-7468226D01*
X12659126Y-7385415D01*
X12679226Y-7336888D01*
X12719000Y-7136929D01*
X12719000Y-7074792D01*
X12920004Y-6873788D01*
X12949001Y-6849991D01*
X13043974Y-6734266D01*
X13114546Y-6602237D01*
X13158003Y-6458976D01*
X13169000Y-6347323D01*
X13169000Y-6347313D01*
X13172676Y-6309990D01*
X13169000Y-6272667D01*
X13169000Y1836289D01*
X13212937Y1880226D01*
X13326205Y2049744D01*
X13404226Y2238102D01*
X13444000Y2438061D01*
X13444000Y2641939D01*
X13404226Y2841898D01*
X13326205Y3030256D01*
X13212937Y3199774D01*
X13068774Y3343937D01*
X12899256Y3457205D01*
X12710898Y3535226D01*
X12510939Y3575000D01*
X12444000Y3575000D01*
X12444000Y4329644D01*
X12598061Y4299000D01*
X12801939Y4299000D01*
X13001898Y4338774D01*
X13190256Y4416795D01*
X13359774Y4530063D01*
X13503937Y4674226D01*
X13617205Y4843744D01*
X13695226Y5032102D01*
X13735000Y5232061D01*
X13735000Y5435939D01*
X13713397Y5544545D01*
X13714000Y5550667D01*
X13714000Y5550676D01*
X13717676Y5587999D01*
X13714000Y5625322D01*
X13714000Y7678289D01*
X13757937Y7722226D01*
X13871205Y7891744D01*
X13949226Y8080102D01*
X13989000Y8280061D01*
X13989000Y8483939D01*
X13949226Y8683898D01*
X13871205Y8872256D01*
X13757937Y9041774D01*
X13613774Y9185937D01*
X13444256Y9299205D01*
X13255898Y9377226D01*
X13055939Y9417000D01*
X12852061Y9417000D01*
X12652102Y9377226D01*
X12463744Y9299205D01*
X12444000Y9286013D01*
X12444000Y10218289D01*
X12487937Y10262226D01*
X12601205Y10431744D01*
X12679226Y10620102D01*
X12719000Y10820061D01*
X12719000Y11023939D01*
X12679226Y11223898D01*
X12601205Y11412256D01*
X12487937Y11581774D01*
X12343774Y11725937D01*
X12174256Y11839205D01*
X11985898Y11917226D01*
X11785939Y11957000D01*
X11582061Y11957000D01*
X11382102Y11917226D01*
X11193744Y11839205D01*
X11024226Y11725937D01*
X10880063Y11581774D01*
X10766795Y11412256D01*
X10688774Y11223898D01*
X10649000Y11023939D01*
X10649000Y10820061D01*
X10688774Y10620102D01*
X10766795Y10431744D01*
X10880063Y10262226D01*
X10924000Y10218289D01*
X10924001Y-3868288D01*
X10880063Y-3912226D01*
X10766795Y-4081744D01*
X10688774Y-4270102D01*
X10649000Y-4470061D01*
X10649000Y-4673939D01*
X10688774Y-4873898D01*
X10766795Y-5062256D01*
X10880063Y-5231774D01*
X11024226Y-5375937D01*
X11193744Y-5489205D01*
X11382102Y-5567226D01*
X11582061Y-5607000D01*
X11649000Y-5607000D01*
X11649000Y-5995188D01*
X11644198Y-5999990D01*
X11582061Y-5999990D01*
X11382102Y-6039764D01*
X11193744Y-6117785D01*
X11024226Y-6231053D01*
X10880063Y-6375216D01*
X10766795Y-6544734D01*
X10688774Y-6733092D01*
X10649000Y-6933051D01*
X10649000Y-7136929D01*
X10688774Y-7336888D01*
X10766795Y-7525246D01*
X10880063Y-7694764D01*
X10962874Y-7777575D01*
X10942774Y-7826102D01*
X10903000Y-8026061D01*
X10903000Y-8229939D01*
X10942774Y-8429898D01*
X11020795Y-8618256D01*
X11134063Y-8787774D01*
X11178000Y-8831711D01*
X11178000Y-8871000D01*
X11074061Y-8871000D01*
X10874102Y-8910774D01*
X10685744Y-8988795D01*
X10516226Y-9102063D01*
X10372063Y-9246226D01*
X10258795Y-9415744D01*
X10180774Y-9604102D01*
X10141000Y-9804061D01*
X10141000Y-10007939D01*
X10180774Y-10207898D01*
X10258795Y-10396256D01*
X10372063Y-10565774D01*
X10416000Y-10609711D01*
X10416000Y-14198644D01*
X10261939Y-14168000D01*
X10058061Y-14168000D01*
X9858102Y-14207774D01*
X9669744Y-14285795D01*
X9500226Y-14399063D01*
X9356063Y-14543226D01*
X9242795Y-14712744D01*
X9164774Y-14901102D01*
X9159716Y-14926530D01*
X9126939Y-14920010D01*
X8923061Y-14920010D01*
X8723102Y-14959784D01*
X8534744Y-15037805D01*
X8365226Y-15151073D01*
X8221063Y-15295236D01*
X8126000Y-15437508D01*
X8126000Y-13149711D01*
X8169937Y-13105774D01*
X8283205Y-12936256D01*
X8361226Y-12747898D01*
X8401000Y-12547939D01*
X8401000Y-12344061D01*
X8361226Y-12144102D01*
X8283205Y-11955744D01*
X8169937Y-11786226D01*
X8025774Y-11642063D01*
X7856256Y-11528795D01*
X7667898Y-11450774D01*
X7467939Y-11411000D01*
X7385000Y-11411000D01*
X7385000Y-11328061D01*
X7345226Y-11128102D01*
X7267205Y-10939744D01*
X7153937Y-10770226D01*
X7009774Y-10626063D01*
X6840256Y-10512795D01*
X6651898Y-10434774D01*
X6451939Y-10395000D01*
X6348000Y-10395000D01*
X6348000Y-9032013D01*
X6367744Y-9045205D01*
X6556102Y-9123226D01*
X6756061Y-9163000D01*
X6959939Y-9163000D01*
X7159898Y-9123226D01*
X7348256Y-9045205D01*
X7517774Y-8931937D01*
X7661937Y-8787774D01*
X7775205Y-8618256D01*
X7853226Y-8429898D01*
X7893000Y-8229939D01*
X7893000Y-8026061D01*
X7871397Y-7917455D01*
X7872000Y-7911333D01*
X7872000Y-7911324D01*
X7875676Y-7874001D01*
X7872000Y-7836678D01*
X7872000Y-6369000D01*
X7938939Y-6369000D01*
X8138898Y-6329226D01*
X8327256Y-6251205D01*
X8496774Y-6137937D01*
X8640937Y-5993774D01*
X8754205Y-5824256D01*
X8832226Y-5635898D01*
X8872000Y-5435939D01*
X8872000Y-5232061D01*
X8832226Y-5032102D01*
X8754205Y-4843744D01*
X8640937Y-4674226D01*
X8597000Y-4630289D01*
X8597000Y-740711D01*
X8677937Y-659774D01*
X8791205Y-490256D01*
X8869226Y-301898D01*
X8909000Y-101939D01*
X8909000Y101939D01*
X8869226Y301898D01*
X8791205Y490256D01*
X8677937Y659774D01*
X8533774Y803937D01*
X8364256Y917205D01*
X8175898Y995226D01*
X7975939Y1035000D01*
X7872000Y1035000D01*
X7872000Y5646289D01*
X7915937Y5690226D01*
X8029205Y5859744D01*
X8107226Y6048102D01*
X8147000Y6248061D01*
X8147000Y6365026D01*
X8175898Y6370774D01*
X8364256Y6448795D01*
X8533774Y6562063D01*
X8677937Y6706226D01*
X8791205Y6875744D01*
X8869226Y7064102D01*
X8909000Y7264061D01*
X8909000Y7467939D01*
X8869226Y7667898D01*
X8791205Y7856256D01*
X8677937Y8025774D01*
X8634000Y8069711D01*
X8634000Y14282289D01*
X8677937Y14326226D01*
X8791205Y14495744D01*
X8869226Y14684102D01*
X8909000Y14884061D01*
X8909000Y15087939D01*
X8869226Y15287898D01*
X8791205Y15476256D01*
X8677937Y15645774D01*
X8533774Y15789937D01*
X8364256Y15903205D01*
X8175898Y15981226D01*
X7975939Y16021000D01*
X7772061Y16021000D01*
X7572102Y15981226D01*
X7383744Y15903205D01*
X7214226Y15789937D01*
X7070063Y15645774D01*
X6956795Y15476256D01*
X6878774Y15287898D01*
X6839000Y15087939D01*
X6839000Y14884061D01*
X6878774Y14684102D01*
X6956275Y14497000D01*
X6756061Y14497000D01*
X6556102Y14457226D01*
X6367744Y14379205D01*
X6198226Y14265937D01*
X6054063Y14121774D01*
X5940795Y13952256D01*
X5862774Y13763898D01*
X5850667Y13703030D01*
X5689939Y13735000D01*
X5486061Y13735000D01*
X5286102Y13695226D01*
X5097744Y13617205D01*
X5028072Y13570652D01*
X5028072Y13630000D01*
X5015812Y13754482D01*
X4979502Y13874180D01*
X4920537Y13984494D01*
X4841185Y14081185D01*
X4744494Y14160537D01*
X4634180Y14219502D01*
X4514482Y14255812D01*
X4390000Y14268072D01*
X2690000Y14268072D01*
X2565518Y14255812D01*
X2445820Y14219502D01*
X2335506Y14160537D01*
X2238815Y14081185D01*
X2159463Y13984494D01*
X2100498Y13874180D01*
X2077502Y13798374D01*
X1881355Y13975178D01*
X1631252Y14124157D01*
X1356891Y14221481D01*
X1127000Y14100814D01*
X1127000Y12907000D01*
X1147000Y12907000D01*
X1147000Y12653000D01*
X1127000Y12653000D01*
X1127000Y12633000D01*
X873000Y12633000D01*
X873000Y12653000D01*
X-320155Y12653000D01*
X-441476Y12423110D01*
X-396825Y12275901D01*
X-361710Y12202178D01*
X-406061Y12211000D01*
X-609939Y12211000D01*
X-809898Y12171226D01*
X-998256Y12093205D01*
X-1167774Y11979937D01*
X-1311937Y11835774D01*
X-1425205Y11666256D01*
X-1503226Y11477898D01*
X-1543000Y11277939D01*
X-1543000Y11160974D01*
X-1571898Y11155226D01*
X-1626000Y11132816D01*
X-1626000Y13136890D01*
X-441476Y13136890D01*
X-320155Y12907000D01*
X873000Y12907000D01*
X873000Y14100814D01*
X643109Y14221481D01*
X368748Y14124157D01*
X118645Y13975178D01*
X-97588Y13780269D01*
X-271641Y13546920D01*
X-396825Y13284099D01*
X-441476Y13136890D01*
X-1626000Y13136890D01*
X-1626000Y19660000D01*
X89002000Y19660000D01*
X89002001Y-34901821D01*
M02*
