G04 #@! TF.GenerationSoftware,KiCad,Pcbnew,5.1.5+dfsg1-2build2*
G04 #@! TF.CreationDate,2022-03-18T16:26:14+00:00*
G04 #@! TF.ProjectId,pico41,7069636f-3431-42e6-9b69-6361645f7063,rev?*
G04 #@! TF.SameCoordinates,Original*
G04 #@! TF.FileFunction,Soldermask,Top*
G04 #@! TF.FilePolarity,Negative*
%FSLAX46Y46*%
G04 Gerber Fmt 4.6, Leading zero omitted, Abs format (unit mm)*
G04 Created by KiCad (PCBNEW 5.1.5+dfsg1-2build2) date 2022-03-18 16:26:14*
%MOMM*%
%LPD*%
G04 APERTURE LIST*
%ADD10C,0.100000*%
G04 APERTURE END LIST*
D10*
G36*
X63961000Y-34901000D02*
G01*
X62159000Y-34901000D01*
X62159000Y-31299000D01*
X63961000Y-31299000D01*
X63961000Y-34901000D01*
G37*
G36*
X66501000Y-34901000D02*
G01*
X64699000Y-34901000D01*
X64699000Y-31299000D01*
X66501000Y-31299000D01*
X66501000Y-34901000D01*
G37*
G36*
X69041000Y-34901000D02*
G01*
X67239000Y-34901000D01*
X67239000Y-31299000D01*
X69041000Y-31299000D01*
X69041000Y-34901000D01*
G37*
G36*
X57611000Y-33331000D02*
G01*
X54009000Y-33331000D01*
X54009000Y-31529000D01*
X57611000Y-31529000D01*
X57611000Y-33331000D01*
G37*
G36*
X77191000Y-33331000D02*
G01*
X73589000Y-33331000D01*
X73589000Y-31529000D01*
X77191000Y-31529000D01*
X77191000Y-33331000D01*
G37*
G36*
X84721000Y-32905000D02*
G01*
X82919000Y-32905000D01*
X82919000Y-31103000D01*
X84721000Y-31103000D01*
X84721000Y-32905000D01*
G37*
G36*
X57611000Y-30791000D02*
G01*
X54009000Y-30791000D01*
X54009000Y-28989000D01*
X57611000Y-28989000D01*
X57611000Y-30791000D01*
G37*
G36*
X77191000Y-30791000D02*
G01*
X73589000Y-30791000D01*
X73589000Y-28989000D01*
X77191000Y-28989000D01*
X77191000Y-30791000D01*
G37*
G36*
X83933512Y-28567927D02*
G01*
X84082812Y-28597624D01*
X84246784Y-28665544D01*
X84394354Y-28764147D01*
X84519853Y-28889646D01*
X84618456Y-29037216D01*
X84686376Y-29201188D01*
X84721000Y-29375259D01*
X84721000Y-29552741D01*
X84686376Y-29726812D01*
X84618456Y-29890784D01*
X84519853Y-30038354D01*
X84394354Y-30163853D01*
X84246784Y-30262456D01*
X84082812Y-30330376D01*
X83933512Y-30360073D01*
X83908742Y-30365000D01*
X83731258Y-30365000D01*
X83706488Y-30360073D01*
X83557188Y-30330376D01*
X83393216Y-30262456D01*
X83245646Y-30163853D01*
X83120147Y-30038354D01*
X83021544Y-29890784D01*
X82953624Y-29726812D01*
X82919000Y-29552741D01*
X82919000Y-29375259D01*
X82953624Y-29201188D01*
X83021544Y-29037216D01*
X83120147Y-28889646D01*
X83245646Y-28764147D01*
X83393216Y-28665544D01*
X83557188Y-28597624D01*
X83706488Y-28567927D01*
X83731258Y-28563000D01*
X83908742Y-28563000D01*
X83933512Y-28567927D01*
G37*
G36*
X77191000Y-28251000D02*
G01*
X73589000Y-28251000D01*
X73589000Y-26449000D01*
X77191000Y-26449000D01*
X77191000Y-28251000D01*
G37*
G36*
X57611000Y-28251000D02*
G01*
X54009000Y-28251000D01*
X54009000Y-26449000D01*
X57611000Y-26449000D01*
X57611000Y-28251000D01*
G37*
G36*
X83929429Y-26027115D02*
G01*
X84082812Y-26057624D01*
X84246784Y-26125544D01*
X84394354Y-26224147D01*
X84519853Y-26349646D01*
X84618456Y-26497216D01*
X84686376Y-26661188D01*
X84721000Y-26835259D01*
X84721000Y-27012741D01*
X84686376Y-27186812D01*
X84618456Y-27350784D01*
X84519853Y-27498354D01*
X84394354Y-27623853D01*
X84246784Y-27722456D01*
X84082812Y-27790376D01*
X83933512Y-27820073D01*
X83908742Y-27825000D01*
X83731258Y-27825000D01*
X83706488Y-27820073D01*
X83557188Y-27790376D01*
X83393216Y-27722456D01*
X83245646Y-27623853D01*
X83120147Y-27498354D01*
X83021544Y-27350784D01*
X82953624Y-27186812D01*
X82919000Y-27012741D01*
X82919000Y-26835259D01*
X82953624Y-26661188D01*
X83021544Y-26497216D01*
X83120147Y-26349646D01*
X83245646Y-26224147D01*
X83393216Y-26125544D01*
X83557188Y-26057624D01*
X83710571Y-26027115D01*
X83731258Y-26023000D01*
X83908742Y-26023000D01*
X83929429Y-26027115D01*
G37*
G36*
X3653512Y-24423927D02*
G01*
X3802812Y-24453624D01*
X3966784Y-24521544D01*
X4114354Y-24620147D01*
X4239853Y-24745646D01*
X4338456Y-24893216D01*
X4406376Y-25057188D01*
X4441000Y-25231259D01*
X4441000Y-25408741D01*
X4406376Y-25582812D01*
X4338456Y-25746784D01*
X4239853Y-25894354D01*
X4114354Y-26019853D01*
X3966784Y-26118456D01*
X3802812Y-26186376D01*
X3653512Y-26216073D01*
X3628742Y-26221000D01*
X3451258Y-26221000D01*
X3426488Y-26216073D01*
X3277188Y-26186376D01*
X3113216Y-26118456D01*
X2965646Y-26019853D01*
X2840147Y-25894354D01*
X2741544Y-25746784D01*
X2673624Y-25582812D01*
X2639000Y-25408741D01*
X2639000Y-25231259D01*
X2673624Y-25057188D01*
X2741544Y-24893216D01*
X2840147Y-24745646D01*
X2965646Y-24620147D01*
X3113216Y-24521544D01*
X3277188Y-24453624D01*
X3426488Y-24423927D01*
X3451258Y-24419000D01*
X3628742Y-24419000D01*
X3653512Y-24423927D01*
G37*
G36*
X1113512Y-24423927D02*
G01*
X1262812Y-24453624D01*
X1426784Y-24521544D01*
X1574354Y-24620147D01*
X1699853Y-24745646D01*
X1798456Y-24893216D01*
X1866376Y-25057188D01*
X1901000Y-25231259D01*
X1901000Y-25408741D01*
X1866376Y-25582812D01*
X1798456Y-25746784D01*
X1699853Y-25894354D01*
X1574354Y-26019853D01*
X1426784Y-26118456D01*
X1262812Y-26186376D01*
X1113512Y-26216073D01*
X1088742Y-26221000D01*
X911258Y-26221000D01*
X886488Y-26216073D01*
X737188Y-26186376D01*
X573216Y-26118456D01*
X425646Y-26019853D01*
X300147Y-25894354D01*
X201544Y-25746784D01*
X133624Y-25582812D01*
X99000Y-25408741D01*
X99000Y-25231259D01*
X133624Y-25057188D01*
X201544Y-24893216D01*
X300147Y-24745646D01*
X425646Y-24620147D01*
X573216Y-24521544D01*
X737188Y-24453624D01*
X886488Y-24423927D01*
X911258Y-24419000D01*
X1088742Y-24419000D01*
X1113512Y-24423927D01*
G37*
G36*
X39200199Y-23747954D02*
G01*
X39212450Y-23748556D01*
X39230869Y-23748556D01*
X39253149Y-23750750D01*
X39337233Y-23767476D01*
X39358660Y-23773976D01*
X39437858Y-23806780D01*
X39443303Y-23809691D01*
X39443309Y-23809693D01*
X39452169Y-23814429D01*
X39452173Y-23814432D01*
X39457614Y-23817340D01*
X39528899Y-23864971D01*
X39546204Y-23879172D01*
X39606828Y-23939796D01*
X39621029Y-23957101D01*
X39668660Y-24028386D01*
X39671568Y-24033827D01*
X39671571Y-24033831D01*
X39676307Y-24042691D01*
X39676309Y-24042697D01*
X39679220Y-24048142D01*
X39712024Y-24127340D01*
X39718524Y-24148767D01*
X39735250Y-24232851D01*
X39737444Y-24255131D01*
X39737444Y-24273550D01*
X39738046Y-24285801D01*
X39739852Y-24304139D01*
X39739852Y-24791860D01*
X39738263Y-24807999D01*
X39735348Y-24817608D01*
X39730610Y-24826472D01*
X39724237Y-24834237D01*
X39711794Y-24844448D01*
X39701425Y-24851378D01*
X39684098Y-24868705D01*
X39670485Y-24889080D01*
X39661109Y-24911720D01*
X39656329Y-24935753D01*
X39656330Y-24960257D01*
X39661112Y-24984290D01*
X39670490Y-25006929D01*
X39684105Y-25027302D01*
X39701432Y-25044629D01*
X39711802Y-25051558D01*
X39724237Y-25061763D01*
X39730610Y-25069528D01*
X39735348Y-25078392D01*
X39738263Y-25088001D01*
X39739852Y-25104140D01*
X39739852Y-25591862D01*
X39738046Y-25610199D01*
X39737444Y-25622450D01*
X39737444Y-25640869D01*
X39735250Y-25663149D01*
X39718524Y-25747233D01*
X39712024Y-25768660D01*
X39679220Y-25847858D01*
X39676309Y-25853303D01*
X39676307Y-25853309D01*
X39671571Y-25862169D01*
X39671568Y-25862173D01*
X39668660Y-25867614D01*
X39621029Y-25938899D01*
X39606828Y-25956204D01*
X39546204Y-26016828D01*
X39528899Y-26031029D01*
X39457614Y-26078660D01*
X39452173Y-26081568D01*
X39452169Y-26081571D01*
X39443309Y-26086307D01*
X39443303Y-26086309D01*
X39437858Y-26089220D01*
X39358660Y-26122024D01*
X39337233Y-26128524D01*
X39253149Y-26145250D01*
X39230869Y-26147444D01*
X39212450Y-26147444D01*
X39200199Y-26148046D01*
X39181862Y-26149852D01*
X38694138Y-26149852D01*
X38675801Y-26148046D01*
X38663550Y-26147444D01*
X38645131Y-26147444D01*
X38622851Y-26145250D01*
X38538767Y-26128524D01*
X38517340Y-26122024D01*
X38438142Y-26089220D01*
X38432697Y-26086309D01*
X38432691Y-26086307D01*
X38423831Y-26081571D01*
X38423827Y-26081568D01*
X38418386Y-26078660D01*
X38347101Y-26031029D01*
X38329796Y-26016828D01*
X38269172Y-25956204D01*
X38254971Y-25938899D01*
X38207340Y-25867614D01*
X38204432Y-25862173D01*
X38204429Y-25862169D01*
X38199693Y-25853309D01*
X38199691Y-25853303D01*
X38196780Y-25847858D01*
X38163976Y-25768660D01*
X38157476Y-25747233D01*
X38140750Y-25663149D01*
X38138556Y-25640869D01*
X38138556Y-25622450D01*
X38137954Y-25610199D01*
X38136148Y-25591862D01*
X38136148Y-25104140D01*
X38137737Y-25088001D01*
X38140652Y-25078392D01*
X38145390Y-25069528D01*
X38151763Y-25061763D01*
X38164206Y-25051552D01*
X38174575Y-25044622D01*
X38191902Y-25027295D01*
X38205515Y-25006920D01*
X38214891Y-24984280D01*
X38219671Y-24960247D01*
X38219670Y-24935743D01*
X38214888Y-24911710D01*
X38205510Y-24889071D01*
X38191895Y-24868698D01*
X38174568Y-24851371D01*
X38164198Y-24844442D01*
X38151763Y-24834237D01*
X38145390Y-24826472D01*
X38140652Y-24817608D01*
X38137737Y-24807999D01*
X38136148Y-24791860D01*
X38136148Y-24304139D01*
X38137954Y-24285801D01*
X38138556Y-24273550D01*
X38138556Y-24255131D01*
X38140750Y-24232851D01*
X38157476Y-24148767D01*
X38163976Y-24127340D01*
X38196780Y-24048142D01*
X38199691Y-24042697D01*
X38199693Y-24042691D01*
X38204429Y-24033831D01*
X38204432Y-24033827D01*
X38207340Y-24028386D01*
X38254971Y-23957101D01*
X38269172Y-23939796D01*
X38329796Y-23879172D01*
X38347101Y-23864971D01*
X38418386Y-23817340D01*
X38423827Y-23814432D01*
X38423831Y-23814429D01*
X38432691Y-23809693D01*
X38432697Y-23809691D01*
X38438142Y-23806780D01*
X38517340Y-23773976D01*
X38538767Y-23767476D01*
X38622851Y-23750750D01*
X38645131Y-23748556D01*
X38663550Y-23748556D01*
X38675801Y-23747954D01*
X38694139Y-23746148D01*
X39181861Y-23746148D01*
X39200199Y-23747954D01*
G37*
G36*
X36500199Y-23597954D02*
G01*
X36512450Y-23598556D01*
X36530869Y-23598556D01*
X36553149Y-23600750D01*
X36637233Y-23617476D01*
X36658660Y-23623976D01*
X36737858Y-23656780D01*
X36743303Y-23659691D01*
X36743309Y-23659693D01*
X36752169Y-23664429D01*
X36752173Y-23664432D01*
X36757614Y-23667340D01*
X36828899Y-23714971D01*
X36846204Y-23729172D01*
X36906828Y-23789796D01*
X36921029Y-23807101D01*
X36968660Y-23878386D01*
X36971568Y-23883827D01*
X36971571Y-23883831D01*
X36976307Y-23892691D01*
X36976309Y-23892697D01*
X36979220Y-23898142D01*
X37012024Y-23977340D01*
X37018524Y-23998767D01*
X37035250Y-24082851D01*
X37037444Y-24105131D01*
X37037444Y-24123550D01*
X37038046Y-24135801D01*
X37039852Y-24154139D01*
X37039852Y-24641860D01*
X37038263Y-24657999D01*
X37035348Y-24667608D01*
X37030610Y-24676472D01*
X37024237Y-24684237D01*
X37011794Y-24694448D01*
X37001425Y-24701378D01*
X36984098Y-24718705D01*
X36970485Y-24739080D01*
X36961109Y-24761720D01*
X36956329Y-24785753D01*
X36956330Y-24810257D01*
X36961112Y-24834290D01*
X36970490Y-24856929D01*
X36984105Y-24877302D01*
X37001432Y-24894629D01*
X37011802Y-24901558D01*
X37024237Y-24911763D01*
X37030610Y-24919528D01*
X37035348Y-24928392D01*
X37038263Y-24938001D01*
X37039852Y-24954140D01*
X37039852Y-25441862D01*
X37038046Y-25460199D01*
X37037444Y-25472450D01*
X37037444Y-25490869D01*
X37035250Y-25513149D01*
X37018524Y-25597233D01*
X37012024Y-25618660D01*
X36979220Y-25697858D01*
X36976309Y-25703303D01*
X36976307Y-25703309D01*
X36971571Y-25712169D01*
X36971568Y-25712173D01*
X36968660Y-25717614D01*
X36921029Y-25788899D01*
X36906828Y-25806204D01*
X36846204Y-25866828D01*
X36828899Y-25881029D01*
X36757614Y-25928660D01*
X36752173Y-25931568D01*
X36752169Y-25931571D01*
X36743309Y-25936307D01*
X36743303Y-25936309D01*
X36737858Y-25939220D01*
X36658660Y-25972024D01*
X36637233Y-25978524D01*
X36553149Y-25995250D01*
X36530869Y-25997444D01*
X36512450Y-25997444D01*
X36500199Y-25998046D01*
X36481862Y-25999852D01*
X35994138Y-25999852D01*
X35975801Y-25998046D01*
X35963550Y-25997444D01*
X35945131Y-25997444D01*
X35922851Y-25995250D01*
X35838767Y-25978524D01*
X35817340Y-25972024D01*
X35738142Y-25939220D01*
X35732697Y-25936309D01*
X35732691Y-25936307D01*
X35723831Y-25931571D01*
X35723827Y-25931568D01*
X35718386Y-25928660D01*
X35647101Y-25881029D01*
X35629796Y-25866828D01*
X35569172Y-25806204D01*
X35554971Y-25788899D01*
X35507340Y-25717614D01*
X35504432Y-25712173D01*
X35504429Y-25712169D01*
X35499693Y-25703309D01*
X35499691Y-25703303D01*
X35496780Y-25697858D01*
X35463976Y-25618660D01*
X35457476Y-25597233D01*
X35440750Y-25513149D01*
X35438556Y-25490869D01*
X35438556Y-25472450D01*
X35437954Y-25460199D01*
X35436148Y-25441862D01*
X35436148Y-24954140D01*
X35437737Y-24938001D01*
X35440652Y-24928392D01*
X35445390Y-24919528D01*
X35451763Y-24911763D01*
X35464206Y-24901552D01*
X35474575Y-24894622D01*
X35491902Y-24877295D01*
X35505515Y-24856920D01*
X35514891Y-24834280D01*
X35519671Y-24810247D01*
X35519670Y-24785743D01*
X35514888Y-24761710D01*
X35505510Y-24739071D01*
X35491895Y-24718698D01*
X35474568Y-24701371D01*
X35464198Y-24694442D01*
X35451763Y-24684237D01*
X35445390Y-24676472D01*
X35440652Y-24667608D01*
X35437737Y-24657999D01*
X35436148Y-24641860D01*
X35436148Y-24154139D01*
X35437954Y-24135801D01*
X35438556Y-24123550D01*
X35438556Y-24105131D01*
X35440750Y-24082851D01*
X35457476Y-23998767D01*
X35463976Y-23977340D01*
X35496780Y-23898142D01*
X35499691Y-23892697D01*
X35499693Y-23892691D01*
X35504429Y-23883831D01*
X35504432Y-23883827D01*
X35507340Y-23878386D01*
X35554971Y-23807101D01*
X35569172Y-23789796D01*
X35629796Y-23729172D01*
X35647101Y-23714971D01*
X35718386Y-23667340D01*
X35723827Y-23664432D01*
X35723831Y-23664429D01*
X35732691Y-23659693D01*
X35732697Y-23659691D01*
X35738142Y-23656780D01*
X35817340Y-23623976D01*
X35838767Y-23617476D01*
X35922851Y-23600750D01*
X35945131Y-23598556D01*
X35963550Y-23598556D01*
X35975801Y-23597954D01*
X35994139Y-23596148D01*
X36481861Y-23596148D01*
X36500199Y-23597954D01*
G37*
G36*
X77191000Y-25711000D02*
G01*
X73589000Y-25711000D01*
X73589000Y-23909000D01*
X77191000Y-23909000D01*
X77191000Y-25711000D01*
G37*
G36*
X57611000Y-25711000D02*
G01*
X54009000Y-25711000D01*
X54009000Y-23909000D01*
X57611000Y-23909000D01*
X57611000Y-25711000D01*
G37*
G36*
X14909928Y-24596764D02*
G01*
X14931009Y-24603160D01*
X14950445Y-24613548D01*
X14967476Y-24627524D01*
X14981452Y-24644555D01*
X14991840Y-24663991D01*
X14998236Y-24685072D01*
X15001000Y-24713140D01*
X15001000Y-25176860D01*
X14998236Y-25204928D01*
X14991840Y-25226009D01*
X14981452Y-25245445D01*
X14967476Y-25262476D01*
X14950445Y-25276452D01*
X14931009Y-25286840D01*
X14909928Y-25293236D01*
X14881860Y-25296000D01*
X13068140Y-25296000D01*
X13040072Y-25293236D01*
X13018991Y-25286840D01*
X12999555Y-25276452D01*
X12982524Y-25262476D01*
X12968548Y-25245445D01*
X12958160Y-25226009D01*
X12951764Y-25204928D01*
X12949000Y-25176860D01*
X12949000Y-24713140D01*
X12951764Y-24685072D01*
X12958160Y-24663991D01*
X12968548Y-24644555D01*
X12982524Y-24627524D01*
X12999555Y-24613548D01*
X13018991Y-24603160D01*
X13040072Y-24596764D01*
X13068140Y-24594000D01*
X14881860Y-24594000D01*
X14909928Y-24596764D01*
G37*
G36*
X9959928Y-24596764D02*
G01*
X9981009Y-24603160D01*
X10000445Y-24613548D01*
X10017476Y-24627524D01*
X10031452Y-24644555D01*
X10041840Y-24663991D01*
X10048236Y-24685072D01*
X10051000Y-24713140D01*
X10051000Y-25176860D01*
X10048236Y-25204928D01*
X10041840Y-25226009D01*
X10031452Y-25245445D01*
X10017476Y-25262476D01*
X10000445Y-25276452D01*
X9981009Y-25286840D01*
X9959928Y-25293236D01*
X9931860Y-25296000D01*
X8118140Y-25296000D01*
X8090072Y-25293236D01*
X8068991Y-25286840D01*
X8049555Y-25276452D01*
X8032524Y-25262476D01*
X8018548Y-25245445D01*
X8008160Y-25226009D01*
X8001764Y-25204928D01*
X7999000Y-25176860D01*
X7999000Y-24713140D01*
X8001764Y-24685072D01*
X8008160Y-24663991D01*
X8018548Y-24644555D01*
X8032524Y-24627524D01*
X8049555Y-24613548D01*
X8068991Y-24603160D01*
X8090072Y-24596764D01*
X8118140Y-24594000D01*
X9931860Y-24594000D01*
X9959928Y-24596764D01*
G37*
G36*
X26709928Y-23861764D02*
G01*
X26731009Y-23868160D01*
X26750445Y-23878548D01*
X26767476Y-23892524D01*
X26781452Y-23909555D01*
X26791840Y-23928991D01*
X26798236Y-23950072D01*
X26801000Y-23978140D01*
X26801000Y-24441860D01*
X26798236Y-24469928D01*
X26791840Y-24491009D01*
X26781452Y-24510445D01*
X26767476Y-24527476D01*
X26750445Y-24541452D01*
X26731009Y-24551840D01*
X26709928Y-24558236D01*
X26681860Y-24561000D01*
X24868140Y-24561000D01*
X24840072Y-24558236D01*
X24818991Y-24551840D01*
X24799555Y-24541452D01*
X24782524Y-24527476D01*
X24768548Y-24510445D01*
X24758160Y-24491009D01*
X24751764Y-24469928D01*
X24749000Y-24441860D01*
X24749000Y-23978140D01*
X24751764Y-23950072D01*
X24758160Y-23928991D01*
X24768548Y-23909555D01*
X24782524Y-23892524D01*
X24799555Y-23878548D01*
X24818991Y-23868160D01*
X24840072Y-23861764D01*
X24868140Y-23859000D01*
X26681860Y-23859000D01*
X26709928Y-23861764D01*
G37*
G36*
X21759928Y-23861764D02*
G01*
X21781009Y-23868160D01*
X21800445Y-23878548D01*
X21817476Y-23892524D01*
X21831452Y-23909555D01*
X21841840Y-23928991D01*
X21848236Y-23950072D01*
X21851000Y-23978140D01*
X21851000Y-24441860D01*
X21848236Y-24469928D01*
X21841840Y-24491009D01*
X21831452Y-24510445D01*
X21817476Y-24527476D01*
X21800445Y-24541452D01*
X21781009Y-24551840D01*
X21759928Y-24558236D01*
X21731860Y-24561000D01*
X19918140Y-24561000D01*
X19890072Y-24558236D01*
X19868991Y-24551840D01*
X19849555Y-24541452D01*
X19832524Y-24527476D01*
X19818548Y-24510445D01*
X19808160Y-24491009D01*
X19801764Y-24469928D01*
X19799000Y-24441860D01*
X19799000Y-23978140D01*
X19801764Y-23950072D01*
X19808160Y-23928991D01*
X19818548Y-23909555D01*
X19832524Y-23892524D01*
X19849555Y-23878548D01*
X19868991Y-23868160D01*
X19890072Y-23861764D01*
X19918140Y-23859000D01*
X21731860Y-23859000D01*
X21759928Y-23861764D01*
G37*
G36*
X14909928Y-23326764D02*
G01*
X14931009Y-23333160D01*
X14950445Y-23343548D01*
X14967476Y-23357524D01*
X14981452Y-23374555D01*
X14991840Y-23393991D01*
X14998236Y-23415072D01*
X15001000Y-23443140D01*
X15001000Y-23906860D01*
X14998236Y-23934928D01*
X14991840Y-23956009D01*
X14981452Y-23975445D01*
X14967476Y-23992476D01*
X14950445Y-24006452D01*
X14931009Y-24016840D01*
X14909928Y-24023236D01*
X14881860Y-24026000D01*
X13068140Y-24026000D01*
X13040072Y-24023236D01*
X13018991Y-24016840D01*
X12999555Y-24006452D01*
X12982524Y-23992476D01*
X12968548Y-23975445D01*
X12958160Y-23956009D01*
X12951764Y-23934928D01*
X12949000Y-23906860D01*
X12949000Y-23443140D01*
X12951764Y-23415072D01*
X12958160Y-23393991D01*
X12968548Y-23374555D01*
X12982524Y-23357524D01*
X12999555Y-23343548D01*
X13018991Y-23333160D01*
X13040072Y-23326764D01*
X13068140Y-23324000D01*
X14881860Y-23324000D01*
X14909928Y-23326764D01*
G37*
G36*
X9959928Y-23326764D02*
G01*
X9981009Y-23333160D01*
X10000445Y-23343548D01*
X10017476Y-23357524D01*
X10031452Y-23374555D01*
X10041840Y-23393991D01*
X10048236Y-23415072D01*
X10051000Y-23443140D01*
X10051000Y-23906860D01*
X10048236Y-23934928D01*
X10041840Y-23956009D01*
X10031452Y-23975445D01*
X10017476Y-23992476D01*
X10000445Y-24006452D01*
X9981009Y-24016840D01*
X9959928Y-24023236D01*
X9931860Y-24026000D01*
X8118140Y-24026000D01*
X8090072Y-24023236D01*
X8068991Y-24016840D01*
X8049555Y-24006452D01*
X8032524Y-23992476D01*
X8018548Y-23975445D01*
X8008160Y-23956009D01*
X8001764Y-23934928D01*
X7999000Y-23906860D01*
X7999000Y-23443140D01*
X8001764Y-23415072D01*
X8008160Y-23393991D01*
X8018548Y-23374555D01*
X8032524Y-23357524D01*
X8049555Y-23343548D01*
X8068991Y-23333160D01*
X8090072Y-23326764D01*
X8118140Y-23324000D01*
X9931860Y-23324000D01*
X9959928Y-23326764D01*
G37*
G36*
X32619162Y-22201644D02*
G01*
X32658608Y-22213610D01*
X32694953Y-22233037D01*
X32726815Y-22259185D01*
X32752963Y-22291047D01*
X32772390Y-22327392D01*
X32784356Y-22366838D01*
X32789000Y-22413993D01*
X32789000Y-23482007D01*
X32784356Y-23529162D01*
X32772390Y-23568608D01*
X32752963Y-23604953D01*
X32726815Y-23636815D01*
X32694953Y-23662963D01*
X32658608Y-23682390D01*
X32619162Y-23694356D01*
X32572007Y-23699000D01*
X31878993Y-23699000D01*
X31831838Y-23694356D01*
X31792392Y-23682390D01*
X31756047Y-23662963D01*
X31724185Y-23636815D01*
X31698037Y-23604953D01*
X31678610Y-23568608D01*
X31666644Y-23529162D01*
X31662000Y-23482007D01*
X31662000Y-22413993D01*
X31666644Y-22366838D01*
X31678610Y-22327392D01*
X31698037Y-22291047D01*
X31724185Y-22259185D01*
X31756047Y-22233037D01*
X31792392Y-22213610D01*
X31831838Y-22201644D01*
X31878993Y-22197000D01*
X32572007Y-22197000D01*
X32619162Y-22201644D01*
G37*
G36*
X34444162Y-22201644D02*
G01*
X34483608Y-22213610D01*
X34519953Y-22233037D01*
X34551815Y-22259185D01*
X34577963Y-22291047D01*
X34597390Y-22327392D01*
X34609356Y-22366838D01*
X34614000Y-22413993D01*
X34614000Y-23482007D01*
X34609356Y-23529162D01*
X34597390Y-23568608D01*
X34577963Y-23604953D01*
X34551815Y-23636815D01*
X34519953Y-23662963D01*
X34483608Y-23682390D01*
X34444162Y-23694356D01*
X34397007Y-23699000D01*
X33703993Y-23699000D01*
X33656838Y-23694356D01*
X33617392Y-23682390D01*
X33581047Y-23662963D01*
X33549185Y-23636815D01*
X33523037Y-23604953D01*
X33503610Y-23568608D01*
X33491644Y-23529162D01*
X33487000Y-23482007D01*
X33487000Y-22413993D01*
X33491644Y-22366838D01*
X33503610Y-22327392D01*
X33523037Y-22291047D01*
X33549185Y-22259185D01*
X33581047Y-22233037D01*
X33617392Y-22213610D01*
X33656838Y-22201644D01*
X33703993Y-22197000D01*
X34397007Y-22197000D01*
X34444162Y-22201644D01*
G37*
G36*
X1113512Y-21883927D02*
G01*
X1262812Y-21913624D01*
X1426784Y-21981544D01*
X1574354Y-22080147D01*
X1699853Y-22205646D01*
X1798456Y-22353216D01*
X1866376Y-22517188D01*
X1901000Y-22691259D01*
X1901000Y-22868741D01*
X1866376Y-23042812D01*
X1798456Y-23206784D01*
X1699853Y-23354354D01*
X1574354Y-23479853D01*
X1426784Y-23578456D01*
X1262812Y-23646376D01*
X1113512Y-23676073D01*
X1088742Y-23681000D01*
X911258Y-23681000D01*
X886488Y-23676073D01*
X737188Y-23646376D01*
X573216Y-23578456D01*
X425646Y-23479853D01*
X300147Y-23354354D01*
X201544Y-23206784D01*
X133624Y-23042812D01*
X99000Y-22868741D01*
X99000Y-22691259D01*
X133624Y-22517188D01*
X201544Y-22353216D01*
X300147Y-22205646D01*
X425646Y-22080147D01*
X573216Y-21981544D01*
X737188Y-21913624D01*
X886488Y-21883927D01*
X911258Y-21879000D01*
X1088742Y-21879000D01*
X1113512Y-21883927D01*
G37*
G36*
X3653512Y-21883927D02*
G01*
X3802812Y-21913624D01*
X3966784Y-21981544D01*
X4114354Y-22080147D01*
X4239853Y-22205646D01*
X4338456Y-22353216D01*
X4406376Y-22517188D01*
X4441000Y-22691259D01*
X4441000Y-22868741D01*
X4406376Y-23042812D01*
X4338456Y-23206784D01*
X4239853Y-23354354D01*
X4114354Y-23479853D01*
X3966784Y-23578456D01*
X3802812Y-23646376D01*
X3653512Y-23676073D01*
X3628742Y-23681000D01*
X3451258Y-23681000D01*
X3426488Y-23676073D01*
X3277188Y-23646376D01*
X3113216Y-23578456D01*
X2965646Y-23479853D01*
X2840147Y-23354354D01*
X2741544Y-23206784D01*
X2673624Y-23042812D01*
X2639000Y-22868741D01*
X2639000Y-22691259D01*
X2673624Y-22517188D01*
X2741544Y-22353216D01*
X2840147Y-22205646D01*
X2965646Y-22080147D01*
X3113216Y-21981544D01*
X3277188Y-21913624D01*
X3426488Y-21883927D01*
X3451258Y-21879000D01*
X3628742Y-21879000D01*
X3653512Y-21883927D01*
G37*
G36*
X21759928Y-22591764D02*
G01*
X21781009Y-22598160D01*
X21800445Y-22608548D01*
X21817476Y-22622524D01*
X21831452Y-22639555D01*
X21841840Y-22658991D01*
X21848236Y-22680072D01*
X21851000Y-22708140D01*
X21851000Y-23171860D01*
X21848236Y-23199928D01*
X21841840Y-23221009D01*
X21831452Y-23240445D01*
X21817476Y-23257476D01*
X21800445Y-23271452D01*
X21781009Y-23281840D01*
X21759928Y-23288236D01*
X21731860Y-23291000D01*
X19918140Y-23291000D01*
X19890072Y-23288236D01*
X19868991Y-23281840D01*
X19849555Y-23271452D01*
X19832524Y-23257476D01*
X19818548Y-23240445D01*
X19808160Y-23221009D01*
X19801764Y-23199928D01*
X19799000Y-23171860D01*
X19799000Y-22708140D01*
X19801764Y-22680072D01*
X19808160Y-22658991D01*
X19818548Y-22639555D01*
X19832524Y-22622524D01*
X19849555Y-22608548D01*
X19868991Y-22598160D01*
X19890072Y-22591764D01*
X19918140Y-22589000D01*
X21731860Y-22589000D01*
X21759928Y-22591764D01*
G37*
G36*
X26709928Y-22591764D02*
G01*
X26731009Y-22598160D01*
X26750445Y-22608548D01*
X26767476Y-22622524D01*
X26781452Y-22639555D01*
X26791840Y-22658991D01*
X26798236Y-22680072D01*
X26801000Y-22708140D01*
X26801000Y-23171860D01*
X26798236Y-23199928D01*
X26791840Y-23221009D01*
X26781452Y-23240445D01*
X26767476Y-23257476D01*
X26750445Y-23271452D01*
X26731009Y-23281840D01*
X26709928Y-23288236D01*
X26681860Y-23291000D01*
X24868140Y-23291000D01*
X24840072Y-23288236D01*
X24818991Y-23281840D01*
X24799555Y-23271452D01*
X24782524Y-23257476D01*
X24768548Y-23240445D01*
X24758160Y-23221009D01*
X24751764Y-23199928D01*
X24749000Y-23171860D01*
X24749000Y-22708140D01*
X24751764Y-22680072D01*
X24758160Y-22658991D01*
X24768548Y-22639555D01*
X24782524Y-22622524D01*
X24799555Y-22608548D01*
X24818991Y-22598160D01*
X24840072Y-22591764D01*
X24868140Y-22589000D01*
X26681860Y-22589000D01*
X26709928Y-22591764D01*
G37*
G36*
X57611000Y-23171000D02*
G01*
X54009000Y-23171000D01*
X54009000Y-21369000D01*
X57611000Y-21369000D01*
X57611000Y-23171000D01*
G37*
G36*
X77191000Y-23171000D02*
G01*
X73589000Y-23171000D01*
X73589000Y-21369000D01*
X77191000Y-21369000D01*
X77191000Y-23171000D01*
G37*
G36*
X14909928Y-22056764D02*
G01*
X14931009Y-22063160D01*
X14950445Y-22073548D01*
X14967476Y-22087524D01*
X14981452Y-22104555D01*
X14991840Y-22123991D01*
X14998236Y-22145072D01*
X15001000Y-22173140D01*
X15001000Y-22636860D01*
X14998236Y-22664928D01*
X14991840Y-22686009D01*
X14981452Y-22705445D01*
X14967476Y-22722476D01*
X14950445Y-22736452D01*
X14931009Y-22746840D01*
X14909928Y-22753236D01*
X14881860Y-22756000D01*
X13068140Y-22756000D01*
X13040072Y-22753236D01*
X13018991Y-22746840D01*
X12999555Y-22736452D01*
X12982524Y-22722476D01*
X12968548Y-22705445D01*
X12958160Y-22686009D01*
X12951764Y-22664928D01*
X12949000Y-22636860D01*
X12949000Y-22173140D01*
X12951764Y-22145072D01*
X12958160Y-22123991D01*
X12968548Y-22104555D01*
X12982524Y-22087524D01*
X12999555Y-22073548D01*
X13018991Y-22063160D01*
X13040072Y-22056764D01*
X13068140Y-22054000D01*
X14881860Y-22054000D01*
X14909928Y-22056764D01*
G37*
G36*
X9959928Y-22056764D02*
G01*
X9981009Y-22063160D01*
X10000445Y-22073548D01*
X10017476Y-22087524D01*
X10031452Y-22104555D01*
X10041840Y-22123991D01*
X10048236Y-22145072D01*
X10051000Y-22173140D01*
X10051000Y-22636860D01*
X10048236Y-22664928D01*
X10041840Y-22686009D01*
X10031452Y-22705445D01*
X10017476Y-22722476D01*
X10000445Y-22736452D01*
X9981009Y-22746840D01*
X9959928Y-22753236D01*
X9931860Y-22756000D01*
X8118140Y-22756000D01*
X8090072Y-22753236D01*
X8068991Y-22746840D01*
X8049555Y-22736452D01*
X8032524Y-22722476D01*
X8018548Y-22705445D01*
X8008160Y-22686009D01*
X8001764Y-22664928D01*
X7999000Y-22636860D01*
X7999000Y-22173140D01*
X8001764Y-22145072D01*
X8008160Y-22123991D01*
X8018548Y-22104555D01*
X8032524Y-22087524D01*
X8049555Y-22073548D01*
X8068991Y-22063160D01*
X8090072Y-22056764D01*
X8118140Y-22054000D01*
X9931860Y-22054000D01*
X9959928Y-22056764D01*
G37*
G36*
X39100199Y-19947954D02*
G01*
X39112450Y-19948556D01*
X39130869Y-19948556D01*
X39153149Y-19950750D01*
X39237233Y-19967476D01*
X39258660Y-19973976D01*
X39337858Y-20006780D01*
X39343303Y-20009691D01*
X39343309Y-20009693D01*
X39352169Y-20014429D01*
X39352173Y-20014432D01*
X39357614Y-20017340D01*
X39428899Y-20064971D01*
X39446204Y-20079172D01*
X39506828Y-20139796D01*
X39521029Y-20157101D01*
X39568660Y-20228386D01*
X39571568Y-20233827D01*
X39571571Y-20233831D01*
X39576307Y-20242691D01*
X39576309Y-20242697D01*
X39579220Y-20248142D01*
X39612024Y-20327340D01*
X39618524Y-20348767D01*
X39635250Y-20432851D01*
X39637444Y-20455131D01*
X39637444Y-20473550D01*
X39638046Y-20485801D01*
X39639852Y-20504139D01*
X39639852Y-20991860D01*
X39638263Y-21007999D01*
X39635348Y-21017608D01*
X39630610Y-21026472D01*
X39624237Y-21034237D01*
X39621096Y-21036815D01*
X39611794Y-21044448D01*
X39601425Y-21051378D01*
X39584098Y-21068705D01*
X39570485Y-21089080D01*
X39561109Y-21111720D01*
X39556329Y-21135753D01*
X39556330Y-21160257D01*
X39561112Y-21184290D01*
X39570490Y-21206929D01*
X39584105Y-21227302D01*
X39601432Y-21244629D01*
X39611802Y-21251558D01*
X39624237Y-21261763D01*
X39630610Y-21269528D01*
X39635348Y-21278392D01*
X39638263Y-21288001D01*
X39639852Y-21304140D01*
X39639852Y-21791862D01*
X39638046Y-21810199D01*
X39637444Y-21822450D01*
X39637444Y-21840869D01*
X39635250Y-21863149D01*
X39618524Y-21947233D01*
X39612024Y-21968660D01*
X39579220Y-22047858D01*
X39576309Y-22053303D01*
X39576307Y-22053309D01*
X39571571Y-22062169D01*
X39571568Y-22062173D01*
X39568660Y-22067614D01*
X39521029Y-22138899D01*
X39506828Y-22156204D01*
X39446204Y-22216828D01*
X39428899Y-22231029D01*
X39357614Y-22278660D01*
X39352173Y-22281568D01*
X39352169Y-22281571D01*
X39343309Y-22286307D01*
X39343303Y-22286309D01*
X39337858Y-22289220D01*
X39258660Y-22322024D01*
X39237233Y-22328524D01*
X39153149Y-22345250D01*
X39130869Y-22347444D01*
X39112450Y-22347444D01*
X39100199Y-22348046D01*
X39081862Y-22349852D01*
X38594138Y-22349852D01*
X38575801Y-22348046D01*
X38563550Y-22347444D01*
X38545131Y-22347444D01*
X38522851Y-22345250D01*
X38438767Y-22328524D01*
X38417340Y-22322024D01*
X38338142Y-22289220D01*
X38332697Y-22286309D01*
X38332691Y-22286307D01*
X38323831Y-22281571D01*
X38323827Y-22281568D01*
X38318386Y-22278660D01*
X38247101Y-22231029D01*
X38229796Y-22216828D01*
X38169172Y-22156204D01*
X38154971Y-22138899D01*
X38107340Y-22067614D01*
X38104432Y-22062173D01*
X38104429Y-22062169D01*
X38099693Y-22053309D01*
X38099691Y-22053303D01*
X38096780Y-22047858D01*
X38063976Y-21968660D01*
X38057476Y-21947233D01*
X38040750Y-21863149D01*
X38038556Y-21840869D01*
X38038556Y-21822450D01*
X38037954Y-21810199D01*
X38036148Y-21791862D01*
X38036148Y-21304140D01*
X38037737Y-21288001D01*
X38040652Y-21278392D01*
X38045390Y-21269528D01*
X38051763Y-21261763D01*
X38064206Y-21251552D01*
X38074575Y-21244622D01*
X38091902Y-21227295D01*
X38105515Y-21206920D01*
X38114891Y-21184280D01*
X38119671Y-21160247D01*
X38119670Y-21135743D01*
X38114888Y-21111710D01*
X38105510Y-21089071D01*
X38091895Y-21068698D01*
X38074568Y-21051371D01*
X38064198Y-21044442D01*
X38051763Y-21034237D01*
X38045390Y-21026472D01*
X38040652Y-21017608D01*
X38037737Y-21007999D01*
X38036148Y-20991860D01*
X38036148Y-20504139D01*
X38037954Y-20485801D01*
X38038556Y-20473550D01*
X38038556Y-20455131D01*
X38040750Y-20432851D01*
X38057476Y-20348767D01*
X38063976Y-20327340D01*
X38096780Y-20248142D01*
X38099691Y-20242697D01*
X38099693Y-20242691D01*
X38104429Y-20233831D01*
X38104432Y-20233827D01*
X38107340Y-20228386D01*
X38154971Y-20157101D01*
X38169172Y-20139796D01*
X38229796Y-20079172D01*
X38247101Y-20064971D01*
X38318386Y-20017340D01*
X38323827Y-20014432D01*
X38323831Y-20014429D01*
X38332691Y-20009693D01*
X38332697Y-20009691D01*
X38338142Y-20006780D01*
X38417340Y-19973976D01*
X38438767Y-19967476D01*
X38522851Y-19950750D01*
X38545131Y-19948556D01*
X38563550Y-19948556D01*
X38575801Y-19947954D01*
X38594139Y-19946148D01*
X39081861Y-19946148D01*
X39100199Y-19947954D01*
G37*
G36*
X36600199Y-19847954D02*
G01*
X36612450Y-19848556D01*
X36630869Y-19848556D01*
X36653149Y-19850750D01*
X36737233Y-19867476D01*
X36758660Y-19873976D01*
X36837858Y-19906780D01*
X36843303Y-19909691D01*
X36843309Y-19909693D01*
X36852169Y-19914429D01*
X36852173Y-19914432D01*
X36857614Y-19917340D01*
X36928899Y-19964971D01*
X36946204Y-19979172D01*
X37006828Y-20039796D01*
X37021029Y-20057101D01*
X37068660Y-20128386D01*
X37071568Y-20133827D01*
X37071571Y-20133831D01*
X37076307Y-20142691D01*
X37076309Y-20142697D01*
X37079220Y-20148142D01*
X37112024Y-20227340D01*
X37118524Y-20248767D01*
X37135250Y-20332851D01*
X37137444Y-20355131D01*
X37137444Y-20373550D01*
X37138046Y-20385801D01*
X37139852Y-20404139D01*
X37139852Y-20891860D01*
X37138263Y-20907999D01*
X37135348Y-20917608D01*
X37130610Y-20926472D01*
X37124237Y-20934237D01*
X37111794Y-20944448D01*
X37101425Y-20951378D01*
X37084098Y-20968705D01*
X37070485Y-20989080D01*
X37061109Y-21011720D01*
X37056329Y-21035753D01*
X37056330Y-21060257D01*
X37061112Y-21084290D01*
X37070490Y-21106929D01*
X37084105Y-21127302D01*
X37101432Y-21144629D01*
X37111802Y-21151558D01*
X37124237Y-21161763D01*
X37130610Y-21169528D01*
X37135348Y-21178392D01*
X37138263Y-21188001D01*
X37139852Y-21204140D01*
X37139852Y-21691862D01*
X37138046Y-21710199D01*
X37137444Y-21722450D01*
X37137444Y-21740869D01*
X37135250Y-21763149D01*
X37118524Y-21847233D01*
X37112024Y-21868660D01*
X37079220Y-21947858D01*
X37076309Y-21953303D01*
X37076307Y-21953309D01*
X37071571Y-21962169D01*
X37071568Y-21962173D01*
X37068660Y-21967614D01*
X37021029Y-22038899D01*
X37006828Y-22056204D01*
X36946204Y-22116828D01*
X36928899Y-22131029D01*
X36857614Y-22178660D01*
X36852173Y-22181568D01*
X36852169Y-22181571D01*
X36843309Y-22186307D01*
X36843303Y-22186309D01*
X36837858Y-22189220D01*
X36758660Y-22222024D01*
X36737233Y-22228524D01*
X36653149Y-22245250D01*
X36630869Y-22247444D01*
X36612450Y-22247444D01*
X36600199Y-22248046D01*
X36581862Y-22249852D01*
X36094138Y-22249852D01*
X36075801Y-22248046D01*
X36063550Y-22247444D01*
X36045131Y-22247444D01*
X36022851Y-22245250D01*
X35938767Y-22228524D01*
X35917340Y-22222024D01*
X35838142Y-22189220D01*
X35832697Y-22186309D01*
X35832691Y-22186307D01*
X35823831Y-22181571D01*
X35823827Y-22181568D01*
X35818386Y-22178660D01*
X35747101Y-22131029D01*
X35729796Y-22116828D01*
X35669172Y-22056204D01*
X35654971Y-22038899D01*
X35607340Y-21967614D01*
X35604432Y-21962173D01*
X35604429Y-21962169D01*
X35599693Y-21953309D01*
X35599691Y-21953303D01*
X35596780Y-21947858D01*
X35563976Y-21868660D01*
X35557476Y-21847233D01*
X35540750Y-21763149D01*
X35538556Y-21740869D01*
X35538556Y-21722450D01*
X35537954Y-21710199D01*
X35536148Y-21691862D01*
X35536148Y-21204140D01*
X35537737Y-21188001D01*
X35540652Y-21178392D01*
X35545390Y-21169528D01*
X35551763Y-21161763D01*
X35564206Y-21151552D01*
X35574575Y-21144622D01*
X35591902Y-21127295D01*
X35605515Y-21106920D01*
X35614891Y-21084280D01*
X35619671Y-21060247D01*
X35619670Y-21035743D01*
X35614888Y-21011710D01*
X35605510Y-20989071D01*
X35591895Y-20968698D01*
X35574568Y-20951371D01*
X35564198Y-20944442D01*
X35551763Y-20934237D01*
X35545390Y-20926472D01*
X35540652Y-20917608D01*
X35537737Y-20907999D01*
X35536148Y-20891860D01*
X35536148Y-20404139D01*
X35537954Y-20385801D01*
X35538556Y-20373550D01*
X35538556Y-20355131D01*
X35540750Y-20332851D01*
X35557476Y-20248767D01*
X35563976Y-20227340D01*
X35596780Y-20148142D01*
X35599691Y-20142697D01*
X35599693Y-20142691D01*
X35604429Y-20133831D01*
X35604432Y-20133827D01*
X35607340Y-20128386D01*
X35654971Y-20057101D01*
X35669172Y-20039796D01*
X35729796Y-19979172D01*
X35747101Y-19964971D01*
X35818386Y-19917340D01*
X35823827Y-19914432D01*
X35823831Y-19914429D01*
X35832691Y-19909693D01*
X35832697Y-19909691D01*
X35838142Y-19906780D01*
X35917340Y-19873976D01*
X35938767Y-19867476D01*
X36022851Y-19850750D01*
X36045131Y-19848556D01*
X36063550Y-19848556D01*
X36075801Y-19847954D01*
X36094139Y-19846148D01*
X36581861Y-19846148D01*
X36600199Y-19847954D01*
G37*
G36*
X26709928Y-21321764D02*
G01*
X26731009Y-21328160D01*
X26750445Y-21338548D01*
X26767476Y-21352524D01*
X26781452Y-21369555D01*
X26791840Y-21388991D01*
X26798236Y-21410072D01*
X26801000Y-21438140D01*
X26801000Y-21901860D01*
X26798236Y-21929928D01*
X26791840Y-21951009D01*
X26781452Y-21970445D01*
X26767476Y-21987476D01*
X26750445Y-22001452D01*
X26731009Y-22011840D01*
X26709928Y-22018236D01*
X26681860Y-22021000D01*
X24868140Y-22021000D01*
X24840072Y-22018236D01*
X24818991Y-22011840D01*
X24799555Y-22001452D01*
X24782524Y-21987476D01*
X24768548Y-21970445D01*
X24758160Y-21951009D01*
X24751764Y-21929928D01*
X24749000Y-21901860D01*
X24749000Y-21438140D01*
X24751764Y-21410072D01*
X24758160Y-21388991D01*
X24768548Y-21369555D01*
X24782524Y-21352524D01*
X24799555Y-21338548D01*
X24818991Y-21328160D01*
X24840072Y-21321764D01*
X24868140Y-21319000D01*
X26681860Y-21319000D01*
X26709928Y-21321764D01*
G37*
G36*
X21759928Y-21321764D02*
G01*
X21781009Y-21328160D01*
X21800445Y-21338548D01*
X21817476Y-21352524D01*
X21831452Y-21369555D01*
X21841840Y-21388991D01*
X21848236Y-21410072D01*
X21851000Y-21438140D01*
X21851000Y-21901860D01*
X21848236Y-21929928D01*
X21841840Y-21951009D01*
X21831452Y-21970445D01*
X21817476Y-21987476D01*
X21800445Y-22001452D01*
X21781009Y-22011840D01*
X21759928Y-22018236D01*
X21731860Y-22021000D01*
X19918140Y-22021000D01*
X19890072Y-22018236D01*
X19868991Y-22011840D01*
X19849555Y-22001452D01*
X19832524Y-21987476D01*
X19818548Y-21970445D01*
X19808160Y-21951009D01*
X19801764Y-21929928D01*
X19799000Y-21901860D01*
X19799000Y-21438140D01*
X19801764Y-21410072D01*
X19808160Y-21388991D01*
X19818548Y-21369555D01*
X19832524Y-21352524D01*
X19849555Y-21338548D01*
X19868991Y-21328160D01*
X19890072Y-21321764D01*
X19918140Y-21319000D01*
X21731860Y-21319000D01*
X21759928Y-21321764D01*
G37*
G36*
X9959928Y-20786764D02*
G01*
X9981009Y-20793160D01*
X10000445Y-20803548D01*
X10017476Y-20817524D01*
X10031452Y-20834555D01*
X10041840Y-20853991D01*
X10048236Y-20875072D01*
X10051000Y-20903140D01*
X10051000Y-21366860D01*
X10048236Y-21394928D01*
X10041840Y-21416009D01*
X10031452Y-21435445D01*
X10017476Y-21452476D01*
X10000445Y-21466452D01*
X9981009Y-21476840D01*
X9959928Y-21483236D01*
X9931860Y-21486000D01*
X8118140Y-21486000D01*
X8090072Y-21483236D01*
X8068991Y-21476840D01*
X8049555Y-21466452D01*
X8032524Y-21452476D01*
X8018548Y-21435445D01*
X8008160Y-21416009D01*
X8001764Y-21394928D01*
X7999000Y-21366860D01*
X7999000Y-20903140D01*
X8001764Y-20875072D01*
X8008160Y-20853991D01*
X8018548Y-20834555D01*
X8032524Y-20817524D01*
X8049555Y-20803548D01*
X8068991Y-20793160D01*
X8090072Y-20786764D01*
X8118140Y-20784000D01*
X9931860Y-20784000D01*
X9959928Y-20786764D01*
G37*
G36*
X14909928Y-20786764D02*
G01*
X14931009Y-20793160D01*
X14950445Y-20803548D01*
X14967476Y-20817524D01*
X14981452Y-20834555D01*
X14991840Y-20853991D01*
X14998236Y-20875072D01*
X15001000Y-20903140D01*
X15001000Y-21366860D01*
X14998236Y-21394928D01*
X14991840Y-21416009D01*
X14981452Y-21435445D01*
X14967476Y-21452476D01*
X14950445Y-21466452D01*
X14931009Y-21476840D01*
X14909928Y-21483236D01*
X14881860Y-21486000D01*
X13068140Y-21486000D01*
X13040072Y-21483236D01*
X13018991Y-21476840D01*
X12999555Y-21466452D01*
X12982524Y-21452476D01*
X12968548Y-21435445D01*
X12958160Y-21416009D01*
X12951764Y-21394928D01*
X12949000Y-21366860D01*
X12949000Y-20903140D01*
X12951764Y-20875072D01*
X12958160Y-20853991D01*
X12968548Y-20834555D01*
X12982524Y-20817524D01*
X12999555Y-20803548D01*
X13018991Y-20793160D01*
X13040072Y-20786764D01*
X13068140Y-20784000D01*
X14881860Y-20784000D01*
X14909928Y-20786764D01*
G37*
G36*
X1113512Y-19343927D02*
G01*
X1262812Y-19373624D01*
X1426784Y-19441544D01*
X1574354Y-19540147D01*
X1699853Y-19665646D01*
X1798456Y-19813216D01*
X1866376Y-19977188D01*
X1890884Y-20100403D01*
X1901000Y-20151258D01*
X1901000Y-20328742D01*
X1900104Y-20333247D01*
X1866376Y-20502812D01*
X1798456Y-20666784D01*
X1699853Y-20814354D01*
X1574354Y-20939853D01*
X1426784Y-21038456D01*
X1262812Y-21106376D01*
X1115170Y-21135743D01*
X1088742Y-21141000D01*
X911258Y-21141000D01*
X884830Y-21135743D01*
X737188Y-21106376D01*
X573216Y-21038456D01*
X425646Y-20939853D01*
X300147Y-20814354D01*
X201544Y-20666784D01*
X133624Y-20502812D01*
X99896Y-20333247D01*
X99000Y-20328742D01*
X99000Y-20151258D01*
X109116Y-20100403D01*
X133624Y-19977188D01*
X201544Y-19813216D01*
X300147Y-19665646D01*
X425646Y-19540147D01*
X573216Y-19441544D01*
X737188Y-19373624D01*
X886488Y-19343927D01*
X911258Y-19339000D01*
X1088742Y-19339000D01*
X1113512Y-19343927D01*
G37*
G36*
X3653512Y-19343927D02*
G01*
X3802812Y-19373624D01*
X3966784Y-19441544D01*
X4114354Y-19540147D01*
X4239853Y-19665646D01*
X4338456Y-19813216D01*
X4406376Y-19977188D01*
X4430884Y-20100403D01*
X4441000Y-20151258D01*
X4441000Y-20328742D01*
X4440104Y-20333247D01*
X4406376Y-20502812D01*
X4338456Y-20666784D01*
X4239853Y-20814354D01*
X4114354Y-20939853D01*
X3966784Y-21038456D01*
X3802812Y-21106376D01*
X3655170Y-21135743D01*
X3628742Y-21141000D01*
X3451258Y-21141000D01*
X3424830Y-21135743D01*
X3277188Y-21106376D01*
X3113216Y-21038456D01*
X2965646Y-20939853D01*
X2840147Y-20814354D01*
X2741544Y-20666784D01*
X2673624Y-20502812D01*
X2639896Y-20333247D01*
X2639000Y-20328742D01*
X2639000Y-20151258D01*
X2649116Y-20100403D01*
X2673624Y-19977188D01*
X2741544Y-19813216D01*
X2840147Y-19665646D01*
X2965646Y-19540147D01*
X3113216Y-19441544D01*
X3277188Y-19373624D01*
X3426488Y-19343927D01*
X3451258Y-19339000D01*
X3628742Y-19339000D01*
X3653512Y-19343927D01*
G37*
G36*
X32619162Y-19601644D02*
G01*
X32658608Y-19613610D01*
X32694953Y-19633037D01*
X32726815Y-19659185D01*
X32752963Y-19691047D01*
X32772390Y-19727392D01*
X32784356Y-19766838D01*
X32789000Y-19813993D01*
X32789000Y-20882007D01*
X32784356Y-20929162D01*
X32772390Y-20968608D01*
X32752963Y-21004953D01*
X32726815Y-21036815D01*
X32694953Y-21062963D01*
X32658608Y-21082390D01*
X32619162Y-21094356D01*
X32572007Y-21099000D01*
X31878993Y-21099000D01*
X31831838Y-21094356D01*
X31792392Y-21082390D01*
X31756047Y-21062963D01*
X31724185Y-21036815D01*
X31698037Y-21004953D01*
X31678610Y-20968608D01*
X31666644Y-20929162D01*
X31662000Y-20882007D01*
X31662000Y-19813993D01*
X31666644Y-19766838D01*
X31678610Y-19727392D01*
X31698037Y-19691047D01*
X31724185Y-19659185D01*
X31756047Y-19633037D01*
X31792392Y-19613610D01*
X31831838Y-19601644D01*
X31878993Y-19597000D01*
X32572007Y-19597000D01*
X32619162Y-19601644D01*
G37*
G36*
X34444162Y-19601644D02*
G01*
X34483608Y-19613610D01*
X34519953Y-19633037D01*
X34551815Y-19659185D01*
X34577963Y-19691047D01*
X34597390Y-19727392D01*
X34609356Y-19766838D01*
X34614000Y-19813993D01*
X34614000Y-20882007D01*
X34609356Y-20929162D01*
X34597390Y-20968608D01*
X34577963Y-21004953D01*
X34551815Y-21036815D01*
X34519953Y-21062963D01*
X34483608Y-21082390D01*
X34444162Y-21094356D01*
X34397007Y-21099000D01*
X33703993Y-21099000D01*
X33656838Y-21094356D01*
X33617392Y-21082390D01*
X33581047Y-21062963D01*
X33549185Y-21036815D01*
X33523037Y-21004953D01*
X33503610Y-20968608D01*
X33491644Y-20929162D01*
X33487000Y-20882007D01*
X33487000Y-19813993D01*
X33491644Y-19766838D01*
X33503610Y-19727392D01*
X33523037Y-19691047D01*
X33549185Y-19659185D01*
X33581047Y-19633037D01*
X33617392Y-19613610D01*
X33656838Y-19601644D01*
X33703993Y-19597000D01*
X34397007Y-19597000D01*
X34444162Y-19601644D01*
G37*
G36*
X21759928Y-20051764D02*
G01*
X21781009Y-20058160D01*
X21800445Y-20068548D01*
X21817476Y-20082524D01*
X21831452Y-20099555D01*
X21841840Y-20118991D01*
X21848236Y-20140072D01*
X21851000Y-20168140D01*
X21851000Y-20631860D01*
X21848236Y-20659928D01*
X21841840Y-20681009D01*
X21831452Y-20700445D01*
X21817476Y-20717476D01*
X21800445Y-20731452D01*
X21781009Y-20741840D01*
X21759928Y-20748236D01*
X21731860Y-20751000D01*
X19918140Y-20751000D01*
X19890072Y-20748236D01*
X19868991Y-20741840D01*
X19849555Y-20731452D01*
X19832524Y-20717476D01*
X19818548Y-20700445D01*
X19808160Y-20681009D01*
X19801764Y-20659928D01*
X19799000Y-20631860D01*
X19799000Y-20168140D01*
X19801764Y-20140072D01*
X19808160Y-20118991D01*
X19818548Y-20099555D01*
X19832524Y-20082524D01*
X19849555Y-20068548D01*
X19868991Y-20058160D01*
X19890072Y-20051764D01*
X19918140Y-20049000D01*
X21731860Y-20049000D01*
X21759928Y-20051764D01*
G37*
G36*
X26709928Y-20051764D02*
G01*
X26731009Y-20058160D01*
X26750445Y-20068548D01*
X26767476Y-20082524D01*
X26781452Y-20099555D01*
X26791840Y-20118991D01*
X26798236Y-20140072D01*
X26801000Y-20168140D01*
X26801000Y-20631860D01*
X26798236Y-20659928D01*
X26791840Y-20681009D01*
X26781452Y-20700445D01*
X26767476Y-20717476D01*
X26750445Y-20731452D01*
X26731009Y-20741840D01*
X26709928Y-20748236D01*
X26681860Y-20751000D01*
X24868140Y-20751000D01*
X24840072Y-20748236D01*
X24818991Y-20741840D01*
X24799555Y-20731452D01*
X24782524Y-20717476D01*
X24768548Y-20700445D01*
X24758160Y-20681009D01*
X24751764Y-20659928D01*
X24749000Y-20631860D01*
X24749000Y-20168140D01*
X24751764Y-20140072D01*
X24758160Y-20118991D01*
X24768548Y-20099555D01*
X24782524Y-20082524D01*
X24799555Y-20068548D01*
X24818991Y-20058160D01*
X24840072Y-20051764D01*
X24868140Y-20049000D01*
X26681860Y-20049000D01*
X26709928Y-20051764D01*
G37*
G36*
X57611000Y-20631000D02*
G01*
X54009000Y-20631000D01*
X54009000Y-18829000D01*
X57611000Y-18829000D01*
X57611000Y-20631000D01*
G37*
G36*
X77191000Y-20631000D02*
G01*
X73589000Y-20631000D01*
X73589000Y-18829000D01*
X77191000Y-18829000D01*
X77191000Y-20631000D01*
G37*
G36*
X14909928Y-19516764D02*
G01*
X14931009Y-19523160D01*
X14950445Y-19533548D01*
X14967476Y-19547524D01*
X14981452Y-19564555D01*
X14991840Y-19583991D01*
X14998236Y-19605072D01*
X15001000Y-19633140D01*
X15001000Y-20096860D01*
X14998236Y-20124928D01*
X14991840Y-20146009D01*
X14981452Y-20165445D01*
X14967476Y-20182476D01*
X14950445Y-20196452D01*
X14931009Y-20206840D01*
X14909928Y-20213236D01*
X14881860Y-20216000D01*
X13068140Y-20216000D01*
X13040072Y-20213236D01*
X13018991Y-20206840D01*
X12999555Y-20196452D01*
X12982524Y-20182476D01*
X12968548Y-20165445D01*
X12958160Y-20146009D01*
X12951764Y-20124928D01*
X12949000Y-20096860D01*
X12949000Y-19633140D01*
X12951764Y-19605072D01*
X12958160Y-19583991D01*
X12968548Y-19564555D01*
X12982524Y-19547524D01*
X12999555Y-19533548D01*
X13018991Y-19523160D01*
X13040072Y-19516764D01*
X13068140Y-19514000D01*
X14881860Y-19514000D01*
X14909928Y-19516764D01*
G37*
G36*
X9959928Y-19516764D02*
G01*
X9981009Y-19523160D01*
X10000445Y-19533548D01*
X10017476Y-19547524D01*
X10031452Y-19564555D01*
X10041840Y-19583991D01*
X10048236Y-19605072D01*
X10051000Y-19633140D01*
X10051000Y-20096860D01*
X10048236Y-20124928D01*
X10041840Y-20146009D01*
X10031452Y-20165445D01*
X10017476Y-20182476D01*
X10000445Y-20196452D01*
X9981009Y-20206840D01*
X9959928Y-20213236D01*
X9931860Y-20216000D01*
X8118140Y-20216000D01*
X8090072Y-20213236D01*
X8068991Y-20206840D01*
X8049555Y-20196452D01*
X8032524Y-20182476D01*
X8018548Y-20165445D01*
X8008160Y-20146009D01*
X8001764Y-20124928D01*
X7999000Y-20096860D01*
X7999000Y-19633140D01*
X8001764Y-19605072D01*
X8008160Y-19583991D01*
X8018548Y-19564555D01*
X8032524Y-19547524D01*
X8049555Y-19533548D01*
X8068991Y-19523160D01*
X8090072Y-19516764D01*
X8118140Y-19514000D01*
X9931860Y-19514000D01*
X9959928Y-19516764D01*
G37*
G36*
X26709928Y-18781764D02*
G01*
X26731009Y-18788160D01*
X26750445Y-18798548D01*
X26767476Y-18812524D01*
X26781452Y-18829555D01*
X26791840Y-18848991D01*
X26798236Y-18870072D01*
X26801000Y-18898140D01*
X26801000Y-19361860D01*
X26798236Y-19389928D01*
X26791840Y-19411009D01*
X26781452Y-19430445D01*
X26767476Y-19447476D01*
X26750445Y-19461452D01*
X26731009Y-19471840D01*
X26709928Y-19478236D01*
X26681860Y-19481000D01*
X24868140Y-19481000D01*
X24840072Y-19478236D01*
X24818991Y-19471840D01*
X24799555Y-19461452D01*
X24782524Y-19447476D01*
X24768548Y-19430445D01*
X24758160Y-19411009D01*
X24751764Y-19389928D01*
X24749000Y-19361860D01*
X24749000Y-18898140D01*
X24751764Y-18870072D01*
X24758160Y-18848991D01*
X24768548Y-18829555D01*
X24782524Y-18812524D01*
X24799555Y-18798548D01*
X24818991Y-18788160D01*
X24840072Y-18781764D01*
X24868140Y-18779000D01*
X26681860Y-18779000D01*
X26709928Y-18781764D01*
G37*
G36*
X21759928Y-18781764D02*
G01*
X21781009Y-18788160D01*
X21800445Y-18798548D01*
X21817476Y-18812524D01*
X21831452Y-18829555D01*
X21841840Y-18848991D01*
X21848236Y-18870072D01*
X21851000Y-18898140D01*
X21851000Y-19361860D01*
X21848236Y-19389928D01*
X21841840Y-19411009D01*
X21831452Y-19430445D01*
X21817476Y-19447476D01*
X21800445Y-19461452D01*
X21781009Y-19471840D01*
X21759928Y-19478236D01*
X21731860Y-19481000D01*
X19918140Y-19481000D01*
X19890072Y-19478236D01*
X19868991Y-19471840D01*
X19849555Y-19461452D01*
X19832524Y-19447476D01*
X19818548Y-19430445D01*
X19808160Y-19411009D01*
X19801764Y-19389928D01*
X19799000Y-19361860D01*
X19799000Y-18898140D01*
X19801764Y-18870072D01*
X19808160Y-18848991D01*
X19818548Y-18829555D01*
X19832524Y-18812524D01*
X19849555Y-18798548D01*
X19868991Y-18788160D01*
X19890072Y-18781764D01*
X19918140Y-18779000D01*
X21731860Y-18779000D01*
X21759928Y-18781764D01*
G37*
G36*
X9959928Y-18246764D02*
G01*
X9981009Y-18253160D01*
X10000445Y-18263548D01*
X10017476Y-18277524D01*
X10031452Y-18294555D01*
X10041840Y-18313991D01*
X10048236Y-18335072D01*
X10051000Y-18363140D01*
X10051000Y-18826860D01*
X10048236Y-18854928D01*
X10041840Y-18876009D01*
X10031452Y-18895445D01*
X10017476Y-18912476D01*
X10000445Y-18926452D01*
X9981009Y-18936840D01*
X9959928Y-18943236D01*
X9931860Y-18946000D01*
X8118140Y-18946000D01*
X8090072Y-18943236D01*
X8068991Y-18936840D01*
X8049555Y-18926452D01*
X8032524Y-18912476D01*
X8018548Y-18895445D01*
X8008160Y-18876009D01*
X8001764Y-18854928D01*
X7999000Y-18826860D01*
X7999000Y-18363140D01*
X8001764Y-18335072D01*
X8008160Y-18313991D01*
X8018548Y-18294555D01*
X8032524Y-18277524D01*
X8049555Y-18263548D01*
X8068991Y-18253160D01*
X8090072Y-18246764D01*
X8118140Y-18244000D01*
X9931860Y-18244000D01*
X9959928Y-18246764D01*
G37*
G36*
X14909928Y-18246764D02*
G01*
X14931009Y-18253160D01*
X14950445Y-18263548D01*
X14967476Y-18277524D01*
X14981452Y-18294555D01*
X14991840Y-18313991D01*
X14998236Y-18335072D01*
X15001000Y-18363140D01*
X15001000Y-18826860D01*
X14998236Y-18854928D01*
X14991840Y-18876009D01*
X14981452Y-18895445D01*
X14967476Y-18912476D01*
X14950445Y-18926452D01*
X14931009Y-18936840D01*
X14909928Y-18943236D01*
X14881860Y-18946000D01*
X13068140Y-18946000D01*
X13040072Y-18943236D01*
X13018991Y-18936840D01*
X12999555Y-18926452D01*
X12982524Y-18912476D01*
X12968548Y-18895445D01*
X12958160Y-18876009D01*
X12951764Y-18854928D01*
X12949000Y-18826860D01*
X12949000Y-18363140D01*
X12951764Y-18335072D01*
X12958160Y-18313991D01*
X12968548Y-18294555D01*
X12982524Y-18277524D01*
X12999555Y-18263548D01*
X13018991Y-18253160D01*
X13040072Y-18246764D01*
X13068140Y-18244000D01*
X14881860Y-18244000D01*
X14909928Y-18246764D01*
G37*
G36*
X1113512Y-16803927D02*
G01*
X1262812Y-16833624D01*
X1426784Y-16901544D01*
X1574354Y-17000147D01*
X1699853Y-17125646D01*
X1798456Y-17273216D01*
X1866376Y-17437188D01*
X1901000Y-17611259D01*
X1901000Y-17788741D01*
X1866376Y-17962812D01*
X1798456Y-18126784D01*
X1699853Y-18274354D01*
X1574354Y-18399853D01*
X1426784Y-18498456D01*
X1262812Y-18566376D01*
X1113512Y-18596073D01*
X1088742Y-18601000D01*
X911258Y-18601000D01*
X886488Y-18596073D01*
X737188Y-18566376D01*
X573216Y-18498456D01*
X425646Y-18399853D01*
X300147Y-18274354D01*
X201544Y-18126784D01*
X133624Y-17962812D01*
X99000Y-17788741D01*
X99000Y-17611259D01*
X133624Y-17437188D01*
X201544Y-17273216D01*
X300147Y-17125646D01*
X425646Y-17000147D01*
X573216Y-16901544D01*
X737188Y-16833624D01*
X886488Y-16803927D01*
X911258Y-16799000D01*
X1088742Y-16799000D01*
X1113512Y-16803927D01*
G37*
G36*
X3653512Y-16803927D02*
G01*
X3802812Y-16833624D01*
X3966784Y-16901544D01*
X4114354Y-17000147D01*
X4239853Y-17125646D01*
X4338456Y-17273216D01*
X4406376Y-17437188D01*
X4441000Y-17611259D01*
X4441000Y-17788741D01*
X4406376Y-17962812D01*
X4338456Y-18126784D01*
X4239853Y-18274354D01*
X4114354Y-18399853D01*
X3966784Y-18498456D01*
X3802812Y-18566376D01*
X3653512Y-18596073D01*
X3628742Y-18601000D01*
X3451258Y-18601000D01*
X3426488Y-18596073D01*
X3277188Y-18566376D01*
X3113216Y-18498456D01*
X2965646Y-18399853D01*
X2840147Y-18274354D01*
X2741544Y-18126784D01*
X2673624Y-17962812D01*
X2639000Y-17788741D01*
X2639000Y-17611259D01*
X2673624Y-17437188D01*
X2741544Y-17273216D01*
X2840147Y-17125646D01*
X2965646Y-17000147D01*
X3113216Y-16901544D01*
X3277188Y-16833624D01*
X3426488Y-16803927D01*
X3451258Y-16799000D01*
X3628742Y-16799000D01*
X3653512Y-16803927D01*
G37*
G36*
X21759928Y-17511764D02*
G01*
X21781009Y-17518160D01*
X21800445Y-17528548D01*
X21817476Y-17542524D01*
X21831452Y-17559555D01*
X21841840Y-17578991D01*
X21848236Y-17600072D01*
X21851000Y-17628140D01*
X21851000Y-18091860D01*
X21848236Y-18119928D01*
X21841840Y-18141009D01*
X21831452Y-18160445D01*
X21817476Y-18177476D01*
X21800445Y-18191452D01*
X21781009Y-18201840D01*
X21759928Y-18208236D01*
X21731860Y-18211000D01*
X19918140Y-18211000D01*
X19890072Y-18208236D01*
X19868991Y-18201840D01*
X19849555Y-18191452D01*
X19832524Y-18177476D01*
X19818548Y-18160445D01*
X19808160Y-18141009D01*
X19801764Y-18119928D01*
X19799000Y-18091860D01*
X19799000Y-17628140D01*
X19801764Y-17600072D01*
X19808160Y-17578991D01*
X19818548Y-17559555D01*
X19832524Y-17542524D01*
X19849555Y-17528548D01*
X19868991Y-17518160D01*
X19890072Y-17511764D01*
X19918140Y-17509000D01*
X21731860Y-17509000D01*
X21759928Y-17511764D01*
G37*
G36*
X26709928Y-17511764D02*
G01*
X26731009Y-17518160D01*
X26750445Y-17528548D01*
X26767476Y-17542524D01*
X26781452Y-17559555D01*
X26791840Y-17578991D01*
X26798236Y-17600072D01*
X26801000Y-17628140D01*
X26801000Y-18091860D01*
X26798236Y-18119928D01*
X26791840Y-18141009D01*
X26781452Y-18160445D01*
X26767476Y-18177476D01*
X26750445Y-18191452D01*
X26731009Y-18201840D01*
X26709928Y-18208236D01*
X26681860Y-18211000D01*
X24868140Y-18211000D01*
X24840072Y-18208236D01*
X24818991Y-18201840D01*
X24799555Y-18191452D01*
X24782524Y-18177476D01*
X24768548Y-18160445D01*
X24758160Y-18141009D01*
X24751764Y-18119928D01*
X24749000Y-18091860D01*
X24749000Y-17628140D01*
X24751764Y-17600072D01*
X24758160Y-17578991D01*
X24768548Y-17559555D01*
X24782524Y-17542524D01*
X24799555Y-17528548D01*
X24818991Y-17518160D01*
X24840072Y-17511764D01*
X24868140Y-17509000D01*
X26681860Y-17509000D01*
X26709928Y-17511764D01*
G37*
G36*
X57611000Y-18091000D02*
G01*
X54009000Y-18091000D01*
X54009000Y-16289000D01*
X57611000Y-16289000D01*
X57611000Y-18091000D01*
G37*
G36*
X77191000Y-18091000D02*
G01*
X73589000Y-18091000D01*
X73589000Y-16289000D01*
X77191000Y-16289000D01*
X77191000Y-18091000D01*
G37*
G36*
X14909928Y-16976764D02*
G01*
X14931009Y-16983160D01*
X14950445Y-16993548D01*
X14967476Y-17007524D01*
X14981452Y-17024555D01*
X14991840Y-17043991D01*
X14998236Y-17065072D01*
X15001000Y-17093140D01*
X15001000Y-17556860D01*
X14998236Y-17584928D01*
X14991840Y-17606009D01*
X14981452Y-17625445D01*
X14967476Y-17642476D01*
X14950445Y-17656452D01*
X14931009Y-17666840D01*
X14909928Y-17673236D01*
X14881860Y-17676000D01*
X13068140Y-17676000D01*
X13040072Y-17673236D01*
X13018991Y-17666840D01*
X12999555Y-17656452D01*
X12982524Y-17642476D01*
X12968548Y-17625445D01*
X12958160Y-17606009D01*
X12951764Y-17584928D01*
X12949000Y-17556860D01*
X12949000Y-17093140D01*
X12951764Y-17065072D01*
X12958160Y-17043991D01*
X12968548Y-17024555D01*
X12982524Y-17007524D01*
X12999555Y-16993548D01*
X13018991Y-16983160D01*
X13040072Y-16976764D01*
X13068140Y-16974000D01*
X14881860Y-16974000D01*
X14909928Y-16976764D01*
G37*
G36*
X9959928Y-16976764D02*
G01*
X9981009Y-16983160D01*
X10000445Y-16993548D01*
X10017476Y-17007524D01*
X10031452Y-17024555D01*
X10041840Y-17043991D01*
X10048236Y-17065072D01*
X10051000Y-17093140D01*
X10051000Y-17556860D01*
X10048236Y-17584928D01*
X10041840Y-17606009D01*
X10031452Y-17625445D01*
X10017476Y-17642476D01*
X10000445Y-17656452D01*
X9981009Y-17666840D01*
X9959928Y-17673236D01*
X9931860Y-17676000D01*
X8118140Y-17676000D01*
X8090072Y-17673236D01*
X8068991Y-17666840D01*
X8049555Y-17656452D01*
X8032524Y-17642476D01*
X8018548Y-17625445D01*
X8008160Y-17606009D01*
X8001764Y-17584928D01*
X7999000Y-17556860D01*
X7999000Y-17093140D01*
X8001764Y-17065072D01*
X8008160Y-17043991D01*
X8018548Y-17024555D01*
X8032524Y-17007524D01*
X8049555Y-16993548D01*
X8068991Y-16983160D01*
X8090072Y-16976764D01*
X8118140Y-16974000D01*
X9931860Y-16974000D01*
X9959928Y-16976764D01*
G37*
G36*
X26709928Y-16241764D02*
G01*
X26731009Y-16248160D01*
X26750445Y-16258548D01*
X26767476Y-16272524D01*
X26781452Y-16289555D01*
X26791840Y-16308991D01*
X26798236Y-16330072D01*
X26801000Y-16358140D01*
X26801000Y-16821860D01*
X26798236Y-16849928D01*
X26791840Y-16871009D01*
X26781452Y-16890445D01*
X26767476Y-16907476D01*
X26750445Y-16921452D01*
X26731009Y-16931840D01*
X26709928Y-16938236D01*
X26681860Y-16941000D01*
X24868140Y-16941000D01*
X24840072Y-16938236D01*
X24818991Y-16931840D01*
X24799555Y-16921452D01*
X24782524Y-16907476D01*
X24768548Y-16890445D01*
X24758160Y-16871009D01*
X24751764Y-16849928D01*
X24749000Y-16821860D01*
X24749000Y-16358140D01*
X24751764Y-16330072D01*
X24758160Y-16308991D01*
X24768548Y-16289555D01*
X24782524Y-16272524D01*
X24799555Y-16258548D01*
X24818991Y-16248160D01*
X24840072Y-16241764D01*
X24868140Y-16239000D01*
X26681860Y-16239000D01*
X26709928Y-16241764D01*
G37*
G36*
X21759928Y-16241764D02*
G01*
X21781009Y-16248160D01*
X21800445Y-16258548D01*
X21817476Y-16272524D01*
X21831452Y-16289555D01*
X21841840Y-16308991D01*
X21848236Y-16330072D01*
X21851000Y-16358140D01*
X21851000Y-16821860D01*
X21848236Y-16849928D01*
X21841840Y-16871009D01*
X21831452Y-16890445D01*
X21817476Y-16907476D01*
X21800445Y-16921452D01*
X21781009Y-16931840D01*
X21759928Y-16938236D01*
X21731860Y-16941000D01*
X19918140Y-16941000D01*
X19890072Y-16938236D01*
X19868991Y-16931840D01*
X19849555Y-16921452D01*
X19832524Y-16907476D01*
X19818548Y-16890445D01*
X19808160Y-16871009D01*
X19801764Y-16849928D01*
X19799000Y-16821860D01*
X19799000Y-16358140D01*
X19801764Y-16330072D01*
X19808160Y-16308991D01*
X19818548Y-16289555D01*
X19832524Y-16272524D01*
X19849555Y-16258548D01*
X19868991Y-16248160D01*
X19890072Y-16241764D01*
X19918140Y-16239000D01*
X21731860Y-16239000D01*
X21759928Y-16241764D01*
G37*
G36*
X14909928Y-15706764D02*
G01*
X14931009Y-15713160D01*
X14950445Y-15723548D01*
X14967476Y-15737524D01*
X14981452Y-15754555D01*
X14991840Y-15773991D01*
X14998236Y-15795072D01*
X15001000Y-15823140D01*
X15001000Y-16286860D01*
X14998236Y-16314928D01*
X14991840Y-16336009D01*
X14981452Y-16355445D01*
X14967476Y-16372476D01*
X14950445Y-16386452D01*
X14931009Y-16396840D01*
X14909928Y-16403236D01*
X14881860Y-16406000D01*
X13068140Y-16406000D01*
X13040072Y-16403236D01*
X13018991Y-16396840D01*
X12999555Y-16386452D01*
X12982524Y-16372476D01*
X12968548Y-16355445D01*
X12958160Y-16336009D01*
X12951764Y-16314928D01*
X12949000Y-16286860D01*
X12949000Y-15823140D01*
X12951764Y-15795072D01*
X12958160Y-15773991D01*
X12968548Y-15754555D01*
X12982524Y-15737524D01*
X12999555Y-15723548D01*
X13018991Y-15713160D01*
X13040072Y-15706764D01*
X13068140Y-15704000D01*
X14881860Y-15704000D01*
X14909928Y-15706764D01*
G37*
G36*
X9959928Y-15706764D02*
G01*
X9981009Y-15713160D01*
X10000445Y-15723548D01*
X10017476Y-15737524D01*
X10031452Y-15754555D01*
X10041840Y-15773991D01*
X10048236Y-15795072D01*
X10051000Y-15823140D01*
X10051000Y-16286860D01*
X10048236Y-16314928D01*
X10041840Y-16336009D01*
X10031452Y-16355445D01*
X10017476Y-16372476D01*
X10000445Y-16386452D01*
X9981009Y-16396840D01*
X9959928Y-16403236D01*
X9931860Y-16406000D01*
X8118140Y-16406000D01*
X8090072Y-16403236D01*
X8068991Y-16396840D01*
X8049555Y-16386452D01*
X8032524Y-16372476D01*
X8018548Y-16355445D01*
X8008160Y-16336009D01*
X8001764Y-16314928D01*
X7999000Y-16286860D01*
X7999000Y-15823140D01*
X8001764Y-15795072D01*
X8008160Y-15773991D01*
X8018548Y-15754555D01*
X8032524Y-15737524D01*
X8049555Y-15723548D01*
X8068991Y-15713160D01*
X8090072Y-15706764D01*
X8118140Y-15704000D01*
X9931860Y-15704000D01*
X9959928Y-15706764D01*
G37*
G36*
X3653512Y-14263927D02*
G01*
X3802812Y-14293624D01*
X3966784Y-14361544D01*
X4114354Y-14460147D01*
X4239853Y-14585646D01*
X4338456Y-14733216D01*
X4406376Y-14897188D01*
X4441000Y-15071259D01*
X4441000Y-15248741D01*
X4406376Y-15422812D01*
X4338456Y-15586784D01*
X4239853Y-15734354D01*
X4114354Y-15859853D01*
X3966784Y-15958456D01*
X3802812Y-16026376D01*
X3653512Y-16056073D01*
X3628742Y-16061000D01*
X3451258Y-16061000D01*
X3426488Y-16056073D01*
X3277188Y-16026376D01*
X3113216Y-15958456D01*
X2965646Y-15859853D01*
X2840147Y-15734354D01*
X2741544Y-15586784D01*
X2673624Y-15422812D01*
X2639000Y-15248741D01*
X2639000Y-15071259D01*
X2673624Y-14897188D01*
X2741544Y-14733216D01*
X2840147Y-14585646D01*
X2965646Y-14460147D01*
X3113216Y-14361544D01*
X3277188Y-14293624D01*
X3426488Y-14263927D01*
X3451258Y-14259000D01*
X3628742Y-14259000D01*
X3653512Y-14263927D01*
G37*
G36*
X1113512Y-14263927D02*
G01*
X1262812Y-14293624D01*
X1426784Y-14361544D01*
X1574354Y-14460147D01*
X1699853Y-14585646D01*
X1798456Y-14733216D01*
X1866376Y-14897188D01*
X1901000Y-15071259D01*
X1901000Y-15248741D01*
X1866376Y-15422812D01*
X1798456Y-15586784D01*
X1699853Y-15734354D01*
X1574354Y-15859853D01*
X1426784Y-15958456D01*
X1262812Y-16026376D01*
X1113512Y-16056073D01*
X1088742Y-16061000D01*
X911258Y-16061000D01*
X886488Y-16056073D01*
X737188Y-16026376D01*
X573216Y-15958456D01*
X425646Y-15859853D01*
X300147Y-15734354D01*
X201544Y-15586784D01*
X133624Y-15422812D01*
X99000Y-15248741D01*
X99000Y-15071259D01*
X133624Y-14897188D01*
X201544Y-14733216D01*
X300147Y-14585646D01*
X425646Y-14460147D01*
X573216Y-14361544D01*
X737188Y-14293624D01*
X886488Y-14263927D01*
X911258Y-14259000D01*
X1088742Y-14259000D01*
X1113512Y-14263927D01*
G37*
G36*
X36431512Y-13951927D02*
G01*
X36580812Y-13981624D01*
X36744784Y-14049544D01*
X36892354Y-14148147D01*
X37017853Y-14273646D01*
X37116456Y-14421216D01*
X37184376Y-14585188D01*
X37219000Y-14759259D01*
X37219000Y-14936741D01*
X37184376Y-15110812D01*
X37116456Y-15274784D01*
X37017853Y-15422354D01*
X36892354Y-15547853D01*
X36744784Y-15646456D01*
X36580812Y-15714376D01*
X36431512Y-15744073D01*
X36406742Y-15749000D01*
X36229258Y-15749000D01*
X36204488Y-15744073D01*
X36055188Y-15714376D01*
X35891216Y-15646456D01*
X35743646Y-15547853D01*
X35618147Y-15422354D01*
X35519544Y-15274784D01*
X35451624Y-15110812D01*
X35417000Y-14936741D01*
X35417000Y-14759259D01*
X35451624Y-14585188D01*
X35519544Y-14421216D01*
X35618147Y-14273646D01*
X35743646Y-14148147D01*
X35891216Y-14049544D01*
X36055188Y-13981624D01*
X36204488Y-13951927D01*
X36229258Y-13947000D01*
X36406742Y-13947000D01*
X36431512Y-13951927D01*
G37*
G36*
X33891512Y-13951927D02*
G01*
X34040812Y-13981624D01*
X34204784Y-14049544D01*
X34352354Y-14148147D01*
X34477853Y-14273646D01*
X34576456Y-14421216D01*
X34644376Y-14585188D01*
X34679000Y-14759259D01*
X34679000Y-14936741D01*
X34644376Y-15110812D01*
X34576456Y-15274784D01*
X34477853Y-15422354D01*
X34352354Y-15547853D01*
X34204784Y-15646456D01*
X34040812Y-15714376D01*
X33891512Y-15744073D01*
X33866742Y-15749000D01*
X33689258Y-15749000D01*
X33664488Y-15744073D01*
X33515188Y-15714376D01*
X33351216Y-15646456D01*
X33203646Y-15547853D01*
X33078147Y-15422354D01*
X32979544Y-15274784D01*
X32911624Y-15110812D01*
X32877000Y-14936741D01*
X32877000Y-14759259D01*
X32911624Y-14585188D01*
X32979544Y-14421216D01*
X33078147Y-14273646D01*
X33203646Y-14148147D01*
X33351216Y-14049544D01*
X33515188Y-13981624D01*
X33664488Y-13951927D01*
X33689258Y-13947000D01*
X33866742Y-13947000D01*
X33891512Y-13951927D01*
G37*
G36*
X38971512Y-13951927D02*
G01*
X39120812Y-13981624D01*
X39284784Y-14049544D01*
X39432354Y-14148147D01*
X39557853Y-14273646D01*
X39656456Y-14421216D01*
X39724376Y-14585188D01*
X39759000Y-14759259D01*
X39759000Y-14936741D01*
X39724376Y-15110812D01*
X39656456Y-15274784D01*
X39557853Y-15422354D01*
X39432354Y-15547853D01*
X39284784Y-15646456D01*
X39120812Y-15714376D01*
X38971512Y-15744073D01*
X38946742Y-15749000D01*
X38769258Y-15749000D01*
X38744488Y-15744073D01*
X38595188Y-15714376D01*
X38431216Y-15646456D01*
X38283646Y-15547853D01*
X38158147Y-15422354D01*
X38059544Y-15274784D01*
X37991624Y-15110812D01*
X37957000Y-14936741D01*
X37957000Y-14759259D01*
X37991624Y-14585188D01*
X38059544Y-14421216D01*
X38158147Y-14273646D01*
X38283646Y-14148147D01*
X38431216Y-14049544D01*
X38595188Y-13981624D01*
X38744488Y-13951927D01*
X38769258Y-13947000D01*
X38946742Y-13947000D01*
X38971512Y-13951927D01*
G37*
G36*
X32139000Y-15749000D02*
G01*
X30337000Y-15749000D01*
X30337000Y-13947000D01*
X32139000Y-13947000D01*
X32139000Y-15749000D01*
G37*
G36*
X77191000Y-15551000D02*
G01*
X73589000Y-15551000D01*
X73589000Y-13749000D01*
X77191000Y-13749000D01*
X77191000Y-15551000D01*
G37*
G36*
X57611000Y-15551000D02*
G01*
X54009000Y-15551000D01*
X54009000Y-13749000D01*
X57611000Y-13749000D01*
X57611000Y-15551000D01*
G37*
G36*
X3653512Y-11723927D02*
G01*
X3802812Y-11753624D01*
X3966784Y-11821544D01*
X4114354Y-11920147D01*
X4239853Y-12045646D01*
X4338456Y-12193216D01*
X4406376Y-12357188D01*
X4441000Y-12531259D01*
X4441000Y-12708741D01*
X4406376Y-12882812D01*
X4338456Y-13046784D01*
X4239853Y-13194354D01*
X4114354Y-13319853D01*
X3966784Y-13418456D01*
X3802812Y-13486376D01*
X3653512Y-13516073D01*
X3628742Y-13521000D01*
X3451258Y-13521000D01*
X3426488Y-13516073D01*
X3277188Y-13486376D01*
X3113216Y-13418456D01*
X2965646Y-13319853D01*
X2840147Y-13194354D01*
X2741544Y-13046784D01*
X2673624Y-12882812D01*
X2639000Y-12708741D01*
X2639000Y-12531259D01*
X2673624Y-12357188D01*
X2741544Y-12193216D01*
X2840147Y-12045646D01*
X2965646Y-11920147D01*
X3113216Y-11821544D01*
X3277188Y-11753624D01*
X3426488Y-11723927D01*
X3451258Y-11719000D01*
X3628742Y-11719000D01*
X3653512Y-11723927D01*
G37*
G36*
X1113512Y-11723927D02*
G01*
X1262812Y-11753624D01*
X1426784Y-11821544D01*
X1574354Y-11920147D01*
X1699853Y-12045646D01*
X1798456Y-12193216D01*
X1866376Y-12357188D01*
X1901000Y-12531259D01*
X1901000Y-12708741D01*
X1866376Y-12882812D01*
X1798456Y-13046784D01*
X1699853Y-13194354D01*
X1574354Y-13319853D01*
X1426784Y-13418456D01*
X1262812Y-13486376D01*
X1113512Y-13516073D01*
X1088742Y-13521000D01*
X911258Y-13521000D01*
X886488Y-13516073D01*
X737188Y-13486376D01*
X573216Y-13418456D01*
X425646Y-13319853D01*
X300147Y-13194354D01*
X201544Y-13046784D01*
X133624Y-12882812D01*
X99000Y-12708741D01*
X99000Y-12531259D01*
X133624Y-12357188D01*
X201544Y-12193216D01*
X300147Y-12045646D01*
X425646Y-11920147D01*
X573216Y-11821544D01*
X737188Y-11753624D01*
X886488Y-11723927D01*
X911258Y-11719000D01*
X1088742Y-11719000D01*
X1113512Y-11723927D01*
G37*
G36*
X57611000Y-13011000D02*
G01*
X54009000Y-13011000D01*
X54009000Y-11209000D01*
X57611000Y-11209000D01*
X57611000Y-13011000D01*
G37*
G36*
X77191000Y-13011000D02*
G01*
X73589000Y-13011000D01*
X73589000Y-11209000D01*
X77191000Y-11209000D01*
X77191000Y-13011000D01*
G37*
G36*
X10459928Y-10396764D02*
G01*
X10481009Y-10403160D01*
X10500445Y-10413548D01*
X10517476Y-10427524D01*
X10531452Y-10444555D01*
X10541840Y-10463991D01*
X10548236Y-10485072D01*
X10551000Y-10513140D01*
X10551000Y-10976860D01*
X10548236Y-11004928D01*
X10541840Y-11026009D01*
X10531452Y-11045445D01*
X10517476Y-11062476D01*
X10500445Y-11076452D01*
X10481009Y-11086840D01*
X10459928Y-11093236D01*
X10431860Y-11096000D01*
X8618140Y-11096000D01*
X8590072Y-11093236D01*
X8568991Y-11086840D01*
X8549555Y-11076452D01*
X8532524Y-11062476D01*
X8518548Y-11045445D01*
X8508160Y-11026009D01*
X8501764Y-11004928D01*
X8499000Y-10976860D01*
X8499000Y-10513140D01*
X8501764Y-10485072D01*
X8508160Y-10463991D01*
X8518548Y-10444555D01*
X8532524Y-10427524D01*
X8549555Y-10413548D01*
X8568991Y-10403160D01*
X8590072Y-10396764D01*
X8618140Y-10394000D01*
X10431860Y-10394000D01*
X10459928Y-10396764D01*
G37*
G36*
X15409928Y-10396764D02*
G01*
X15431009Y-10403160D01*
X15450445Y-10413548D01*
X15467476Y-10427524D01*
X15481452Y-10444555D01*
X15491840Y-10463991D01*
X15498236Y-10485072D01*
X15501000Y-10513140D01*
X15501000Y-10976860D01*
X15498236Y-11004928D01*
X15491840Y-11026009D01*
X15481452Y-11045445D01*
X15467476Y-11062476D01*
X15450445Y-11076452D01*
X15431009Y-11086840D01*
X15409928Y-11093236D01*
X15381860Y-11096000D01*
X13568140Y-11096000D01*
X13540072Y-11093236D01*
X13518991Y-11086840D01*
X13499555Y-11076452D01*
X13482524Y-11062476D01*
X13468548Y-11045445D01*
X13458160Y-11026009D01*
X13451764Y-11004928D01*
X13449000Y-10976860D01*
X13449000Y-10513140D01*
X13451764Y-10485072D01*
X13458160Y-10463991D01*
X13468548Y-10444555D01*
X13482524Y-10427524D01*
X13499555Y-10413548D01*
X13518991Y-10403160D01*
X13540072Y-10396764D01*
X13568140Y-10394000D01*
X15381860Y-10394000D01*
X15409928Y-10396764D01*
G37*
G36*
X3653512Y-9183927D02*
G01*
X3802812Y-9213624D01*
X3966784Y-9281544D01*
X4114354Y-9380147D01*
X4239853Y-9505646D01*
X4338456Y-9653216D01*
X4406376Y-9817188D01*
X4441000Y-9991259D01*
X4441000Y-10168741D01*
X4406376Y-10342812D01*
X4338456Y-10506784D01*
X4239853Y-10654354D01*
X4114354Y-10779853D01*
X3966784Y-10878456D01*
X3802812Y-10946376D01*
X3653512Y-10976073D01*
X3628742Y-10981000D01*
X3451258Y-10981000D01*
X3426488Y-10976073D01*
X3277188Y-10946376D01*
X3113216Y-10878456D01*
X2965646Y-10779853D01*
X2840147Y-10654354D01*
X2741544Y-10506784D01*
X2673624Y-10342812D01*
X2639000Y-10168741D01*
X2639000Y-9991259D01*
X2673624Y-9817188D01*
X2741544Y-9653216D01*
X2840147Y-9505646D01*
X2965646Y-9380147D01*
X3113216Y-9281544D01*
X3277188Y-9213624D01*
X3426488Y-9183927D01*
X3451258Y-9179000D01*
X3628742Y-9179000D01*
X3653512Y-9183927D01*
G37*
G36*
X1113512Y-9183927D02*
G01*
X1262812Y-9213624D01*
X1426784Y-9281544D01*
X1574354Y-9380147D01*
X1699853Y-9505646D01*
X1798456Y-9653216D01*
X1866376Y-9817188D01*
X1901000Y-9991259D01*
X1901000Y-10168741D01*
X1866376Y-10342812D01*
X1798456Y-10506784D01*
X1699853Y-10654354D01*
X1574354Y-10779853D01*
X1426784Y-10878456D01*
X1262812Y-10946376D01*
X1113512Y-10976073D01*
X1088742Y-10981000D01*
X911258Y-10981000D01*
X886488Y-10976073D01*
X737188Y-10946376D01*
X573216Y-10878456D01*
X425646Y-10779853D01*
X300147Y-10654354D01*
X201544Y-10506784D01*
X133624Y-10342812D01*
X99000Y-10168741D01*
X99000Y-9991259D01*
X133624Y-9817188D01*
X201544Y-9653216D01*
X300147Y-9505646D01*
X425646Y-9380147D01*
X573216Y-9281544D01*
X737188Y-9213624D01*
X886488Y-9183927D01*
X911258Y-9179000D01*
X1088742Y-9179000D01*
X1113512Y-9183927D01*
G37*
G36*
X77191000Y-10471000D02*
G01*
X73589000Y-10471000D01*
X73589000Y-8669000D01*
X77191000Y-8669000D01*
X77191000Y-10471000D01*
G37*
G36*
X57611000Y-10471000D02*
G01*
X54009000Y-10471000D01*
X54009000Y-8669000D01*
X57611000Y-8669000D01*
X57611000Y-10471000D01*
G37*
G36*
X10459928Y-9126764D02*
G01*
X10481009Y-9133160D01*
X10500445Y-9143548D01*
X10517476Y-9157524D01*
X10531452Y-9174555D01*
X10541840Y-9193991D01*
X10548236Y-9215072D01*
X10551000Y-9243140D01*
X10551000Y-9706860D01*
X10548236Y-9734928D01*
X10541840Y-9756009D01*
X10531452Y-9775445D01*
X10517476Y-9792476D01*
X10500445Y-9806452D01*
X10481009Y-9816840D01*
X10459928Y-9823236D01*
X10431860Y-9826000D01*
X8618140Y-9826000D01*
X8590072Y-9823236D01*
X8568991Y-9816840D01*
X8549555Y-9806452D01*
X8532524Y-9792476D01*
X8518548Y-9775445D01*
X8508160Y-9756009D01*
X8501764Y-9734928D01*
X8499000Y-9706860D01*
X8499000Y-9243140D01*
X8501764Y-9215072D01*
X8508160Y-9193991D01*
X8518548Y-9174555D01*
X8532524Y-9157524D01*
X8549555Y-9143548D01*
X8568991Y-9133160D01*
X8590072Y-9126764D01*
X8618140Y-9124000D01*
X10431860Y-9124000D01*
X10459928Y-9126764D01*
G37*
G36*
X15409928Y-9126764D02*
G01*
X15431009Y-9133160D01*
X15450445Y-9143548D01*
X15467476Y-9157524D01*
X15481452Y-9174555D01*
X15491840Y-9193991D01*
X15498236Y-9215072D01*
X15501000Y-9243140D01*
X15501000Y-9706860D01*
X15498236Y-9734928D01*
X15491840Y-9756009D01*
X15481452Y-9775445D01*
X15467476Y-9792476D01*
X15450445Y-9806452D01*
X15431009Y-9816840D01*
X15409928Y-9823236D01*
X15381860Y-9826000D01*
X13568140Y-9826000D01*
X13540072Y-9823236D01*
X13518991Y-9816840D01*
X13499555Y-9806452D01*
X13482524Y-9792476D01*
X13468548Y-9775445D01*
X13458160Y-9756009D01*
X13451764Y-9734928D01*
X13449000Y-9706860D01*
X13449000Y-9243140D01*
X13451764Y-9215072D01*
X13458160Y-9193991D01*
X13468548Y-9174555D01*
X13482524Y-9157524D01*
X13499555Y-9143548D01*
X13518991Y-9133160D01*
X13540072Y-9126764D01*
X13568140Y-9124000D01*
X15381860Y-9124000D01*
X15409928Y-9126764D01*
G37*
G36*
X10459928Y-7856764D02*
G01*
X10481009Y-7863160D01*
X10500445Y-7873548D01*
X10517476Y-7887524D01*
X10531452Y-7904555D01*
X10541840Y-7923991D01*
X10548236Y-7945072D01*
X10551000Y-7973140D01*
X10551000Y-8436860D01*
X10548236Y-8464928D01*
X10541840Y-8486009D01*
X10531452Y-8505445D01*
X10517476Y-8522476D01*
X10500445Y-8536452D01*
X10481009Y-8546840D01*
X10459928Y-8553236D01*
X10431860Y-8556000D01*
X8618140Y-8556000D01*
X8590072Y-8553236D01*
X8568991Y-8546840D01*
X8549555Y-8536452D01*
X8532524Y-8522476D01*
X8518548Y-8505445D01*
X8508160Y-8486009D01*
X8501764Y-8464928D01*
X8499000Y-8436860D01*
X8499000Y-7973140D01*
X8501764Y-7945072D01*
X8508160Y-7923991D01*
X8518548Y-7904555D01*
X8532524Y-7887524D01*
X8549555Y-7873548D01*
X8568991Y-7863160D01*
X8590072Y-7856764D01*
X8618140Y-7854000D01*
X10431860Y-7854000D01*
X10459928Y-7856764D01*
G37*
G36*
X15409928Y-7856764D02*
G01*
X15431009Y-7863160D01*
X15450445Y-7873548D01*
X15467476Y-7887524D01*
X15481452Y-7904555D01*
X15491840Y-7923991D01*
X15498236Y-7945072D01*
X15501000Y-7973140D01*
X15501000Y-8436860D01*
X15498236Y-8464928D01*
X15491840Y-8486009D01*
X15481452Y-8505445D01*
X15467476Y-8522476D01*
X15450445Y-8536452D01*
X15431009Y-8546840D01*
X15409928Y-8553236D01*
X15381860Y-8556000D01*
X13568140Y-8556000D01*
X13540072Y-8553236D01*
X13518991Y-8546840D01*
X13499555Y-8536452D01*
X13482524Y-8522476D01*
X13468548Y-8505445D01*
X13458160Y-8486009D01*
X13451764Y-8464928D01*
X13449000Y-8436860D01*
X13449000Y-7973140D01*
X13451764Y-7945072D01*
X13458160Y-7923991D01*
X13468548Y-7904555D01*
X13482524Y-7887524D01*
X13499555Y-7873548D01*
X13518991Y-7863160D01*
X13540072Y-7856764D01*
X13568140Y-7854000D01*
X15381860Y-7854000D01*
X15409928Y-7856764D01*
G37*
G36*
X3653512Y-6643927D02*
G01*
X3802812Y-6673624D01*
X3966784Y-6741544D01*
X4114354Y-6840147D01*
X4239853Y-6965646D01*
X4338456Y-7113216D01*
X4406376Y-7277188D01*
X4441000Y-7451259D01*
X4441000Y-7628741D01*
X4406376Y-7802812D01*
X4338456Y-7966784D01*
X4239853Y-8114354D01*
X4114354Y-8239853D01*
X3966784Y-8338456D01*
X3802812Y-8406376D01*
X3653512Y-8436073D01*
X3628742Y-8441000D01*
X3451258Y-8441000D01*
X3426488Y-8436073D01*
X3277188Y-8406376D01*
X3113216Y-8338456D01*
X2965646Y-8239853D01*
X2840147Y-8114354D01*
X2741544Y-7966784D01*
X2673624Y-7802812D01*
X2639000Y-7628741D01*
X2639000Y-7451259D01*
X2673624Y-7277188D01*
X2741544Y-7113216D01*
X2840147Y-6965646D01*
X2965646Y-6840147D01*
X3113216Y-6741544D01*
X3277188Y-6673624D01*
X3426488Y-6643927D01*
X3451258Y-6639000D01*
X3628742Y-6639000D01*
X3653512Y-6643927D01*
G37*
G36*
X1113512Y-6643927D02*
G01*
X1262812Y-6673624D01*
X1426784Y-6741544D01*
X1574354Y-6840147D01*
X1699853Y-6965646D01*
X1798456Y-7113216D01*
X1866376Y-7277188D01*
X1901000Y-7451259D01*
X1901000Y-7628741D01*
X1866376Y-7802812D01*
X1798456Y-7966784D01*
X1699853Y-8114354D01*
X1574354Y-8239853D01*
X1426784Y-8338456D01*
X1262812Y-8406376D01*
X1113512Y-8436073D01*
X1088742Y-8441000D01*
X911258Y-8441000D01*
X886488Y-8436073D01*
X737188Y-8406376D01*
X573216Y-8338456D01*
X425646Y-8239853D01*
X300147Y-8114354D01*
X201544Y-7966784D01*
X133624Y-7802812D01*
X99000Y-7628741D01*
X99000Y-7451259D01*
X133624Y-7277188D01*
X201544Y-7113216D01*
X300147Y-6965646D01*
X425646Y-6840147D01*
X573216Y-6741544D01*
X737188Y-6673624D01*
X886488Y-6643927D01*
X911258Y-6639000D01*
X1088742Y-6639000D01*
X1113512Y-6643927D01*
G37*
G36*
X57611000Y-7931000D02*
G01*
X54009000Y-7931000D01*
X54009000Y-6129000D01*
X57611000Y-6129000D01*
X57611000Y-7931000D01*
G37*
G36*
X77191000Y-7931000D02*
G01*
X73589000Y-7931000D01*
X73589000Y-6129000D01*
X77191000Y-6129000D01*
X77191000Y-7931000D01*
G37*
G36*
X36612162Y-5857644D02*
G01*
X36651608Y-5869610D01*
X36687953Y-5889037D01*
X36719815Y-5915185D01*
X36745963Y-5947047D01*
X36765390Y-5983392D01*
X36777356Y-6022838D01*
X36782000Y-6069993D01*
X36782000Y-7138007D01*
X36777356Y-7185162D01*
X36765390Y-7224608D01*
X36745963Y-7260953D01*
X36719815Y-7292815D01*
X36687953Y-7318963D01*
X36651608Y-7338390D01*
X36612162Y-7350356D01*
X36565007Y-7355000D01*
X35871993Y-7355000D01*
X35824838Y-7350356D01*
X35785392Y-7338390D01*
X35749047Y-7318963D01*
X35717185Y-7292815D01*
X35691037Y-7260953D01*
X35671610Y-7224608D01*
X35659644Y-7185162D01*
X35655000Y-7138007D01*
X35655000Y-6069993D01*
X35659644Y-6022838D01*
X35671610Y-5983392D01*
X35691037Y-5947047D01*
X35717185Y-5915185D01*
X35749047Y-5889037D01*
X35785392Y-5869610D01*
X35824838Y-5857644D01*
X35871993Y-5853000D01*
X36565007Y-5853000D01*
X36612162Y-5857644D01*
G37*
G36*
X34787162Y-5857644D02*
G01*
X34826608Y-5869610D01*
X34862953Y-5889037D01*
X34894815Y-5915185D01*
X34920963Y-5947047D01*
X34940390Y-5983392D01*
X34952356Y-6022838D01*
X34957000Y-6069993D01*
X34957000Y-7138007D01*
X34952356Y-7185162D01*
X34940390Y-7224608D01*
X34920963Y-7260953D01*
X34894815Y-7292815D01*
X34862953Y-7318963D01*
X34826608Y-7338390D01*
X34787162Y-7350356D01*
X34740007Y-7355000D01*
X34046993Y-7355000D01*
X33999838Y-7350356D01*
X33960392Y-7338390D01*
X33924047Y-7318963D01*
X33892185Y-7292815D01*
X33866037Y-7260953D01*
X33846610Y-7224608D01*
X33834644Y-7185162D01*
X33830000Y-7138007D01*
X33830000Y-6069993D01*
X33834644Y-6022838D01*
X33846610Y-5983392D01*
X33866037Y-5947047D01*
X33892185Y-5915185D01*
X33924047Y-5889037D01*
X33960392Y-5869610D01*
X33999838Y-5857644D01*
X34046993Y-5853000D01*
X34740007Y-5853000D01*
X34787162Y-5857644D01*
G37*
G36*
X10459928Y-6586764D02*
G01*
X10481009Y-6593160D01*
X10500445Y-6603548D01*
X10517476Y-6617524D01*
X10531452Y-6634555D01*
X10541840Y-6653991D01*
X10548236Y-6675072D01*
X10551000Y-6703140D01*
X10551000Y-7166860D01*
X10548236Y-7194928D01*
X10541840Y-7216009D01*
X10531452Y-7235445D01*
X10517476Y-7252476D01*
X10500445Y-7266452D01*
X10481009Y-7276840D01*
X10459928Y-7283236D01*
X10431860Y-7286000D01*
X8618140Y-7286000D01*
X8590072Y-7283236D01*
X8568991Y-7276840D01*
X8549555Y-7266452D01*
X8532524Y-7252476D01*
X8518548Y-7235445D01*
X8508160Y-7216009D01*
X8501764Y-7194928D01*
X8499000Y-7166860D01*
X8499000Y-6703140D01*
X8501764Y-6675072D01*
X8508160Y-6653991D01*
X8518548Y-6634555D01*
X8532524Y-6617524D01*
X8549555Y-6603548D01*
X8568991Y-6593160D01*
X8590072Y-6586764D01*
X8618140Y-6584000D01*
X10431860Y-6584000D01*
X10459928Y-6586764D01*
G37*
G36*
X15409928Y-6586764D02*
G01*
X15431009Y-6593160D01*
X15450445Y-6603548D01*
X15467476Y-6617524D01*
X15481452Y-6634555D01*
X15491840Y-6653991D01*
X15498236Y-6675072D01*
X15501000Y-6703140D01*
X15501000Y-7166860D01*
X15498236Y-7194928D01*
X15491840Y-7216009D01*
X15481452Y-7235445D01*
X15467476Y-7252476D01*
X15450445Y-7266452D01*
X15431009Y-7276840D01*
X15409928Y-7283236D01*
X15381860Y-7286000D01*
X13568140Y-7286000D01*
X13540072Y-7283236D01*
X13518991Y-7276840D01*
X13499555Y-7266452D01*
X13482524Y-7252476D01*
X13468548Y-7235445D01*
X13458160Y-7216009D01*
X13451764Y-7194928D01*
X13449000Y-7166860D01*
X13449000Y-6703140D01*
X13451764Y-6675072D01*
X13458160Y-6653991D01*
X13468548Y-6634555D01*
X13482524Y-6617524D01*
X13499555Y-6603548D01*
X13518991Y-6593160D01*
X13540072Y-6586764D01*
X13568140Y-6584000D01*
X15381860Y-6584000D01*
X15409928Y-6586764D01*
G37*
G36*
X42107000Y-7089000D02*
G01*
X41205000Y-7089000D01*
X41205000Y-6087000D01*
X42107000Y-6087000D01*
X42107000Y-7089000D01*
G37*
G36*
X15409928Y-5316764D02*
G01*
X15431009Y-5323160D01*
X15450445Y-5333548D01*
X15467476Y-5347524D01*
X15481452Y-5364555D01*
X15491840Y-5383991D01*
X15498236Y-5405072D01*
X15501000Y-5433140D01*
X15501000Y-5896860D01*
X15498236Y-5924928D01*
X15491840Y-5946009D01*
X15481452Y-5965445D01*
X15467476Y-5982476D01*
X15450445Y-5996452D01*
X15431009Y-6006840D01*
X15409928Y-6013236D01*
X15381860Y-6016000D01*
X13568140Y-6016000D01*
X13540072Y-6013236D01*
X13518991Y-6006840D01*
X13499555Y-5996452D01*
X13482524Y-5982476D01*
X13468548Y-5965445D01*
X13458160Y-5946009D01*
X13451764Y-5924928D01*
X13449000Y-5896860D01*
X13449000Y-5433140D01*
X13451764Y-5405072D01*
X13458160Y-5383991D01*
X13468548Y-5364555D01*
X13482524Y-5347524D01*
X13499555Y-5333548D01*
X13518991Y-5323160D01*
X13540072Y-5316764D01*
X13568140Y-5314000D01*
X15381860Y-5314000D01*
X15409928Y-5316764D01*
G37*
G36*
X10459928Y-5316764D02*
G01*
X10481009Y-5323160D01*
X10500445Y-5333548D01*
X10517476Y-5347524D01*
X10531452Y-5364555D01*
X10541840Y-5383991D01*
X10548236Y-5405072D01*
X10551000Y-5433140D01*
X10551000Y-5896860D01*
X10548236Y-5924928D01*
X10541840Y-5946009D01*
X10531452Y-5965445D01*
X10517476Y-5982476D01*
X10500445Y-5996452D01*
X10481009Y-6006840D01*
X10459928Y-6013236D01*
X10431860Y-6016000D01*
X8618140Y-6016000D01*
X8590072Y-6013236D01*
X8568991Y-6006840D01*
X8549555Y-5996452D01*
X8532524Y-5982476D01*
X8518548Y-5965445D01*
X8508160Y-5946009D01*
X8501764Y-5924928D01*
X8499000Y-5896860D01*
X8499000Y-5433140D01*
X8501764Y-5405072D01*
X8508160Y-5383991D01*
X8518548Y-5364555D01*
X8532524Y-5347524D01*
X8549555Y-5333548D01*
X8568991Y-5323160D01*
X8590072Y-5316764D01*
X8618140Y-5314000D01*
X10431860Y-5314000D01*
X10459928Y-5316764D01*
G37*
G36*
X1113512Y-4103927D02*
G01*
X1262812Y-4133624D01*
X1426784Y-4201544D01*
X1574354Y-4300147D01*
X1699853Y-4425646D01*
X1798456Y-4573216D01*
X1866376Y-4737188D01*
X1896073Y-4886488D01*
X1901000Y-4911258D01*
X1901000Y-5088742D01*
X1896073Y-5113512D01*
X1866376Y-5262812D01*
X1798456Y-5426784D01*
X1699853Y-5574354D01*
X1574354Y-5699853D01*
X1426784Y-5798456D01*
X1262812Y-5866376D01*
X1113512Y-5896073D01*
X1088742Y-5901000D01*
X911258Y-5901000D01*
X886488Y-5896073D01*
X737188Y-5866376D01*
X573216Y-5798456D01*
X425646Y-5699853D01*
X300147Y-5574354D01*
X201544Y-5426784D01*
X133624Y-5262812D01*
X103927Y-5113512D01*
X99000Y-5088742D01*
X99000Y-4911258D01*
X103927Y-4886488D01*
X133624Y-4737188D01*
X201544Y-4573216D01*
X300147Y-4425646D01*
X425646Y-4300147D01*
X573216Y-4201544D01*
X737188Y-4133624D01*
X886488Y-4103927D01*
X911258Y-4099000D01*
X1088742Y-4099000D01*
X1113512Y-4103927D01*
G37*
G36*
X3653512Y-4103927D02*
G01*
X3802812Y-4133624D01*
X3966784Y-4201544D01*
X4114354Y-4300147D01*
X4239853Y-4425646D01*
X4338456Y-4573216D01*
X4406376Y-4737188D01*
X4436073Y-4886488D01*
X4441000Y-4911258D01*
X4441000Y-5088742D01*
X4436073Y-5113512D01*
X4406376Y-5262812D01*
X4338456Y-5426784D01*
X4239853Y-5574354D01*
X4114354Y-5699853D01*
X3966784Y-5798456D01*
X3802812Y-5866376D01*
X3653512Y-5896073D01*
X3628742Y-5901000D01*
X3451258Y-5901000D01*
X3426488Y-5896073D01*
X3277188Y-5866376D01*
X3113216Y-5798456D01*
X2965646Y-5699853D01*
X2840147Y-5574354D01*
X2741544Y-5426784D01*
X2673624Y-5262812D01*
X2643927Y-5113512D01*
X2639000Y-5088742D01*
X2639000Y-4911258D01*
X2643927Y-4886488D01*
X2673624Y-4737188D01*
X2741544Y-4573216D01*
X2840147Y-4425646D01*
X2965646Y-4300147D01*
X3113216Y-4201544D01*
X3277188Y-4133624D01*
X3426488Y-4103927D01*
X3451258Y-4099000D01*
X3628742Y-4099000D01*
X3653512Y-4103927D01*
G37*
G36*
X57611000Y-5391000D02*
G01*
X54009000Y-5391000D01*
X54009000Y-3589000D01*
X57611000Y-3589000D01*
X57611000Y-5391000D01*
G37*
G36*
X77191000Y-5391000D02*
G01*
X73589000Y-5391000D01*
X73589000Y-3589000D01*
X77191000Y-3589000D01*
X77191000Y-5391000D01*
G37*
G36*
X43057000Y-5089000D02*
G01*
X42155000Y-5089000D01*
X42155000Y-4087000D01*
X43057000Y-4087000D01*
X43057000Y-5089000D01*
G37*
G36*
X41157000Y-5089000D02*
G01*
X40255000Y-5089000D01*
X40255000Y-4087000D01*
X41157000Y-4087000D01*
X41157000Y-5089000D01*
G37*
G36*
X15409928Y-4046764D02*
G01*
X15431009Y-4053160D01*
X15450445Y-4063548D01*
X15467476Y-4077524D01*
X15481452Y-4094555D01*
X15491840Y-4113991D01*
X15498236Y-4135072D01*
X15501000Y-4163140D01*
X15501000Y-4626860D01*
X15498236Y-4654928D01*
X15491840Y-4676009D01*
X15481452Y-4695445D01*
X15467476Y-4712476D01*
X15450445Y-4726452D01*
X15431009Y-4736840D01*
X15409928Y-4743236D01*
X15381860Y-4746000D01*
X13568140Y-4746000D01*
X13540072Y-4743236D01*
X13518991Y-4736840D01*
X13499555Y-4726452D01*
X13482524Y-4712476D01*
X13468548Y-4695445D01*
X13458160Y-4676009D01*
X13451764Y-4654928D01*
X13449000Y-4626860D01*
X13449000Y-4163140D01*
X13451764Y-4135072D01*
X13458160Y-4113991D01*
X13468548Y-4094555D01*
X13482524Y-4077524D01*
X13499555Y-4063548D01*
X13518991Y-4053160D01*
X13540072Y-4046764D01*
X13568140Y-4044000D01*
X15381860Y-4044000D01*
X15409928Y-4046764D01*
G37*
G36*
X10459928Y-4046764D02*
G01*
X10481009Y-4053160D01*
X10500445Y-4063548D01*
X10517476Y-4077524D01*
X10531452Y-4094555D01*
X10541840Y-4113991D01*
X10548236Y-4135072D01*
X10551000Y-4163140D01*
X10551000Y-4626860D01*
X10548236Y-4654928D01*
X10541840Y-4676009D01*
X10531452Y-4695445D01*
X10517476Y-4712476D01*
X10500445Y-4726452D01*
X10481009Y-4736840D01*
X10459928Y-4743236D01*
X10431860Y-4746000D01*
X8618140Y-4746000D01*
X8590072Y-4743236D01*
X8568991Y-4736840D01*
X8549555Y-4726452D01*
X8532524Y-4712476D01*
X8518548Y-4695445D01*
X8508160Y-4676009D01*
X8501764Y-4654928D01*
X8499000Y-4626860D01*
X8499000Y-4163140D01*
X8501764Y-4135072D01*
X8508160Y-4113991D01*
X8518548Y-4094555D01*
X8532524Y-4077524D01*
X8549555Y-4063548D01*
X8568991Y-4053160D01*
X8590072Y-4046764D01*
X8618140Y-4044000D01*
X10431860Y-4044000D01*
X10459928Y-4046764D01*
G37*
G36*
X10459928Y-2776764D02*
G01*
X10481009Y-2783160D01*
X10500445Y-2793548D01*
X10517476Y-2807524D01*
X10531452Y-2824555D01*
X10541840Y-2843991D01*
X10548236Y-2865072D01*
X10551000Y-2893140D01*
X10551000Y-3356860D01*
X10548236Y-3384928D01*
X10541840Y-3406009D01*
X10531452Y-3425445D01*
X10517476Y-3442476D01*
X10500445Y-3456452D01*
X10481009Y-3466840D01*
X10459928Y-3473236D01*
X10431860Y-3476000D01*
X8618140Y-3476000D01*
X8590072Y-3473236D01*
X8568991Y-3466840D01*
X8549555Y-3456452D01*
X8532524Y-3442476D01*
X8518548Y-3425445D01*
X8508160Y-3406009D01*
X8501764Y-3384928D01*
X8499000Y-3356860D01*
X8499000Y-2893140D01*
X8501764Y-2865072D01*
X8508160Y-2843991D01*
X8518548Y-2824555D01*
X8532524Y-2807524D01*
X8549555Y-2793548D01*
X8568991Y-2783160D01*
X8590072Y-2776764D01*
X8618140Y-2774000D01*
X10431860Y-2774000D01*
X10459928Y-2776764D01*
G37*
G36*
X15409928Y-2776764D02*
G01*
X15431009Y-2783160D01*
X15450445Y-2793548D01*
X15467476Y-2807524D01*
X15481452Y-2824555D01*
X15491840Y-2843991D01*
X15498236Y-2865072D01*
X15501000Y-2893140D01*
X15501000Y-3356860D01*
X15498236Y-3384928D01*
X15491840Y-3406009D01*
X15481452Y-3425445D01*
X15467476Y-3442476D01*
X15450445Y-3456452D01*
X15431009Y-3466840D01*
X15409928Y-3473236D01*
X15381860Y-3476000D01*
X13568140Y-3476000D01*
X13540072Y-3473236D01*
X13518991Y-3466840D01*
X13499555Y-3456452D01*
X13482524Y-3442476D01*
X13468548Y-3425445D01*
X13458160Y-3406009D01*
X13451764Y-3384928D01*
X13449000Y-3356860D01*
X13449000Y-2893140D01*
X13451764Y-2865072D01*
X13458160Y-2843991D01*
X13468548Y-2824555D01*
X13482524Y-2807524D01*
X13499555Y-2793548D01*
X13518991Y-2783160D01*
X13540072Y-2776764D01*
X13568140Y-2774000D01*
X15381860Y-2774000D01*
X15409928Y-2776764D01*
G37*
G36*
X3653512Y-1563927D02*
G01*
X3802812Y-1593624D01*
X3966784Y-1661544D01*
X4114354Y-1760147D01*
X4239853Y-1885646D01*
X4338456Y-2033216D01*
X4406376Y-2197188D01*
X4441000Y-2371259D01*
X4441000Y-2548741D01*
X4406376Y-2722812D01*
X4338456Y-2886784D01*
X4239853Y-3034354D01*
X4114354Y-3159853D01*
X3966784Y-3258456D01*
X3802812Y-3326376D01*
X3653512Y-3356073D01*
X3628742Y-3361000D01*
X3451258Y-3361000D01*
X3426488Y-3356073D01*
X3277188Y-3326376D01*
X3113216Y-3258456D01*
X2965646Y-3159853D01*
X2840147Y-3034354D01*
X2741544Y-2886784D01*
X2673624Y-2722812D01*
X2639000Y-2548741D01*
X2639000Y-2371259D01*
X2673624Y-2197188D01*
X2741544Y-2033216D01*
X2840147Y-1885646D01*
X2965646Y-1760147D01*
X3113216Y-1661544D01*
X3277188Y-1593624D01*
X3426488Y-1563927D01*
X3451258Y-1559000D01*
X3628742Y-1559000D01*
X3653512Y-1563927D01*
G37*
G36*
X1113512Y-1563927D02*
G01*
X1262812Y-1593624D01*
X1426784Y-1661544D01*
X1574354Y-1760147D01*
X1699853Y-1885646D01*
X1798456Y-2033216D01*
X1866376Y-2197188D01*
X1901000Y-2371259D01*
X1901000Y-2548741D01*
X1866376Y-2722812D01*
X1798456Y-2886784D01*
X1699853Y-3034354D01*
X1574354Y-3159853D01*
X1426784Y-3258456D01*
X1262812Y-3326376D01*
X1113512Y-3356073D01*
X1088742Y-3361000D01*
X911258Y-3361000D01*
X886488Y-3356073D01*
X737188Y-3326376D01*
X573216Y-3258456D01*
X425646Y-3159853D01*
X300147Y-3034354D01*
X201544Y-2886784D01*
X133624Y-2722812D01*
X99000Y-2548741D01*
X99000Y-2371259D01*
X133624Y-2197188D01*
X201544Y-2033216D01*
X300147Y-1885646D01*
X425646Y-1760147D01*
X573216Y-1661544D01*
X737188Y-1593624D01*
X886488Y-1563927D01*
X911258Y-1559000D01*
X1088742Y-1559000D01*
X1113512Y-1563927D01*
G37*
G36*
X77191000Y-2851000D02*
G01*
X73589000Y-2851000D01*
X73589000Y-1049000D01*
X77191000Y-1049000D01*
X77191000Y-2851000D01*
G37*
G36*
X57611000Y-2851000D02*
G01*
X54009000Y-2851000D01*
X54009000Y-1049000D01*
X57611000Y-1049000D01*
X57611000Y-2851000D01*
G37*
G36*
X36612162Y-777644D02*
G01*
X36651608Y-789610D01*
X36687953Y-809037D01*
X36719815Y-835185D01*
X36745963Y-867047D01*
X36765390Y-903392D01*
X36777356Y-942838D01*
X36782000Y-989993D01*
X36782000Y-2058007D01*
X36777356Y-2105162D01*
X36765390Y-2144608D01*
X36745963Y-2180953D01*
X36719815Y-2212815D01*
X36687953Y-2238963D01*
X36651608Y-2258390D01*
X36612162Y-2270356D01*
X36565007Y-2275000D01*
X35871993Y-2275000D01*
X35824838Y-2270356D01*
X35785392Y-2258390D01*
X35749047Y-2238963D01*
X35717185Y-2212815D01*
X35691037Y-2180953D01*
X35671610Y-2144608D01*
X35659644Y-2105162D01*
X35655000Y-2058007D01*
X35655000Y-989993D01*
X35659644Y-942838D01*
X35671610Y-903392D01*
X35691037Y-867047D01*
X35717185Y-835185D01*
X35749047Y-809037D01*
X35785392Y-789610D01*
X35824838Y-777644D01*
X35871993Y-773000D01*
X36565007Y-773000D01*
X36612162Y-777644D01*
G37*
G36*
X34787162Y-777644D02*
G01*
X34826608Y-789610D01*
X34862953Y-809037D01*
X34894815Y-835185D01*
X34920963Y-867047D01*
X34940390Y-903392D01*
X34952356Y-942838D01*
X34957000Y-989993D01*
X34957000Y-2058007D01*
X34952356Y-2105162D01*
X34940390Y-2144608D01*
X34920963Y-2180953D01*
X34894815Y-2212815D01*
X34862953Y-2238963D01*
X34826608Y-2258390D01*
X34787162Y-2270356D01*
X34740007Y-2275000D01*
X34046993Y-2275000D01*
X33999838Y-2270356D01*
X33960392Y-2258390D01*
X33924047Y-2238963D01*
X33892185Y-2212815D01*
X33866037Y-2180953D01*
X33846610Y-2144608D01*
X33834644Y-2105162D01*
X33830000Y-2058007D01*
X33830000Y-989993D01*
X33834644Y-942838D01*
X33846610Y-903392D01*
X33866037Y-867047D01*
X33892185Y-835185D01*
X33924047Y-809037D01*
X33960392Y-789610D01*
X33999838Y-777644D01*
X34046993Y-773000D01*
X34740007Y-773000D01*
X34787162Y-777644D01*
G37*
G36*
X10459928Y-1506764D02*
G01*
X10481009Y-1513160D01*
X10500445Y-1523548D01*
X10517476Y-1537524D01*
X10531452Y-1554555D01*
X10541840Y-1573991D01*
X10548236Y-1595072D01*
X10551000Y-1623140D01*
X10551000Y-2086860D01*
X10548236Y-2114928D01*
X10541840Y-2136009D01*
X10531452Y-2155445D01*
X10517476Y-2172476D01*
X10500445Y-2186452D01*
X10481009Y-2196840D01*
X10459928Y-2203236D01*
X10431860Y-2206000D01*
X8618140Y-2206000D01*
X8590072Y-2203236D01*
X8568991Y-2196840D01*
X8549555Y-2186452D01*
X8532524Y-2172476D01*
X8518548Y-2155445D01*
X8508160Y-2136009D01*
X8501764Y-2114928D01*
X8499000Y-2086860D01*
X8499000Y-1623140D01*
X8501764Y-1595072D01*
X8508160Y-1573991D01*
X8518548Y-1554555D01*
X8532524Y-1537524D01*
X8549555Y-1523548D01*
X8568991Y-1513160D01*
X8590072Y-1506764D01*
X8618140Y-1504000D01*
X10431860Y-1504000D01*
X10459928Y-1506764D01*
G37*
G36*
X15409928Y-1506764D02*
G01*
X15431009Y-1513160D01*
X15450445Y-1523548D01*
X15467476Y-1537524D01*
X15481452Y-1554555D01*
X15491840Y-1573991D01*
X15498236Y-1595072D01*
X15501000Y-1623140D01*
X15501000Y-2086860D01*
X15498236Y-2114928D01*
X15491840Y-2136009D01*
X15481452Y-2155445D01*
X15467476Y-2172476D01*
X15450445Y-2186452D01*
X15431009Y-2196840D01*
X15409928Y-2203236D01*
X15381860Y-2206000D01*
X13568140Y-2206000D01*
X13540072Y-2203236D01*
X13518991Y-2196840D01*
X13499555Y-2186452D01*
X13482524Y-2172476D01*
X13468548Y-2155445D01*
X13458160Y-2136009D01*
X13451764Y-2114928D01*
X13449000Y-2086860D01*
X13449000Y-1623140D01*
X13451764Y-1595072D01*
X13458160Y-1573991D01*
X13468548Y-1554555D01*
X13482524Y-1537524D01*
X13499555Y-1523548D01*
X13518991Y-1513160D01*
X13540072Y-1506764D01*
X13568140Y-1504000D01*
X15381860Y-1504000D01*
X15409928Y-1506764D01*
G37*
G36*
X48203000Y-2009000D02*
G01*
X47301000Y-2009000D01*
X47301000Y-1007000D01*
X48203000Y-1007000D01*
X48203000Y-2009000D01*
G37*
G36*
X3653512Y976073D02*
G01*
X3802812Y946376D01*
X3966784Y878456D01*
X4114354Y779853D01*
X4239853Y654354D01*
X4338456Y506784D01*
X4406376Y342812D01*
X4421853Y265000D01*
X4441000Y168742D01*
X4441000Y-8742D01*
X4436073Y-33512D01*
X4406376Y-182812D01*
X4338456Y-346784D01*
X4239853Y-494354D01*
X4114354Y-619853D01*
X3966784Y-718456D01*
X3802812Y-786376D01*
X3653512Y-816073D01*
X3628742Y-821000D01*
X3451258Y-821000D01*
X3426488Y-816073D01*
X3277188Y-786376D01*
X3113216Y-718456D01*
X2965646Y-619853D01*
X2840147Y-494354D01*
X2741544Y-346784D01*
X2673624Y-182812D01*
X2643927Y-33512D01*
X2639000Y-8742D01*
X2639000Y168742D01*
X2658147Y265000D01*
X2673624Y342812D01*
X2741544Y506784D01*
X2840147Y654354D01*
X2965646Y779853D01*
X3113216Y878456D01*
X3277188Y946376D01*
X3426488Y976073D01*
X3451258Y981000D01*
X3628742Y981000D01*
X3653512Y976073D01*
G37*
G36*
X1113512Y976073D02*
G01*
X1262812Y946376D01*
X1426784Y878456D01*
X1574354Y779853D01*
X1699853Y654354D01*
X1798456Y506784D01*
X1866376Y342812D01*
X1881853Y265000D01*
X1901000Y168742D01*
X1901000Y-8742D01*
X1896073Y-33512D01*
X1866376Y-182812D01*
X1798456Y-346784D01*
X1699853Y-494354D01*
X1574354Y-619853D01*
X1426784Y-718456D01*
X1262812Y-786376D01*
X1113512Y-816073D01*
X1088742Y-821000D01*
X911258Y-821000D01*
X886488Y-816073D01*
X737188Y-786376D01*
X573216Y-718456D01*
X425646Y-619853D01*
X300147Y-494354D01*
X201544Y-346784D01*
X133624Y-182812D01*
X103927Y-33512D01*
X99000Y-8742D01*
X99000Y168742D01*
X118147Y265000D01*
X133624Y342812D01*
X201544Y506784D01*
X300147Y654354D01*
X425646Y779853D01*
X573216Y878456D01*
X737188Y946376D01*
X886488Y976073D01*
X911258Y981000D01*
X1088742Y981000D01*
X1113512Y976073D01*
G37*
G36*
X77191000Y-311000D02*
G01*
X73589000Y-311000D01*
X73589000Y1491000D01*
X77191000Y1491000D01*
X77191000Y-311000D01*
G37*
G36*
X57611000Y-311000D02*
G01*
X54009000Y-311000D01*
X54009000Y1491000D01*
X57611000Y1491000D01*
X57611000Y-311000D01*
G37*
G36*
X49153000Y-9000D02*
G01*
X48251000Y-9000D01*
X48251000Y993000D01*
X49153000Y993000D01*
X49153000Y-9000D01*
G37*
G36*
X47253000Y-9000D02*
G01*
X46351000Y-9000D01*
X46351000Y993000D01*
X47253000Y993000D01*
X47253000Y-9000D01*
G37*
G36*
X36612162Y1762356D02*
G01*
X36651608Y1750390D01*
X36687953Y1730963D01*
X36719815Y1704815D01*
X36745963Y1672953D01*
X36765390Y1636608D01*
X36777356Y1597162D01*
X36782000Y1550007D01*
X36782000Y481993D01*
X36777356Y434838D01*
X36765390Y395392D01*
X36745963Y359047D01*
X36719815Y327185D01*
X36687953Y301037D01*
X36651608Y281610D01*
X36612162Y269644D01*
X36565007Y265000D01*
X35871993Y265000D01*
X35824838Y269644D01*
X35785392Y281610D01*
X35749047Y301037D01*
X35717185Y327185D01*
X35691037Y359047D01*
X35671610Y395392D01*
X35659644Y434838D01*
X35655000Y481993D01*
X35655000Y1550007D01*
X35659644Y1597162D01*
X35671610Y1636608D01*
X35691037Y1672953D01*
X35717185Y1704815D01*
X35749047Y1730963D01*
X35785392Y1750390D01*
X35824838Y1762356D01*
X35871993Y1767000D01*
X36565007Y1767000D01*
X36612162Y1762356D01*
G37*
G36*
X34787162Y1762356D02*
G01*
X34826608Y1750390D01*
X34862953Y1730963D01*
X34894815Y1704815D01*
X34920963Y1672953D01*
X34940390Y1636608D01*
X34952356Y1597162D01*
X34957000Y1550007D01*
X34957000Y481993D01*
X34952356Y434838D01*
X34940390Y395392D01*
X34920963Y359047D01*
X34894815Y327185D01*
X34862953Y301037D01*
X34826608Y281610D01*
X34787162Y269644D01*
X34740007Y265000D01*
X34046993Y265000D01*
X33999838Y269644D01*
X33960392Y281610D01*
X33924047Y301037D01*
X33892185Y327185D01*
X33866037Y359047D01*
X33846610Y395392D01*
X33834644Y434838D01*
X33830000Y481993D01*
X33830000Y1550007D01*
X33834644Y1597162D01*
X33846610Y1636608D01*
X33866037Y1672953D01*
X33892185Y1704815D01*
X33924047Y1730963D01*
X33960392Y1750390D01*
X33999838Y1762356D01*
X34046993Y1767000D01*
X34740007Y1767000D01*
X34787162Y1762356D01*
G37*
G36*
X41853000Y531000D02*
G01*
X40951000Y531000D01*
X40951000Y1533000D01*
X41853000Y1533000D01*
X41853000Y531000D01*
G37*
G36*
X1113512Y3516073D02*
G01*
X1262812Y3486376D01*
X1426784Y3418456D01*
X1574354Y3319853D01*
X1699853Y3194354D01*
X1798456Y3046784D01*
X1866376Y2882812D01*
X1896073Y2733512D01*
X1901000Y2708742D01*
X1901000Y2531258D01*
X1896073Y2506488D01*
X1866376Y2357188D01*
X1798456Y2193216D01*
X1699853Y2045646D01*
X1574354Y1920147D01*
X1426784Y1821544D01*
X1262812Y1753624D01*
X1113512Y1723927D01*
X1088742Y1719000D01*
X911258Y1719000D01*
X886488Y1723927D01*
X737188Y1753624D01*
X573216Y1821544D01*
X425646Y1920147D01*
X300147Y2045646D01*
X201544Y2193216D01*
X133624Y2357188D01*
X103927Y2506488D01*
X99000Y2531258D01*
X99000Y2708742D01*
X103927Y2733512D01*
X133624Y2882812D01*
X201544Y3046784D01*
X300147Y3194354D01*
X425646Y3319853D01*
X573216Y3418456D01*
X737188Y3486376D01*
X886488Y3516073D01*
X911258Y3521000D01*
X1088742Y3521000D01*
X1113512Y3516073D01*
G37*
G36*
X3653512Y3516073D02*
G01*
X3802812Y3486376D01*
X3966784Y3418456D01*
X4114354Y3319853D01*
X4239853Y3194354D01*
X4338456Y3046784D01*
X4406376Y2882812D01*
X4436073Y2733512D01*
X4441000Y2708742D01*
X4441000Y2531258D01*
X4436073Y2506488D01*
X4406376Y2357188D01*
X4338456Y2193216D01*
X4239853Y2045646D01*
X4114354Y1920147D01*
X3966784Y1821544D01*
X3802812Y1753624D01*
X3653512Y1723927D01*
X3628742Y1719000D01*
X3451258Y1719000D01*
X3426488Y1723927D01*
X3277188Y1753624D01*
X3113216Y1821544D01*
X2965646Y1920147D01*
X2840147Y2045646D01*
X2741544Y2193216D01*
X2673624Y2357188D01*
X2643927Y2506488D01*
X2639000Y2531258D01*
X2639000Y2708742D01*
X2643927Y2733512D01*
X2673624Y2882812D01*
X2741544Y3046784D01*
X2840147Y3194354D01*
X2965646Y3319853D01*
X3113216Y3418456D01*
X3277188Y3486376D01*
X3426488Y3516073D01*
X3451258Y3521000D01*
X3628742Y3521000D01*
X3653512Y3516073D01*
G37*
G36*
X57611000Y2229000D02*
G01*
X54009000Y2229000D01*
X54009000Y4031000D01*
X57611000Y4031000D01*
X57611000Y2229000D01*
G37*
G36*
X77191000Y2229000D02*
G01*
X73589000Y2229000D01*
X73589000Y4031000D01*
X77191000Y4031000D01*
X77191000Y2229000D01*
G37*
G36*
X40903000Y2531000D02*
G01*
X40001000Y2531000D01*
X40001000Y3533000D01*
X40903000Y3533000D01*
X40903000Y2531000D01*
G37*
G36*
X42803000Y2531000D02*
G01*
X41901000Y2531000D01*
X41901000Y3533000D01*
X42803000Y3533000D01*
X42803000Y2531000D01*
G37*
G36*
X34787162Y4556356D02*
G01*
X34826608Y4544390D01*
X34862953Y4524963D01*
X34894815Y4498815D01*
X34920963Y4466953D01*
X34940390Y4430608D01*
X34952356Y4391162D01*
X34957000Y4344007D01*
X34957000Y3275993D01*
X34952356Y3228838D01*
X34940390Y3189392D01*
X34920963Y3153047D01*
X34894815Y3121185D01*
X34862953Y3095037D01*
X34826608Y3075610D01*
X34787162Y3063644D01*
X34740007Y3059000D01*
X34046993Y3059000D01*
X33999838Y3063644D01*
X33960392Y3075610D01*
X33924047Y3095037D01*
X33892185Y3121185D01*
X33866037Y3153047D01*
X33846610Y3189392D01*
X33834644Y3228838D01*
X33830000Y3275993D01*
X33830000Y4344007D01*
X33834644Y4391162D01*
X33846610Y4430608D01*
X33866037Y4466953D01*
X33892185Y4498815D01*
X33924047Y4524963D01*
X33960392Y4544390D01*
X33999838Y4556356D01*
X34046993Y4561000D01*
X34740007Y4561000D01*
X34787162Y4556356D01*
G37*
G36*
X36612162Y4556356D02*
G01*
X36651608Y4544390D01*
X36687953Y4524963D01*
X36719815Y4498815D01*
X36745963Y4466953D01*
X36765390Y4430608D01*
X36777356Y4391162D01*
X36782000Y4344007D01*
X36782000Y3275993D01*
X36777356Y3228838D01*
X36765390Y3189392D01*
X36745963Y3153047D01*
X36719815Y3121185D01*
X36687953Y3095037D01*
X36651608Y3075610D01*
X36612162Y3063644D01*
X36565007Y3059000D01*
X35871993Y3059000D01*
X35824838Y3063644D01*
X35785392Y3075610D01*
X35749047Y3095037D01*
X35717185Y3121185D01*
X35691037Y3153047D01*
X35671610Y3189392D01*
X35659644Y3228838D01*
X35655000Y3275993D01*
X35655000Y4344007D01*
X35659644Y4391162D01*
X35671610Y4430608D01*
X35691037Y4466953D01*
X35717185Y4498815D01*
X35749047Y4524963D01*
X35785392Y4544390D01*
X35824838Y4556356D01*
X35871993Y4561000D01*
X36565007Y4561000D01*
X36612162Y4556356D01*
G37*
G36*
X47949000Y3325000D02*
G01*
X47047000Y3325000D01*
X47047000Y4327000D01*
X47949000Y4327000D01*
X47949000Y3325000D01*
G37*
G36*
X15709928Y4903236D02*
G01*
X15731009Y4896840D01*
X15750445Y4886452D01*
X15767476Y4872476D01*
X15781452Y4855445D01*
X15791840Y4836009D01*
X15798236Y4814928D01*
X15801000Y4786860D01*
X15801000Y4323140D01*
X15798236Y4295072D01*
X15791840Y4273991D01*
X15781452Y4254555D01*
X15767476Y4237524D01*
X15750445Y4223548D01*
X15731009Y4213160D01*
X15709928Y4206764D01*
X15681860Y4204000D01*
X13868140Y4204000D01*
X13840072Y4206764D01*
X13818991Y4213160D01*
X13799555Y4223548D01*
X13782524Y4237524D01*
X13768548Y4254555D01*
X13758160Y4273991D01*
X13751764Y4295072D01*
X13749000Y4323140D01*
X13749000Y4786860D01*
X13751764Y4814928D01*
X13758160Y4836009D01*
X13768548Y4855445D01*
X13782524Y4872476D01*
X13799555Y4886452D01*
X13818991Y4896840D01*
X13840072Y4903236D01*
X13868140Y4906000D01*
X15681860Y4906000D01*
X15709928Y4903236D01*
G37*
G36*
X10759928Y4903236D02*
G01*
X10781009Y4896840D01*
X10800445Y4886452D01*
X10817476Y4872476D01*
X10831452Y4855445D01*
X10841840Y4836009D01*
X10848236Y4814928D01*
X10851000Y4786860D01*
X10851000Y4323140D01*
X10848236Y4295072D01*
X10841840Y4273991D01*
X10831452Y4254555D01*
X10817476Y4237524D01*
X10800445Y4223548D01*
X10781009Y4213160D01*
X10759928Y4206764D01*
X10731860Y4204000D01*
X8918140Y4204000D01*
X8890072Y4206764D01*
X8868991Y4213160D01*
X8849555Y4223548D01*
X8832524Y4237524D01*
X8818548Y4254555D01*
X8808160Y4273991D01*
X8801764Y4295072D01*
X8799000Y4323140D01*
X8799000Y4786860D01*
X8801764Y4814928D01*
X8808160Y4836009D01*
X8818548Y4855445D01*
X8832524Y4872476D01*
X8849555Y4886452D01*
X8868991Y4896840D01*
X8890072Y4903236D01*
X8918140Y4906000D01*
X10731860Y4906000D01*
X10759928Y4903236D01*
G37*
G36*
X1109555Y6056860D02*
G01*
X1262812Y6026376D01*
X1426784Y5958456D01*
X1574354Y5859853D01*
X1699853Y5734354D01*
X1798456Y5586784D01*
X1866376Y5422812D01*
X1901000Y5248741D01*
X1901000Y5071259D01*
X1866376Y4897188D01*
X1798456Y4733216D01*
X1699853Y4585646D01*
X1574354Y4460147D01*
X1426784Y4361544D01*
X1262812Y4293624D01*
X1113512Y4263927D01*
X1088742Y4259000D01*
X911258Y4259000D01*
X886488Y4263927D01*
X737188Y4293624D01*
X573216Y4361544D01*
X425646Y4460147D01*
X300147Y4585646D01*
X201544Y4733216D01*
X133624Y4897188D01*
X99000Y5071259D01*
X99000Y5248741D01*
X133624Y5422812D01*
X201544Y5586784D01*
X300147Y5734354D01*
X425646Y5859853D01*
X573216Y5958456D01*
X737188Y6026376D01*
X890445Y6056860D01*
X911258Y6061000D01*
X1088742Y6061000D01*
X1109555Y6056860D01*
G37*
G36*
X3649555Y6056860D02*
G01*
X3802812Y6026376D01*
X3966784Y5958456D01*
X4114354Y5859853D01*
X4239853Y5734354D01*
X4338456Y5586784D01*
X4406376Y5422812D01*
X4441000Y5248741D01*
X4441000Y5071259D01*
X4406376Y4897188D01*
X4338456Y4733216D01*
X4239853Y4585646D01*
X4114354Y4460147D01*
X3966784Y4361544D01*
X3802812Y4293624D01*
X3653512Y4263927D01*
X3628742Y4259000D01*
X3451258Y4259000D01*
X3426488Y4263927D01*
X3277188Y4293624D01*
X3113216Y4361544D01*
X2965646Y4460147D01*
X2840147Y4585646D01*
X2741544Y4733216D01*
X2673624Y4897188D01*
X2639000Y5071259D01*
X2639000Y5248741D01*
X2673624Y5422812D01*
X2741544Y5586784D01*
X2840147Y5734354D01*
X2965646Y5859853D01*
X3113216Y5958456D01*
X3277188Y6026376D01*
X3430445Y6056860D01*
X3451258Y6061000D01*
X3628742Y6061000D01*
X3649555Y6056860D01*
G37*
G36*
X77191000Y4769000D02*
G01*
X73589000Y4769000D01*
X73589000Y6571000D01*
X77191000Y6571000D01*
X77191000Y4769000D01*
G37*
G36*
X57611000Y4769000D02*
G01*
X54009000Y4769000D01*
X54009000Y6571000D01*
X57611000Y6571000D01*
X57611000Y4769000D01*
G37*
G36*
X46999000Y5325000D02*
G01*
X46097000Y5325000D01*
X46097000Y6327000D01*
X46999000Y6327000D01*
X46999000Y5325000D01*
G37*
G36*
X48899000Y5325000D02*
G01*
X47997000Y5325000D01*
X47997000Y6327000D01*
X48899000Y6327000D01*
X48899000Y5325000D01*
G37*
G36*
X36612162Y6842356D02*
G01*
X36651608Y6830390D01*
X36687953Y6810963D01*
X36719815Y6784815D01*
X36745963Y6752953D01*
X36765390Y6716608D01*
X36777356Y6677162D01*
X36782000Y6630007D01*
X36782000Y5561993D01*
X36777356Y5514838D01*
X36765390Y5475392D01*
X36745963Y5439047D01*
X36719815Y5407185D01*
X36687953Y5381037D01*
X36651608Y5361610D01*
X36612162Y5349644D01*
X36565007Y5345000D01*
X35871993Y5345000D01*
X35824838Y5349644D01*
X35785392Y5361610D01*
X35749047Y5381037D01*
X35717185Y5407185D01*
X35691037Y5439047D01*
X35671610Y5475392D01*
X35659644Y5514838D01*
X35655000Y5561993D01*
X35655000Y6630007D01*
X35659644Y6677162D01*
X35671610Y6716608D01*
X35691037Y6752953D01*
X35717185Y6784815D01*
X35749047Y6810963D01*
X35785392Y6830390D01*
X35824838Y6842356D01*
X35871993Y6847000D01*
X36565007Y6847000D01*
X36612162Y6842356D01*
G37*
G36*
X34787162Y6842356D02*
G01*
X34826608Y6830390D01*
X34862953Y6810963D01*
X34894815Y6784815D01*
X34920963Y6752953D01*
X34940390Y6716608D01*
X34952356Y6677162D01*
X34957000Y6630007D01*
X34957000Y5561993D01*
X34952356Y5514838D01*
X34940390Y5475392D01*
X34920963Y5439047D01*
X34894815Y5407185D01*
X34862953Y5381037D01*
X34826608Y5361610D01*
X34787162Y5349644D01*
X34740007Y5345000D01*
X34046993Y5345000D01*
X33999838Y5349644D01*
X33960392Y5361610D01*
X33924047Y5381037D01*
X33892185Y5407185D01*
X33866037Y5439047D01*
X33846610Y5475392D01*
X33834644Y5514838D01*
X33830000Y5561993D01*
X33830000Y6630007D01*
X33834644Y6677162D01*
X33846610Y6716608D01*
X33866037Y6752953D01*
X33892185Y6784815D01*
X33924047Y6810963D01*
X33960392Y6830390D01*
X33999838Y6842356D01*
X34046993Y6847000D01*
X34740007Y6847000D01*
X34787162Y6842356D01*
G37*
G36*
X15709928Y6173236D02*
G01*
X15731009Y6166840D01*
X15750445Y6156452D01*
X15767476Y6142476D01*
X15781452Y6125445D01*
X15791840Y6106009D01*
X15798236Y6084928D01*
X15801000Y6056860D01*
X15801000Y5593140D01*
X15798236Y5565072D01*
X15791840Y5543991D01*
X15781452Y5524555D01*
X15767476Y5507524D01*
X15750445Y5493548D01*
X15731009Y5483160D01*
X15709928Y5476764D01*
X15681860Y5474000D01*
X13868140Y5474000D01*
X13840072Y5476764D01*
X13818991Y5483160D01*
X13799555Y5493548D01*
X13782524Y5507524D01*
X13768548Y5524555D01*
X13758160Y5543991D01*
X13751764Y5565072D01*
X13749000Y5593140D01*
X13749000Y6056860D01*
X13751764Y6084928D01*
X13758160Y6106009D01*
X13768548Y6125445D01*
X13782524Y6142476D01*
X13799555Y6156452D01*
X13818991Y6166840D01*
X13840072Y6173236D01*
X13868140Y6176000D01*
X15681860Y6176000D01*
X15709928Y6173236D01*
G37*
G36*
X10759928Y6173236D02*
G01*
X10781009Y6166840D01*
X10800445Y6156452D01*
X10817476Y6142476D01*
X10831452Y6125445D01*
X10841840Y6106009D01*
X10848236Y6084928D01*
X10851000Y6056860D01*
X10851000Y5593140D01*
X10848236Y5565072D01*
X10841840Y5543991D01*
X10831452Y5524555D01*
X10817476Y5507524D01*
X10800445Y5493548D01*
X10781009Y5483160D01*
X10759928Y5476764D01*
X10731860Y5474000D01*
X8918140Y5474000D01*
X8890072Y5476764D01*
X8868991Y5483160D01*
X8849555Y5493548D01*
X8832524Y5507524D01*
X8818548Y5524555D01*
X8808160Y5543991D01*
X8801764Y5565072D01*
X8799000Y5593140D01*
X8799000Y6056860D01*
X8801764Y6084928D01*
X8808160Y6106009D01*
X8818548Y6125445D01*
X8832524Y6142476D01*
X8849555Y6156452D01*
X8868991Y6166840D01*
X8890072Y6173236D01*
X8918140Y6176000D01*
X10731860Y6176000D01*
X10759928Y6173236D01*
G37*
G36*
X41651000Y5699000D02*
G01*
X40749000Y5699000D01*
X40749000Y6701000D01*
X41651000Y6701000D01*
X41651000Y5699000D01*
G37*
G36*
X15709928Y7443236D02*
G01*
X15731009Y7436840D01*
X15750445Y7426452D01*
X15767476Y7412476D01*
X15781452Y7395445D01*
X15791840Y7376009D01*
X15798236Y7354928D01*
X15801000Y7326860D01*
X15801000Y6863140D01*
X15798236Y6835072D01*
X15791840Y6813991D01*
X15781452Y6794555D01*
X15767476Y6777524D01*
X15750445Y6763548D01*
X15731009Y6753160D01*
X15709928Y6746764D01*
X15681860Y6744000D01*
X13868140Y6744000D01*
X13840072Y6746764D01*
X13818991Y6753160D01*
X13799555Y6763548D01*
X13782524Y6777524D01*
X13768548Y6794555D01*
X13758160Y6813991D01*
X13751764Y6835072D01*
X13749000Y6863140D01*
X13749000Y7326860D01*
X13751764Y7354928D01*
X13758160Y7376009D01*
X13768548Y7395445D01*
X13782524Y7412476D01*
X13799555Y7426452D01*
X13818991Y7436840D01*
X13840072Y7443236D01*
X13868140Y7446000D01*
X15681860Y7446000D01*
X15709928Y7443236D01*
G37*
G36*
X10759928Y7443236D02*
G01*
X10781009Y7436840D01*
X10800445Y7426452D01*
X10817476Y7412476D01*
X10831452Y7395445D01*
X10841840Y7376009D01*
X10848236Y7354928D01*
X10851000Y7326860D01*
X10851000Y6863140D01*
X10848236Y6835072D01*
X10841840Y6813991D01*
X10831452Y6794555D01*
X10817476Y6777524D01*
X10800445Y6763548D01*
X10781009Y6753160D01*
X10759928Y6746764D01*
X10731860Y6744000D01*
X8918140Y6744000D01*
X8890072Y6746764D01*
X8868991Y6753160D01*
X8849555Y6763548D01*
X8832524Y6777524D01*
X8818548Y6794555D01*
X8808160Y6813991D01*
X8801764Y6835072D01*
X8799000Y6863140D01*
X8799000Y7326860D01*
X8801764Y7354928D01*
X8808160Y7376009D01*
X8818548Y7395445D01*
X8832524Y7412476D01*
X8849555Y7426452D01*
X8868991Y7436840D01*
X8890072Y7443236D01*
X8918140Y7446000D01*
X10731860Y7446000D01*
X10759928Y7443236D01*
G37*
G36*
X3649555Y8596860D02*
G01*
X3802812Y8566376D01*
X3966784Y8498456D01*
X4114354Y8399853D01*
X4239853Y8274354D01*
X4338456Y8126784D01*
X4406376Y7962812D01*
X4441000Y7788741D01*
X4441000Y7611259D01*
X4406376Y7437188D01*
X4338456Y7273216D01*
X4239853Y7125646D01*
X4114354Y7000147D01*
X3966784Y6901544D01*
X3802812Y6833624D01*
X3653512Y6803927D01*
X3628742Y6799000D01*
X3451258Y6799000D01*
X3426488Y6803927D01*
X3277188Y6833624D01*
X3113216Y6901544D01*
X2965646Y7000147D01*
X2840147Y7125646D01*
X2741544Y7273216D01*
X2673624Y7437188D01*
X2639000Y7611259D01*
X2639000Y7788741D01*
X2673624Y7962812D01*
X2741544Y8126784D01*
X2840147Y8274354D01*
X2965646Y8399853D01*
X3113216Y8498456D01*
X3277188Y8566376D01*
X3430445Y8596860D01*
X3451258Y8601000D01*
X3628742Y8601000D01*
X3649555Y8596860D01*
G37*
G36*
X1109555Y8596860D02*
G01*
X1262812Y8566376D01*
X1426784Y8498456D01*
X1574354Y8399853D01*
X1699853Y8274354D01*
X1798456Y8126784D01*
X1866376Y7962812D01*
X1901000Y7788741D01*
X1901000Y7611259D01*
X1866376Y7437188D01*
X1798456Y7273216D01*
X1699853Y7125646D01*
X1574354Y7000147D01*
X1426784Y6901544D01*
X1262812Y6833624D01*
X1113512Y6803927D01*
X1088742Y6799000D01*
X911258Y6799000D01*
X886488Y6803927D01*
X737188Y6833624D01*
X573216Y6901544D01*
X425646Y7000147D01*
X300147Y7125646D01*
X201544Y7273216D01*
X133624Y7437188D01*
X99000Y7611259D01*
X99000Y7788741D01*
X133624Y7962812D01*
X201544Y8126784D01*
X300147Y8274354D01*
X425646Y8399853D01*
X573216Y8498456D01*
X737188Y8566376D01*
X890445Y8596860D01*
X911258Y8601000D01*
X1088742Y8601000D01*
X1109555Y8596860D01*
G37*
G36*
X57611000Y7309000D02*
G01*
X54009000Y7309000D01*
X54009000Y9111000D01*
X57611000Y9111000D01*
X57611000Y7309000D01*
G37*
G36*
X77191000Y7309000D02*
G01*
X73589000Y7309000D01*
X73589000Y9111000D01*
X77191000Y9111000D01*
X77191000Y7309000D01*
G37*
G36*
X42601000Y7699000D02*
G01*
X41699000Y7699000D01*
X41699000Y8701000D01*
X42601000Y8701000D01*
X42601000Y7699000D01*
G37*
G36*
X40701000Y7699000D02*
G01*
X39799000Y7699000D01*
X39799000Y8701000D01*
X40701000Y8701000D01*
X40701000Y7699000D01*
G37*
G36*
X10759928Y8713236D02*
G01*
X10781009Y8706840D01*
X10800445Y8696452D01*
X10817476Y8682476D01*
X10831452Y8665445D01*
X10841840Y8646009D01*
X10848236Y8624928D01*
X10851000Y8596860D01*
X10851000Y8133140D01*
X10848236Y8105072D01*
X10841840Y8083991D01*
X10831452Y8064555D01*
X10817476Y8047524D01*
X10800445Y8033548D01*
X10781009Y8023160D01*
X10759928Y8016764D01*
X10731860Y8014000D01*
X8918140Y8014000D01*
X8890072Y8016764D01*
X8868991Y8023160D01*
X8849555Y8033548D01*
X8832524Y8047524D01*
X8818548Y8064555D01*
X8808160Y8083991D01*
X8801764Y8105072D01*
X8799000Y8133140D01*
X8799000Y8596860D01*
X8801764Y8624928D01*
X8808160Y8646009D01*
X8818548Y8665445D01*
X8832524Y8682476D01*
X8849555Y8696452D01*
X8868991Y8706840D01*
X8890072Y8713236D01*
X8918140Y8716000D01*
X10731860Y8716000D01*
X10759928Y8713236D01*
G37*
G36*
X15709928Y8713236D02*
G01*
X15731009Y8706840D01*
X15750445Y8696452D01*
X15767476Y8682476D01*
X15781452Y8665445D01*
X15791840Y8646009D01*
X15798236Y8624928D01*
X15801000Y8596860D01*
X15801000Y8133140D01*
X15798236Y8105072D01*
X15791840Y8083991D01*
X15781452Y8064555D01*
X15767476Y8047524D01*
X15750445Y8033548D01*
X15731009Y8023160D01*
X15709928Y8016764D01*
X15681860Y8014000D01*
X13868140Y8014000D01*
X13840072Y8016764D01*
X13818991Y8023160D01*
X13799555Y8033548D01*
X13782524Y8047524D01*
X13768548Y8064555D01*
X13758160Y8083991D01*
X13751764Y8105072D01*
X13749000Y8133140D01*
X13749000Y8596860D01*
X13751764Y8624928D01*
X13758160Y8646009D01*
X13768548Y8665445D01*
X13782524Y8682476D01*
X13799555Y8696452D01*
X13818991Y8706840D01*
X13840072Y8713236D01*
X13868140Y8716000D01*
X15681860Y8716000D01*
X15709928Y8713236D01*
G37*
G36*
X10759928Y9983236D02*
G01*
X10781009Y9976840D01*
X10800445Y9966452D01*
X10817476Y9952476D01*
X10831452Y9935445D01*
X10841840Y9916009D01*
X10848236Y9894928D01*
X10851000Y9866860D01*
X10851000Y9403140D01*
X10848236Y9375072D01*
X10841840Y9353991D01*
X10831452Y9334555D01*
X10817476Y9317524D01*
X10800445Y9303548D01*
X10781009Y9293160D01*
X10759928Y9286764D01*
X10731860Y9284000D01*
X8918140Y9284000D01*
X8890072Y9286764D01*
X8868991Y9293160D01*
X8849555Y9303548D01*
X8832524Y9317524D01*
X8818548Y9334555D01*
X8808160Y9353991D01*
X8801764Y9375072D01*
X8799000Y9403140D01*
X8799000Y9866860D01*
X8801764Y9894928D01*
X8808160Y9916009D01*
X8818548Y9935445D01*
X8832524Y9952476D01*
X8849555Y9966452D01*
X8868991Y9976840D01*
X8890072Y9983236D01*
X8918140Y9986000D01*
X10731860Y9986000D01*
X10759928Y9983236D01*
G37*
G36*
X15709928Y9983236D02*
G01*
X15731009Y9976840D01*
X15750445Y9966452D01*
X15767476Y9952476D01*
X15781452Y9935445D01*
X15791840Y9916009D01*
X15798236Y9894928D01*
X15801000Y9866860D01*
X15801000Y9403140D01*
X15798236Y9375072D01*
X15791840Y9353991D01*
X15781452Y9334555D01*
X15767476Y9317524D01*
X15750445Y9303548D01*
X15731009Y9293160D01*
X15709928Y9286764D01*
X15681860Y9284000D01*
X13868140Y9284000D01*
X13840072Y9286764D01*
X13818991Y9293160D01*
X13799555Y9303548D01*
X13782524Y9317524D01*
X13768548Y9334555D01*
X13758160Y9353991D01*
X13751764Y9375072D01*
X13749000Y9403140D01*
X13749000Y9866860D01*
X13751764Y9894928D01*
X13758160Y9916009D01*
X13768548Y9935445D01*
X13782524Y9952476D01*
X13799555Y9966452D01*
X13818991Y9976840D01*
X13840072Y9983236D01*
X13868140Y9986000D01*
X15681860Y9986000D01*
X15709928Y9983236D01*
G37*
G36*
X1109555Y11136860D02*
G01*
X1262812Y11106376D01*
X1426784Y11038456D01*
X1574354Y10939853D01*
X1699853Y10814354D01*
X1798456Y10666784D01*
X1866376Y10502812D01*
X1901000Y10328741D01*
X1901000Y10151259D01*
X1866376Y9977188D01*
X1798456Y9813216D01*
X1699853Y9665646D01*
X1574354Y9540147D01*
X1426784Y9441544D01*
X1262812Y9373624D01*
X1113512Y9343927D01*
X1088742Y9339000D01*
X911258Y9339000D01*
X886488Y9343927D01*
X737188Y9373624D01*
X573216Y9441544D01*
X425646Y9540147D01*
X300147Y9665646D01*
X201544Y9813216D01*
X133624Y9977188D01*
X99000Y10151259D01*
X99000Y10328741D01*
X133624Y10502812D01*
X201544Y10666784D01*
X300147Y10814354D01*
X425646Y10939853D01*
X573216Y11038456D01*
X737188Y11106376D01*
X890445Y11136860D01*
X911258Y11141000D01*
X1088742Y11141000D01*
X1109555Y11136860D01*
G37*
G36*
X3649555Y11136860D02*
G01*
X3802812Y11106376D01*
X3966784Y11038456D01*
X4114354Y10939853D01*
X4239853Y10814354D01*
X4338456Y10666784D01*
X4406376Y10502812D01*
X4441000Y10328741D01*
X4441000Y10151259D01*
X4406376Y9977188D01*
X4338456Y9813216D01*
X4239853Y9665646D01*
X4114354Y9540147D01*
X3966784Y9441544D01*
X3802812Y9373624D01*
X3653512Y9343927D01*
X3628742Y9339000D01*
X3451258Y9339000D01*
X3426488Y9343927D01*
X3277188Y9373624D01*
X3113216Y9441544D01*
X2965646Y9540147D01*
X2840147Y9665646D01*
X2741544Y9813216D01*
X2673624Y9977188D01*
X2639000Y10151259D01*
X2639000Y10328741D01*
X2673624Y10502812D01*
X2741544Y10666784D01*
X2840147Y10814354D01*
X2965646Y10939853D01*
X3113216Y11038456D01*
X3277188Y11106376D01*
X3430445Y11136860D01*
X3451258Y11141000D01*
X3628742Y11141000D01*
X3649555Y11136860D01*
G37*
G36*
X57611000Y9849000D02*
G01*
X54009000Y9849000D01*
X54009000Y11651000D01*
X57611000Y11651000D01*
X57611000Y9849000D01*
G37*
G36*
X77191000Y9849000D02*
G01*
X73589000Y9849000D01*
X73589000Y11651000D01*
X77191000Y11651000D01*
X77191000Y9849000D01*
G37*
G36*
X10759928Y11253236D02*
G01*
X10781009Y11246840D01*
X10800445Y11236452D01*
X10817476Y11222476D01*
X10831452Y11205445D01*
X10841840Y11186009D01*
X10848236Y11164928D01*
X10851000Y11136860D01*
X10851000Y10673140D01*
X10848236Y10645072D01*
X10841840Y10623991D01*
X10831452Y10604555D01*
X10817476Y10587524D01*
X10800445Y10573548D01*
X10781009Y10563160D01*
X10759928Y10556764D01*
X10731860Y10554000D01*
X8918140Y10554000D01*
X8890072Y10556764D01*
X8868991Y10563160D01*
X8849555Y10573548D01*
X8832524Y10587524D01*
X8818548Y10604555D01*
X8808160Y10623991D01*
X8801764Y10645072D01*
X8799000Y10673140D01*
X8799000Y11136860D01*
X8801764Y11164928D01*
X8808160Y11186009D01*
X8818548Y11205445D01*
X8832524Y11222476D01*
X8849555Y11236452D01*
X8868991Y11246840D01*
X8890072Y11253236D01*
X8918140Y11256000D01*
X10731860Y11256000D01*
X10759928Y11253236D01*
G37*
G36*
X15709928Y11253236D02*
G01*
X15731009Y11246840D01*
X15750445Y11236452D01*
X15767476Y11222476D01*
X15781452Y11205445D01*
X15791840Y11186009D01*
X15798236Y11164928D01*
X15801000Y11136860D01*
X15801000Y10673140D01*
X15798236Y10645072D01*
X15791840Y10623991D01*
X15781452Y10604555D01*
X15767476Y10587524D01*
X15750445Y10573548D01*
X15731009Y10563160D01*
X15709928Y10556764D01*
X15681860Y10554000D01*
X13868140Y10554000D01*
X13840072Y10556764D01*
X13818991Y10563160D01*
X13799555Y10573548D01*
X13782524Y10587524D01*
X13768548Y10604555D01*
X13758160Y10623991D01*
X13751764Y10645072D01*
X13749000Y10673140D01*
X13749000Y11136860D01*
X13751764Y11164928D01*
X13758160Y11186009D01*
X13768548Y11205445D01*
X13782524Y11222476D01*
X13799555Y11236452D01*
X13818991Y11246840D01*
X13840072Y11253236D01*
X13868140Y11256000D01*
X15681860Y11256000D01*
X15709928Y11253236D01*
G37*
G36*
X34787162Y12176356D02*
G01*
X34826608Y12164390D01*
X34862953Y12144963D01*
X34894815Y12118815D01*
X34920963Y12086953D01*
X34940390Y12050608D01*
X34952356Y12011162D01*
X34957000Y11964007D01*
X34957000Y10895993D01*
X34952356Y10848838D01*
X34940390Y10809392D01*
X34920963Y10773047D01*
X34894815Y10741185D01*
X34862953Y10715037D01*
X34826608Y10695610D01*
X34787162Y10683644D01*
X34740007Y10679000D01*
X34046993Y10679000D01*
X33999838Y10683644D01*
X33960392Y10695610D01*
X33924047Y10715037D01*
X33892185Y10741185D01*
X33866037Y10773047D01*
X33846610Y10809392D01*
X33834644Y10848838D01*
X33830000Y10895993D01*
X33830000Y11964007D01*
X33834644Y12011162D01*
X33846610Y12050608D01*
X33866037Y12086953D01*
X33892185Y12118815D01*
X33924047Y12144963D01*
X33960392Y12164390D01*
X33999838Y12176356D01*
X34046993Y12181000D01*
X34740007Y12181000D01*
X34787162Y12176356D01*
G37*
G36*
X36612162Y12176356D02*
G01*
X36651608Y12164390D01*
X36687953Y12144963D01*
X36719815Y12118815D01*
X36745963Y12086953D01*
X36765390Y12050608D01*
X36777356Y12011162D01*
X36782000Y11964007D01*
X36782000Y10895993D01*
X36777356Y10848838D01*
X36765390Y10809392D01*
X36745963Y10773047D01*
X36719815Y10741185D01*
X36687953Y10715037D01*
X36651608Y10695610D01*
X36612162Y10683644D01*
X36565007Y10679000D01*
X35871993Y10679000D01*
X35824838Y10683644D01*
X35785392Y10695610D01*
X35749047Y10715037D01*
X35717185Y10741185D01*
X35691037Y10773047D01*
X35671610Y10809392D01*
X35659644Y10848838D01*
X35655000Y10895993D01*
X35655000Y11964007D01*
X35659644Y12011162D01*
X35671610Y12050608D01*
X35691037Y12086953D01*
X35717185Y12118815D01*
X35749047Y12144963D01*
X35785392Y12164390D01*
X35824838Y12176356D01*
X35871993Y12181000D01*
X36565007Y12181000D01*
X36612162Y12176356D01*
G37*
G36*
X47851000Y10799000D02*
G01*
X46949000Y10799000D01*
X46949000Y11801000D01*
X47851000Y11801000D01*
X47851000Y10799000D01*
G37*
G36*
X15709928Y12523236D02*
G01*
X15731009Y12516840D01*
X15750445Y12506452D01*
X15767476Y12492476D01*
X15781452Y12475445D01*
X15791840Y12456009D01*
X15798236Y12434928D01*
X15801000Y12406860D01*
X15801000Y11943140D01*
X15798236Y11915072D01*
X15791840Y11893991D01*
X15781452Y11874555D01*
X15767476Y11857524D01*
X15750445Y11843548D01*
X15731009Y11833160D01*
X15709928Y11826764D01*
X15681860Y11824000D01*
X13868140Y11824000D01*
X13840072Y11826764D01*
X13818991Y11833160D01*
X13799555Y11843548D01*
X13782524Y11857524D01*
X13768548Y11874555D01*
X13758160Y11893991D01*
X13751764Y11915072D01*
X13749000Y11943140D01*
X13749000Y12406860D01*
X13751764Y12434928D01*
X13758160Y12456009D01*
X13768548Y12475445D01*
X13782524Y12492476D01*
X13799555Y12506452D01*
X13818991Y12516840D01*
X13840072Y12523236D01*
X13868140Y12526000D01*
X15681860Y12526000D01*
X15709928Y12523236D01*
G37*
G36*
X10759928Y12523236D02*
G01*
X10781009Y12516840D01*
X10800445Y12506452D01*
X10817476Y12492476D01*
X10831452Y12475445D01*
X10841840Y12456009D01*
X10848236Y12434928D01*
X10851000Y12406860D01*
X10851000Y11943140D01*
X10848236Y11915072D01*
X10841840Y11893991D01*
X10831452Y11874555D01*
X10817476Y11857524D01*
X10800445Y11843548D01*
X10781009Y11833160D01*
X10759928Y11826764D01*
X10731860Y11824000D01*
X8918140Y11824000D01*
X8890072Y11826764D01*
X8868991Y11833160D01*
X8849555Y11843548D01*
X8832524Y11857524D01*
X8818548Y11874555D01*
X8808160Y11893991D01*
X8801764Y11915072D01*
X8799000Y11943140D01*
X8799000Y12406860D01*
X8801764Y12434928D01*
X8808160Y12456009D01*
X8818548Y12475445D01*
X8832524Y12492476D01*
X8849555Y12506452D01*
X8868991Y12516840D01*
X8890072Y12523236D01*
X8918140Y12526000D01*
X10731860Y12526000D01*
X10759928Y12523236D01*
G37*
G36*
X63408642Y13440219D02*
G01*
X63554414Y13379838D01*
X63554416Y13379837D01*
X63685608Y13292178D01*
X63797178Y13180608D01*
X63884837Y13049416D01*
X63884838Y13049414D01*
X63945219Y12903642D01*
X63976000Y12748893D01*
X63976000Y12591107D01*
X63945219Y12436358D01*
X63923837Y12384738D01*
X63884837Y12290584D01*
X63797178Y12159392D01*
X63685608Y12047822D01*
X63554416Y11960163D01*
X63554415Y11960162D01*
X63554414Y11960162D01*
X63408642Y11899781D01*
X63253893Y11869000D01*
X63096107Y11869000D01*
X62941358Y11899781D01*
X62795586Y11960162D01*
X62795585Y11960162D01*
X62795584Y11960163D01*
X62664392Y12047822D01*
X62552822Y12159392D01*
X62465163Y12290584D01*
X62426163Y12384738D01*
X62404781Y12436358D01*
X62374000Y12591107D01*
X62374000Y12748893D01*
X62404781Y12903642D01*
X62465162Y13049414D01*
X62465163Y13049416D01*
X62552822Y13180608D01*
X62664392Y13292178D01*
X62795584Y13379837D01*
X62795586Y13379838D01*
X62941358Y13440219D01*
X63096107Y13471000D01*
X63253893Y13471000D01*
X63408642Y13440219D01*
G37*
G36*
X68258642Y13440219D02*
G01*
X68404414Y13379838D01*
X68404416Y13379837D01*
X68535608Y13292178D01*
X68647178Y13180608D01*
X68734837Y13049416D01*
X68734838Y13049414D01*
X68795219Y12903642D01*
X68826000Y12748893D01*
X68826000Y12591107D01*
X68795219Y12436358D01*
X68773837Y12384738D01*
X68734837Y12290584D01*
X68647178Y12159392D01*
X68535608Y12047822D01*
X68404416Y11960163D01*
X68404415Y11960162D01*
X68404414Y11960162D01*
X68258642Y11899781D01*
X68103893Y11869000D01*
X67946107Y11869000D01*
X67791358Y11899781D01*
X67645586Y11960162D01*
X67645585Y11960162D01*
X67645584Y11960163D01*
X67514392Y12047822D01*
X67402822Y12159392D01*
X67315163Y12290584D01*
X67276163Y12384738D01*
X67254781Y12436358D01*
X67224000Y12591107D01*
X67224000Y12748893D01*
X67254781Y12903642D01*
X67315162Y13049414D01*
X67315163Y13049416D01*
X67402822Y13180608D01*
X67514392Y13292178D01*
X67645584Y13379837D01*
X67645586Y13379838D01*
X67791358Y13440219D01*
X67946107Y13471000D01*
X68103893Y13471000D01*
X68258642Y13440219D01*
G37*
G36*
X1109555Y13676860D02*
G01*
X1262812Y13646376D01*
X1426784Y13578456D01*
X1574354Y13479853D01*
X1699853Y13354354D01*
X1798456Y13206784D01*
X1866376Y13042812D01*
X1901000Y12868741D01*
X1901000Y12691259D01*
X1866376Y12517188D01*
X1798456Y12353216D01*
X1699853Y12205646D01*
X1574354Y12080147D01*
X1426784Y11981544D01*
X1262812Y11913624D01*
X1113512Y11883927D01*
X1088742Y11879000D01*
X911258Y11879000D01*
X886488Y11883927D01*
X737188Y11913624D01*
X573216Y11981544D01*
X425646Y12080147D01*
X300147Y12205646D01*
X201544Y12353216D01*
X133624Y12517188D01*
X99000Y12691259D01*
X99000Y12868741D01*
X133624Y13042812D01*
X201544Y13206784D01*
X300147Y13354354D01*
X425646Y13479853D01*
X573216Y13578456D01*
X737188Y13646376D01*
X890445Y13676860D01*
X911258Y13681000D01*
X1088742Y13681000D01*
X1109555Y13676860D01*
G37*
G36*
X4441000Y11879000D02*
G01*
X2639000Y11879000D01*
X2639000Y13681000D01*
X4441000Y13681000D01*
X4441000Y11879000D01*
G37*
G36*
X77191000Y12389000D02*
G01*
X73589000Y12389000D01*
X73589000Y14191000D01*
X77191000Y14191000D01*
X77191000Y12389000D01*
G37*
G36*
X57611000Y12389000D02*
G01*
X54009000Y12389000D01*
X54009000Y14191000D01*
X57611000Y14191000D01*
X57611000Y12389000D01*
G37*
G36*
X46901000Y12799000D02*
G01*
X45999000Y12799000D01*
X45999000Y13801000D01*
X46901000Y13801000D01*
X46901000Y12799000D01*
G37*
G36*
X48801000Y12799000D02*
G01*
X47899000Y12799000D01*
X47899000Y13801000D01*
X48801000Y13801000D01*
X48801000Y12799000D01*
G37*
G36*
X36612162Y14462356D02*
G01*
X36651608Y14450390D01*
X36687953Y14430963D01*
X36719815Y14404815D01*
X36745963Y14372953D01*
X36765390Y14336608D01*
X36777356Y14297162D01*
X36782000Y14250007D01*
X36782000Y13181993D01*
X36777356Y13134838D01*
X36765390Y13095392D01*
X36745963Y13059047D01*
X36719815Y13027185D01*
X36687953Y13001037D01*
X36651608Y12981610D01*
X36612162Y12969644D01*
X36565007Y12965000D01*
X35871993Y12965000D01*
X35824838Y12969644D01*
X35785392Y12981610D01*
X35749047Y13001037D01*
X35717185Y13027185D01*
X35691037Y13059047D01*
X35671610Y13095392D01*
X35659644Y13134838D01*
X35655000Y13181993D01*
X35655000Y14250007D01*
X35659644Y14297162D01*
X35671610Y14336608D01*
X35691037Y14372953D01*
X35717185Y14404815D01*
X35749047Y14430963D01*
X35785392Y14450390D01*
X35824838Y14462356D01*
X35871993Y14467000D01*
X36565007Y14467000D01*
X36612162Y14462356D01*
G37*
G36*
X34787162Y14462356D02*
G01*
X34826608Y14450390D01*
X34862953Y14430963D01*
X34894815Y14404815D01*
X34920963Y14372953D01*
X34940390Y14336608D01*
X34952356Y14297162D01*
X34957000Y14250007D01*
X34957000Y13181993D01*
X34952356Y13134838D01*
X34940390Y13095392D01*
X34920963Y13059047D01*
X34894815Y13027185D01*
X34862953Y13001037D01*
X34826608Y12981610D01*
X34787162Y12969644D01*
X34740007Y12965000D01*
X34046993Y12965000D01*
X33999838Y12969644D01*
X33960392Y12981610D01*
X33924047Y13001037D01*
X33892185Y13027185D01*
X33866037Y13059047D01*
X33846610Y13095392D01*
X33834644Y13134838D01*
X33830000Y13181993D01*
X33830000Y14250007D01*
X33834644Y14297162D01*
X33846610Y14336608D01*
X33866037Y14372953D01*
X33892185Y14404815D01*
X33924047Y14430963D01*
X33960392Y14450390D01*
X33999838Y14462356D01*
X34046993Y14467000D01*
X34740007Y14467000D01*
X34787162Y14462356D01*
G37*
G36*
X15709928Y13793236D02*
G01*
X15731009Y13786840D01*
X15750445Y13776452D01*
X15767476Y13762476D01*
X15781452Y13745445D01*
X15791840Y13726009D01*
X15798236Y13704928D01*
X15801000Y13676860D01*
X15801000Y13213140D01*
X15798236Y13185072D01*
X15791840Y13163991D01*
X15781452Y13144555D01*
X15767476Y13127524D01*
X15750445Y13113548D01*
X15731009Y13103160D01*
X15709928Y13096764D01*
X15681860Y13094000D01*
X13868140Y13094000D01*
X13840072Y13096764D01*
X13818991Y13103160D01*
X13799555Y13113548D01*
X13782524Y13127524D01*
X13768548Y13144555D01*
X13758160Y13163991D01*
X13751764Y13185072D01*
X13749000Y13213140D01*
X13749000Y13676860D01*
X13751764Y13704928D01*
X13758160Y13726009D01*
X13768548Y13745445D01*
X13782524Y13762476D01*
X13799555Y13776452D01*
X13818991Y13786840D01*
X13840072Y13793236D01*
X13868140Y13796000D01*
X15681860Y13796000D01*
X15709928Y13793236D01*
G37*
G36*
X10759928Y13793236D02*
G01*
X10781009Y13786840D01*
X10800445Y13776452D01*
X10817476Y13762476D01*
X10831452Y13745445D01*
X10841840Y13726009D01*
X10848236Y13704928D01*
X10851000Y13676860D01*
X10851000Y13213140D01*
X10848236Y13185072D01*
X10841840Y13163991D01*
X10831452Y13144555D01*
X10817476Y13127524D01*
X10800445Y13113548D01*
X10781009Y13103160D01*
X10759928Y13096764D01*
X10731860Y13094000D01*
X8918140Y13094000D01*
X8890072Y13096764D01*
X8868991Y13103160D01*
X8849555Y13113548D01*
X8832524Y13127524D01*
X8818548Y13144555D01*
X8808160Y13163991D01*
X8801764Y13185072D01*
X8799000Y13213140D01*
X8799000Y13676860D01*
X8801764Y13704928D01*
X8808160Y13726009D01*
X8818548Y13745445D01*
X8832524Y13762476D01*
X8849555Y13776452D01*
X8868991Y13786840D01*
X8890072Y13793236D01*
X8918140Y13796000D01*
X10731860Y13796000D01*
X10759928Y13793236D01*
G37*
G36*
X41599000Y13299000D02*
G01*
X40697000Y13299000D01*
X40697000Y14301000D01*
X41599000Y14301000D01*
X41599000Y13299000D01*
G37*
G36*
X68602395Y16614454D02*
G01*
X68775466Y16542766D01*
X68852818Y16491081D01*
X68931227Y16438690D01*
X69063690Y16306227D01*
X69116081Y16227818D01*
X69167766Y16150466D01*
X69239454Y15977395D01*
X69276000Y15793667D01*
X69276000Y15606333D01*
X69239454Y15422605D01*
X69167766Y15249534D01*
X69167765Y15249533D01*
X69063690Y15093773D01*
X68931227Y14961310D01*
X68882871Y14929000D01*
X68775466Y14857234D01*
X68602395Y14785546D01*
X68418667Y14749000D01*
X68231333Y14749000D01*
X68047605Y14785546D01*
X67874534Y14857234D01*
X67767129Y14929000D01*
X67718773Y14961310D01*
X67586310Y15093773D01*
X67482235Y15249533D01*
X67482234Y15249534D01*
X67410546Y15422605D01*
X67374000Y15606333D01*
X67374000Y15793667D01*
X67410546Y15977395D01*
X67482234Y16150466D01*
X67533919Y16227818D01*
X67586310Y16306227D01*
X67718773Y16438690D01*
X67797182Y16491081D01*
X67874534Y16542766D01*
X68047605Y16614454D01*
X68231333Y16651000D01*
X68418667Y16651000D01*
X68602395Y16614454D01*
G37*
G36*
X63152395Y16614454D02*
G01*
X63325466Y16542766D01*
X63402818Y16491081D01*
X63481227Y16438690D01*
X63613690Y16306227D01*
X63666081Y16227818D01*
X63717766Y16150466D01*
X63789454Y15977395D01*
X63826000Y15793667D01*
X63826000Y15606333D01*
X63789454Y15422605D01*
X63717766Y15249534D01*
X63717765Y15249533D01*
X63613690Y15093773D01*
X63481227Y14961310D01*
X63432871Y14929000D01*
X63325466Y14857234D01*
X63152395Y14785546D01*
X62968667Y14749000D01*
X62781333Y14749000D01*
X62597605Y14785546D01*
X62424534Y14857234D01*
X62317129Y14929000D01*
X62268773Y14961310D01*
X62136310Y15093773D01*
X62032235Y15249533D01*
X62032234Y15249534D01*
X61960546Y15422605D01*
X61924000Y15606333D01*
X61924000Y15793667D01*
X61960546Y15977395D01*
X62032234Y16150466D01*
X62083919Y16227818D01*
X62136310Y16306227D01*
X62268773Y16438690D01*
X62347182Y16491081D01*
X62424534Y16542766D01*
X62597605Y16614454D01*
X62781333Y16651000D01*
X62968667Y16651000D01*
X63152395Y16614454D01*
G37*
G36*
X77191000Y14929000D02*
G01*
X73589000Y14929000D01*
X73589000Y16731000D01*
X77191000Y16731000D01*
X77191000Y14929000D01*
G37*
G36*
X57611000Y14929000D02*
G01*
X54009000Y14929000D01*
X54009000Y16731000D01*
X57611000Y16731000D01*
X57611000Y14929000D01*
G37*
G36*
X42549000Y15299000D02*
G01*
X41647000Y15299000D01*
X41647000Y16301000D01*
X42549000Y16301000D01*
X42549000Y15299000D01*
G37*
G36*
X40649000Y15299000D02*
G01*
X39747000Y15299000D01*
X39747000Y16301000D01*
X40649000Y16301000D01*
X40649000Y15299000D01*
G37*
M02*
