M48
; DRILL file {KiCad 5.1.5+dfsg1-2build2} date Fri 18 Mar 2022 16:26:12 GMT
; FORMAT={-:-/ absolute / inch / decimal}
; #@! TF.CreationDate,2022-03-18T16:26:12+00:00
; #@! TF.GenerationSoftware,Kicad,Pcbnew,5.1.5+dfsg1-2build2
; #@! TF.FileFunction,Plated,1,2,PTH
FMAT,2
INCH
T1C0.0157
T2C0.0394
T3C0.0402
%
G90
G05
T1
X-0.05Y0.4
X-0.05Y-0.94
X-0.03Y0.7
X-0.03Y0.51
X-0.03Y-1.1
X-0.0215Y-0.9072
X-0.02Y0.44
X-0.02Y-0.65
X-0.01Y-0.85
X0.18Y-0.95
X0.2Y-0.58
X0.21Y0.15
X0.21Y-0.14
X0.21Y-0.62
X0.21Y-0.85
X0.22Y0.5
X0.22Y0.35
X0.22Y-0.5
X0.23Y-0.1
X0.25Y-0.45
X0.25Y-0.7281
X0.25Y-0.82
X0.2515Y-0.06
X0.27Y0.53
X0.27Y0.3
X0.27Y-0.32
X0.27Y-1.01
X0.27Y-1.18
X0.28Y0.25
X0.29Y-0.49
X0.29Y-0.87
X0.3085Y-0.21
X0.31Y0.59
X0.31Y0.29
X0.31Y0.0
X0.35Y-1.27
X0.3553Y-0.6281
X0.375Y-0.373
X0.375Y-0.423
X0.4Y-0.5985
X0.41Y-1.13
X0.4108Y-0.8576
X0.43Y0.24
X0.43Y0.16
X0.43Y-0.78
X0.44Y0.7
X0.44Y-0.39
X0.46Y0.43
X0.46Y-0.18
X0.46Y-0.277
X0.4685Y-0.68
X0.47Y-0.32
X0.4885Y0.1
X0.5Y0.21
X0.51Y0.33
X0.6097Y-0.9643
X0.61Y-1.13
X0.65Y0.15
X0.6515Y0.38
X0.66Y-0.19
X0.66Y-0.26
X0.66Y-0.72
X0.66Y-0.93
X0.6793Y0.5293
X0.68Y-0.07
X0.68Y-1.04
X0.7085Y0.37
X0.71Y-0.3379
X0.72Y-0.85
X0.72Y-1.18
X0.7371Y0.27
X0.7417Y-0.3613
X0.75Y-0.6492
X0.76Y-0.9492
X0.76Y-0.44
X0.7814Y0.12
X0.7872Y-0.5182
X0.81Y0.31
X0.81Y-0.01
X0.82Y-0.27
X0.82Y-0.54
X0.82Y-1.14
X0.84Y0.22
X0.84Y-0.22
X0.85Y-0.57
X0.86Y-0.09
X0.87Y-0.16
X0.8718Y-0.6028
X0.88Y-1.05
X0.89Y-0.71
X0.9085Y-0.91
X0.91Y-1.0063
X0.9124Y-0.7876
X0.9403Y-0.9333
X0.95Y-0.71
X0.96Y-1.02
X0.96Y-1.14
X1.01Y-0.54
X1.01Y-0.61
X1.01Y-1.2053
X1.02Y-1.27
X1.1Y-1.27
X1.11Y-0.9
X1.13Y-0.81
X1.1315Y-1.1
X1.16Y-0.75
X1.16Y-1.31
X1.21Y-0.9
X1.24Y0.45
X1.24Y0.24
X1.24Y0.16
X1.24Y0.05
X1.24Y-0.05
X1.24Y-0.26
X1.24Y-0.43
X1.3Y-0.76
X1.3406Y-0.8011
X1.35Y-0.91
X1.35Y-1.09
X1.38Y-0.54
X1.43Y-0.95
X1.43Y-1.0
X1.4306Y-0.8543
X1.49Y-0.18
X1.51Y0.31
X1.52Y0.11
X1.5291Y-0.807
X1.54Y-1.01
X1.6Y-0.8956
X1.61Y-0.55
X1.65Y-0.9527
X1.66Y-0.87
X1.66Y-1.09
X1.69Y-0.82
X1.7Y-0.51
X1.77Y0.24
X1.77Y0.02
X1.77Y-0.11
X1.81Y0.59
X1.82Y0.4
X1.91Y-0.63
X1.91Y-0.87
X2.58Y-1.07
X2.67Y-1.03
X3.1368Y-1.0768
X3.17Y-0.57
T2
X1.2298Y-0.5846
X1.3298Y-0.5846
X1.4298Y-0.5846
X1.5298Y-0.5846
X0.0394Y0.5031
X0.0394Y0.4031
X0.0394Y0.3031
X0.0394Y0.2031
X0.0394Y0.1031
X0.0394Y0.0031
X0.0394Y-0.0969
X0.0394Y-0.1969
X0.0394Y-0.2969
X0.0394Y-0.3969
X0.0394Y-0.4969
X0.0394Y-0.5969
X0.0394Y-0.6969
X0.0394Y-0.7969
X0.0394Y-0.8969
X0.0394Y-0.9969
X0.1394Y0.5031
X0.1394Y0.4031
X0.1394Y0.3031
X0.1394Y0.2031
X0.1394Y0.1031
X0.1394Y0.0031
X0.1394Y-0.0969
X0.1394Y-0.1969
X0.1394Y-0.2969
X0.1394Y-0.3969
X0.1394Y-0.4969
X0.1394Y-0.5969
X0.1394Y-0.6969
X0.1394Y-0.7969
X0.1394Y-0.8969
X0.1394Y-0.9969
X3.3Y-1.06
X3.3Y-1.16
X3.3Y-1.26
T3
X2.2327Y0.6232
X2.2327Y0.5232
X2.2327Y0.4232
X2.2327Y0.3232
X2.2327Y0.2232
X2.2327Y0.1232
X2.2327Y0.0232
X2.2327Y-0.0768
X2.2327Y-0.1768
X2.2327Y-0.2768
X2.2327Y-0.3768
X2.2327Y-0.4768
X2.2327Y-0.5768
X2.2327Y-0.6768
X2.2327Y-0.7768
X2.2327Y-0.8768
X2.2327Y-0.9768
X2.2327Y-1.0768
X2.2327Y-1.1768
X2.2327Y-1.2768
X2.4827Y-1.2677
X2.5827Y-1.2677
X2.6827Y-1.2677
X2.9327Y0.6232
X2.9327Y0.5232
X2.9327Y0.4232
X2.9327Y0.3232
X2.9327Y0.2232
X2.9327Y0.1232
X2.9327Y0.0232
X2.9327Y-0.0768
X2.9327Y-0.1768
X2.9327Y-0.2768
X2.9327Y-0.3768
X2.9327Y-0.4768
X2.9327Y-0.5768
X2.9327Y-0.6768
X2.9327Y-0.7768
X2.9327Y-0.8768
X2.9327Y-0.9768
X2.9327Y-1.0768
X2.9327Y-1.1768
X2.9327Y-1.2768
T0
M30
