G04 #@! TF.GenerationSoftware,KiCad,Pcbnew,5.1.5+dfsg1-2build2*
G04 #@! TF.CreationDate,2022-03-18T16:26:14+00:00*
G04 #@! TF.ProjectId,pico41,7069636f-3431-42e6-9b69-6361645f7063,rev?*
G04 #@! TF.SameCoordinates,Original*
G04 #@! TF.FileFunction,Soldermask,Bot*
G04 #@! TF.FilePolarity,Negative*
%FSLAX46Y46*%
G04 Gerber Fmt 4.6, Leading zero omitted, Abs format (unit mm)*
G04 Created by KiCad (PCBNEW 5.1.5+dfsg1-2build2) date 2022-03-18 16:26:14*
%MOMM*%
%LPD*%
G04 APERTURE LIST*
%ADD10C,0.100000*%
G04 APERTURE END LIST*
D10*
G36*
X74603512Y-31533927D02*
G01*
X74752812Y-31563624D01*
X74916784Y-31631544D01*
X75064354Y-31730147D01*
X75189853Y-31855646D01*
X75288456Y-32003216D01*
X75356376Y-32167188D01*
X75391000Y-32341259D01*
X75391000Y-32518741D01*
X75356376Y-32692812D01*
X75288456Y-32856784D01*
X75189853Y-33004354D01*
X75064354Y-33129853D01*
X74916784Y-33228456D01*
X74752812Y-33296376D01*
X74603512Y-33326073D01*
X74578742Y-33331000D01*
X74401258Y-33331000D01*
X74376488Y-33326073D01*
X74227188Y-33296376D01*
X74063216Y-33228456D01*
X73915646Y-33129853D01*
X73790147Y-33004354D01*
X73691544Y-32856784D01*
X73623624Y-32692812D01*
X73589000Y-32518741D01*
X73589000Y-32341259D01*
X73623624Y-32167188D01*
X73691544Y-32003216D01*
X73790147Y-31855646D01*
X73915646Y-31730147D01*
X74063216Y-31631544D01*
X74227188Y-31563624D01*
X74376488Y-31533927D01*
X74401258Y-31529000D01*
X74578742Y-31529000D01*
X74603512Y-31533927D01*
G37*
G36*
X56823512Y-31533927D02*
G01*
X56972812Y-31563624D01*
X57136784Y-31631544D01*
X57284354Y-31730147D01*
X57409853Y-31855646D01*
X57508456Y-32003216D01*
X57576376Y-32167188D01*
X57611000Y-32341259D01*
X57611000Y-32518741D01*
X57576376Y-32692812D01*
X57508456Y-32856784D01*
X57409853Y-33004354D01*
X57284354Y-33129853D01*
X57136784Y-33228456D01*
X56972812Y-33296376D01*
X56823512Y-33326073D01*
X56798742Y-33331000D01*
X56621258Y-33331000D01*
X56596488Y-33326073D01*
X56447188Y-33296376D01*
X56283216Y-33228456D01*
X56135646Y-33129853D01*
X56010147Y-33004354D01*
X55911544Y-32856784D01*
X55843624Y-32692812D01*
X55809000Y-32518741D01*
X55809000Y-32341259D01*
X55843624Y-32167188D01*
X55911544Y-32003216D01*
X56010147Y-31855646D01*
X56135646Y-31730147D01*
X56283216Y-31631544D01*
X56447188Y-31563624D01*
X56596488Y-31533927D01*
X56621258Y-31529000D01*
X56798742Y-31529000D01*
X56823512Y-31533927D01*
G37*
G36*
X63173512Y-31303927D02*
G01*
X63322812Y-31333624D01*
X63486784Y-31401544D01*
X63634354Y-31500147D01*
X63759853Y-31625646D01*
X63858456Y-31773216D01*
X63926376Y-31937188D01*
X63961000Y-32111259D01*
X63961000Y-32288741D01*
X63926376Y-32462812D01*
X63858456Y-32626784D01*
X63759853Y-32774354D01*
X63634354Y-32899853D01*
X63486784Y-32998456D01*
X63322812Y-33066376D01*
X63173512Y-33096073D01*
X63148742Y-33101000D01*
X62971258Y-33101000D01*
X62946488Y-33096073D01*
X62797188Y-33066376D01*
X62633216Y-32998456D01*
X62485646Y-32899853D01*
X62360147Y-32774354D01*
X62261544Y-32626784D01*
X62193624Y-32462812D01*
X62159000Y-32288741D01*
X62159000Y-32111259D01*
X62193624Y-31937188D01*
X62261544Y-31773216D01*
X62360147Y-31625646D01*
X62485646Y-31500147D01*
X62633216Y-31401544D01*
X62797188Y-31333624D01*
X62946488Y-31303927D01*
X62971258Y-31299000D01*
X63148742Y-31299000D01*
X63173512Y-31303927D01*
G37*
G36*
X68253512Y-31303927D02*
G01*
X68402812Y-31333624D01*
X68566784Y-31401544D01*
X68714354Y-31500147D01*
X68839853Y-31625646D01*
X68938456Y-31773216D01*
X69006376Y-31937188D01*
X69041000Y-32111259D01*
X69041000Y-32288741D01*
X69006376Y-32462812D01*
X68938456Y-32626784D01*
X68839853Y-32774354D01*
X68714354Y-32899853D01*
X68566784Y-32998456D01*
X68402812Y-33066376D01*
X68253512Y-33096073D01*
X68228742Y-33101000D01*
X68051258Y-33101000D01*
X68026488Y-33096073D01*
X67877188Y-33066376D01*
X67713216Y-32998456D01*
X67565646Y-32899853D01*
X67440147Y-32774354D01*
X67341544Y-32626784D01*
X67273624Y-32462812D01*
X67239000Y-32288741D01*
X67239000Y-32111259D01*
X67273624Y-31937188D01*
X67341544Y-31773216D01*
X67440147Y-31625646D01*
X67565646Y-31500147D01*
X67713216Y-31401544D01*
X67877188Y-31333624D01*
X68026488Y-31303927D01*
X68051258Y-31299000D01*
X68228742Y-31299000D01*
X68253512Y-31303927D01*
G37*
G36*
X66501000Y-33101000D02*
G01*
X64699000Y-33101000D01*
X64699000Y-31299000D01*
X66501000Y-31299000D01*
X66501000Y-33101000D01*
G37*
G36*
X84721000Y-32905000D02*
G01*
X82919000Y-32905000D01*
X82919000Y-31103000D01*
X84721000Y-31103000D01*
X84721000Y-32905000D01*
G37*
G36*
X74603512Y-28993927D02*
G01*
X74752812Y-29023624D01*
X74916784Y-29091544D01*
X75064354Y-29190147D01*
X75189853Y-29315646D01*
X75288456Y-29463216D01*
X75356376Y-29627188D01*
X75391000Y-29801259D01*
X75391000Y-29978741D01*
X75356376Y-30152812D01*
X75288456Y-30316784D01*
X75189853Y-30464354D01*
X75064354Y-30589853D01*
X74916784Y-30688456D01*
X74752812Y-30756376D01*
X74603512Y-30786073D01*
X74578742Y-30791000D01*
X74401258Y-30791000D01*
X74376488Y-30786073D01*
X74227188Y-30756376D01*
X74063216Y-30688456D01*
X73915646Y-30589853D01*
X73790147Y-30464354D01*
X73691544Y-30316784D01*
X73623624Y-30152812D01*
X73589000Y-29978741D01*
X73589000Y-29801259D01*
X73623624Y-29627188D01*
X73691544Y-29463216D01*
X73790147Y-29315646D01*
X73915646Y-29190147D01*
X74063216Y-29091544D01*
X74227188Y-29023624D01*
X74376488Y-28993927D01*
X74401258Y-28989000D01*
X74578742Y-28989000D01*
X74603512Y-28993927D01*
G37*
G36*
X56823512Y-28993927D02*
G01*
X56972812Y-29023624D01*
X57136784Y-29091544D01*
X57284354Y-29190147D01*
X57409853Y-29315646D01*
X57508456Y-29463216D01*
X57576376Y-29627188D01*
X57611000Y-29801259D01*
X57611000Y-29978741D01*
X57576376Y-30152812D01*
X57508456Y-30316784D01*
X57409853Y-30464354D01*
X57284354Y-30589853D01*
X57136784Y-30688456D01*
X56972812Y-30756376D01*
X56823512Y-30786073D01*
X56798742Y-30791000D01*
X56621258Y-30791000D01*
X56596488Y-30786073D01*
X56447188Y-30756376D01*
X56283216Y-30688456D01*
X56135646Y-30589853D01*
X56010147Y-30464354D01*
X55911544Y-30316784D01*
X55843624Y-30152812D01*
X55809000Y-29978741D01*
X55809000Y-29801259D01*
X55843624Y-29627188D01*
X55911544Y-29463216D01*
X56010147Y-29315646D01*
X56135646Y-29190147D01*
X56283216Y-29091544D01*
X56447188Y-29023624D01*
X56596488Y-28993927D01*
X56621258Y-28989000D01*
X56798742Y-28989000D01*
X56823512Y-28993927D01*
G37*
G36*
X83933512Y-28567927D02*
G01*
X84082812Y-28597624D01*
X84246784Y-28665544D01*
X84394354Y-28764147D01*
X84519853Y-28889646D01*
X84618456Y-29037216D01*
X84686376Y-29201188D01*
X84721000Y-29375259D01*
X84721000Y-29552741D01*
X84686376Y-29726812D01*
X84618456Y-29890784D01*
X84519853Y-30038354D01*
X84394354Y-30163853D01*
X84246784Y-30262456D01*
X84082812Y-30330376D01*
X83933512Y-30360073D01*
X83908742Y-30365000D01*
X83731258Y-30365000D01*
X83706488Y-30360073D01*
X83557188Y-30330376D01*
X83393216Y-30262456D01*
X83245646Y-30163853D01*
X83120147Y-30038354D01*
X83021544Y-29890784D01*
X82953624Y-29726812D01*
X82919000Y-29552741D01*
X82919000Y-29375259D01*
X82953624Y-29201188D01*
X83021544Y-29037216D01*
X83120147Y-28889646D01*
X83245646Y-28764147D01*
X83393216Y-28665544D01*
X83557188Y-28597624D01*
X83706488Y-28567927D01*
X83731258Y-28563000D01*
X83908742Y-28563000D01*
X83933512Y-28567927D01*
G37*
G36*
X75391000Y-28251000D02*
G01*
X73589000Y-28251000D01*
X73589000Y-26449000D01*
X75391000Y-26449000D01*
X75391000Y-28251000D01*
G37*
G36*
X57611000Y-28251000D02*
G01*
X55809000Y-28251000D01*
X55809000Y-26449000D01*
X57611000Y-26449000D01*
X57611000Y-28251000D01*
G37*
G36*
X83933512Y-26027927D02*
G01*
X84082812Y-26057624D01*
X84246784Y-26125544D01*
X84394354Y-26224147D01*
X84519853Y-26349646D01*
X84618456Y-26497216D01*
X84686376Y-26661188D01*
X84721000Y-26835259D01*
X84721000Y-27012741D01*
X84686376Y-27186812D01*
X84618456Y-27350784D01*
X84519853Y-27498354D01*
X84394354Y-27623853D01*
X84246784Y-27722456D01*
X84082812Y-27790376D01*
X83933512Y-27820073D01*
X83908742Y-27825000D01*
X83731258Y-27825000D01*
X83706488Y-27820073D01*
X83557188Y-27790376D01*
X83393216Y-27722456D01*
X83245646Y-27623853D01*
X83120147Y-27498354D01*
X83021544Y-27350784D01*
X82953624Y-27186812D01*
X82919000Y-27012741D01*
X82919000Y-26835259D01*
X82953624Y-26661188D01*
X83021544Y-26497216D01*
X83120147Y-26349646D01*
X83245646Y-26224147D01*
X83393216Y-26125544D01*
X83557188Y-26057624D01*
X83706488Y-26027927D01*
X83731258Y-26023000D01*
X83908742Y-26023000D01*
X83933512Y-26027927D01*
G37*
G36*
X1113512Y-24423927D02*
G01*
X1262812Y-24453624D01*
X1426784Y-24521544D01*
X1574354Y-24620147D01*
X1699853Y-24745646D01*
X1798456Y-24893216D01*
X1866376Y-25057188D01*
X1901000Y-25231259D01*
X1901000Y-25408741D01*
X1866376Y-25582812D01*
X1798456Y-25746784D01*
X1699853Y-25894354D01*
X1574354Y-26019853D01*
X1426784Y-26118456D01*
X1262812Y-26186376D01*
X1113512Y-26216073D01*
X1088742Y-26221000D01*
X911258Y-26221000D01*
X886488Y-26216073D01*
X737188Y-26186376D01*
X573216Y-26118456D01*
X425646Y-26019853D01*
X300147Y-25894354D01*
X201544Y-25746784D01*
X133624Y-25582812D01*
X99000Y-25408741D01*
X99000Y-25231259D01*
X133624Y-25057188D01*
X201544Y-24893216D01*
X300147Y-24745646D01*
X425646Y-24620147D01*
X573216Y-24521544D01*
X737188Y-24453624D01*
X886488Y-24423927D01*
X911258Y-24419000D01*
X1088742Y-24419000D01*
X1113512Y-24423927D01*
G37*
G36*
X3653512Y-24423927D02*
G01*
X3802812Y-24453624D01*
X3966784Y-24521544D01*
X4114354Y-24620147D01*
X4239853Y-24745646D01*
X4338456Y-24893216D01*
X4406376Y-25057188D01*
X4441000Y-25231259D01*
X4441000Y-25408741D01*
X4406376Y-25582812D01*
X4338456Y-25746784D01*
X4239853Y-25894354D01*
X4114354Y-26019853D01*
X3966784Y-26118456D01*
X3802812Y-26186376D01*
X3653512Y-26216073D01*
X3628742Y-26221000D01*
X3451258Y-26221000D01*
X3426488Y-26216073D01*
X3277188Y-26186376D01*
X3113216Y-26118456D01*
X2965646Y-26019853D01*
X2840147Y-25894354D01*
X2741544Y-25746784D01*
X2673624Y-25582812D01*
X2639000Y-25408741D01*
X2639000Y-25231259D01*
X2673624Y-25057188D01*
X2741544Y-24893216D01*
X2840147Y-24745646D01*
X2965646Y-24620147D01*
X3113216Y-24521544D01*
X3277188Y-24453624D01*
X3426488Y-24423927D01*
X3451258Y-24419000D01*
X3628742Y-24419000D01*
X3653512Y-24423927D01*
G37*
G36*
X56823512Y-23913927D02*
G01*
X56972812Y-23943624D01*
X57136784Y-24011544D01*
X57284354Y-24110147D01*
X57409853Y-24235646D01*
X57508456Y-24383216D01*
X57576376Y-24547188D01*
X57611000Y-24721259D01*
X57611000Y-24898741D01*
X57576376Y-25072812D01*
X57508456Y-25236784D01*
X57409853Y-25384354D01*
X57284354Y-25509853D01*
X57136784Y-25608456D01*
X56972812Y-25676376D01*
X56823512Y-25706073D01*
X56798742Y-25711000D01*
X56621258Y-25711000D01*
X56596488Y-25706073D01*
X56447188Y-25676376D01*
X56283216Y-25608456D01*
X56135646Y-25509853D01*
X56010147Y-25384354D01*
X55911544Y-25236784D01*
X55843624Y-25072812D01*
X55809000Y-24898741D01*
X55809000Y-24721259D01*
X55843624Y-24547188D01*
X55911544Y-24383216D01*
X56010147Y-24235646D01*
X56135646Y-24110147D01*
X56283216Y-24011544D01*
X56447188Y-23943624D01*
X56596488Y-23913927D01*
X56621258Y-23909000D01*
X56798742Y-23909000D01*
X56823512Y-23913927D01*
G37*
G36*
X74603512Y-23913927D02*
G01*
X74752812Y-23943624D01*
X74916784Y-24011544D01*
X75064354Y-24110147D01*
X75189853Y-24235646D01*
X75288456Y-24383216D01*
X75356376Y-24547188D01*
X75391000Y-24721259D01*
X75391000Y-24898741D01*
X75356376Y-25072812D01*
X75288456Y-25236784D01*
X75189853Y-25384354D01*
X75064354Y-25509853D01*
X74916784Y-25608456D01*
X74752812Y-25676376D01*
X74603512Y-25706073D01*
X74578742Y-25711000D01*
X74401258Y-25711000D01*
X74376488Y-25706073D01*
X74227188Y-25676376D01*
X74063216Y-25608456D01*
X73915646Y-25509853D01*
X73790147Y-25384354D01*
X73691544Y-25236784D01*
X73623624Y-25072812D01*
X73589000Y-24898741D01*
X73589000Y-24721259D01*
X73623624Y-24547188D01*
X73691544Y-24383216D01*
X73790147Y-24235646D01*
X73915646Y-24110147D01*
X74063216Y-24011544D01*
X74227188Y-23943624D01*
X74376488Y-23913927D01*
X74401258Y-23909000D01*
X74578742Y-23909000D01*
X74603512Y-23913927D01*
G37*
G36*
X3653512Y-21883927D02*
G01*
X3802812Y-21913624D01*
X3966784Y-21981544D01*
X4114354Y-22080147D01*
X4239853Y-22205646D01*
X4338456Y-22353216D01*
X4406376Y-22517188D01*
X4441000Y-22691259D01*
X4441000Y-22868741D01*
X4406376Y-23042812D01*
X4338456Y-23206784D01*
X4239853Y-23354354D01*
X4114354Y-23479853D01*
X3966784Y-23578456D01*
X3802812Y-23646376D01*
X3653512Y-23676073D01*
X3628742Y-23681000D01*
X3451258Y-23681000D01*
X3426488Y-23676073D01*
X3277188Y-23646376D01*
X3113216Y-23578456D01*
X2965646Y-23479853D01*
X2840147Y-23354354D01*
X2741544Y-23206784D01*
X2673624Y-23042812D01*
X2639000Y-22868741D01*
X2639000Y-22691259D01*
X2673624Y-22517188D01*
X2741544Y-22353216D01*
X2840147Y-22205646D01*
X2965646Y-22080147D01*
X3113216Y-21981544D01*
X3277188Y-21913624D01*
X3426488Y-21883927D01*
X3451258Y-21879000D01*
X3628742Y-21879000D01*
X3653512Y-21883927D01*
G37*
G36*
X1113512Y-21883927D02*
G01*
X1262812Y-21913624D01*
X1426784Y-21981544D01*
X1574354Y-22080147D01*
X1699853Y-22205646D01*
X1798456Y-22353216D01*
X1866376Y-22517188D01*
X1901000Y-22691259D01*
X1901000Y-22868741D01*
X1866376Y-23042812D01*
X1798456Y-23206784D01*
X1699853Y-23354354D01*
X1574354Y-23479853D01*
X1426784Y-23578456D01*
X1262812Y-23646376D01*
X1113512Y-23676073D01*
X1088742Y-23681000D01*
X911258Y-23681000D01*
X886488Y-23676073D01*
X737188Y-23646376D01*
X573216Y-23578456D01*
X425646Y-23479853D01*
X300147Y-23354354D01*
X201544Y-23206784D01*
X133624Y-23042812D01*
X99000Y-22868741D01*
X99000Y-22691259D01*
X133624Y-22517188D01*
X201544Y-22353216D01*
X300147Y-22205646D01*
X425646Y-22080147D01*
X573216Y-21981544D01*
X737188Y-21913624D01*
X886488Y-21883927D01*
X911258Y-21879000D01*
X1088742Y-21879000D01*
X1113512Y-21883927D01*
G37*
G36*
X56823512Y-21373927D02*
G01*
X56972812Y-21403624D01*
X57136784Y-21471544D01*
X57284354Y-21570147D01*
X57409853Y-21695646D01*
X57508456Y-21843216D01*
X57576376Y-22007188D01*
X57611000Y-22181259D01*
X57611000Y-22358741D01*
X57576376Y-22532812D01*
X57508456Y-22696784D01*
X57409853Y-22844354D01*
X57284354Y-22969853D01*
X57136784Y-23068456D01*
X56972812Y-23136376D01*
X56823512Y-23166073D01*
X56798742Y-23171000D01*
X56621258Y-23171000D01*
X56596488Y-23166073D01*
X56447188Y-23136376D01*
X56283216Y-23068456D01*
X56135646Y-22969853D01*
X56010147Y-22844354D01*
X55911544Y-22696784D01*
X55843624Y-22532812D01*
X55809000Y-22358741D01*
X55809000Y-22181259D01*
X55843624Y-22007188D01*
X55911544Y-21843216D01*
X56010147Y-21695646D01*
X56135646Y-21570147D01*
X56283216Y-21471544D01*
X56447188Y-21403624D01*
X56596488Y-21373927D01*
X56621258Y-21369000D01*
X56798742Y-21369000D01*
X56823512Y-21373927D01*
G37*
G36*
X74603512Y-21373927D02*
G01*
X74752812Y-21403624D01*
X74916784Y-21471544D01*
X75064354Y-21570147D01*
X75189853Y-21695646D01*
X75288456Y-21843216D01*
X75356376Y-22007188D01*
X75391000Y-22181259D01*
X75391000Y-22358741D01*
X75356376Y-22532812D01*
X75288456Y-22696784D01*
X75189853Y-22844354D01*
X75064354Y-22969853D01*
X74916784Y-23068456D01*
X74752812Y-23136376D01*
X74603512Y-23166073D01*
X74578742Y-23171000D01*
X74401258Y-23171000D01*
X74376488Y-23166073D01*
X74227188Y-23136376D01*
X74063216Y-23068456D01*
X73915646Y-22969853D01*
X73790147Y-22844354D01*
X73691544Y-22696784D01*
X73623624Y-22532812D01*
X73589000Y-22358741D01*
X73589000Y-22181259D01*
X73623624Y-22007188D01*
X73691544Y-21843216D01*
X73790147Y-21695646D01*
X73915646Y-21570147D01*
X74063216Y-21471544D01*
X74227188Y-21403624D01*
X74376488Y-21373927D01*
X74401258Y-21369000D01*
X74578742Y-21369000D01*
X74603512Y-21373927D01*
G37*
G36*
X3653512Y-19343927D02*
G01*
X3802812Y-19373624D01*
X3966784Y-19441544D01*
X4114354Y-19540147D01*
X4239853Y-19665646D01*
X4338456Y-19813216D01*
X4406376Y-19977188D01*
X4441000Y-20151259D01*
X4441000Y-20328741D01*
X4406376Y-20502812D01*
X4338456Y-20666784D01*
X4239853Y-20814354D01*
X4114354Y-20939853D01*
X3966784Y-21038456D01*
X3802812Y-21106376D01*
X3653512Y-21136073D01*
X3628742Y-21141000D01*
X3451258Y-21141000D01*
X3426488Y-21136073D01*
X3277188Y-21106376D01*
X3113216Y-21038456D01*
X2965646Y-20939853D01*
X2840147Y-20814354D01*
X2741544Y-20666784D01*
X2673624Y-20502812D01*
X2639000Y-20328741D01*
X2639000Y-20151259D01*
X2673624Y-19977188D01*
X2741544Y-19813216D01*
X2840147Y-19665646D01*
X2965646Y-19540147D01*
X3113216Y-19441544D01*
X3277188Y-19373624D01*
X3426488Y-19343927D01*
X3451258Y-19339000D01*
X3628742Y-19339000D01*
X3653512Y-19343927D01*
G37*
G36*
X1113512Y-19343927D02*
G01*
X1262812Y-19373624D01*
X1426784Y-19441544D01*
X1574354Y-19540147D01*
X1699853Y-19665646D01*
X1798456Y-19813216D01*
X1866376Y-19977188D01*
X1901000Y-20151259D01*
X1901000Y-20328741D01*
X1866376Y-20502812D01*
X1798456Y-20666784D01*
X1699853Y-20814354D01*
X1574354Y-20939853D01*
X1426784Y-21038456D01*
X1262812Y-21106376D01*
X1113512Y-21136073D01*
X1088742Y-21141000D01*
X911258Y-21141000D01*
X886488Y-21136073D01*
X737188Y-21106376D01*
X573216Y-21038456D01*
X425646Y-20939853D01*
X300147Y-20814354D01*
X201544Y-20666784D01*
X133624Y-20502812D01*
X99000Y-20328741D01*
X99000Y-20151259D01*
X133624Y-19977188D01*
X201544Y-19813216D01*
X300147Y-19665646D01*
X425646Y-19540147D01*
X573216Y-19441544D01*
X737188Y-19373624D01*
X886488Y-19343927D01*
X911258Y-19339000D01*
X1088742Y-19339000D01*
X1113512Y-19343927D01*
G37*
G36*
X74603512Y-18833927D02*
G01*
X74752812Y-18863624D01*
X74916784Y-18931544D01*
X75064354Y-19030147D01*
X75189853Y-19155646D01*
X75288456Y-19303216D01*
X75356376Y-19467188D01*
X75391000Y-19641259D01*
X75391000Y-19818741D01*
X75356376Y-19992812D01*
X75288456Y-20156784D01*
X75189853Y-20304354D01*
X75064354Y-20429853D01*
X74916784Y-20528456D01*
X74752812Y-20596376D01*
X74603512Y-20626073D01*
X74578742Y-20631000D01*
X74401258Y-20631000D01*
X74376488Y-20626073D01*
X74227188Y-20596376D01*
X74063216Y-20528456D01*
X73915646Y-20429853D01*
X73790147Y-20304354D01*
X73691544Y-20156784D01*
X73623624Y-19992812D01*
X73589000Y-19818741D01*
X73589000Y-19641259D01*
X73623624Y-19467188D01*
X73691544Y-19303216D01*
X73790147Y-19155646D01*
X73915646Y-19030147D01*
X74063216Y-18931544D01*
X74227188Y-18863624D01*
X74376488Y-18833927D01*
X74401258Y-18829000D01*
X74578742Y-18829000D01*
X74603512Y-18833927D01*
G37*
G36*
X56823512Y-18833927D02*
G01*
X56972812Y-18863624D01*
X57136784Y-18931544D01*
X57284354Y-19030147D01*
X57409853Y-19155646D01*
X57508456Y-19303216D01*
X57576376Y-19467188D01*
X57611000Y-19641259D01*
X57611000Y-19818741D01*
X57576376Y-19992812D01*
X57508456Y-20156784D01*
X57409853Y-20304354D01*
X57284354Y-20429853D01*
X57136784Y-20528456D01*
X56972812Y-20596376D01*
X56823512Y-20626073D01*
X56798742Y-20631000D01*
X56621258Y-20631000D01*
X56596488Y-20626073D01*
X56447188Y-20596376D01*
X56283216Y-20528456D01*
X56135646Y-20429853D01*
X56010147Y-20304354D01*
X55911544Y-20156784D01*
X55843624Y-19992812D01*
X55809000Y-19818741D01*
X55809000Y-19641259D01*
X55843624Y-19467188D01*
X55911544Y-19303216D01*
X56010147Y-19155646D01*
X56135646Y-19030147D01*
X56283216Y-18931544D01*
X56447188Y-18863624D01*
X56596488Y-18833927D01*
X56621258Y-18829000D01*
X56798742Y-18829000D01*
X56823512Y-18833927D01*
G37*
G36*
X1113512Y-16803927D02*
G01*
X1262812Y-16833624D01*
X1426784Y-16901544D01*
X1574354Y-17000147D01*
X1699853Y-17125646D01*
X1798456Y-17273216D01*
X1866376Y-17437188D01*
X1901000Y-17611259D01*
X1901000Y-17788741D01*
X1866376Y-17962812D01*
X1798456Y-18126784D01*
X1699853Y-18274354D01*
X1574354Y-18399853D01*
X1426784Y-18498456D01*
X1262812Y-18566376D01*
X1113512Y-18596073D01*
X1088742Y-18601000D01*
X911258Y-18601000D01*
X886488Y-18596073D01*
X737188Y-18566376D01*
X573216Y-18498456D01*
X425646Y-18399853D01*
X300147Y-18274354D01*
X201544Y-18126784D01*
X133624Y-17962812D01*
X99000Y-17788741D01*
X99000Y-17611259D01*
X133624Y-17437188D01*
X201544Y-17273216D01*
X300147Y-17125646D01*
X425646Y-17000147D01*
X573216Y-16901544D01*
X737188Y-16833624D01*
X886488Y-16803927D01*
X911258Y-16799000D01*
X1088742Y-16799000D01*
X1113512Y-16803927D01*
G37*
G36*
X3653512Y-16803927D02*
G01*
X3802812Y-16833624D01*
X3966784Y-16901544D01*
X4114354Y-17000147D01*
X4239853Y-17125646D01*
X4338456Y-17273216D01*
X4406376Y-17437188D01*
X4441000Y-17611259D01*
X4441000Y-17788741D01*
X4406376Y-17962812D01*
X4338456Y-18126784D01*
X4239853Y-18274354D01*
X4114354Y-18399853D01*
X3966784Y-18498456D01*
X3802812Y-18566376D01*
X3653512Y-18596073D01*
X3628742Y-18601000D01*
X3451258Y-18601000D01*
X3426488Y-18596073D01*
X3277188Y-18566376D01*
X3113216Y-18498456D01*
X2965646Y-18399853D01*
X2840147Y-18274354D01*
X2741544Y-18126784D01*
X2673624Y-17962812D01*
X2639000Y-17788741D01*
X2639000Y-17611259D01*
X2673624Y-17437188D01*
X2741544Y-17273216D01*
X2840147Y-17125646D01*
X2965646Y-17000147D01*
X3113216Y-16901544D01*
X3277188Y-16833624D01*
X3426488Y-16803927D01*
X3451258Y-16799000D01*
X3628742Y-16799000D01*
X3653512Y-16803927D01*
G37*
G36*
X74603512Y-16293927D02*
G01*
X74752812Y-16323624D01*
X74916784Y-16391544D01*
X75064354Y-16490147D01*
X75189853Y-16615646D01*
X75288456Y-16763216D01*
X75356376Y-16927188D01*
X75391000Y-17101259D01*
X75391000Y-17278741D01*
X75356376Y-17452812D01*
X75288456Y-17616784D01*
X75189853Y-17764354D01*
X75064354Y-17889853D01*
X74916784Y-17988456D01*
X74752812Y-18056376D01*
X74603512Y-18086073D01*
X74578742Y-18091000D01*
X74401258Y-18091000D01*
X74376488Y-18086073D01*
X74227188Y-18056376D01*
X74063216Y-17988456D01*
X73915646Y-17889853D01*
X73790147Y-17764354D01*
X73691544Y-17616784D01*
X73623624Y-17452812D01*
X73589000Y-17278741D01*
X73589000Y-17101259D01*
X73623624Y-16927188D01*
X73691544Y-16763216D01*
X73790147Y-16615646D01*
X73915646Y-16490147D01*
X74063216Y-16391544D01*
X74227188Y-16323624D01*
X74376488Y-16293927D01*
X74401258Y-16289000D01*
X74578742Y-16289000D01*
X74603512Y-16293927D01*
G37*
G36*
X56823512Y-16293927D02*
G01*
X56972812Y-16323624D01*
X57136784Y-16391544D01*
X57284354Y-16490147D01*
X57409853Y-16615646D01*
X57508456Y-16763216D01*
X57576376Y-16927188D01*
X57611000Y-17101259D01*
X57611000Y-17278741D01*
X57576376Y-17452812D01*
X57508456Y-17616784D01*
X57409853Y-17764354D01*
X57284354Y-17889853D01*
X57136784Y-17988456D01*
X56972812Y-18056376D01*
X56823512Y-18086073D01*
X56798742Y-18091000D01*
X56621258Y-18091000D01*
X56596488Y-18086073D01*
X56447188Y-18056376D01*
X56283216Y-17988456D01*
X56135646Y-17889853D01*
X56010147Y-17764354D01*
X55911544Y-17616784D01*
X55843624Y-17452812D01*
X55809000Y-17278741D01*
X55809000Y-17101259D01*
X55843624Y-16927188D01*
X55911544Y-16763216D01*
X56010147Y-16615646D01*
X56135646Y-16490147D01*
X56283216Y-16391544D01*
X56447188Y-16323624D01*
X56596488Y-16293927D01*
X56621258Y-16289000D01*
X56798742Y-16289000D01*
X56823512Y-16293927D01*
G37*
G36*
X1113512Y-14263927D02*
G01*
X1262812Y-14293624D01*
X1426784Y-14361544D01*
X1574354Y-14460147D01*
X1699853Y-14585646D01*
X1798456Y-14733216D01*
X1866376Y-14897188D01*
X1901000Y-15071259D01*
X1901000Y-15248741D01*
X1866376Y-15422812D01*
X1798456Y-15586784D01*
X1699853Y-15734354D01*
X1574354Y-15859853D01*
X1426784Y-15958456D01*
X1262812Y-16026376D01*
X1113512Y-16056073D01*
X1088742Y-16061000D01*
X911258Y-16061000D01*
X886488Y-16056073D01*
X737188Y-16026376D01*
X573216Y-15958456D01*
X425646Y-15859853D01*
X300147Y-15734354D01*
X201544Y-15586784D01*
X133624Y-15422812D01*
X99000Y-15248741D01*
X99000Y-15071259D01*
X133624Y-14897188D01*
X201544Y-14733216D01*
X300147Y-14585646D01*
X425646Y-14460147D01*
X573216Y-14361544D01*
X737188Y-14293624D01*
X886488Y-14263927D01*
X911258Y-14259000D01*
X1088742Y-14259000D01*
X1113512Y-14263927D01*
G37*
G36*
X3653512Y-14263927D02*
G01*
X3802812Y-14293624D01*
X3966784Y-14361544D01*
X4114354Y-14460147D01*
X4239853Y-14585646D01*
X4338456Y-14733216D01*
X4406376Y-14897188D01*
X4441000Y-15071259D01*
X4441000Y-15248741D01*
X4406376Y-15422812D01*
X4338456Y-15586784D01*
X4239853Y-15734354D01*
X4114354Y-15859853D01*
X3966784Y-15958456D01*
X3802812Y-16026376D01*
X3653512Y-16056073D01*
X3628742Y-16061000D01*
X3451258Y-16061000D01*
X3426488Y-16056073D01*
X3277188Y-16026376D01*
X3113216Y-15958456D01*
X2965646Y-15859853D01*
X2840147Y-15734354D01*
X2741544Y-15586784D01*
X2673624Y-15422812D01*
X2639000Y-15248741D01*
X2639000Y-15071259D01*
X2673624Y-14897188D01*
X2741544Y-14733216D01*
X2840147Y-14585646D01*
X2965646Y-14460147D01*
X3113216Y-14361544D01*
X3277188Y-14293624D01*
X3426488Y-14263927D01*
X3451258Y-14259000D01*
X3628742Y-14259000D01*
X3653512Y-14263927D01*
G37*
G36*
X36431512Y-13951927D02*
G01*
X36580812Y-13981624D01*
X36744784Y-14049544D01*
X36892354Y-14148147D01*
X37017853Y-14273646D01*
X37116456Y-14421216D01*
X37184376Y-14585188D01*
X37219000Y-14759259D01*
X37219000Y-14936741D01*
X37184376Y-15110812D01*
X37116456Y-15274784D01*
X37017853Y-15422354D01*
X36892354Y-15547853D01*
X36744784Y-15646456D01*
X36580812Y-15714376D01*
X36431512Y-15744073D01*
X36406742Y-15749000D01*
X36229258Y-15749000D01*
X36204488Y-15744073D01*
X36055188Y-15714376D01*
X35891216Y-15646456D01*
X35743646Y-15547853D01*
X35618147Y-15422354D01*
X35519544Y-15274784D01*
X35451624Y-15110812D01*
X35417000Y-14936741D01*
X35417000Y-14759259D01*
X35451624Y-14585188D01*
X35519544Y-14421216D01*
X35618147Y-14273646D01*
X35743646Y-14148147D01*
X35891216Y-14049544D01*
X36055188Y-13981624D01*
X36204488Y-13951927D01*
X36229258Y-13947000D01*
X36406742Y-13947000D01*
X36431512Y-13951927D01*
G37*
G36*
X33891512Y-13951927D02*
G01*
X34040812Y-13981624D01*
X34204784Y-14049544D01*
X34352354Y-14148147D01*
X34477853Y-14273646D01*
X34576456Y-14421216D01*
X34644376Y-14585188D01*
X34679000Y-14759259D01*
X34679000Y-14936741D01*
X34644376Y-15110812D01*
X34576456Y-15274784D01*
X34477853Y-15422354D01*
X34352354Y-15547853D01*
X34204784Y-15646456D01*
X34040812Y-15714376D01*
X33891512Y-15744073D01*
X33866742Y-15749000D01*
X33689258Y-15749000D01*
X33664488Y-15744073D01*
X33515188Y-15714376D01*
X33351216Y-15646456D01*
X33203646Y-15547853D01*
X33078147Y-15422354D01*
X32979544Y-15274784D01*
X32911624Y-15110812D01*
X32877000Y-14936741D01*
X32877000Y-14759259D01*
X32911624Y-14585188D01*
X32979544Y-14421216D01*
X33078147Y-14273646D01*
X33203646Y-14148147D01*
X33351216Y-14049544D01*
X33515188Y-13981624D01*
X33664488Y-13951927D01*
X33689258Y-13947000D01*
X33866742Y-13947000D01*
X33891512Y-13951927D01*
G37*
G36*
X32139000Y-15749000D02*
G01*
X30337000Y-15749000D01*
X30337000Y-13947000D01*
X32139000Y-13947000D01*
X32139000Y-15749000D01*
G37*
G36*
X38971512Y-13951927D02*
G01*
X39120812Y-13981624D01*
X39284784Y-14049544D01*
X39432354Y-14148147D01*
X39557853Y-14273646D01*
X39656456Y-14421216D01*
X39724376Y-14585188D01*
X39759000Y-14759259D01*
X39759000Y-14936741D01*
X39724376Y-15110812D01*
X39656456Y-15274784D01*
X39557853Y-15422354D01*
X39432354Y-15547853D01*
X39284784Y-15646456D01*
X39120812Y-15714376D01*
X38971512Y-15744073D01*
X38946742Y-15749000D01*
X38769258Y-15749000D01*
X38744488Y-15744073D01*
X38595188Y-15714376D01*
X38431216Y-15646456D01*
X38283646Y-15547853D01*
X38158147Y-15422354D01*
X38059544Y-15274784D01*
X37991624Y-15110812D01*
X37957000Y-14936741D01*
X37957000Y-14759259D01*
X37991624Y-14585188D01*
X38059544Y-14421216D01*
X38158147Y-14273646D01*
X38283646Y-14148147D01*
X38431216Y-14049544D01*
X38595188Y-13981624D01*
X38744488Y-13951927D01*
X38769258Y-13947000D01*
X38946742Y-13947000D01*
X38971512Y-13951927D01*
G37*
G36*
X75391000Y-15551000D02*
G01*
X73589000Y-15551000D01*
X73589000Y-13749000D01*
X75391000Y-13749000D01*
X75391000Y-15551000D01*
G37*
G36*
X57611000Y-15551000D02*
G01*
X55809000Y-15551000D01*
X55809000Y-13749000D01*
X57611000Y-13749000D01*
X57611000Y-15551000D01*
G37*
G36*
X3653512Y-11723927D02*
G01*
X3802812Y-11753624D01*
X3966784Y-11821544D01*
X4114354Y-11920147D01*
X4239853Y-12045646D01*
X4338456Y-12193216D01*
X4406376Y-12357188D01*
X4441000Y-12531259D01*
X4441000Y-12708741D01*
X4406376Y-12882812D01*
X4338456Y-13046784D01*
X4239853Y-13194354D01*
X4114354Y-13319853D01*
X3966784Y-13418456D01*
X3802812Y-13486376D01*
X3653512Y-13516073D01*
X3628742Y-13521000D01*
X3451258Y-13521000D01*
X3426488Y-13516073D01*
X3277188Y-13486376D01*
X3113216Y-13418456D01*
X2965646Y-13319853D01*
X2840147Y-13194354D01*
X2741544Y-13046784D01*
X2673624Y-12882812D01*
X2639000Y-12708741D01*
X2639000Y-12531259D01*
X2673624Y-12357188D01*
X2741544Y-12193216D01*
X2840147Y-12045646D01*
X2965646Y-11920147D01*
X3113216Y-11821544D01*
X3277188Y-11753624D01*
X3426488Y-11723927D01*
X3451258Y-11719000D01*
X3628742Y-11719000D01*
X3653512Y-11723927D01*
G37*
G36*
X1113512Y-11723927D02*
G01*
X1262812Y-11753624D01*
X1426784Y-11821544D01*
X1574354Y-11920147D01*
X1699853Y-12045646D01*
X1798456Y-12193216D01*
X1866376Y-12357188D01*
X1901000Y-12531259D01*
X1901000Y-12708741D01*
X1866376Y-12882812D01*
X1798456Y-13046784D01*
X1699853Y-13194354D01*
X1574354Y-13319853D01*
X1426784Y-13418456D01*
X1262812Y-13486376D01*
X1113512Y-13516073D01*
X1088742Y-13521000D01*
X911258Y-13521000D01*
X886488Y-13516073D01*
X737188Y-13486376D01*
X573216Y-13418456D01*
X425646Y-13319853D01*
X300147Y-13194354D01*
X201544Y-13046784D01*
X133624Y-12882812D01*
X99000Y-12708741D01*
X99000Y-12531259D01*
X133624Y-12357188D01*
X201544Y-12193216D01*
X300147Y-12045646D01*
X425646Y-11920147D01*
X573216Y-11821544D01*
X737188Y-11753624D01*
X886488Y-11723927D01*
X911258Y-11719000D01*
X1088742Y-11719000D01*
X1113512Y-11723927D01*
G37*
G36*
X56823512Y-11213927D02*
G01*
X56972812Y-11243624D01*
X57136784Y-11311544D01*
X57284354Y-11410147D01*
X57409853Y-11535646D01*
X57508456Y-11683216D01*
X57576376Y-11847188D01*
X57611000Y-12021259D01*
X57611000Y-12198741D01*
X57576376Y-12372812D01*
X57508456Y-12536784D01*
X57409853Y-12684354D01*
X57284354Y-12809853D01*
X57136784Y-12908456D01*
X56972812Y-12976376D01*
X56823512Y-13006073D01*
X56798742Y-13011000D01*
X56621258Y-13011000D01*
X56596488Y-13006073D01*
X56447188Y-12976376D01*
X56283216Y-12908456D01*
X56135646Y-12809853D01*
X56010147Y-12684354D01*
X55911544Y-12536784D01*
X55843624Y-12372812D01*
X55809000Y-12198741D01*
X55809000Y-12021259D01*
X55843624Y-11847188D01*
X55911544Y-11683216D01*
X56010147Y-11535646D01*
X56135646Y-11410147D01*
X56283216Y-11311544D01*
X56447188Y-11243624D01*
X56596488Y-11213927D01*
X56621258Y-11209000D01*
X56798742Y-11209000D01*
X56823512Y-11213927D01*
G37*
G36*
X74603512Y-11213927D02*
G01*
X74752812Y-11243624D01*
X74916784Y-11311544D01*
X75064354Y-11410147D01*
X75189853Y-11535646D01*
X75288456Y-11683216D01*
X75356376Y-11847188D01*
X75391000Y-12021259D01*
X75391000Y-12198741D01*
X75356376Y-12372812D01*
X75288456Y-12536784D01*
X75189853Y-12684354D01*
X75064354Y-12809853D01*
X74916784Y-12908456D01*
X74752812Y-12976376D01*
X74603512Y-13006073D01*
X74578742Y-13011000D01*
X74401258Y-13011000D01*
X74376488Y-13006073D01*
X74227188Y-12976376D01*
X74063216Y-12908456D01*
X73915646Y-12809853D01*
X73790147Y-12684354D01*
X73691544Y-12536784D01*
X73623624Y-12372812D01*
X73589000Y-12198741D01*
X73589000Y-12021259D01*
X73623624Y-11847188D01*
X73691544Y-11683216D01*
X73790147Y-11535646D01*
X73915646Y-11410147D01*
X74063216Y-11311544D01*
X74227188Y-11243624D01*
X74376488Y-11213927D01*
X74401258Y-11209000D01*
X74578742Y-11209000D01*
X74603512Y-11213927D01*
G37*
G36*
X3653512Y-9183927D02*
G01*
X3802812Y-9213624D01*
X3966784Y-9281544D01*
X4114354Y-9380147D01*
X4239853Y-9505646D01*
X4338456Y-9653216D01*
X4406376Y-9817188D01*
X4441000Y-9991259D01*
X4441000Y-10168741D01*
X4406376Y-10342812D01*
X4338456Y-10506784D01*
X4239853Y-10654354D01*
X4114354Y-10779853D01*
X3966784Y-10878456D01*
X3802812Y-10946376D01*
X3653512Y-10976073D01*
X3628742Y-10981000D01*
X3451258Y-10981000D01*
X3426488Y-10976073D01*
X3277188Y-10946376D01*
X3113216Y-10878456D01*
X2965646Y-10779853D01*
X2840147Y-10654354D01*
X2741544Y-10506784D01*
X2673624Y-10342812D01*
X2639000Y-10168741D01*
X2639000Y-9991259D01*
X2673624Y-9817188D01*
X2741544Y-9653216D01*
X2840147Y-9505646D01*
X2965646Y-9380147D01*
X3113216Y-9281544D01*
X3277188Y-9213624D01*
X3426488Y-9183927D01*
X3451258Y-9179000D01*
X3628742Y-9179000D01*
X3653512Y-9183927D01*
G37*
G36*
X1113512Y-9183927D02*
G01*
X1262812Y-9213624D01*
X1426784Y-9281544D01*
X1574354Y-9380147D01*
X1699853Y-9505646D01*
X1798456Y-9653216D01*
X1866376Y-9817188D01*
X1901000Y-9991259D01*
X1901000Y-10168741D01*
X1866376Y-10342812D01*
X1798456Y-10506784D01*
X1699853Y-10654354D01*
X1574354Y-10779853D01*
X1426784Y-10878456D01*
X1262812Y-10946376D01*
X1113512Y-10976073D01*
X1088742Y-10981000D01*
X911258Y-10981000D01*
X886488Y-10976073D01*
X737188Y-10946376D01*
X573216Y-10878456D01*
X425646Y-10779853D01*
X300147Y-10654354D01*
X201544Y-10506784D01*
X133624Y-10342812D01*
X99000Y-10168741D01*
X99000Y-9991259D01*
X133624Y-9817188D01*
X201544Y-9653216D01*
X300147Y-9505646D01*
X425646Y-9380147D01*
X573216Y-9281544D01*
X737188Y-9213624D01*
X886488Y-9183927D01*
X911258Y-9179000D01*
X1088742Y-9179000D01*
X1113512Y-9183927D01*
G37*
G36*
X74603512Y-8673927D02*
G01*
X74752812Y-8703624D01*
X74916784Y-8771544D01*
X75064354Y-8870147D01*
X75189853Y-8995646D01*
X75288456Y-9143216D01*
X75356376Y-9307188D01*
X75391000Y-9481259D01*
X75391000Y-9658741D01*
X75356376Y-9832812D01*
X75288456Y-9996784D01*
X75189853Y-10144354D01*
X75064354Y-10269853D01*
X74916784Y-10368456D01*
X74752812Y-10436376D01*
X74603512Y-10466073D01*
X74578742Y-10471000D01*
X74401258Y-10471000D01*
X74376488Y-10466073D01*
X74227188Y-10436376D01*
X74063216Y-10368456D01*
X73915646Y-10269853D01*
X73790147Y-10144354D01*
X73691544Y-9996784D01*
X73623624Y-9832812D01*
X73589000Y-9658741D01*
X73589000Y-9481259D01*
X73623624Y-9307188D01*
X73691544Y-9143216D01*
X73790147Y-8995646D01*
X73915646Y-8870147D01*
X74063216Y-8771544D01*
X74227188Y-8703624D01*
X74376488Y-8673927D01*
X74401258Y-8669000D01*
X74578742Y-8669000D01*
X74603512Y-8673927D01*
G37*
G36*
X56823512Y-8673927D02*
G01*
X56972812Y-8703624D01*
X57136784Y-8771544D01*
X57284354Y-8870147D01*
X57409853Y-8995646D01*
X57508456Y-9143216D01*
X57576376Y-9307188D01*
X57611000Y-9481259D01*
X57611000Y-9658741D01*
X57576376Y-9832812D01*
X57508456Y-9996784D01*
X57409853Y-10144354D01*
X57284354Y-10269853D01*
X57136784Y-10368456D01*
X56972812Y-10436376D01*
X56823512Y-10466073D01*
X56798742Y-10471000D01*
X56621258Y-10471000D01*
X56596488Y-10466073D01*
X56447188Y-10436376D01*
X56283216Y-10368456D01*
X56135646Y-10269853D01*
X56010147Y-10144354D01*
X55911544Y-9996784D01*
X55843624Y-9832812D01*
X55809000Y-9658741D01*
X55809000Y-9481259D01*
X55843624Y-9307188D01*
X55911544Y-9143216D01*
X56010147Y-8995646D01*
X56135646Y-8870147D01*
X56283216Y-8771544D01*
X56447188Y-8703624D01*
X56596488Y-8673927D01*
X56621258Y-8669000D01*
X56798742Y-8669000D01*
X56823512Y-8673927D01*
G37*
G36*
X1113512Y-6643927D02*
G01*
X1262812Y-6673624D01*
X1426784Y-6741544D01*
X1574354Y-6840147D01*
X1699853Y-6965646D01*
X1798456Y-7113216D01*
X1866376Y-7277188D01*
X1901000Y-7451259D01*
X1901000Y-7628741D01*
X1866376Y-7802812D01*
X1798456Y-7966784D01*
X1699853Y-8114354D01*
X1574354Y-8239853D01*
X1426784Y-8338456D01*
X1262812Y-8406376D01*
X1113512Y-8436073D01*
X1088742Y-8441000D01*
X911258Y-8441000D01*
X886488Y-8436073D01*
X737188Y-8406376D01*
X573216Y-8338456D01*
X425646Y-8239853D01*
X300147Y-8114354D01*
X201544Y-7966784D01*
X133624Y-7802812D01*
X99000Y-7628741D01*
X99000Y-7451259D01*
X133624Y-7277188D01*
X201544Y-7113216D01*
X300147Y-6965646D01*
X425646Y-6840147D01*
X573216Y-6741544D01*
X737188Y-6673624D01*
X886488Y-6643927D01*
X911258Y-6639000D01*
X1088742Y-6639000D01*
X1113512Y-6643927D01*
G37*
G36*
X3653512Y-6643927D02*
G01*
X3802812Y-6673624D01*
X3966784Y-6741544D01*
X4114354Y-6840147D01*
X4239853Y-6965646D01*
X4338456Y-7113216D01*
X4406376Y-7277188D01*
X4441000Y-7451259D01*
X4441000Y-7628741D01*
X4406376Y-7802812D01*
X4338456Y-7966784D01*
X4239853Y-8114354D01*
X4114354Y-8239853D01*
X3966784Y-8338456D01*
X3802812Y-8406376D01*
X3653512Y-8436073D01*
X3628742Y-8441000D01*
X3451258Y-8441000D01*
X3426488Y-8436073D01*
X3277188Y-8406376D01*
X3113216Y-8338456D01*
X2965646Y-8239853D01*
X2840147Y-8114354D01*
X2741544Y-7966784D01*
X2673624Y-7802812D01*
X2639000Y-7628741D01*
X2639000Y-7451259D01*
X2673624Y-7277188D01*
X2741544Y-7113216D01*
X2840147Y-6965646D01*
X2965646Y-6840147D01*
X3113216Y-6741544D01*
X3277188Y-6673624D01*
X3426488Y-6643927D01*
X3451258Y-6639000D01*
X3628742Y-6639000D01*
X3653512Y-6643927D01*
G37*
G36*
X56823512Y-6133927D02*
G01*
X56972812Y-6163624D01*
X57136784Y-6231544D01*
X57284354Y-6330147D01*
X57409853Y-6455646D01*
X57508456Y-6603216D01*
X57576376Y-6767188D01*
X57611000Y-6941259D01*
X57611000Y-7118741D01*
X57576376Y-7292812D01*
X57508456Y-7456784D01*
X57409853Y-7604354D01*
X57284354Y-7729853D01*
X57136784Y-7828456D01*
X56972812Y-7896376D01*
X56823512Y-7926073D01*
X56798742Y-7931000D01*
X56621258Y-7931000D01*
X56596488Y-7926073D01*
X56447188Y-7896376D01*
X56283216Y-7828456D01*
X56135646Y-7729853D01*
X56010147Y-7604354D01*
X55911544Y-7456784D01*
X55843624Y-7292812D01*
X55809000Y-7118741D01*
X55809000Y-6941259D01*
X55843624Y-6767188D01*
X55911544Y-6603216D01*
X56010147Y-6455646D01*
X56135646Y-6330147D01*
X56283216Y-6231544D01*
X56447188Y-6163624D01*
X56596488Y-6133927D01*
X56621258Y-6129000D01*
X56798742Y-6129000D01*
X56823512Y-6133927D01*
G37*
G36*
X74603512Y-6133927D02*
G01*
X74752812Y-6163624D01*
X74916784Y-6231544D01*
X75064354Y-6330147D01*
X75189853Y-6455646D01*
X75288456Y-6603216D01*
X75356376Y-6767188D01*
X75391000Y-6941259D01*
X75391000Y-7118741D01*
X75356376Y-7292812D01*
X75288456Y-7456784D01*
X75189853Y-7604354D01*
X75064354Y-7729853D01*
X74916784Y-7828456D01*
X74752812Y-7896376D01*
X74603512Y-7926073D01*
X74578742Y-7931000D01*
X74401258Y-7931000D01*
X74376488Y-7926073D01*
X74227188Y-7896376D01*
X74063216Y-7828456D01*
X73915646Y-7729853D01*
X73790147Y-7604354D01*
X73691544Y-7456784D01*
X73623624Y-7292812D01*
X73589000Y-7118741D01*
X73589000Y-6941259D01*
X73623624Y-6767188D01*
X73691544Y-6603216D01*
X73790147Y-6455646D01*
X73915646Y-6330147D01*
X74063216Y-6231544D01*
X74227188Y-6163624D01*
X74376488Y-6133927D01*
X74401258Y-6129000D01*
X74578742Y-6129000D01*
X74603512Y-6133927D01*
G37*
G36*
X3653512Y-4103927D02*
G01*
X3802812Y-4133624D01*
X3966784Y-4201544D01*
X4114354Y-4300147D01*
X4239853Y-4425646D01*
X4338456Y-4573216D01*
X4406376Y-4737188D01*
X4441000Y-4911259D01*
X4441000Y-5088741D01*
X4406376Y-5262812D01*
X4338456Y-5426784D01*
X4239853Y-5574354D01*
X4114354Y-5699853D01*
X3966784Y-5798456D01*
X3802812Y-5866376D01*
X3653512Y-5896073D01*
X3628742Y-5901000D01*
X3451258Y-5901000D01*
X3426488Y-5896073D01*
X3277188Y-5866376D01*
X3113216Y-5798456D01*
X2965646Y-5699853D01*
X2840147Y-5574354D01*
X2741544Y-5426784D01*
X2673624Y-5262812D01*
X2639000Y-5088741D01*
X2639000Y-4911259D01*
X2673624Y-4737188D01*
X2741544Y-4573216D01*
X2840147Y-4425646D01*
X2965646Y-4300147D01*
X3113216Y-4201544D01*
X3277188Y-4133624D01*
X3426488Y-4103927D01*
X3451258Y-4099000D01*
X3628742Y-4099000D01*
X3653512Y-4103927D01*
G37*
G36*
X1113512Y-4103927D02*
G01*
X1262812Y-4133624D01*
X1426784Y-4201544D01*
X1574354Y-4300147D01*
X1699853Y-4425646D01*
X1798456Y-4573216D01*
X1866376Y-4737188D01*
X1901000Y-4911259D01*
X1901000Y-5088741D01*
X1866376Y-5262812D01*
X1798456Y-5426784D01*
X1699853Y-5574354D01*
X1574354Y-5699853D01*
X1426784Y-5798456D01*
X1262812Y-5866376D01*
X1113512Y-5896073D01*
X1088742Y-5901000D01*
X911258Y-5901000D01*
X886488Y-5896073D01*
X737188Y-5866376D01*
X573216Y-5798456D01*
X425646Y-5699853D01*
X300147Y-5574354D01*
X201544Y-5426784D01*
X133624Y-5262812D01*
X99000Y-5088741D01*
X99000Y-4911259D01*
X133624Y-4737188D01*
X201544Y-4573216D01*
X300147Y-4425646D01*
X425646Y-4300147D01*
X573216Y-4201544D01*
X737188Y-4133624D01*
X886488Y-4103927D01*
X911258Y-4099000D01*
X1088742Y-4099000D01*
X1113512Y-4103927D01*
G37*
G36*
X74603512Y-3593927D02*
G01*
X74752812Y-3623624D01*
X74916784Y-3691544D01*
X75064354Y-3790147D01*
X75189853Y-3915646D01*
X75288456Y-4063216D01*
X75356376Y-4227188D01*
X75391000Y-4401259D01*
X75391000Y-4578741D01*
X75356376Y-4752812D01*
X75288456Y-4916784D01*
X75189853Y-5064354D01*
X75064354Y-5189853D01*
X74916784Y-5288456D01*
X74752812Y-5356376D01*
X74603512Y-5386073D01*
X74578742Y-5391000D01*
X74401258Y-5391000D01*
X74376488Y-5386073D01*
X74227188Y-5356376D01*
X74063216Y-5288456D01*
X73915646Y-5189853D01*
X73790147Y-5064354D01*
X73691544Y-4916784D01*
X73623624Y-4752812D01*
X73589000Y-4578741D01*
X73589000Y-4401259D01*
X73623624Y-4227188D01*
X73691544Y-4063216D01*
X73790147Y-3915646D01*
X73915646Y-3790147D01*
X74063216Y-3691544D01*
X74227188Y-3623624D01*
X74376488Y-3593927D01*
X74401258Y-3589000D01*
X74578742Y-3589000D01*
X74603512Y-3593927D01*
G37*
G36*
X56823512Y-3593927D02*
G01*
X56972812Y-3623624D01*
X57136784Y-3691544D01*
X57284354Y-3790147D01*
X57409853Y-3915646D01*
X57508456Y-4063216D01*
X57576376Y-4227188D01*
X57611000Y-4401259D01*
X57611000Y-4578741D01*
X57576376Y-4752812D01*
X57508456Y-4916784D01*
X57409853Y-5064354D01*
X57284354Y-5189853D01*
X57136784Y-5288456D01*
X56972812Y-5356376D01*
X56823512Y-5386073D01*
X56798742Y-5391000D01*
X56621258Y-5391000D01*
X56596488Y-5386073D01*
X56447188Y-5356376D01*
X56283216Y-5288456D01*
X56135646Y-5189853D01*
X56010147Y-5064354D01*
X55911544Y-4916784D01*
X55843624Y-4752812D01*
X55809000Y-4578741D01*
X55809000Y-4401259D01*
X55843624Y-4227188D01*
X55911544Y-4063216D01*
X56010147Y-3915646D01*
X56135646Y-3790147D01*
X56283216Y-3691544D01*
X56447188Y-3623624D01*
X56596488Y-3593927D01*
X56621258Y-3589000D01*
X56798742Y-3589000D01*
X56823512Y-3593927D01*
G37*
G36*
X1113512Y-1563927D02*
G01*
X1262812Y-1593624D01*
X1426784Y-1661544D01*
X1574354Y-1760147D01*
X1699853Y-1885646D01*
X1798456Y-2033216D01*
X1866376Y-2197188D01*
X1901000Y-2371259D01*
X1901000Y-2548741D01*
X1866376Y-2722812D01*
X1798456Y-2886784D01*
X1699853Y-3034354D01*
X1574354Y-3159853D01*
X1426784Y-3258456D01*
X1262812Y-3326376D01*
X1113512Y-3356073D01*
X1088742Y-3361000D01*
X911258Y-3361000D01*
X886488Y-3356073D01*
X737188Y-3326376D01*
X573216Y-3258456D01*
X425646Y-3159853D01*
X300147Y-3034354D01*
X201544Y-2886784D01*
X133624Y-2722812D01*
X99000Y-2548741D01*
X99000Y-2371259D01*
X133624Y-2197188D01*
X201544Y-2033216D01*
X300147Y-1885646D01*
X425646Y-1760147D01*
X573216Y-1661544D01*
X737188Y-1593624D01*
X886488Y-1563927D01*
X911258Y-1559000D01*
X1088742Y-1559000D01*
X1113512Y-1563927D01*
G37*
G36*
X3653512Y-1563927D02*
G01*
X3802812Y-1593624D01*
X3966784Y-1661544D01*
X4114354Y-1760147D01*
X4239853Y-1885646D01*
X4338456Y-2033216D01*
X4406376Y-2197188D01*
X4441000Y-2371259D01*
X4441000Y-2548741D01*
X4406376Y-2722812D01*
X4338456Y-2886784D01*
X4239853Y-3034354D01*
X4114354Y-3159853D01*
X3966784Y-3258456D01*
X3802812Y-3326376D01*
X3653512Y-3356073D01*
X3628742Y-3361000D01*
X3451258Y-3361000D01*
X3426488Y-3356073D01*
X3277188Y-3326376D01*
X3113216Y-3258456D01*
X2965646Y-3159853D01*
X2840147Y-3034354D01*
X2741544Y-2886784D01*
X2673624Y-2722812D01*
X2639000Y-2548741D01*
X2639000Y-2371259D01*
X2673624Y-2197188D01*
X2741544Y-2033216D01*
X2840147Y-1885646D01*
X2965646Y-1760147D01*
X3113216Y-1661544D01*
X3277188Y-1593624D01*
X3426488Y-1563927D01*
X3451258Y-1559000D01*
X3628742Y-1559000D01*
X3653512Y-1563927D01*
G37*
G36*
X57611000Y-2851000D02*
G01*
X55809000Y-2851000D01*
X55809000Y-1049000D01*
X57611000Y-1049000D01*
X57611000Y-2851000D01*
G37*
G36*
X75391000Y-2851000D02*
G01*
X73589000Y-2851000D01*
X73589000Y-1049000D01*
X75391000Y-1049000D01*
X75391000Y-2851000D01*
G37*
G36*
X1113512Y976073D02*
G01*
X1262812Y946376D01*
X1426784Y878456D01*
X1574354Y779853D01*
X1699853Y654354D01*
X1798456Y506784D01*
X1866376Y342812D01*
X1901000Y168741D01*
X1901000Y-8741D01*
X1866376Y-182812D01*
X1798456Y-346784D01*
X1699853Y-494354D01*
X1574354Y-619853D01*
X1426784Y-718456D01*
X1262812Y-786376D01*
X1113512Y-816073D01*
X1088742Y-821000D01*
X911258Y-821000D01*
X886488Y-816073D01*
X737188Y-786376D01*
X573216Y-718456D01*
X425646Y-619853D01*
X300147Y-494354D01*
X201544Y-346784D01*
X133624Y-182812D01*
X99000Y-8741D01*
X99000Y168741D01*
X133624Y342812D01*
X201544Y506784D01*
X300147Y654354D01*
X425646Y779853D01*
X573216Y878456D01*
X737188Y946376D01*
X886488Y976073D01*
X911258Y981000D01*
X1088742Y981000D01*
X1113512Y976073D01*
G37*
G36*
X3653512Y976073D02*
G01*
X3802812Y946376D01*
X3966784Y878456D01*
X4114354Y779853D01*
X4239853Y654354D01*
X4338456Y506784D01*
X4406376Y342812D01*
X4441000Y168741D01*
X4441000Y-8741D01*
X4406376Y-182812D01*
X4338456Y-346784D01*
X4239853Y-494354D01*
X4114354Y-619853D01*
X3966784Y-718456D01*
X3802812Y-786376D01*
X3653512Y-816073D01*
X3628742Y-821000D01*
X3451258Y-821000D01*
X3426488Y-816073D01*
X3277188Y-786376D01*
X3113216Y-718456D01*
X2965646Y-619853D01*
X2840147Y-494354D01*
X2741544Y-346784D01*
X2673624Y-182812D01*
X2639000Y-8741D01*
X2639000Y168741D01*
X2673624Y342812D01*
X2741544Y506784D01*
X2840147Y654354D01*
X2965646Y779853D01*
X3113216Y878456D01*
X3277188Y946376D01*
X3426488Y976073D01*
X3451258Y981000D01*
X3628742Y981000D01*
X3653512Y976073D01*
G37*
G36*
X56823512Y1486073D02*
G01*
X56972812Y1456376D01*
X57136784Y1388456D01*
X57284354Y1289853D01*
X57409853Y1164354D01*
X57508456Y1016784D01*
X57576376Y852812D01*
X57611000Y678741D01*
X57611000Y501259D01*
X57576376Y327188D01*
X57508456Y163216D01*
X57409853Y15646D01*
X57284354Y-109853D01*
X57136784Y-208456D01*
X56972812Y-276376D01*
X56823512Y-306073D01*
X56798742Y-311000D01*
X56621258Y-311000D01*
X56596488Y-306073D01*
X56447188Y-276376D01*
X56283216Y-208456D01*
X56135646Y-109853D01*
X56010147Y15646D01*
X55911544Y163216D01*
X55843624Y327188D01*
X55809000Y501259D01*
X55809000Y678741D01*
X55843624Y852812D01*
X55911544Y1016784D01*
X56010147Y1164354D01*
X56135646Y1289853D01*
X56283216Y1388456D01*
X56447188Y1456376D01*
X56596488Y1486073D01*
X56621258Y1491000D01*
X56798742Y1491000D01*
X56823512Y1486073D01*
G37*
G36*
X74603512Y1486073D02*
G01*
X74752812Y1456376D01*
X74916784Y1388456D01*
X75064354Y1289853D01*
X75189853Y1164354D01*
X75288456Y1016784D01*
X75356376Y852812D01*
X75391000Y678741D01*
X75391000Y501259D01*
X75356376Y327188D01*
X75288456Y163216D01*
X75189853Y15646D01*
X75064354Y-109853D01*
X74916784Y-208456D01*
X74752812Y-276376D01*
X74603512Y-306073D01*
X74578742Y-311000D01*
X74401258Y-311000D01*
X74376488Y-306073D01*
X74227188Y-276376D01*
X74063216Y-208456D01*
X73915646Y-109853D01*
X73790147Y15646D01*
X73691544Y163216D01*
X73623624Y327188D01*
X73589000Y501259D01*
X73589000Y678741D01*
X73623624Y852812D01*
X73691544Y1016784D01*
X73790147Y1164354D01*
X73915646Y1289853D01*
X74063216Y1388456D01*
X74227188Y1456376D01*
X74376488Y1486073D01*
X74401258Y1491000D01*
X74578742Y1491000D01*
X74603512Y1486073D01*
G37*
G36*
X1113512Y3516073D02*
G01*
X1262812Y3486376D01*
X1426784Y3418456D01*
X1574354Y3319853D01*
X1699853Y3194354D01*
X1798456Y3046784D01*
X1866376Y2882812D01*
X1901000Y2708741D01*
X1901000Y2531259D01*
X1866376Y2357188D01*
X1798456Y2193216D01*
X1699853Y2045646D01*
X1574354Y1920147D01*
X1426784Y1821544D01*
X1262812Y1753624D01*
X1113512Y1723927D01*
X1088742Y1719000D01*
X911258Y1719000D01*
X886488Y1723927D01*
X737188Y1753624D01*
X573216Y1821544D01*
X425646Y1920147D01*
X300147Y2045646D01*
X201544Y2193216D01*
X133624Y2357188D01*
X99000Y2531259D01*
X99000Y2708741D01*
X133624Y2882812D01*
X201544Y3046784D01*
X300147Y3194354D01*
X425646Y3319853D01*
X573216Y3418456D01*
X737188Y3486376D01*
X886488Y3516073D01*
X911258Y3521000D01*
X1088742Y3521000D01*
X1113512Y3516073D01*
G37*
G36*
X3653512Y3516073D02*
G01*
X3802812Y3486376D01*
X3966784Y3418456D01*
X4114354Y3319853D01*
X4239853Y3194354D01*
X4338456Y3046784D01*
X4406376Y2882812D01*
X4441000Y2708741D01*
X4441000Y2531259D01*
X4406376Y2357188D01*
X4338456Y2193216D01*
X4239853Y2045646D01*
X4114354Y1920147D01*
X3966784Y1821544D01*
X3802812Y1753624D01*
X3653512Y1723927D01*
X3628742Y1719000D01*
X3451258Y1719000D01*
X3426488Y1723927D01*
X3277188Y1753624D01*
X3113216Y1821544D01*
X2965646Y1920147D01*
X2840147Y2045646D01*
X2741544Y2193216D01*
X2673624Y2357188D01*
X2639000Y2531259D01*
X2639000Y2708741D01*
X2673624Y2882812D01*
X2741544Y3046784D01*
X2840147Y3194354D01*
X2965646Y3319853D01*
X3113216Y3418456D01*
X3277188Y3486376D01*
X3426488Y3516073D01*
X3451258Y3521000D01*
X3628742Y3521000D01*
X3653512Y3516073D01*
G37*
G36*
X56823512Y4026073D02*
G01*
X56972812Y3996376D01*
X57136784Y3928456D01*
X57284354Y3829853D01*
X57409853Y3704354D01*
X57508456Y3556784D01*
X57576376Y3392812D01*
X57611000Y3218741D01*
X57611000Y3041259D01*
X57576376Y2867188D01*
X57508456Y2703216D01*
X57409853Y2555646D01*
X57284354Y2430147D01*
X57136784Y2331544D01*
X56972812Y2263624D01*
X56823512Y2233927D01*
X56798742Y2229000D01*
X56621258Y2229000D01*
X56596488Y2233927D01*
X56447188Y2263624D01*
X56283216Y2331544D01*
X56135646Y2430147D01*
X56010147Y2555646D01*
X55911544Y2703216D01*
X55843624Y2867188D01*
X55809000Y3041259D01*
X55809000Y3218741D01*
X55843624Y3392812D01*
X55911544Y3556784D01*
X56010147Y3704354D01*
X56135646Y3829853D01*
X56283216Y3928456D01*
X56447188Y3996376D01*
X56596488Y4026073D01*
X56621258Y4031000D01*
X56798742Y4031000D01*
X56823512Y4026073D01*
G37*
G36*
X74603512Y4026073D02*
G01*
X74752812Y3996376D01*
X74916784Y3928456D01*
X75064354Y3829853D01*
X75189853Y3704354D01*
X75288456Y3556784D01*
X75356376Y3392812D01*
X75391000Y3218741D01*
X75391000Y3041259D01*
X75356376Y2867188D01*
X75288456Y2703216D01*
X75189853Y2555646D01*
X75064354Y2430147D01*
X74916784Y2331544D01*
X74752812Y2263624D01*
X74603512Y2233927D01*
X74578742Y2229000D01*
X74401258Y2229000D01*
X74376488Y2233927D01*
X74227188Y2263624D01*
X74063216Y2331544D01*
X73915646Y2430147D01*
X73790147Y2555646D01*
X73691544Y2703216D01*
X73623624Y2867188D01*
X73589000Y3041259D01*
X73589000Y3218741D01*
X73623624Y3392812D01*
X73691544Y3556784D01*
X73790147Y3704354D01*
X73915646Y3829853D01*
X74063216Y3928456D01*
X74227188Y3996376D01*
X74376488Y4026073D01*
X74401258Y4031000D01*
X74578742Y4031000D01*
X74603512Y4026073D01*
G37*
G36*
X3653512Y6056073D02*
G01*
X3802812Y6026376D01*
X3966784Y5958456D01*
X4114354Y5859853D01*
X4239853Y5734354D01*
X4338456Y5586784D01*
X4406376Y5422812D01*
X4441000Y5248741D01*
X4441000Y5071259D01*
X4406376Y4897188D01*
X4338456Y4733216D01*
X4239853Y4585646D01*
X4114354Y4460147D01*
X3966784Y4361544D01*
X3802812Y4293624D01*
X3653512Y4263927D01*
X3628742Y4259000D01*
X3451258Y4259000D01*
X3426488Y4263927D01*
X3277188Y4293624D01*
X3113216Y4361544D01*
X2965646Y4460147D01*
X2840147Y4585646D01*
X2741544Y4733216D01*
X2673624Y4897188D01*
X2639000Y5071259D01*
X2639000Y5248741D01*
X2673624Y5422812D01*
X2741544Y5586784D01*
X2840147Y5734354D01*
X2965646Y5859853D01*
X3113216Y5958456D01*
X3277188Y6026376D01*
X3426488Y6056073D01*
X3451258Y6061000D01*
X3628742Y6061000D01*
X3653512Y6056073D01*
G37*
G36*
X1113512Y6056073D02*
G01*
X1262812Y6026376D01*
X1426784Y5958456D01*
X1574354Y5859853D01*
X1699853Y5734354D01*
X1798456Y5586784D01*
X1866376Y5422812D01*
X1901000Y5248741D01*
X1901000Y5071259D01*
X1866376Y4897188D01*
X1798456Y4733216D01*
X1699853Y4585646D01*
X1574354Y4460147D01*
X1426784Y4361544D01*
X1262812Y4293624D01*
X1113512Y4263927D01*
X1088742Y4259000D01*
X911258Y4259000D01*
X886488Y4263927D01*
X737188Y4293624D01*
X573216Y4361544D01*
X425646Y4460147D01*
X300147Y4585646D01*
X201544Y4733216D01*
X133624Y4897188D01*
X99000Y5071259D01*
X99000Y5248741D01*
X133624Y5422812D01*
X201544Y5586784D01*
X300147Y5734354D01*
X425646Y5859853D01*
X573216Y5958456D01*
X737188Y6026376D01*
X886488Y6056073D01*
X911258Y6061000D01*
X1088742Y6061000D01*
X1113512Y6056073D01*
G37*
G36*
X56823512Y6566073D02*
G01*
X56972812Y6536376D01*
X57136784Y6468456D01*
X57284354Y6369853D01*
X57409853Y6244354D01*
X57508456Y6096784D01*
X57576376Y5932812D01*
X57611000Y5758741D01*
X57611000Y5581259D01*
X57576376Y5407188D01*
X57508456Y5243216D01*
X57409853Y5095646D01*
X57284354Y4970147D01*
X57136784Y4871544D01*
X56972812Y4803624D01*
X56823512Y4773927D01*
X56798742Y4769000D01*
X56621258Y4769000D01*
X56596488Y4773927D01*
X56447188Y4803624D01*
X56283216Y4871544D01*
X56135646Y4970147D01*
X56010147Y5095646D01*
X55911544Y5243216D01*
X55843624Y5407188D01*
X55809000Y5581259D01*
X55809000Y5758741D01*
X55843624Y5932812D01*
X55911544Y6096784D01*
X56010147Y6244354D01*
X56135646Y6369853D01*
X56283216Y6468456D01*
X56447188Y6536376D01*
X56596488Y6566073D01*
X56621258Y6571000D01*
X56798742Y6571000D01*
X56823512Y6566073D01*
G37*
G36*
X74603512Y6566073D02*
G01*
X74752812Y6536376D01*
X74916784Y6468456D01*
X75064354Y6369853D01*
X75189853Y6244354D01*
X75288456Y6096784D01*
X75356376Y5932812D01*
X75391000Y5758741D01*
X75391000Y5581259D01*
X75356376Y5407188D01*
X75288456Y5243216D01*
X75189853Y5095646D01*
X75064354Y4970147D01*
X74916784Y4871544D01*
X74752812Y4803624D01*
X74603512Y4773927D01*
X74578742Y4769000D01*
X74401258Y4769000D01*
X74376488Y4773927D01*
X74227188Y4803624D01*
X74063216Y4871544D01*
X73915646Y4970147D01*
X73790147Y5095646D01*
X73691544Y5243216D01*
X73623624Y5407188D01*
X73589000Y5581259D01*
X73589000Y5758741D01*
X73623624Y5932812D01*
X73691544Y6096784D01*
X73790147Y6244354D01*
X73915646Y6369853D01*
X74063216Y6468456D01*
X74227188Y6536376D01*
X74376488Y6566073D01*
X74401258Y6571000D01*
X74578742Y6571000D01*
X74603512Y6566073D01*
G37*
G36*
X3653512Y8596073D02*
G01*
X3802812Y8566376D01*
X3966784Y8498456D01*
X4114354Y8399853D01*
X4239853Y8274354D01*
X4338456Y8126784D01*
X4406376Y7962812D01*
X4441000Y7788741D01*
X4441000Y7611259D01*
X4406376Y7437188D01*
X4338456Y7273216D01*
X4239853Y7125646D01*
X4114354Y7000147D01*
X3966784Y6901544D01*
X3802812Y6833624D01*
X3653512Y6803927D01*
X3628742Y6799000D01*
X3451258Y6799000D01*
X3426488Y6803927D01*
X3277188Y6833624D01*
X3113216Y6901544D01*
X2965646Y7000147D01*
X2840147Y7125646D01*
X2741544Y7273216D01*
X2673624Y7437188D01*
X2639000Y7611259D01*
X2639000Y7788741D01*
X2673624Y7962812D01*
X2741544Y8126784D01*
X2840147Y8274354D01*
X2965646Y8399853D01*
X3113216Y8498456D01*
X3277188Y8566376D01*
X3426488Y8596073D01*
X3451258Y8601000D01*
X3628742Y8601000D01*
X3653512Y8596073D01*
G37*
G36*
X1113512Y8596073D02*
G01*
X1262812Y8566376D01*
X1426784Y8498456D01*
X1574354Y8399853D01*
X1699853Y8274354D01*
X1798456Y8126784D01*
X1866376Y7962812D01*
X1901000Y7788741D01*
X1901000Y7611259D01*
X1866376Y7437188D01*
X1798456Y7273216D01*
X1699853Y7125646D01*
X1574354Y7000147D01*
X1426784Y6901544D01*
X1262812Y6833624D01*
X1113512Y6803927D01*
X1088742Y6799000D01*
X911258Y6799000D01*
X886488Y6803927D01*
X737188Y6833624D01*
X573216Y6901544D01*
X425646Y7000147D01*
X300147Y7125646D01*
X201544Y7273216D01*
X133624Y7437188D01*
X99000Y7611259D01*
X99000Y7788741D01*
X133624Y7962812D01*
X201544Y8126784D01*
X300147Y8274354D01*
X425646Y8399853D01*
X573216Y8498456D01*
X737188Y8566376D01*
X886488Y8596073D01*
X911258Y8601000D01*
X1088742Y8601000D01*
X1113512Y8596073D01*
G37*
G36*
X56823512Y9106073D02*
G01*
X56972812Y9076376D01*
X57136784Y9008456D01*
X57284354Y8909853D01*
X57409853Y8784354D01*
X57508456Y8636784D01*
X57576376Y8472812D01*
X57611000Y8298741D01*
X57611000Y8121259D01*
X57576376Y7947188D01*
X57508456Y7783216D01*
X57409853Y7635646D01*
X57284354Y7510147D01*
X57136784Y7411544D01*
X56972812Y7343624D01*
X56823512Y7313927D01*
X56798742Y7309000D01*
X56621258Y7309000D01*
X56596488Y7313927D01*
X56447188Y7343624D01*
X56283216Y7411544D01*
X56135646Y7510147D01*
X56010147Y7635646D01*
X55911544Y7783216D01*
X55843624Y7947188D01*
X55809000Y8121259D01*
X55809000Y8298741D01*
X55843624Y8472812D01*
X55911544Y8636784D01*
X56010147Y8784354D01*
X56135646Y8909853D01*
X56283216Y9008456D01*
X56447188Y9076376D01*
X56596488Y9106073D01*
X56621258Y9111000D01*
X56798742Y9111000D01*
X56823512Y9106073D01*
G37*
G36*
X74603512Y9106073D02*
G01*
X74752812Y9076376D01*
X74916784Y9008456D01*
X75064354Y8909853D01*
X75189853Y8784354D01*
X75288456Y8636784D01*
X75356376Y8472812D01*
X75391000Y8298741D01*
X75391000Y8121259D01*
X75356376Y7947188D01*
X75288456Y7783216D01*
X75189853Y7635646D01*
X75064354Y7510147D01*
X74916784Y7411544D01*
X74752812Y7343624D01*
X74603512Y7313927D01*
X74578742Y7309000D01*
X74401258Y7309000D01*
X74376488Y7313927D01*
X74227188Y7343624D01*
X74063216Y7411544D01*
X73915646Y7510147D01*
X73790147Y7635646D01*
X73691544Y7783216D01*
X73623624Y7947188D01*
X73589000Y8121259D01*
X73589000Y8298741D01*
X73623624Y8472812D01*
X73691544Y8636784D01*
X73790147Y8784354D01*
X73915646Y8909853D01*
X74063216Y9008456D01*
X74227188Y9076376D01*
X74376488Y9106073D01*
X74401258Y9111000D01*
X74578742Y9111000D01*
X74603512Y9106073D01*
G37*
G36*
X1113512Y11136073D02*
G01*
X1262812Y11106376D01*
X1426784Y11038456D01*
X1574354Y10939853D01*
X1699853Y10814354D01*
X1798456Y10666784D01*
X1866376Y10502812D01*
X1901000Y10328741D01*
X1901000Y10151259D01*
X1866376Y9977188D01*
X1798456Y9813216D01*
X1699853Y9665646D01*
X1574354Y9540147D01*
X1426784Y9441544D01*
X1262812Y9373624D01*
X1113512Y9343927D01*
X1088742Y9339000D01*
X911258Y9339000D01*
X886488Y9343927D01*
X737188Y9373624D01*
X573216Y9441544D01*
X425646Y9540147D01*
X300147Y9665646D01*
X201544Y9813216D01*
X133624Y9977188D01*
X99000Y10151259D01*
X99000Y10328741D01*
X133624Y10502812D01*
X201544Y10666784D01*
X300147Y10814354D01*
X425646Y10939853D01*
X573216Y11038456D01*
X737188Y11106376D01*
X886488Y11136073D01*
X911258Y11141000D01*
X1088742Y11141000D01*
X1113512Y11136073D01*
G37*
G36*
X3653512Y11136073D02*
G01*
X3802812Y11106376D01*
X3966784Y11038456D01*
X4114354Y10939853D01*
X4239853Y10814354D01*
X4338456Y10666784D01*
X4406376Y10502812D01*
X4441000Y10328741D01*
X4441000Y10151259D01*
X4406376Y9977188D01*
X4338456Y9813216D01*
X4239853Y9665646D01*
X4114354Y9540147D01*
X3966784Y9441544D01*
X3802812Y9373624D01*
X3653512Y9343927D01*
X3628742Y9339000D01*
X3451258Y9339000D01*
X3426488Y9343927D01*
X3277188Y9373624D01*
X3113216Y9441544D01*
X2965646Y9540147D01*
X2840147Y9665646D01*
X2741544Y9813216D01*
X2673624Y9977188D01*
X2639000Y10151259D01*
X2639000Y10328741D01*
X2673624Y10502812D01*
X2741544Y10666784D01*
X2840147Y10814354D01*
X2965646Y10939853D01*
X3113216Y11038456D01*
X3277188Y11106376D01*
X3426488Y11136073D01*
X3451258Y11141000D01*
X3628742Y11141000D01*
X3653512Y11136073D01*
G37*
G36*
X75391000Y9849000D02*
G01*
X73589000Y9849000D01*
X73589000Y11651000D01*
X75391000Y11651000D01*
X75391000Y9849000D01*
G37*
G36*
X57611000Y9849000D02*
G01*
X55809000Y9849000D01*
X55809000Y11651000D01*
X57611000Y11651000D01*
X57611000Y9849000D01*
G37*
G36*
X68258642Y13440219D02*
G01*
X68404414Y13379838D01*
X68404416Y13379837D01*
X68535608Y13292178D01*
X68647178Y13180608D01*
X68734837Y13049416D01*
X68734838Y13049414D01*
X68795219Y12903642D01*
X68826000Y12748893D01*
X68826000Y12591107D01*
X68795219Y12436358D01*
X68760781Y12353218D01*
X68734837Y12290584D01*
X68647178Y12159392D01*
X68535608Y12047822D01*
X68404416Y11960163D01*
X68404415Y11960162D01*
X68404414Y11960162D01*
X68258642Y11899781D01*
X68103893Y11869000D01*
X67946107Y11869000D01*
X67791358Y11899781D01*
X67645586Y11960162D01*
X67645585Y11960162D01*
X67645584Y11960163D01*
X67514392Y12047822D01*
X67402822Y12159392D01*
X67315163Y12290584D01*
X67289219Y12353218D01*
X67254781Y12436358D01*
X67224000Y12591107D01*
X67224000Y12748893D01*
X67254781Y12903642D01*
X67315162Y13049414D01*
X67315163Y13049416D01*
X67402822Y13180608D01*
X67514392Y13292178D01*
X67645584Y13379837D01*
X67645586Y13379838D01*
X67791358Y13440219D01*
X67946107Y13471000D01*
X68103893Y13471000D01*
X68258642Y13440219D01*
G37*
G36*
X63408642Y13440219D02*
G01*
X63554414Y13379838D01*
X63554416Y13379837D01*
X63685608Y13292178D01*
X63797178Y13180608D01*
X63884837Y13049416D01*
X63884838Y13049414D01*
X63945219Y12903642D01*
X63976000Y12748893D01*
X63976000Y12591107D01*
X63945219Y12436358D01*
X63910781Y12353218D01*
X63884837Y12290584D01*
X63797178Y12159392D01*
X63685608Y12047822D01*
X63554416Y11960163D01*
X63554415Y11960162D01*
X63554414Y11960162D01*
X63408642Y11899781D01*
X63253893Y11869000D01*
X63096107Y11869000D01*
X62941358Y11899781D01*
X62795586Y11960162D01*
X62795585Y11960162D01*
X62795584Y11960163D01*
X62664392Y12047822D01*
X62552822Y12159392D01*
X62465163Y12290584D01*
X62439219Y12353218D01*
X62404781Y12436358D01*
X62374000Y12591107D01*
X62374000Y12748893D01*
X62404781Y12903642D01*
X62465162Y13049414D01*
X62465163Y13049416D01*
X62552822Y13180608D01*
X62664392Y13292178D01*
X62795584Y13379837D01*
X62795586Y13379838D01*
X62941358Y13440219D01*
X63096107Y13471000D01*
X63253893Y13471000D01*
X63408642Y13440219D01*
G37*
G36*
X4441000Y11879000D02*
G01*
X2639000Y11879000D01*
X2639000Y13681000D01*
X4441000Y13681000D01*
X4441000Y11879000D01*
G37*
G36*
X1113512Y13676073D02*
G01*
X1262812Y13646376D01*
X1426784Y13578456D01*
X1574354Y13479853D01*
X1699853Y13354354D01*
X1798456Y13206784D01*
X1866376Y13042812D01*
X1901000Y12868741D01*
X1901000Y12691259D01*
X1866376Y12517188D01*
X1798456Y12353216D01*
X1699853Y12205646D01*
X1574354Y12080147D01*
X1426784Y11981544D01*
X1262812Y11913624D01*
X1113512Y11883927D01*
X1088742Y11879000D01*
X911258Y11879000D01*
X886488Y11883927D01*
X737188Y11913624D01*
X573216Y11981544D01*
X425646Y12080147D01*
X300147Y12205646D01*
X201544Y12353216D01*
X133624Y12517188D01*
X99000Y12691259D01*
X99000Y12868741D01*
X133624Y13042812D01*
X201544Y13206784D01*
X300147Y13354354D01*
X425646Y13479853D01*
X573216Y13578456D01*
X737188Y13646376D01*
X886488Y13676073D01*
X911258Y13681000D01*
X1088742Y13681000D01*
X1113512Y13676073D01*
G37*
G36*
X56823512Y14186073D02*
G01*
X56972812Y14156376D01*
X57136784Y14088456D01*
X57284354Y13989853D01*
X57409853Y13864354D01*
X57508456Y13716784D01*
X57576376Y13552812D01*
X57611000Y13378741D01*
X57611000Y13201259D01*
X57576376Y13027188D01*
X57508456Y12863216D01*
X57409853Y12715646D01*
X57284354Y12590147D01*
X57136784Y12491544D01*
X56972812Y12423624D01*
X56823512Y12393927D01*
X56798742Y12389000D01*
X56621258Y12389000D01*
X56596488Y12393927D01*
X56447188Y12423624D01*
X56283216Y12491544D01*
X56135646Y12590147D01*
X56010147Y12715646D01*
X55911544Y12863216D01*
X55843624Y13027188D01*
X55809000Y13201259D01*
X55809000Y13378741D01*
X55843624Y13552812D01*
X55911544Y13716784D01*
X56010147Y13864354D01*
X56135646Y13989853D01*
X56283216Y14088456D01*
X56447188Y14156376D01*
X56596488Y14186073D01*
X56621258Y14191000D01*
X56798742Y14191000D01*
X56823512Y14186073D01*
G37*
G36*
X74603512Y14186073D02*
G01*
X74752812Y14156376D01*
X74916784Y14088456D01*
X75064354Y13989853D01*
X75189853Y13864354D01*
X75288456Y13716784D01*
X75356376Y13552812D01*
X75391000Y13378741D01*
X75391000Y13201259D01*
X75356376Y13027188D01*
X75288456Y12863216D01*
X75189853Y12715646D01*
X75064354Y12590147D01*
X74916784Y12491544D01*
X74752812Y12423624D01*
X74603512Y12393927D01*
X74578742Y12389000D01*
X74401258Y12389000D01*
X74376488Y12393927D01*
X74227188Y12423624D01*
X74063216Y12491544D01*
X73915646Y12590147D01*
X73790147Y12715646D01*
X73691544Y12863216D01*
X73623624Y13027188D01*
X73589000Y13201259D01*
X73589000Y13378741D01*
X73623624Y13552812D01*
X73691544Y13716784D01*
X73790147Y13864354D01*
X73915646Y13989853D01*
X74063216Y14088456D01*
X74227188Y14156376D01*
X74376488Y14186073D01*
X74401258Y14191000D01*
X74578742Y14191000D01*
X74603512Y14186073D01*
G37*
G36*
X68602395Y16614454D02*
G01*
X68775466Y16542766D01*
X68794793Y16529852D01*
X68931227Y16438690D01*
X69063690Y16306227D01*
X69096728Y16256782D01*
X69167766Y16150466D01*
X69239454Y15977395D01*
X69276000Y15793667D01*
X69276000Y15606333D01*
X69239454Y15422605D01*
X69167766Y15249534D01*
X69167765Y15249533D01*
X69063690Y15093773D01*
X68931227Y14961310D01*
X68882871Y14929000D01*
X68775466Y14857234D01*
X68602395Y14785546D01*
X68418667Y14749000D01*
X68231333Y14749000D01*
X68047605Y14785546D01*
X67874534Y14857234D01*
X67767129Y14929000D01*
X67718773Y14961310D01*
X67586310Y15093773D01*
X67482235Y15249533D01*
X67482234Y15249534D01*
X67410546Y15422605D01*
X67374000Y15606333D01*
X67374000Y15793667D01*
X67410546Y15977395D01*
X67482234Y16150466D01*
X67553272Y16256782D01*
X67586310Y16306227D01*
X67718773Y16438690D01*
X67855207Y16529852D01*
X67874534Y16542766D01*
X68047605Y16614454D01*
X68231333Y16651000D01*
X68418667Y16651000D01*
X68602395Y16614454D01*
G37*
G36*
X63152395Y16614454D02*
G01*
X63325466Y16542766D01*
X63344793Y16529852D01*
X63481227Y16438690D01*
X63613690Y16306227D01*
X63646728Y16256782D01*
X63717766Y16150466D01*
X63789454Y15977395D01*
X63826000Y15793667D01*
X63826000Y15606333D01*
X63789454Y15422605D01*
X63717766Y15249534D01*
X63717765Y15249533D01*
X63613690Y15093773D01*
X63481227Y14961310D01*
X63432871Y14929000D01*
X63325466Y14857234D01*
X63152395Y14785546D01*
X62968667Y14749000D01*
X62781333Y14749000D01*
X62597605Y14785546D01*
X62424534Y14857234D01*
X62317129Y14929000D01*
X62268773Y14961310D01*
X62136310Y15093773D01*
X62032235Y15249533D01*
X62032234Y15249534D01*
X61960546Y15422605D01*
X61924000Y15606333D01*
X61924000Y15793667D01*
X61960546Y15977395D01*
X62032234Y16150466D01*
X62103272Y16256782D01*
X62136310Y16306227D01*
X62268773Y16438690D01*
X62405207Y16529852D01*
X62424534Y16542766D01*
X62597605Y16614454D01*
X62781333Y16651000D01*
X62968667Y16651000D01*
X63152395Y16614454D01*
G37*
G36*
X74603512Y16726073D02*
G01*
X74752812Y16696376D01*
X74916784Y16628456D01*
X75064354Y16529853D01*
X75189853Y16404354D01*
X75288456Y16256784D01*
X75356376Y16092812D01*
X75391000Y15918741D01*
X75391000Y15741259D01*
X75356376Y15567188D01*
X75288456Y15403216D01*
X75189853Y15255646D01*
X75064354Y15130147D01*
X74916784Y15031544D01*
X74752812Y14963624D01*
X74603512Y14933927D01*
X74578742Y14929000D01*
X74401258Y14929000D01*
X74376488Y14933927D01*
X74227188Y14963624D01*
X74063216Y15031544D01*
X73915646Y15130147D01*
X73790147Y15255646D01*
X73691544Y15403216D01*
X73623624Y15567188D01*
X73589000Y15741259D01*
X73589000Y15918741D01*
X73623624Y16092812D01*
X73691544Y16256784D01*
X73790147Y16404354D01*
X73915646Y16529853D01*
X74063216Y16628456D01*
X74227188Y16696376D01*
X74376488Y16726073D01*
X74401258Y16731000D01*
X74578742Y16731000D01*
X74603512Y16726073D01*
G37*
G36*
X56823512Y16726073D02*
G01*
X56972812Y16696376D01*
X57136784Y16628456D01*
X57284354Y16529853D01*
X57409853Y16404354D01*
X57508456Y16256784D01*
X57576376Y16092812D01*
X57611000Y15918741D01*
X57611000Y15741259D01*
X57576376Y15567188D01*
X57508456Y15403216D01*
X57409853Y15255646D01*
X57284354Y15130147D01*
X57136784Y15031544D01*
X56972812Y14963624D01*
X56823512Y14933927D01*
X56798742Y14929000D01*
X56621258Y14929000D01*
X56596488Y14933927D01*
X56447188Y14963624D01*
X56283216Y15031544D01*
X56135646Y15130147D01*
X56010147Y15255646D01*
X55911544Y15403216D01*
X55843624Y15567188D01*
X55809000Y15741259D01*
X55809000Y15918741D01*
X55843624Y16092812D01*
X55911544Y16256784D01*
X56010147Y16404354D01*
X56135646Y16529853D01*
X56283216Y16628456D01*
X56447188Y16696376D01*
X56596488Y16726073D01*
X56621258Y16731000D01*
X56798742Y16731000D01*
X56823512Y16726073D01*
G37*
M02*
